<svg width="32" height="32" viewBox="0 0 32 32" fill="none" xmlns="http://www.w3.org/2000/svg">
<path d="M15.9986 23.0596C20.3352 23.0596 23.8632 19.5323 23.8632 15.1967C23.8609 13.1116 23.0315 11.1125 21.5571 9.63814C20.0827 8.16375 18.0837 7.3344 15.9986 7.33203C11.663 7.33203 8.13574 10.8601 8.13574 15.1967C8.13912 17.1804 8.8893 19.0902 10.237 20.5459L9.42368 23.5801C9.37565 23.7592 9.38184 23.9486 9.44145 24.1242C9.50106 24.2998 9.61142 24.4538 9.75857 24.5667C9.90572 24.6796 10.083 24.7463 10.2681 24.7584C10.4532 24.7705 10.6377 24.7274 10.7982 24.6346L13.9792 22.7966C14.638 22.9716 15.3169 23.06 15.9986 23.0596ZM13.3894 20.9721L11.8212 21.8783L12.188 20.5102C12.2321 20.3458 12.2305 20.1724 12.1835 20.0087C12.1366 19.8451 12.0459 19.6973 11.9212 19.5813C11.3159 19.0231 10.8334 18.3451 10.5045 17.5902C10.1755 16.8354 10.0074 16.0203 10.0107 15.197C10.0112 13.933 10.4117 12.7016 11.1549 11.6793C11.8982 10.6569 12.9459 9.89607 14.1481 9.50573C15.3503 9.11539 16.6452 9.11561 17.8472 9.50636C19.0492 9.8971 20.0967 10.6583 20.8396 11.6809C21.5825 12.7035 21.9826 13.935 21.9826 15.199C21.9826 16.463 21.5826 17.6945 20.8397 18.7171C20.0969 19.7397 19.0494 20.501 17.8473 20.8917C16.6453 21.2825 15.3504 21.2828 14.1482 20.8925C14.0233 20.8518 13.8911 20.8378 13.7604 20.8515C13.6297 20.8652 13.5033 20.9064 13.3894 20.9721ZM13.8082 15.1048C13.8113 15.1353 13.8127 15.166 13.8126 15.1967C13.8127 15.2275 13.8113 15.2584 13.8082 15.2892C13.8051 15.3192 13.8001 15.3498 13.7945 15.3798C13.7889 15.4098 13.7807 15.4398 13.772 15.4692C13.7632 15.4985 13.7526 15.5273 13.7407 15.5554C13.7289 15.5835 13.7157 15.6117 13.7014 15.6385C13.687 15.6654 13.6714 15.6917 13.6545 15.7173C13.6378 15.7429 13.6196 15.7675 13.6001 15.791C13.5807 15.8154 13.5595 15.8379 13.5382 15.8598C13.5164 15.8815 13.4934 15.9022 13.4695 15.9217C13.4457 15.941 13.4207 15.9592 13.3957 15.9767C13.3701 15.9929 13.3439 16.0092 13.3164 16.0235C13.2896 16.038 13.2621 16.0509 13.2339 16.0623C13.2057 16.0742 13.1769 16.0846 13.1476 16.0935C13.1182 16.1023 13.0882 16.1098 13.0582 16.116C13.0283 16.1221 12.998 16.1267 12.9676 16.1298C12.9061 16.1356 12.8441 16.1356 12.7826 16.1298C12.7522 16.1267 12.722 16.1221 12.692 16.116C12.662 16.1098 12.632 16.1023 12.6026 16.0935C12.5733 16.0846 12.5446 16.0742 12.5164 16.0623C12.4882 16.0509 12.4606 16.038 12.4339 16.0235C12.4064 16.0092 12.3801 15.9929 12.3545 15.9767C12.3295 15.9592 12.3045 15.941 12.2807 15.9217C12.2568 15.9022 12.2339 15.8815 12.212 15.8598C12.1907 15.8379 12.1695 15.8154 12.1501 15.791C12.1306 15.7675 12.1124 15.7429 12.0957 15.7173C12.0791 15.6917 12.0635 15.6654 12.0489 15.6385C12.0345 15.6117 12.0214 15.5835 12.0095 15.5554C11.9976 15.5273 11.9876 15.4985 11.9782 15.4692C11.9689 15.4398 11.962 15.4098 11.9557 15.3798C11.9433 15.3195 11.9372 15.2582 11.9376 15.1967C11.9376 15.166 11.9395 15.1354 11.942 15.1048C11.9445 15.0742 11.9501 15.0435 11.9557 15.0135C11.9614 14.9835 11.9695 14.9542 11.9782 14.9248C11.987 14.8954 11.9976 14.8667 12.0095 14.8385C12.0214 14.8104 12.0345 14.7823 12.0489 14.7554C12.0777 14.7013 12.1116 14.65 12.1501 14.6023C12.1695 14.5785 12.1907 14.5554 12.212 14.5342C12.2339 14.5124 12.2568 14.4917 12.2807 14.4723C12.3045 14.4529 12.3295 14.4342 12.3545 14.4173C12.3801 14.4003 12.4066 14.3847 12.4339 14.3704C12.4607 14.356 12.4882 14.3429 12.5164 14.331C12.5445 14.3198 12.5739 14.3092 12.6026 14.3004C12.632 14.2914 12.6618 14.2839 12.692 14.2779C12.8128 14.2534 12.9374 14.2534 13.0582 14.2779C13.0884 14.2839 13.1182 14.2914 13.1476 14.3004C13.1764 14.3092 13.2057 14.3198 13.2339 14.331C13.262 14.3423 13.2895 14.356 13.3164 14.3704C13.3436 14.3847 13.3701 14.4003 13.3957 14.4173C13.4207 14.4342 13.4457 14.4529 13.4695 14.4723C13.4934 14.4917 13.5164 14.5124 13.5382 14.5342C13.5595 14.5554 13.5807 14.5785 13.6001 14.6023C13.6386 14.65 13.6725 14.7013 13.7014 14.7554C13.7157 14.7823 13.7289 14.8104 13.7407 14.8385C13.7526 14.8667 13.7626 14.8954 13.772 14.9248C13.7814 14.9542 13.7882 14.9842 13.7945 15.0135C13.8007 15.0429 13.8051 15.0742 13.8082 15.1048ZM15.062 15.1967C15.0619 15.0736 15.086 14.9517 15.1331 14.838C15.1801 14.7242 15.2491 14.6209 15.3361 14.5338C15.423 14.4468 15.5263 14.3777 15.64 14.3306C15.7537 14.2834 15.8755 14.2592 15.9986 14.2592H16.0004C16.1858 14.2593 16.3669 14.3145 16.521 14.4176C16.675 14.5207 16.7951 14.6672 16.8659 14.8385C16.9367 15.0098 16.9551 15.1983 16.9189 15.3801C16.8826 15.5619 16.7932 15.7289 16.6621 15.8599C16.531 15.9909 16.3639 16.0801 16.1821 16.1162C16.0002 16.1523 15.8118 16.1337 15.6405 16.0627C15.4693 15.9917 15.3229 15.8716 15.2199 15.7174C15.117 15.5633 15.062 15.382 15.062 15.1967ZM18.1907 15.2889C18.1877 15.2582 18.1863 15.2273 18.1864 15.1964C18.1863 15.1657 18.1877 15.1351 18.1907 15.1045C18.1939 15.0739 18.1989 15.0433 18.2045 15.0133C18.2101 14.9833 18.2182 14.9539 18.227 14.9245C18.2358 14.8952 18.2463 14.8664 18.2582 14.8383C18.2695 14.8102 18.2832 14.782 18.297 14.7552C18.3264 14.7012 18.3605 14.65 18.3989 14.602C18.4182 14.5783 18.4395 14.5552 18.4607 14.5339C18.4826 14.5121 18.5056 14.4915 18.5295 14.472C18.553 14.4523 18.5776 14.4339 18.6032 14.417C18.6289 14.4004 18.6551 14.3847 18.682 14.3702C18.7089 14.3558 18.737 14.3427 18.7651 14.3308C18.7932 14.3189 18.8226 14.3089 18.8514 14.3002C18.8808 14.2911 18.9106 14.2836 18.9407 14.2777C19.0312 14.2593 19.1239 14.2546 19.2157 14.2639C19.2464 14.2669 19.2768 14.2715 19.307 14.2777C19.337 14.2835 19.3666 14.291 19.3957 14.3002C19.4251 14.3089 19.4545 14.3195 19.4826 14.3308C19.5107 14.342 19.5382 14.3558 19.5651 14.3702C19.5924 14.3844 19.6188 14.4001 19.6445 14.417C19.6695 14.4339 19.6945 14.4527 19.7182 14.472C19.7421 14.4913 19.7649 14.512 19.7864 14.5339C19.8082 14.5552 19.8289 14.5783 19.8489 14.602C19.8676 14.6258 19.8864 14.6508 19.9032 14.6764C19.9202 14.7018 19.9358 14.7281 19.9501 14.7552C19.9645 14.782 19.9776 14.8102 19.9895 14.8383C20.0013 14.8664 20.0115 14.8952 20.0201 14.9245C20.0294 14.9536 20.037 14.9833 20.0426 15.0133C20.0491 15.0434 20.0537 15.0739 20.0564 15.1045C20.0596 15.1351 20.0613 15.1657 20.0614 15.1964C20.0613 15.2273 20.0596 15.2582 20.0564 15.2889C20.0536 15.3194 20.049 15.3496 20.0426 15.3795C20.037 15.4098 20.0294 15.4396 20.0201 15.4689C20.0114 15.4982 20.0012 15.527 19.9895 15.5552C19.9776 15.5833 19.9645 15.6114 19.9501 15.6383C19.9357 15.6652 19.9201 15.6914 19.9032 15.717C19.8864 15.7427 19.8676 15.7677 19.8489 15.7908C19.8289 15.8152 19.8082 15.8377 19.7864 15.8595C19.7649 15.8814 19.7421 15.9021 19.7182 15.9214C19.6945 15.9408 19.6695 15.9589 19.6445 15.9758C19.6189 15.9929 19.5924 16.0088 19.5651 16.0233C19.5384 16.0377 19.5108 16.0506 19.4826 16.062C19.4543 16.074 19.4252 16.0845 19.3957 16.0933C19.367 16.102 19.337 16.1095 19.307 16.1158C19.2467 16.128 19.1854 16.1341 19.1239 16.1339C19.093 16.134 19.0621 16.1325 19.0314 16.1295C19.0009 16.1265 18.9707 16.1219 18.9407 16.1158C18.9107 16.1095 18.8807 16.102 18.8514 16.0933C18.8221 16.0844 18.7933 16.0739 18.7651 16.062C18.7367 16.0506 18.709 16.0377 18.682 16.0233C18.6551 16.0089 18.6289 15.9927 18.6032 15.9758C18.5776 15.9591 18.553 15.9409 18.5295 15.9214C18.5056 15.902 18.4826 15.8813 18.4607 15.8595C18.4395 15.8377 18.4182 15.8152 18.3989 15.7908C18.3794 15.7673 18.3612 15.7426 18.3445 15.717C18.3276 15.6914 18.3114 15.6652 18.297 15.6383C18.2826 15.6114 18.2695 15.5833 18.2582 15.5552C18.2464 15.527 18.2359 15.4982 18.227 15.4689C18.2182 15.4395 18.2107 15.4095 18.2045 15.3795C18.1982 15.3495 18.1939 15.3189 18.1907 15.2889Z" fill="#E4F1FE"/>
<path d="M31.4874 15.8669L31.4873 15.8681C31.4765 16.2735 31.4653 16.6931 31.4861 17.1626C31.5114 17.7479 31.4212 18.3324 31.2206 18.8828C31.0199 19.4332 30.7129 19.9387 30.3169 20.3704C29.9209 20.8021 29.4437 21.1516 28.9126 21.3988C28.3816 21.6461 27.807 21.7864 27.2217 21.8116C27.1525 21.8147 27.0834 21.8163 27.0145 21.8163C26.7003 21.8161 26.3871 21.7822 26.0801 21.7151C25.1704 23.1199 23.9775 24.3194 22.5776 25.2367C21.1776 26.154 19.6016 26.7689 17.9504 27.042C17.7551 27.6156 17.3656 28.1029 16.8491 28.4197C16.3327 28.7365 15.7218 28.8629 15.122 28.7771C14.5222 28.6913 13.9713 28.3986 13.5644 27.9497C13.1575 27.5007 12.9202 26.9237 12.8936 26.3184C12.867 25.7131 13.0527 25.1176 13.4186 24.6347C13.7846 24.1517 14.3077 23.8119 14.8976 23.6737C15.4876 23.5356 16.1072 23.6079 16.6495 23.8782C17.1918 24.1485 17.6225 24.5997 17.8674 25.1539C20.1919 24.7241 22.2918 23.4921 23.8012 21.6729C25.3106 19.8536 26.1338 17.5624 26.1272 15.1985C26.1272 9.61406 21.5827 5.07031 15.999 5.07031C10.4152 5.07031 5.87247 9.61381 5.87247 15.1985C5.87241 16.9254 6.31322 18.6237 7.15316 20.1326C7.17599 20.1722 7.19331 20.2147 7.20466 20.2589C7.29599 20.487 7.294 20.7418 7.19912 20.9683C7.10425 21.1949 6.92409 21.3751 6.69754 21.47C6.1553 21.6989 5.57266 21.8166 4.9841 21.8162C4.91447 21.8162 4.8447 21.8146 4.77479 21.8114C3.59396 21.7586 2.48226 21.2397 1.68344 20.3685C0.884628 19.4973 0.463907 18.3448 0.513536 17.1639C0.534349 16.6928 0.523224 16.2736 0.512411 15.8683L0.512382 15.8672C0.502204 15.4838 0.491679 15.0874 0.510036 14.6733C0.559891 13.5197 1.05532 12.4305 1.89206 11.6348C2.7288 10.8391 3.84159 10.3991 4.99622 10.4072C6.84985 6.16656 11.0828 3.19531 15.999 3.19531C20.9152 3.19531 25.1498 6.16663 27.0034 10.4073C28.1583 10.399 29.2714 10.8393 30.1082 11.6352C30.945 12.4312 31.4403 13.5209 31.4898 14.6748C31.5081 15.0873 31.4976 15.4837 31.4874 15.8669Z" fill="#0884F7"/>
</svg>
