<svg width="120" height="93" viewBox="0 0 120 93" fill="none" xmlns="http://www.w3.org/2000/svg">
<g clip-path="url(#clip0_1083_4159)">
<path d="M61.8693 22.0057C61.5255 20.9287 61.214 19.8839 60.8487 18.8607C59.9678 16.3618 58.9364 13.9384 57.3787 11.7734C56.8201 10.9872 56.7986 10.9872 57.3894 10.2224C60.3868 6.31263 64.1791 3.4799 68.7878 1.73502C72.3008 0.41021 75.9427 -0.0529359 79.6598 0.194793C88.6195 0.776419 95.1406 5.31094 99.7923 12.8182C101.404 15.4248 102.36 18.2575 102.833 21.2626C103.252 23.923 103.316 26.5941 102.972 29.2761C102.5 32.992 101.189 36.3848 99.1048 39.4868C98.7717 39.9823 98.7717 39.9715 99.2122 40.4023C102.628 43.7628 106.034 47.1233 109.45 50.4838C109.579 50.6131 109.783 50.71 109.773 50.947C109.622 51.1086 109.429 51.0332 109.268 51.0332C105.271 51.0332 101.275 51.0332 97.2677 51.0439C96.838 51.0439 96.5264 50.9039 96.2256 50.6131C94.9687 49.4175 93.6902 48.2435 92.4441 47.0479C92.1647 46.7787 91.9606 46.7571 91.6168 46.9725C88.5658 48.9005 85.2569 50.1499 81.701 50.7531C78.4458 51.3024 75.2014 51.2378 71.9785 50.4838C68.9382 49.773 66.1236 48.4805 63.513 46.7464C61.59 45.4646 59.7959 44.0106 58.1844 42.3519C56.9812 41.1132 56.0251 39.6807 55.1012 38.2374C53.5005 35.7493 52.1898 33.132 51.2981 30.2993C51.0188 29.3945 50.8577 28.4575 50.6643 27.5312C50.1164 24.86 49.2032 22.3181 47.9033 19.9162C46.5175 17.3743 44.7556 15.1447 42.3921 13.4322C40.0609 11.7411 37.4503 10.7718 34.6034 10.4271C33.3572 10.2763 32.1003 10.2224 30.8648 10.3517C29.0063 10.5456 27.2444 11.1164 25.59 11.9889C22.0985 13.8307 19.7457 16.6634 18.3492 20.3363C18.3169 20.4224 18.2954 20.5086 18.274 20.5948C18.2632 20.6271 18.2847 20.6594 18.2954 20.7025C18.4673 20.8317 18.6714 20.7671 18.8648 20.7671C27.47 20.7671 36.0752 20.7671 44.6804 20.7671C45.3357 20.7671 45.3357 20.7671 45.5613 21.3703C46.6249 24.1922 47.6777 27.0142 48.7305 29.8361C48.8702 30.2131 48.838 30.2777 48.4405 30.2993C48.3116 30.3101 48.1934 30.2993 48.0645 30.2993C38.3312 30.2993 28.6088 30.2993 18.8756 30.2993C18.6822 30.2993 18.4888 30.2562 18.3169 30.3424C18.2525 30.4932 18.3169 30.6116 18.3706 30.7194C19.7995 33.7998 21.7225 36.4925 24.419 38.5928C26.1916 39.9715 28.1791 40.8655 30.4029 41.124C32.0895 41.3286 33.7869 41.1994 35.4414 40.7362C38.2453 39.9607 40.727 38.539 43.0475 36.8156C43.5739 36.4279 43.5739 36.4171 44.0466 36.891C46.1415 38.9914 48.2363 41.0917 50.342 43.192C50.8039 43.6551 50.8039 43.6551 50.3098 44.1075C47.4414 46.7033 44.1647 48.5989 40.4799 49.7837C37.88 50.6239 35.205 51.0439 32.487 51.0008C28.974 50.9362 25.6329 50.0961 22.3563 48.8359C18.231 47.2526 15.1799 44.366 12.5479 40.9624C10.5067 38.3236 9.02417 35.3939 8.12176 32.1734C7.38048 29.5022 7.09042 26.7772 7.24083 24.0091C7.32677 22.5012 7.44494 21.0041 7.85318 19.5608C8.76634 16.3834 10.1415 13.4106 12.043 10.6964C14.3205 7.44357 17.1996 4.90165 20.7234 3.05984C22.9472 1.95044 25.214 1.04569 27.6312 0.53946C29.9302 0.0655433 32.2614 -0.117561 34.6034 0.0763141C39.7386 0.517919 44.3796 2.31665 48.5049 5.3648C52.6088 8.40217 55.6168 12.3551 57.7547 16.9865C59.0439 19.7869 59.9785 22.7058 60.5909 25.7217C61.3859 29.6423 63.3733 32.8735 66.0806 35.717C67.8747 37.6019 69.9588 39.0883 72.419 39.9823C74.7932 40.8547 77.2319 41.0809 79.735 40.7039C81.1853 40.4885 82.5819 40.1007 83.957 39.5838C84.086 39.5299 84.2256 39.476 84.3545 39.4222C84.5801 39.336 84.6231 39.2068 84.4512 39.0237C84.3653 38.9375 84.2793 38.8406 84.1826 38.7544C80.6052 35.1677 77.0385 31.5918 73.4611 28.0051C73.0206 27.5635 73.0313 27.5635 73.4611 27.1434C75.4163 25.237 77.3823 23.3306 79.3375 21.4133C79.8102 20.9502 79.8102 20.9502 80.2937 21.4349C83.8711 25.0108 87.4378 28.5975 91.0152 32.1734C91.0689 32.2273 91.1119 32.2811 91.1656 32.3242C91.4557 32.5935 91.5309 32.5827 91.692 32.2057C92.0036 31.4841 92.2614 30.7409 92.4655 29.9869C92.8523 28.5867 93.0779 27.1542 93.0886 25.7001C93.1209 21.8334 91.7887 18.4837 89.2641 15.5648C86.7717 12.6782 83.6347 11.0303 79.9069 10.4271C76.1146 9.81315 72.6016 10.4702 69.4432 12.7213C67.1979 14.3154 65.5005 16.3941 64.1683 18.7745C63.556 19.8731 62.7502 20.8317 62.0412 21.8549C62.0304 21.9196 61.966 21.9411 61.8693 22.0057Z" fill="url(#paint0_linear_1083_4159)"/>
<path d="M107.173 70.216C107.216 70.0114 107.119 69.839 107.022 69.6667C106.539 68.7081 105.937 67.8141 105.25 66.9955C104.917 66.597 104.53 66.2416 104.036 66.0477C103.338 65.7677 102.908 66.0585 102.919 66.8017C102.919 67.0171 102.929 67.2325 102.994 67.4371C103.09 67.7387 102.962 67.8249 102.693 67.8464C102.414 67.868 102.124 67.9003 101.844 67.9326C101.608 67.9649 101.511 67.8572 101.543 67.6202C101.683 66.7155 101.962 65.8754 102.693 65.2722C103.466 64.626 104.337 64.6475 105.207 65.0568C106.077 65.4553 106.7 66.1554 107.269 66.8878C107.957 67.7818 108.516 68.762 108.924 69.8175C109.031 70.0975 109.192 70.2053 109.483 70.1945C110.374 70.1837 111.266 70.1729 112.158 70.1945C112.813 70.2053 113.361 69.8929 113.361 69.0312C113.35 67.2648 113.404 65.4876 113.329 63.7212C113.307 63.3119 113.221 62.9026 113.157 62.5041C113.114 62.2348 113.167 62.0625 113.479 62.0086C113.833 61.9548 114.177 61.8578 114.51 61.7501C114.854 61.6424 114.919 61.804 114.919 62.0948C114.919 62.8811 114.919 63.6674 114.919 64.4536C114.919 65.9939 114.919 67.5341 114.919 69.0743C114.919 69.4728 114.876 69.8606 114.747 70.2376C114.446 71.0669 113.748 71.5516 112.802 71.5731C111.878 71.5947 110.944 71.6055 110.02 71.5947C106.99 71.5731 103.95 71.5839 100.92 71.5947C97.7404 71.6055 94.5604 71.5839 91.3912 71.5731C90.7359 71.5731 90.0698 71.5839 89.4145 71.5731C89.103 71.5624 88.974 71.6916 88.9096 71.9932C88.5658 73.5011 87.5774 74.3736 86.1486 74.8475C85.8586 74.9444 85.7189 74.8583 85.59 74.6105C85.4288 74.2982 85.6974 74.2443 85.8693 74.1581C86.7287 73.7165 87.2766 73.0272 87.4593 72.0686C87.5345 71.6593 87.4808 71.5947 87.0725 71.5839C86.718 71.5731 86.3635 71.5839 85.9982 71.5839C84.5694 71.5624 83.538 70.6792 83.2802 69.2682C82.9794 67.6095 83.7851 65.9508 85.2247 65.283C85.6652 65.0783 86.1379 64.9706 86.6213 64.9598C87.2659 64.9491 87.9105 64.9706 88.5443 64.9491C88.9311 64.9383 89.0278 65.0999 89.0278 65.4553C89.0063 66.8663 89.017 68.288 89.017 69.699C89.017 70.3022 89.017 70.3022 89.5971 70.3022C95.2695 70.3022 100.953 70.3022 106.625 70.3022C106.829 70.2914 107.012 70.356 107.173 70.216ZM87.5022 68.0295C87.5022 67.4371 87.5022 66.8555 87.5022 66.2631C87.5022 66.08 87.4915 65.9185 87.2444 65.8754C86.2668 65.6815 85.4181 66.1123 85.0528 67.0494C84.7735 67.771 84.7413 68.5035 84.9346 69.2467C85.0958 69.8283 85.4718 70.1406 86.0842 70.1837C86.4064 70.2052 86.7287 70.1729 87.0403 70.2052C87.4056 70.2376 87.5022 70.0652 87.5022 69.7313C87.4915 69.1712 87.5022 68.6004 87.5022 68.0295Z" fill="url(#paint1_linear_1083_4159)"/>
<path d="M13.7726 70.2052C15.3089 70.2052 16.8451 70.2052 18.3706 70.2052C18.8648 70.2052 19.3697 70.216 19.8639 70.2052C20.6267 70.1837 20.9812 69.839 20.9919 69.0851C21.0027 68.1157 21.0134 67.1571 20.8201 66.1985C20.6911 65.5522 20.6696 65.3799 21.4217 65.3261C21.4431 65.3261 21.4539 65.3153 21.4754 65.3153C22.5282 65.0783 22.5282 65.0783 22.5282 66.1877C22.5282 66.9955 22.5282 67.7926 22.5282 68.6004C22.5282 68.8266 22.5497 69.0635 22.5819 69.2897C22.6679 69.8929 22.9687 70.1837 23.581 70.1837C25.4181 70.1945 27.2551 70.1837 29.0922 70.1837C29.6938 70.1837 30.3062 70.1945 30.9078 70.1945C31.8424 70.1945 32.1755 69.8498 32.2292 68.902C32.2829 67.9326 32.1432 66.974 32.0036 66.0262C31.9499 65.66 32.0143 65.4876 32.3903 65.4445C32.6482 65.4122 32.906 65.3261 33.1638 65.2614C33.7117 65.1214 33.7225 65.1214 33.7225 65.7246C33.7225 66.5324 33.7225 67.3294 33.7225 68.1372C33.7225 68.4819 33.7225 68.8158 33.7225 69.1605C33.7117 70.7653 32.9167 71.5731 31.3268 71.5839C29.2748 71.5839 27.2229 71.5839 25.171 71.5839C24.5801 71.5839 23.9893 71.5731 23.4091 71.5839C22.9042 71.5947 22.41 71.5408 21.9696 71.2716C21.8084 71.1746 21.6795 71.1854 21.5291 71.2823C21.0886 71.5408 20.5944 71.5839 20.0895 71.5839C16.4906 71.5839 12.8809 71.5839 9.28201 71.5839C8.58371 71.5839 7.89615 71.5839 7.19785 71.5839C6.60698 71.5839 6.05909 71.4439 5.60788 71.0561C5.38227 70.8623 5.1889 70.873 4.93107 70.9808C4.36168 71.2069 3.74933 71.2823 3.14772 71.2393C1.89078 71.1531 1.10654 70.4637 0.827217 69.1066C0.472696 67.3725 1.09579 65.9184 2.72874 65.2507C3.22292 65.046 3.76007 64.9598 4.29723 64.9598C4.58729 64.9598 4.79141 64.9168 4.72695 64.5506C4.68398 64.3136 4.85586 64.2382 5.0385 64.1951C5.38227 64.109 5.72605 64.0336 6.08057 63.9582C6.49955 63.872 6.53178 63.9043 6.53178 64.3567C6.53178 65.7677 6.53178 67.1786 6.53178 68.6004C6.53178 70.0006 6.8111 70.2268 8.2077 70.2052C9.70098 70.1729 11.205 70.2053 12.6983 70.216C13.0636 70.2053 13.4181 70.2052 13.7726 70.2052ZM5.0385 67.9326C5.0385 67.4156 5.0385 66.8986 5.0385 66.3816C5.0385 66.1877 5.00627 66.0369 4.76992 65.9939C3.80304 65.8215 2.78245 66.3385 2.44942 67.2325C2.22381 67.8141 2.27753 68.4388 2.46016 69.0205C2.68577 69.7206 3.08326 69.9898 3.82453 69.9683C4.09311 69.9683 4.35094 69.9037 4.61952 69.8821C4.94181 69.8606 5.0385 69.6775 5.0385 69.3867C5.02775 68.902 5.0385 68.4173 5.0385 67.9326Z" fill="url(#paint2_linear_1083_4159)"/>
<path d="M74.6106 90.7237C75.0833 90.9499 75.5882 90.9714 76.0501 91.1115C76.2543 91.1761 76.4691 91.1976 76.6732 91.2407C76.8559 91.273 77.1459 91.2407 77.103 91.51C77.06 91.8115 76.9848 92.1454 76.7592 92.3824C76.6947 92.447 76.598 92.3932 76.5121 92.3609C75.3196 91.8869 74.0734 91.6069 72.8702 91.1761C72.6446 91.0899 72.376 91.1222 72.1289 91.0899C70.2811 90.8099 68.9275 89.5174 68.5515 87.6648C68.197 85.9091 68.3903 84.2396 69.5183 82.7856C71.2265 80.5776 75.3626 80.5668 76.684 83.8196C77.3071 85.3598 77.2748 86.9324 76.6732 88.4726C76.3295 89.345 75.7278 90.0236 74.8791 90.4652C74.7932 90.5083 74.675 90.5298 74.6106 90.7237ZM69.744 86.2323C69.7225 87.1047 69.8944 87.9448 70.3778 88.7095C71.5273 90.5621 74.0519 90.5944 75.137 88.7095C76.1039 87.0401 76.0824 85.2952 75.1262 83.6042C74.0734 81.7516 71.4091 81.8701 70.3885 83.6365C69.9266 84.4443 69.7225 85.2952 69.744 86.2323Z" fill="url(#paint3_linear_1083_4159)"/>
<path d="M62.6535 88.968C62.8469 88.6772 62.6858 83.9381 62.6643 81.7839C62.6643 81.5039 62.7717 81.3961 63.0403 81.3961C63.2014 81.3961 63.3626 81.3961 63.5237 81.3961C63.7386 81.4069 63.8353 81.5146 63.8353 81.7408C63.8353 84.692 63.8353 87.6432 63.8353 90.5944C63.8353 90.8422 63.7171 90.9391 63.4808 90.9607C63.1585 90.993 62.6106 91.0253 62.3742 90.9068C62.1916 90.8099 59.5595 86.243 58.3671 84.1212C58.2059 83.8304 58.12 83.4965 57.8514 83.238C57.6795 83.4318 57.7547 83.6365 57.7547 83.8088C57.8299 85.9738 57.8299 88.1387 57.8192 90.3036C57.8192 90.5083 57.9158 90.7775 57.6902 90.896C57.4217 91.036 57.0994 90.993 56.7986 90.9283C56.6159 90.8853 56.6589 90.7022 56.6589 90.5621C56.6589 89.8297 56.6589 89.0973 56.6589 88.3649C56.6589 86.2215 56.6589 84.0673 56.6589 81.9239C56.6589 81.4177 56.6697 81.4392 57.1531 81.3961C57.5076 81.3638 58.1737 81.3531 58.41 81.5254C58.5712 81.6331 62.4387 88.7526 62.6535 88.968Z" fill="url(#paint4_linear_1083_4159)"/>
<path d="M31.9284 85.9845C31.9284 87.1047 31.7457 88.0202 31.3053 88.8819C30.4673 90.4867 28.7377 91.3592 26.9114 91.1007C25.128 90.8529 23.7099 89.4958 23.3554 87.7079C23.0546 86.1999 23.162 84.7566 23.9141 83.3887C24.752 81.8808 26.5139 81.0192 28.2113 81.2669C30.0269 81.5362 31.316 82.7533 31.735 84.5412C31.8532 85.0798 31.9499 85.5968 31.9284 85.9845ZM24.5372 86.103C24.5372 87.1155 24.7198 88.031 25.2677 88.8496C26.385 90.5083 28.684 90.5298 29.8335 88.9034C30.188 88.3972 30.3921 87.8263 30.5103 87.2339C30.7789 85.9199 30.5962 84.6705 29.8765 83.5288C28.8022 81.827 26.256 81.8701 25.214 83.5934C24.7305 84.3904 24.5586 85.2413 24.5372 86.103Z" fill="url(#paint5_linear_1083_4159)"/>
<path d="M58.7645 69.3544C58.9042 69.2251 58.8612 69.0959 58.8612 68.9774C58.8612 67.7387 58.8398 66.5109 58.8612 65.2722C58.8827 64.389 58.7538 63.5273 58.5819 62.6657C58.496 62.2133 58.5282 62.1487 58.9794 62.0517C59.2695 61.9871 59.5703 61.9333 59.8711 61.8686C60.3223 61.7825 60.3653 61.8148 60.3653 62.2779C60.3653 63.3873 60.376 64.4967 60.3653 65.6061C60.3545 66.9525 60.419 68.288 60.333 69.6344C60.2578 70.7653 59.4199 71.5624 58.3026 71.5731C56.9812 71.5947 55.6598 71.5839 54.3384 71.5731C53.8979 71.5731 53.8657 71.5085 54.0591 71.11C54.5748 70.0221 54.3599 70.216 55.4664 70.1945C56.1432 70.1837 56.8201 70.1945 57.6258 70.1945C56.9919 68.9774 56.2829 67.9111 55.6813 66.8017C55.0797 65.6923 54.3277 64.6906 53.5112 63.7212C54.1343 63.5812 54.6929 63.6135 55.2516 63.635C55.4772 63.6458 55.5416 63.872 55.6383 64.0443C56.5945 65.6923 57.5506 67.351 58.5067 68.9989C58.5712 69.1282 58.6034 69.279 58.7645 69.3544Z" fill="url(#paint6_linear_1083_4159)"/>
<path d="M20.3259 86.4477C21.2175 86.9324 21.4754 87.7725 21.6688 88.6665C21.8084 89.2912 22.0018 89.9051 22.1629 90.5298C22.1952 90.6591 22.3026 90.7991 22.1522 90.9283C21.8621 91.1653 21.0027 90.9283 20.8953 90.5621C20.7234 90.0021 20.5945 89.4312 20.444 88.8603C20.3581 88.5157 20.2722 88.171 20.1325 87.8371C19.8639 87.2447 19.3912 86.9431 18.7681 86.8677C17.35 86.7062 17.35 86.7062 17.35 88.1171C17.35 88.8819 17.35 89.6574 17.35 90.4221C17.35 90.9499 17.3286 90.9714 16.8129 90.9714C16.684 90.9714 16.5658 90.9714 16.4369 90.9714C16.2005 90.9607 16.0716 90.8529 16.0824 90.6052C16.0824 90.5298 16.0824 90.4652 16.0824 90.3898C16.0824 87.6325 16.0824 84.8751 16.0824 82.1286C16.0824 81.5685 16.1146 81.5146 16.6732 81.4608C17.8442 81.3531 19.0152 81.2346 20.1755 81.5685C21.2068 81.8701 21.8299 82.5379 21.9481 83.6042C22.0663 84.6705 21.701 85.5322 20.7663 86.1138C20.6482 86.1892 20.4763 86.2215 20.3259 86.4477ZM17.35 84.0996C17.35 84.5628 17.35 85.0259 17.35 85.4998C17.35 85.6829 17.3608 85.8768 17.6186 85.8768C18.2632 85.8768 18.9078 85.9414 19.5309 85.7476C20.2614 85.5214 20.7556 84.8536 20.7771 84.0996C20.7986 83.3241 20.3474 82.721 19.5739 82.4517C18.9508 82.2363 18.3062 82.3332 17.6616 82.344C17.4145 82.3548 17.35 82.5271 17.35 82.7533C17.3608 83.2057 17.35 83.658 17.35 84.0996Z" fill="url(#paint7_linear_1083_4159)"/>
<path d="M40.9096 68.5465C40.8666 69.4944 40.9633 70.6145 40.8344 71.7455C40.6625 73.2426 39.3518 74.6644 37.8908 74.9013C37.59 74.9552 37.5148 74.7505 37.4288 74.5674C37.2999 74.3089 37.5255 74.2551 37.6759 74.1905C38.5354 73.8458 39.0403 73.1995 39.2659 72.3163C39.4056 71.7455 39.3518 71.6809 38.7932 71.8101C37.2462 72.1763 36.0859 71.6701 35.4628 70.3237C34.8398 68.9881 35.1728 67.0709 36.2149 66.0369C36.795 65.4553 37.504 65.1645 38.3312 65.143C39.0403 65.1322 39.7601 65.1537 40.4691 65.1322C40.7914 65.1214 40.9096 65.2507 40.9096 65.5738C40.8988 66.5108 40.9096 67.4371 40.9096 68.5465ZM39.4056 68.3742C39.4056 67.7495 39.4056 67.1248 39.4056 66.5001C39.4056 66.2954 39.3948 66.1231 39.1262 66.08C37.9875 65.8861 37.1388 66.4462 36.8165 67.5664C36.5909 68.3527 36.6231 69.1174 36.8487 69.8929C36.9776 70.3453 37.2247 70.7222 37.7081 70.83C38.1056 70.9161 38.5246 70.8838 38.9221 70.7976C39.2659 70.7222 39.427 70.5391 39.4056 70.1622C39.3841 69.5482 39.4056 68.9558 39.4056 68.3742Z" fill="url(#paint8_linear_1083_4159)"/>
<path d="M52.0824 71.4654C51.9642 73.4149 50.6965 74.4059 49.171 74.8798C48.8917 74.966 48.7735 74.8259 48.6661 74.6213C48.5372 74.3628 48.709 74.2658 48.9024 74.1905C49.8263 73.8242 50.342 73.1134 50.5246 72.1548C50.5998 71.767 50.5461 71.7024 50.1594 71.7886C49.504 71.9286 48.8487 72.0363 48.2149 71.7886C47.0761 71.3469 46.539 70.4314 46.4315 69.2682C46.3133 68.008 46.5819 66.8447 47.5595 65.9508C48.1182 65.4338 48.7842 65.1645 49.547 65.1537C50.2453 65.143 50.9436 65.1645 51.6312 65.1429C51.9964 65.1322 52.1361 65.2399 52.1253 65.6276C52.1039 66.597 52.1146 67.5556 52.1146 68.525C52.1146 68.5142 52.1468 70.4853 52.0824 71.4654ZM50.6428 68.3311C50.6428 67.728 50.6428 67.114 50.6428 66.5108C50.6428 66.3385 50.6643 66.1554 50.4172 66.0908C49.4825 65.843 48.4405 66.36 48.1182 67.2971C47.8066 68.1803 47.8174 69.0851 48.1074 69.9791C48.2471 70.3883 48.5049 70.733 48.9239 70.8192C49.3536 70.9161 49.8048 70.8838 50.2453 70.7546C50.5246 70.6684 50.6535 70.5176 50.6428 70.216C50.6213 69.5805 50.6428 68.9558 50.6428 68.3311Z" fill="url(#paint9_linear_1083_4159)"/>
<path d="M8.21844 84.8105C8.21844 85.5645 8.21844 86.3184 8.21844 87.0616C8.21844 87.5248 8.25067 87.9879 8.36885 88.4403C8.63742 89.4635 9.38944 90.0882 10.3993 90.1098C11.4414 90.1313 12.2471 89.5389 12.5372 88.5049C12.6768 88.0202 12.752 87.5355 12.752 87.0185C12.7413 85.3383 12.752 83.658 12.752 81.967C12.752 81.3961 12.752 81.3961 13.2999 81.3854C13.4288 81.3854 13.547 81.3854 13.6759 81.3854C13.9123 81.3961 14.0304 81.5039 14.0197 81.7624C13.9767 83.7657 14.1056 85.7691 13.9338 87.7725C13.9015 88.1279 13.8371 88.4726 13.7189 88.8173C13.2677 90.1852 12.2901 90.9176 10.8935 91.0899C10.2167 91.1761 9.53984 91.1115 8.89526 90.8422C7.84244 90.4006 7.33751 89.5389 7.07968 88.4726C6.9615 87.9448 6.94002 87.4063 6.94002 86.8785C6.94002 85.2306 6.94002 83.5826 6.94002 81.9347C6.94002 81.3962 6.94002 81.3961 7.46643 81.3854C7.52014 81.3854 7.57386 81.3854 7.62757 81.3854C8.19696 81.3854 8.2077 81.3962 8.2077 81.9455C8.21844 82.9148 8.21844 83.8627 8.21844 84.8105Z" fill="url(#paint10_linear_1083_4159)"/>
<path d="M54.5533 90.9714C53.9517 90.9714 53.9517 90.9714 53.7475 90.3683C53.5112 89.6897 53.2534 89.0327 53.0492 88.3433C52.9633 88.0525 52.8129 87.9771 52.5551 87.9771C51.6849 87.9771 50.8039 87.9879 49.9338 87.9771C49.6222 87.9771 49.4825 88.1171 49.4073 88.3864C49.1817 89.0973 48.9239 89.8082 48.7198 90.519C48.6231 90.8637 48.4405 90.993 48.1074 90.9607C47.9785 90.9499 47.8603 90.9607 47.7314 90.9607C47.3447 90.9391 47.3017 90.8745 47.4306 90.4975C48.3975 87.6648 49.3536 84.832 50.3205 81.9993C50.5246 81.4069 50.5246 81.4069 51.137 81.4069C51.2122 81.4069 51.2766 81.4069 51.3518 81.4069C52.0072 81.4069 52.0179 81.4069 52.222 82.0101C53.1674 84.7782 54.1128 87.5355 55.0582 90.3036C55.2731 90.9714 55.2731 90.9714 54.5533 90.9714ZM51.2551 82.8287C50.9866 83.0118 51.0295 83.2918 50.9543 83.518C50.632 84.4766 50.3205 85.446 49.9982 86.4154C49.8263 86.9324 49.8586 86.997 50.4172 86.997C51.0081 86.997 51.5989 87.0078 52.1898 86.997C52.598 86.9862 52.6303 86.9539 52.5013 86.5661C52.222 85.7045 51.932 84.8428 51.6419 83.9811C51.513 83.6042 51.4808 83.1949 51.2551 82.8287Z" fill="url(#paint11_linear_1083_4159)"/>
<path d="M90.65 81.4069C90.7574 81.4069 90.8648 81.4069 90.9722 81.4069C91.2838 81.3854 91.4342 81.5146 91.5416 81.827C92.4763 84.6166 93.4431 87.3955 94.3778 90.1744C94.6571 90.993 94.6464 90.9822 93.7654 90.9822C93.4109 90.9822 93.2605 90.8206 93.1638 90.5191C92.9382 89.8189 92.6804 89.1404 92.4655 88.4403C92.3688 88.1171 92.2184 87.9771 91.8639 87.9771C91.026 87.9987 90.188 87.9987 89.35 87.9771C89.0277 87.9664 88.8773 88.1064 88.7807 88.408C88.5765 89.0865 88.3402 89.7651 88.1146 90.4437C87.9427 90.9714 87.932 90.9714 87.3518 90.9714C86.6535 90.9714 86.6535 90.9607 86.8791 90.2821C87.8245 87.4924 88.7592 84.7136 89.7046 81.9239C89.8979 81.3961 89.8979 81.4069 90.65 81.4069ZM90.6607 82.7425C90.5533 82.8825 90.5103 82.9148 90.4888 82.9579C90.1558 84.1966 89.7153 85.4029 89.3071 86.6092C89.1996 86.9324 89.3715 86.9862 89.6186 86.9862C90.2739 86.9862 90.94 86.9754 91.5953 86.9862C91.8747 86.9862 92.0036 86.9 91.8961 86.6092C91.4986 85.3598 91.0474 84.1104 90.6607 82.7425Z" fill="url(#paint12_linear_1083_4159)"/>
<path d="M78.7144 84.8536C78.7144 83.8734 78.7252 82.8825 78.7037 81.9024C78.6929 81.5362 78.7896 81.3531 79.1764 81.3961C79.2516 81.4069 79.316 81.3961 79.3912 81.3961C79.9284 81.4069 79.9391 81.4069 79.9391 81.9347C79.9391 83.5288 79.9391 85.1228 79.9391 86.7169C79.9391 87.2339 79.9499 87.7617 80.0788 88.2679C80.3796 89.5281 81.1746 90.1744 82.2811 90.1097C83.4736 90.0344 84.2578 89.2589 84.4082 87.9664C84.462 87.5032 84.4942 87.0401 84.4942 86.5769C84.4834 85.0367 84.4834 83.4965 84.4942 81.9562C84.4942 81.7731 84.3975 81.5146 84.6553 81.45C84.9776 81.3746 85.3321 81.3423 85.6544 81.4931C85.7511 81.5362 85.7404 81.6762 85.7404 81.7839C85.7189 83.7657 85.8156 85.7583 85.6867 87.7402C85.6007 89.0758 85.085 90.2175 83.7744 90.7991C82.7323 91.2622 81.658 91.273 80.6052 90.8422C79.735 90.4867 79.2408 89.7866 78.9508 88.9142C78.7466 88.311 78.7144 87.6863 78.7144 87.0616C78.7144 86.3292 78.7144 85.586 78.7144 84.8536Z" fill="url(#paint13_linear_1083_4159)"/>
<path d="M0.0107439 86.1461C0.0107439 84.7459 0.0107439 83.3564 0.0107439 81.9562C0.0107439 81.4069 0.0107439 81.4069 0.526411 81.4069C1.90152 81.4069 3.27663 81.4069 4.65175 81.4069C4.82364 81.4069 5.05998 81.3531 5.12444 81.5577C5.19964 81.8054 5.22113 82.0962 5.10296 82.344C5.02775 82.5163 4.81289 82.4517 4.66249 82.4517C3.69561 82.4517 2.73948 82.4625 1.77261 82.4409C1.40734 82.4301 1.25694 82.5486 1.26768 82.9256C1.28917 83.6257 1.28917 84.3258 1.26768 85.0151C1.25694 85.3383 1.36437 85.4567 1.6974 85.446C2.62131 85.4244 3.55595 85.4352 4.47986 85.446C4.93107 85.446 4.94181 85.4783 4.94181 86.0061C4.93107 86.4907 4.93107 86.5015 4.46911 86.5015C3.57744 86.5015 2.68577 86.5015 1.79409 86.5015C1.27843 86.5015 1.27843 86.5015 1.27843 86.9862C1.27843 87.794 1.27843 88.6018 1.27843 89.3989C1.27843 89.9267 1.28917 89.9267 1.82632 89.9267C2.84691 89.9267 3.85676 89.9267 4.87735 89.9267C5.35005 89.9267 5.36079 89.9482 5.36079 90.4113C5.37153 90.9068 5.3393 90.9499 4.86661 90.9499C3.38407 90.9606 1.90152 90.9499 0.41898 90.9607C0.0966884 90.9607 -0.0107422 90.8637 -0.0107422 90.5298C0.0107439 89.0758 0.0107439 87.6109 0.0107439 86.1461Z" fill="url(#paint14_linear_1083_4159)"/>
<path d="M41.0385 86.1353C41.0385 84.7243 41.0492 83.3026 41.0278 81.8916C41.0278 81.5146 41.1459 81.3854 41.5112 81.3854C42.9185 81.3961 44.3366 81.3961 45.744 81.3854C46.1415 81.3854 46.2167 81.5685 46.1952 81.9132C46.1737 82.4086 46.1737 82.4302 45.744 82.4302C44.7771 82.4409 43.8209 82.4302 42.8541 82.4302C42.3062 82.4302 42.3062 82.4302 42.3062 82.9472C42.3062 83.6042 42.3062 84.272 42.3062 84.929C42.3062 85.4137 42.3169 85.4137 42.8218 85.4137C43.7135 85.4137 44.6052 85.4137 45.4969 85.4137C45.9588 85.4137 45.9803 85.446 45.9696 85.963C45.9696 86.4477 45.9481 86.4692 45.5076 86.4692C44.5837 86.48 43.6491 86.48 42.7252 86.4692C42.4029 86.4585 42.2847 86.5662 42.2954 86.9C42.3169 87.7402 42.2954 88.5803 42.3062 89.4204C42.3062 89.9051 42.3169 89.9051 42.8326 89.9159C43.8532 89.9159 44.863 89.9159 45.8836 89.9159C46.3671 89.9159 46.6034 90.3359 46.3993 90.7775C46.3133 90.9607 46.1415 90.9391 45.9803 90.9391C45.2713 90.9391 44.5515 90.9391 43.8424 90.9391C43.1119 90.9391 42.3814 90.9391 41.6509 90.9391C41.0492 90.9391 41.0492 90.9391 41.0492 90.3575C41.0385 88.968 41.0385 87.5571 41.0385 86.1353Z" fill="url(#paint15_linear_1083_4159)"/>
<path d="M71.0116 71.5839C69.2175 71.6162 67.7995 70.3668 67.8747 68.0188C67.8961 67.4802 67.9821 66.9525 68.2077 66.457C68.8201 65.0999 70.0233 64.529 71.4736 64.626C72.9561 64.7229 73.88 65.5953 74.2131 67.0494C74.3957 67.8357 74.3635 68.6112 74.1379 69.3759C73.7189 70.7546 72.5371 71.5839 71.0116 71.5839ZM72.6661 68.1049C72.6768 67.7064 72.6231 67.3187 72.5371 66.9309C72.3653 66.1554 71.8711 65.6923 71.162 65.6815C70.3778 65.6707 69.8192 66.1231 69.6365 66.9094C69.4431 67.728 69.4539 68.5358 69.6473 69.3544C69.8192 70.1083 70.3671 70.5391 71.0976 70.5284C71.8174 70.5176 72.3653 70.076 72.5264 69.322C72.6124 68.9235 72.6768 68.5142 72.6661 68.1049Z" fill="url(#paint16_linear_1083_4159)"/>
<path d="M33.5291 86.2107C33.5291 84.8213 33.5291 83.4211 33.5291 82.0316C33.5291 81.5146 33.5291 81.4931 34.0555 81.45C35.1943 81.3423 36.3223 81.2238 37.4503 81.5469C38.4602 81.8377 39.137 82.4625 39.3303 83.518C39.5345 84.7028 39.2981 85.7691 38.2668 86.5123C37.3751 87.1478 36.333 87.2878 35.2587 87.2232C34.7968 87.2016 34.7753 87.2016 34.7645 87.6648C34.7538 88.5803 34.7645 89.485 34.7645 90.4006C34.7645 90.9499 34.7538 90.9607 34.1844 90.9607C34.0985 90.9607 34.0018 90.9607 33.9158 90.9607C33.6043 90.993 33.5184 90.8314 33.5291 90.5406C33.5398 89.3989 33.5291 88.2572 33.5291 87.1155C33.5291 86.8246 33.5291 86.5123 33.5291 86.2107ZM34.7645 84.2935C34.7645 84.7782 34.7645 85.2521 34.7645 85.7368C34.7645 85.9414 34.786 86.1569 35.0439 86.1784C35.7744 86.2215 36.5049 86.2861 37.1817 85.9307C37.88 85.5645 38.2238 84.8428 38.1379 83.9381C38.0734 83.2056 37.6222 82.6994 36.8702 82.4625C36.3653 82.3009 35.8496 82.3332 35.3339 82.344C34.8397 82.3548 34.7753 82.4301 34.7645 82.9041C34.7538 83.3672 34.7645 83.8304 34.7645 84.2935Z" fill="url(#paint17_linear_1083_4159)"/>
<path d="M116.38 85.8661C117.013 84.6382 117.637 83.4318 118.26 82.2363C118.722 81.3315 118.904 81.2454 119.936 81.45C119.946 81.45 119.957 81.4715 119.979 81.4931C120.043 81.6546 119.903 81.7516 119.828 81.8593C118.926 83.4211 118.013 84.9721 117.099 86.5338C116.938 86.8031 116.874 87.0832 116.874 87.3955C116.885 88.4187 116.885 89.4312 116.874 90.4544C116.874 90.9499 116.852 90.9606 116.358 90.9714C116.283 90.9714 116.218 90.9714 116.143 90.9714C115.66 90.9606 115.628 90.9283 115.617 90.4544C115.617 89.4743 115.606 88.4834 115.628 87.5032C115.638 87.0939 115.531 86.7385 115.338 86.383C114.51 84.8859 113.683 83.378 112.867 81.8808C112.802 81.7731 112.759 81.6654 112.684 81.5254C113.092 81.3208 113.5 81.4069 113.898 81.4392C114.124 81.4608 114.177 81.6977 114.263 81.8701C114.876 83.0764 115.477 84.2935 116.079 85.5106C116.154 85.6183 116.186 85.7691 116.38 85.8661Z" fill="url(#paint18_linear_1083_4159)"/>
<path d="M109.16 86.7493C109.16 87.9664 109.16 89.1835 109.16 90.4006C109.16 90.9714 109.16 90.9714 108.602 90.9714C108.494 90.9714 108.387 90.9714 108.279 90.9714C107.979 90.9822 107.871 90.8422 107.882 90.5406C107.893 89.6789 107.882 88.828 107.882 87.9664C107.882 86.3076 107.882 84.6382 107.882 82.9795C107.882 82.4732 107.871 82.4732 107.377 82.4625C106.754 82.4625 106.131 82.4625 105.508 82.4625C105.003 82.4625 104.992 82.4517 104.992 81.9562C104.992 81.45 105.003 81.4177 105.475 81.4069C107.527 81.3961 109.579 81.3961 111.631 81.4069C112.061 81.4069 112.061 81.4392 112.072 81.9885C112.082 82.3117 112.018 82.484 111.642 82.4732C110.997 82.4409 110.353 82.4625 109.719 82.4625C109.182 82.4625 109.171 82.4732 109.171 82.9902C109.16 84.2396 109.16 85.4998 109.16 86.7493Z" fill="url(#paint19_linear_1083_4159)"/>
<path d="M96.0322 86.1245C96.0322 84.7243 96.0322 83.3349 96.0322 81.9347C96.0322 81.4069 96.043 81.3961 96.5801 81.3961C96.7198 81.3961 96.8702 81.3961 97.0098 81.4069C97.2032 81.4177 97.2999 81.5146 97.2892 81.7193C97.2784 81.8485 97.2892 81.967 97.2892 82.0963C97.2892 84.5089 97.2892 86.9216 97.2892 89.345C97.2892 89.9374 97.2999 89.9482 97.88 89.9482C98.8791 89.9482 99.8783 89.9482 100.877 89.9482C101.339 89.9482 101.35 89.9697 101.35 90.4437C101.35 90.9499 101.339 90.9714 100.856 90.9714C99.4055 90.9714 97.966 90.9714 96.5157 90.9714C96.0645 90.9714 96.0322 90.9391 96.0322 90.476C96.0215 89.0219 96.0322 87.5786 96.0322 86.1245Z" fill="url(#paint20_linear_1083_4159)"/>
<path d="M78.8004 71.5839C77.9409 71.5839 77.0815 71.5839 76.2328 71.5839C75.8353 71.5839 75.7708 71.5085 75.8782 71.1423C76.2005 70.1406 75.9857 70.1945 77.0815 70.2052C77.8979 70.2052 78.7252 70.1837 79.5416 70.216C79.9284 70.2268 80.0465 70.0868 80.0358 69.7206C80.0143 69.1174 80.0251 68.5035 80.0251 67.9003C80.0251 67.5018 79.8961 67.1248 79.7243 66.7694C79.4664 66.2416 79.0582 65.9185 78.4458 65.9939C78.0806 66.0369 78.0268 65.8431 78.0054 65.563C77.9839 65.2614 78.1235 65.1645 78.4136 65.143C79.9714 65.046 81.3142 66.2631 81.5398 67.9865C81.6473 68.805 81.5398 69.6344 81.6365 70.453C81.658 70.6899 81.6902 70.9161 81.744 71.1423C81.8192 71.4547 81.7332 71.6055 81.3787 71.5947C80.5085 71.5732 79.6598 71.5839 78.8004 71.5839Z" fill="url(#paint21_linear_1083_4159)"/>
<path d="M63.803 70.9807C63.803 71.5839 63.803 71.5947 63.2229 71.5839C62.2023 71.5731 62.2883 71.7239 62.2883 70.6361C62.2883 68.8481 62.2453 63.3119 62.1271 62.3318C62.0842 61.9656 62.2131 61.8471 62.5461 61.8363C62.9006 61.8255 63.2551 61.804 63.6097 61.7609C63.8782 61.7286 63.9642 61.8363 63.9534 62.084C63.9534 62.1594 63.803 69.6882 63.803 70.9807Z" fill="url(#paint22_linear_1083_4159)"/>
<path d="M116.809 67.1894C116.809 66.1877 116.799 65.186 116.809 64.1843C116.82 63.5596 116.723 62.9349 116.648 62.321C116.605 61.9655 116.745 61.8363 117.078 61.8363C117.432 61.8255 117.787 61.7932 118.141 61.7609C118.367 61.7394 118.485 61.8255 118.474 62.0517C118.474 62.1271 118.474 62.1917 118.464 62.2671C118.195 65.1537 118.389 68.0511 118.324 70.9377C118.324 71.0454 118.346 71.1531 118.324 71.2608C118.184 71.8532 117.712 71.5085 117.4 71.5731C117.164 71.6162 116.831 71.6916 116.799 71.2608C116.788 71.1531 116.799 71.0454 116.799 70.9377C116.809 69.6882 116.809 68.4388 116.809 67.1894Z" fill="url(#paint23_linear_1083_4159)"/>
<path d="M44.9597 68.4927C44.9167 69.419 45.0242 70.5284 44.8953 71.6378C44.6697 73.555 43.2086 74.492 41.9517 74.8798C41.6616 74.966 41.5649 74.7936 41.4682 74.589C41.35 74.3305 41.5649 74.2874 41.7153 74.2228C42.8648 73.7058 43.4235 72.8118 43.4127 71.5624C43.4127 70.216 43.402 68.8804 43.3912 67.5341C43.3912 67.0494 43.2516 66.5863 43.1871 66.1016C43.1227 65.5953 43.1334 65.5738 43.6276 65.4445C43.9176 65.3691 44.2184 65.3045 44.5085 65.2291C44.8845 65.143 44.949 65.186 44.949 65.5738C44.9705 66.4893 44.9597 67.3941 44.9597 68.4927Z" fill="url(#paint24_linear_1083_4159)"/>
<path d="M103.939 86.1676C103.939 87.5786 103.939 89.0004 103.939 90.4113C103.939 90.9714 103.939 90.9714 103.359 90.9714C103.23 90.9714 103.112 90.9714 102.983 90.9607C102.822 90.9499 102.725 90.8637 102.725 90.6806C102.725 90.6268 102.725 90.5729 102.725 90.5191C102.725 87.6217 102.725 84.7243 102.725 81.827C102.725 81.5254 102.822 81.3854 103.123 81.4069C103.198 81.4069 103.262 81.4069 103.338 81.4069C103.95 81.4069 103.95 81.4069 103.95 82.0424C103.939 83.4103 103.939 84.789 103.939 86.1676Z" fill="url(#paint25_linear_1083_4159)"/>
<path d="M55.9176 62.0302C56.0895 62.2348 55.8747 62.2348 55.8317 62.2456C55.778 62.2456 53.017 62.321 52.9311 62.2456C52.9096 62.2348 52.9096 62.2025 52.9203 62.1702C52.9311 62.084 52.8988 61.7394 52.9311 61.6963C52.9955 61.6209 53.1782 61.6532 53.3071 61.6424C53.7046 61.5886 53.5434 61.3732 53.5864 61.1793C53.769 60.3392 54.6392 59.9406 55.3697 60.3499C55.5201 60.4361 55.778 60.4899 55.5846 60.7161C55.5524 61.0393 55.3483 60.8562 55.1871 60.7915C54.9185 60.6731 54.6607 60.6838 54.4673 60.9531C54.3384 61.1254 54.2739 61.3085 54.3384 61.5024C54.4244 61.7286 54.65 61.6424 54.8218 61.6532C54.9508 61.664 55.0797 61.6424 55.2086 61.6209C55.5739 61.5563 55.7028 61.7717 55.9176 62.0302Z" fill="url(#paint26_linear_1083_4159)"/>
<path d="M3.8675 62.3425C3.85676 62.8595 3.45927 63.2581 2.95434 63.2473C2.46016 63.2365 2.04118 62.8164 2.04118 62.3102C2.04118 61.7932 2.50313 61.3516 3.00806 61.3732C3.51298 61.4055 3.87825 61.804 3.8675 62.3425Z" fill="url(#paint27_linear_1083_4159)"/>
<path d="M70.8935 62.7195C70.8827 63.1827 70.41 63.6243 69.9373 63.6243C69.4217 63.6243 68.9812 63.1503 69.0134 62.6441C69.0457 62.1487 69.4754 61.7609 69.9803 61.7824C70.4852 61.804 70.9149 62.2456 70.8935 62.7195Z" fill="url(#paint28_linear_1083_4159)"/>
<path d="M5.42525 61.3732C5.90868 61.3839 6.32766 61.8148 6.32766 62.321C6.32766 62.8272 5.90868 63.2473 5.40376 63.2473C4.86661 63.2473 4.45837 62.8164 4.47986 62.2779C4.50134 61.7717 4.92032 61.3732 5.42525 61.3732Z" fill="url(#paint29_linear_1083_4159)"/>
<path d="M73.2784 62.7087C73.2784 63.215 72.8702 63.6243 72.376 63.635C71.8818 63.635 71.4628 63.2257 71.4521 62.7303C71.4414 62.1917 71.8389 61.7932 72.3867 61.7932C72.9024 61.7932 73.2784 62.181 73.2784 62.7087Z" fill="url(#paint30_linear_1083_4159)"/>
<path d="M20.2722 74.0504C20.2614 74.5567 19.8639 74.9552 19.3483 74.9552C18.8541 74.9552 18.4244 74.5459 18.4244 74.0504C18.4244 73.5442 18.8756 73.1026 19.3805 73.1134C19.8962 73.1241 20.2829 73.5334 20.2722 74.0504Z" fill="url(#paint31_linear_1083_4159)"/>
<path d="M105.379 73.1134C105.873 73.1241 106.281 73.5442 106.27 74.0504C106.26 74.5567 105.862 74.9552 105.357 74.9552C104.82 74.9552 104.433 74.5459 104.444 73.9966C104.455 73.4903 104.874 73.0918 105.379 73.1134Z" fill="url(#paint32_linear_1083_4159)"/>
<path d="M21.7977 73.1026C22.2919 73.1134 22.7216 73.5442 22.7108 74.0289C22.7108 74.5243 22.2811 74.9336 21.7762 74.9444C21.2605 74.9444 20.8738 74.5459 20.8738 74.0181C20.8845 73.5227 21.3035 73.1026 21.7977 73.1026Z" fill="url(#paint33_linear_1083_4159)"/>
<path d="M32.8953 74.0181C32.8953 74.5244 32.487 74.9336 31.9821 74.9444C31.4772 74.9552 31.0689 74.5459 31.0582 74.0289C31.0582 73.5227 31.4664 73.1026 31.9606 73.0918C32.4763 73.1026 32.8953 73.5119 32.8953 74.0181Z" fill="url(#paint34_linear_1083_4159)"/>
</g>
<defs>
<linearGradient id="paint0_linear_1083_4159" x1="-84.1379" y1="-76.5517" x2="234.483" y2="145.517" gradientUnits="userSpaceOnUse">
<stop stop-color="white"/>
<stop offset="1" stop-color="#DAECFF"/>
</linearGradient>
<linearGradient id="paint1_linear_1083_4159" x1="-84.1379" y1="-76.5517" x2="234.483" y2="145.517" gradientUnits="userSpaceOnUse">
<stop stop-color="white"/>
<stop offset="1" stop-color="#DAECFF"/>
</linearGradient>
<linearGradient id="paint2_linear_1083_4159" x1="-84.1379" y1="-76.5517" x2="234.483" y2="145.517" gradientUnits="userSpaceOnUse">
<stop stop-color="white"/>
<stop offset="1" stop-color="#DAECFF"/>
</linearGradient>
<linearGradient id="paint3_linear_1083_4159" x1="-84.1379" y1="-76.5517" x2="234.483" y2="145.517" gradientUnits="userSpaceOnUse">
<stop stop-color="white"/>
<stop offset="1" stop-color="#DAECFF"/>
</linearGradient>
<linearGradient id="paint4_linear_1083_4159" x1="-84.1379" y1="-76.5517" x2="234.483" y2="145.517" gradientUnits="userSpaceOnUse">
<stop stop-color="white"/>
<stop offset="1" stop-color="#DAECFF"/>
</linearGradient>
<linearGradient id="paint5_linear_1083_4159" x1="-84.1379" y1="-76.5517" x2="234.483" y2="145.517" gradientUnits="userSpaceOnUse">
<stop stop-color="white"/>
<stop offset="1" stop-color="#DAECFF"/>
</linearGradient>
<linearGradient id="paint6_linear_1083_4159" x1="-84.1379" y1="-76.5517" x2="234.483" y2="145.517" gradientUnits="userSpaceOnUse">
<stop stop-color="white"/>
<stop offset="1" stop-color="#DAECFF"/>
</linearGradient>
<linearGradient id="paint7_linear_1083_4159" x1="-84.1379" y1="-76.5517" x2="234.483" y2="145.517" gradientUnits="userSpaceOnUse">
<stop stop-color="white"/>
<stop offset="1" stop-color="#DAECFF"/>
</linearGradient>
<linearGradient id="paint8_linear_1083_4159" x1="-84.1379" y1="-76.5517" x2="234.483" y2="145.517" gradientUnits="userSpaceOnUse">
<stop stop-color="white"/>
<stop offset="1" stop-color="#DAECFF"/>
</linearGradient>
<linearGradient id="paint9_linear_1083_4159" x1="-84.1379" y1="-76.5517" x2="234.483" y2="145.517" gradientUnits="userSpaceOnUse">
<stop stop-color="white"/>
<stop offset="1" stop-color="#DAECFF"/>
</linearGradient>
<linearGradient id="paint10_linear_1083_4159" x1="-84.1379" y1="-76.5517" x2="234.483" y2="145.517" gradientUnits="userSpaceOnUse">
<stop stop-color="white"/>
<stop offset="1" stop-color="#DAECFF"/>
</linearGradient>
<linearGradient id="paint11_linear_1083_4159" x1="-84.1379" y1="-76.5517" x2="234.483" y2="145.517" gradientUnits="userSpaceOnUse">
<stop stop-color="white"/>
<stop offset="1" stop-color="#DAECFF"/>
</linearGradient>
<linearGradient id="paint12_linear_1083_4159" x1="-84.1379" y1="-76.5517" x2="234.483" y2="145.517" gradientUnits="userSpaceOnUse">
<stop stop-color="white"/>
<stop offset="1" stop-color="#DAECFF"/>
</linearGradient>
<linearGradient id="paint13_linear_1083_4159" x1="-84.1379" y1="-76.5517" x2="234.483" y2="145.517" gradientUnits="userSpaceOnUse">
<stop stop-color="white"/>
<stop offset="1" stop-color="#DAECFF"/>
</linearGradient>
<linearGradient id="paint14_linear_1083_4159" x1="-84.1379" y1="-76.5517" x2="234.483" y2="145.517" gradientUnits="userSpaceOnUse">
<stop stop-color="white"/>
<stop offset="1" stop-color="#DAECFF"/>
</linearGradient>
<linearGradient id="paint15_linear_1083_4159" x1="-84.1379" y1="-76.5517" x2="234.483" y2="145.517" gradientUnits="userSpaceOnUse">
<stop stop-color="white"/>
<stop offset="1" stop-color="#DAECFF"/>
</linearGradient>
<linearGradient id="paint16_linear_1083_4159" x1="-84.1379" y1="-76.5517" x2="234.483" y2="145.517" gradientUnits="userSpaceOnUse">
<stop stop-color="white"/>
<stop offset="1" stop-color="#DAECFF"/>
</linearGradient>
<linearGradient id="paint17_linear_1083_4159" x1="-84.1379" y1="-76.5517" x2="234.483" y2="145.517" gradientUnits="userSpaceOnUse">
<stop stop-color="white"/>
<stop offset="1" stop-color="#DAECFF"/>
</linearGradient>
<linearGradient id="paint18_linear_1083_4159" x1="-84.1379" y1="-76.5517" x2="234.483" y2="145.517" gradientUnits="userSpaceOnUse">
<stop stop-color="white"/>
<stop offset="1" stop-color="#DAECFF"/>
</linearGradient>
<linearGradient id="paint19_linear_1083_4159" x1="-84.1379" y1="-76.5517" x2="234.483" y2="145.517" gradientUnits="userSpaceOnUse">
<stop stop-color="white"/>
<stop offset="1" stop-color="#DAECFF"/>
</linearGradient>
<linearGradient id="paint20_linear_1083_4159" x1="-84.1379" y1="-76.5517" x2="234.483" y2="145.517" gradientUnits="userSpaceOnUse">
<stop stop-color="white"/>
<stop offset="1" stop-color="#DAECFF"/>
</linearGradient>
<linearGradient id="paint21_linear_1083_4159" x1="-84.1379" y1="-76.5517" x2="234.483" y2="145.517" gradientUnits="userSpaceOnUse">
<stop stop-color="white"/>
<stop offset="1" stop-color="#DAECFF"/>
</linearGradient>
<linearGradient id="paint22_linear_1083_4159" x1="-84.1379" y1="-76.5517" x2="234.483" y2="145.517" gradientUnits="userSpaceOnUse">
<stop stop-color="white"/>
<stop offset="1" stop-color="#DAECFF"/>
</linearGradient>
<linearGradient id="paint23_linear_1083_4159" x1="-84.1379" y1="-76.5517" x2="234.483" y2="145.517" gradientUnits="userSpaceOnUse">
<stop stop-color="white"/>
<stop offset="1" stop-color="#DAECFF"/>
</linearGradient>
<linearGradient id="paint24_linear_1083_4159" x1="-84.1379" y1="-76.5517" x2="234.483" y2="145.517" gradientUnits="userSpaceOnUse">
<stop stop-color="white"/>
<stop offset="1" stop-color="#DAECFF"/>
</linearGradient>
<linearGradient id="paint25_linear_1083_4159" x1="-84.1379" y1="-76.5517" x2="234.483" y2="145.517" gradientUnits="userSpaceOnUse">
<stop stop-color="white"/>
<stop offset="1" stop-color="#DAECFF"/>
</linearGradient>
<linearGradient id="paint26_linear_1083_4159" x1="-84.1379" y1="-76.5517" x2="234.483" y2="145.517" gradientUnits="userSpaceOnUse">
<stop stop-color="white"/>
<stop offset="1" stop-color="#DAECFF"/>
</linearGradient>
<linearGradient id="paint27_linear_1083_4159" x1="-84.1379" y1="-76.5517" x2="234.483" y2="145.517" gradientUnits="userSpaceOnUse">
<stop stop-color="white"/>
<stop offset="1" stop-color="#DAECFF"/>
</linearGradient>
<linearGradient id="paint28_linear_1083_4159" x1="-84.1379" y1="-76.5517" x2="234.483" y2="145.517" gradientUnits="userSpaceOnUse">
<stop stop-color="white"/>
<stop offset="1" stop-color="#DAECFF"/>
</linearGradient>
<linearGradient id="paint29_linear_1083_4159" x1="-84.1379" y1="-76.5517" x2="234.483" y2="145.517" gradientUnits="userSpaceOnUse">
<stop stop-color="white"/>
<stop offset="1" stop-color="#DAECFF"/>
</linearGradient>
<linearGradient id="paint30_linear_1083_4159" x1="-84.1379" y1="-76.5517" x2="234.483" y2="145.517" gradientUnits="userSpaceOnUse">
<stop stop-color="white"/>
<stop offset="1" stop-color="#DAECFF"/>
</linearGradient>
<linearGradient id="paint31_linear_1083_4159" x1="-84.1379" y1="-76.5517" x2="234.483" y2="145.517" gradientUnits="userSpaceOnUse">
<stop stop-color="white"/>
<stop offset="1" stop-color="#DAECFF"/>
</linearGradient>
<linearGradient id="paint32_linear_1083_4159" x1="-84.1379" y1="-76.5517" x2="234.483" y2="145.517" gradientUnits="userSpaceOnUse">
<stop stop-color="white"/>
<stop offset="1" stop-color="#DAECFF"/>
</linearGradient>
<linearGradient id="paint33_linear_1083_4159" x1="-84.1379" y1="-76.5517" x2="234.483" y2="145.517" gradientUnits="userSpaceOnUse">
<stop stop-color="white"/>
<stop offset="1" stop-color="#DAECFF"/>
</linearGradient>
<linearGradient id="paint34_linear_1083_4159" x1="-84.1379" y1="-76.5517" x2="234.483" y2="145.517" gradientUnits="userSpaceOnUse">
<stop stop-color="white"/>
<stop offset="1" stop-color="#DAECFF"/>
</linearGradient>
<clipPath id="clip0_1083_4159">
<rect width="120" height="92.4138" fill="white"/>
</clipPath>
</defs>
</svg>
