<svg width="51" height="7" viewBox="0 0 51 7" fill="none" xmlns="http://www.w3.org/2000/svg">
<path d="M0.5 6.5L3.87868 3.12132C5.05025 1.94975 6.94975 1.94975 8.12132 3.12132L9.37868 4.37868C10.5503 5.55025 12.4497 5.55025 13.6213 4.37868L14.8787 3.12132C16.0503 1.94975 17.9497 1.94975 19.1213 3.12132L20.3787 4.37868C21.5503 5.55025 23.4497 5.55025 24.6213 4.37868L25.8787 3.12132C27.0503 1.94975 28.9497 1.94975 30.1213 3.12132L31.3787 4.37868C32.5503 5.55025 34.4497 5.55025 35.6213 4.37868L36.8787 3.12132C38.0503 1.94975 39.9497 1.94975 41.1213 3.12132L42.3787 4.37868C43.5503 5.55025 45.4497 5.55025 46.6213 4.37868L50 1" stroke="#E4F1FE" stroke-width="0.5" stroke-linecap="round"/>
</svg>
