<svg width="32" height="32" viewBox="0 0 32 32" fill="none" xmlns="http://www.w3.org/2000/svg">
<path fill-rule="evenodd" clip-rule="evenodd" d="M19.317 5.33594C19.7383 5.33594 20.053 5.7226 20.0197 6.1426C19.9467 7.04825 20.0602 7.95925 20.3533 8.81927C20.6464 9.67928 21.1128 10.47 21.7237 11.1426L16.8237 14.9933C16.5887 15.178 16.2985 15.2784 15.9997 15.2784C15.7008 15.2784 15.4106 15.178 15.1757 14.9933L7.49034 8.95327C7.21222 8.73473 6.85867 8.63563 6.50748 8.67776C6.15629 8.7199 5.83621 8.89981 5.61767 9.17794C5.39914 9.45606 5.30003 9.80961 5.34217 10.1608C5.3843 10.512 5.56422 10.8321 5.84234 11.0506L13.529 17.0906C14.2336 17.644 15.1037 17.9448 15.9997 17.9448C16.8957 17.9448 17.7657 17.644 18.4703 17.0906L23.9703 12.7679C24.8194 13.1436 25.7379 13.3371 26.6663 13.3359C27.6556 13.3375 28.6328 13.1179 29.5263 12.6933C30.0223 12.4573 30.6663 12.7879 30.6663 13.3373V22.6693C30.6663 23.7301 30.2449 24.7476 29.4948 25.4977C28.7446 26.2478 27.7272 26.6693 26.6663 26.6693H5.33301C4.27214 26.6693 3.25473 26.2478 2.50458 25.4977C1.75444 24.7476 1.33301 23.7301 1.33301 22.6693V9.33594C1.33301 8.27507 1.75444 7.25766 2.50458 6.50751C3.25473 5.75736 4.27214 5.33594 5.33301 5.33594H19.317Z" fill="#0884F7"/>
<path fill-rule="evenodd" clip-rule="evenodd" d="M26.666 10.668C27.7269 10.668 28.7443 10.2465 29.4944 9.4964C30.2446 8.74625 30.666 7.72883 30.666 6.66797C30.666 5.6071 30.2446 4.58969 29.4944 3.83954C28.7443 3.0894 27.7269 2.66797 26.666 2.66797C25.6051 2.66797 24.5877 3.0894 23.8376 3.83954C23.0874 4.58969 22.666 5.6071 22.666 6.66797C22.666 7.72883 23.0874 8.74625 23.8376 9.4964C24.5877 10.2465 25.6051 10.668 26.666 10.668Z" fill="#E4F1FE"/>
</svg>
