<svg width="10" height="10" viewBox="0 0 10 10" fill="none" xmlns="http://www.w3.org/2000/svg">
<path d="M1.73701 0.124795L9.32395 3.8986C9.52677 3.99955 9.69766 4.15633 9.81717 4.35109C9.93668 4.54584 10 4.77076 10 5.00028C9.99997 5.22979 9.93655 5.45467 9.81699 5.64936C9.69743 5.84406 9.52652 6.00075 9.32368 6.10159L1.73756 9.87491C1.51923 9.98364 1.27368 10.0228 1.03307 9.98724C0.792459 9.95167 0.568036 9.84308 0.389193 9.67565C0.21035 9.50821 0.0854204 9.28977 0.0308168 9.04895C-0.0237867 8.80814 -0.00552358 8.55619 0.0831865 8.32612L1.27787 5.22313C1.3331 5.07957 1.33307 4.92012 1.27783 4.77655L0.0832319 1.67297C-0.00529476 1.44296 -0.0234329 1.19115 0.0311951 0.9505C0.0858231 0.709854 0.210674 0.491584 0.389395 0.324273C0.568116 0.156962 0.792377 0.0483962 1.03283 0.0128013C1.27328 -0.0227936 1.51872 0.0162542 1.73701 0.124795Z" fill="white"/>
</svg>
