<svg width="144" height="6" viewBox="0 0 144 6" fill="none" xmlns="http://www.w3.org/2000/svg">
<path d="M0.5 1L3.87868 4.37868C5.05025 5.55025 6.94975 5.55025 8.12132 4.37868L9.37868 3.12132C10.5503 1.94975 12.4497 1.94975 13.6213 3.12132L14.8787 4.37868C16.0503 5.55025 17.9497 5.55025 19.1213 4.37868L20.3787 3.12132C21.5503 1.94975 23.4497 1.94975 24.6213 3.12132L25.8787 4.37868C27.0503 5.55025 28.9497 5.55025 30.1213 4.37868L31.3787 3.12132C32.5503 1.94975 34.4497 1.94975 35.6213 3.12132L36.8787 4.37868C38.0503 5.55025 39.9497 5.55025 41.1213 4.37868L42.3787 3.12132C43.5503 1.94975 45.4497 1.94975 46.6213 3.12132L47.8787 4.37868C49.0503 5.55025 50.9497 5.55025 52.1213 4.37868L53.3787 3.12132C54.5503 1.94975 56.4497 1.94975 57.6213 3.12132L58.8787 4.37868C60.0503 5.55025 61.9497 5.55025 63.1213 4.37868L64.3787 3.12132C65.5503 1.94975 67.4497 1.94975 68.6213 3.12132L69.8787 4.37868C71.0503 5.55025 72.9497 5.55025 74.1213 4.37868L75.3787 3.12132C76.5503 1.94975 78.4497 1.94975 79.6213 3.12132L80.8787 4.37868C82.0503 5.55025 83.9497 5.55025 85.1213 4.37868L86.3787 3.12132C87.5503 1.94975 89.4497 1.94975 90.6213 3.12132L91.8787 4.37868C93.0503 5.55025 94.9497 5.55025 96.1213 4.37868L97.3787 3.12132C98.5503 1.94975 100.45 1.94975 101.621 3.12132L102.879 4.37868C104.05 5.55025 105.95 5.55025 107.121 4.37868L108.379 3.12132C109.55 1.94975 111.45 1.94975 112.621 3.12132L113.879 4.37868C115.05 5.55025 116.95 5.55025 118.121 4.37868L119.379 3.12132C120.55 1.94975 122.45 1.94975 123.621 3.12132L124.879 4.37868C126.05 5.55025 127.95 5.55025 129.121 4.37868L130.379 3.12132C131.55 1.94975 133.45 1.94975 134.621 3.12132L135.879 4.37868C137.05 5.55025 138.95 5.55025 140.121 4.37868L143.5 1" stroke="#E4F1FE" stroke-width="0.5" stroke-linecap="round"/>
</svg>
