<svg width="154" height="81" viewBox="0 0 154 81" fill="none" xmlns="http://www.w3.org/2000/svg">
<path d="M146.782 80H7.21824C3.784 80 1 77.2164 1 73.7815V6.88675C1 3.4519 3.784 0.66825 7.21824 0.66825H146.782C150.215 0.66825 153 3.4519 153 6.88675V73.7815C153 77.2164 150.215 80 146.782 80Z" stroke="white" stroke-opacity="0.04" stroke-miterlimit="10"/>
<path d="M116.25 31.8609H112.815C112.752 31.417 112.624 31.0211 112.431 30.6732C112.237 30.3254 111.988 30.0283 111.685 29.7827C111.382 29.5372 111.033 29.3486 110.638 29.2178C110.243 29.0879 109.816 29.0221 109.356 29.0221C108.524 29.0221 107.8 29.2276 107.183 29.6377C106.566 30.0478 106.088 30.6439 105.749 31.4259C105.409 32.2078 105.239 33.1553 105.239 34.2691C105.239 35.4141 105.41 36.3758 105.752 37.1551C106.095 37.9344 106.574 38.5224 107.191 38.9201C107.808 39.3169 108.522 39.5153 109.332 39.5153C109.787 39.5153 110.209 39.4556 110.599 39.3355C110.988 39.2154 111.334 39.0384 111.638 38.8062C111.941 38.5731 112.194 38.2894 112.395 37.9548C112.596 37.6203 112.736 37.2387 112.815 36.8099L116.25 36.8259C116.161 37.5625 115.94 38.2724 115.587 38.9548C115.234 39.6371 114.76 40.2465 114.167 40.7821C113.574 41.3185 112.868 41.742 112.05 42.0525C111.231 42.3638 110.308 42.5195 109.278 42.5195C107.844 42.5195 106.565 42.1957 105.439 41.5472C104.312 40.8986 103.423 39.9601 102.772 38.7315C102.121 37.5029 101.796 36.0155 101.796 34.2691C101.796 32.5174 102.125 31.0273 102.783 29.7987C103.443 28.5701 104.337 27.6325 105.466 26.9866C106.595 26.3416 107.866 26.0187 109.278 26.0187C110.208 26.0187 111.072 26.1495 111.869 26.4101C112.667 26.6717 113.374 27.0524 113.991 27.5515C114.608 28.0506 115.111 28.6609 115.501 29.3833C115.89 30.1048 116.14 30.9303 116.25 31.8609Z" fill="#28DE22"/>
<path d="M77.5697 54.6871C77.4799 54.8722 77.3393 55.0181 77.1489 55.1248C76.9564 55.2316 76.7072 55.285 76.4004 55.285H75.2047V52.8412H76.3878C76.702 52.8412 76.9546 52.8928 77.1471 52.9969C77.3393 53.1009 77.4799 53.2442 77.5697 53.4274C77.6587 53.6098 77.7041 53.8198 77.7041 54.0555C77.7041 54.2913 77.6587 54.5021 77.5697 54.6871ZM78.4149 53.0227C78.2565 52.7166 78.0172 52.4746 77.6978 52.2976C77.3784 52.1215 76.9751 52.0325 76.4894 52.0325H74.2617V58.2812H75.2047V56.0848H76.4858C76.9697 56.0848 77.3731 55.9958 77.6934 55.8179C78.0136 55.6399 78.2538 55.398 78.4131 55.091C78.5732 54.785 78.6524 54.4398 78.6524 54.0555C78.6524 53.673 78.5732 53.3287 78.4149 53.0227Z" fill="white" fill-opacity="0.9"/>
<path d="M82.9999 55.7556C82.7285 55.8579 82.4083 55.9113 82.0391 55.9157L83.3086 58.2812H84.3832L82.9999 55.7556Z" fill="white" fill-opacity="0.9"/>
<path d="M83.0616 54.5928C82.9726 54.7592 82.8311 54.8864 82.639 54.9736C82.4468 55.0617 82.1986 55.1053 81.8935 55.1053H80.6969V52.8412H81.881C82.1924 52.8412 82.4441 52.8874 82.6363 52.98C82.8285 53.0725 82.9699 53.205 83.0607 53.3785C83.1505 53.5511 83.1959 53.7557 83.1959 53.9915C83.1959 54.2254 83.1514 54.4256 83.0616 54.5928ZM83.9076 52.9737C83.7483 52.6801 83.509 52.4497 83.1888 52.2825C82.8685 52.1161 82.4655 52.0325 81.9815 52.0325H79.7539V58.2812H80.6969V55.9166H81.9789C81.9993 55.9166 82.0198 55.9166 82.0394 55.9157C82.4086 55.9113 82.7288 55.8579 83.0002 55.7556C83.0642 55.7325 83.1265 55.7058 83.1852 55.6755C83.5055 55.5154 83.7457 55.2894 83.9058 55.0003C84.065 54.7103 84.1451 54.374 84.1451 53.9915C84.1451 53.6071 84.0659 53.2682 83.9076 52.9737Z" fill="white" fill-opacity="0.9"/>
<path d="M89.7901 55.1574C89.7901 54.6485 89.7083 54.2197 89.5446 53.871C89.3809 53.5223 89.1567 53.2581 88.8729 53.0783C88.5891 52.8978 88.2688 52.8079 87.9103 52.8079C87.55 52.8079 87.2289 52.8978 86.946 53.0783C86.6631 53.2581 86.4398 53.5223 86.2761 53.871C86.1124 54.2197 86.0305 54.6485 86.0305 55.1574C86.0305 55.6663 86.1124 56.0951 86.2761 56.4438C86.4398 56.7925 86.6631 57.0568 86.946 57.2365C87.2289 57.4171 87.55 57.5069 87.9103 57.5069C88.2688 57.5069 88.5891 57.4171 88.8729 57.2365C89.1567 57.0568 89.3809 56.7925 89.5446 56.4438C89.7083 56.0951 89.7901 55.6663 89.7901 55.1574ZM90.7233 55.1574C90.7233 55.8246 90.6014 56.3975 90.3577 56.8771C90.113 57.3557 89.7794 57.724 89.3551 57.9811C88.9307 58.2391 88.4494 58.3672 87.9103 58.3672C87.3694 58.3672 86.8864 58.2391 86.4629 57.9811C86.0385 57.724 85.704 57.3557 85.4603 56.8753C85.2156 56.3949 85.0938 55.8229 85.0938 55.1574C85.0938 54.4902 85.2156 53.9173 85.4603 53.4378C85.704 52.9591 86.0385 52.5908 86.4629 52.3337C86.8864 52.0757 87.3694 51.9476 87.9103 51.9476C88.4494 51.9476 88.9307 52.0757 89.3551 52.3337C89.7794 52.5908 90.113 52.9591 90.3577 53.4378C90.6014 53.9173 90.7233 54.4902 90.7233 55.1574Z" fill="white" fill-opacity="0.9"/>
<path d="M91.3242 52.8438V52.0325H96.1602V52.8438H94.2111V58.2812H93.2707V52.8438H91.3242Z" fill="white" fill-opacity="0.9"/>
<path d="M97.2256 58.2812V52.0325H101.144V52.8438H98.1686V54.7476H100.939V55.5563H98.1686V57.4699H101.18V58.2812H97.2256Z" fill="white" fill-opacity="0.9"/>
<path d="M107.596 54.0649H106.644C106.608 53.8612 106.54 53.6824 106.441 53.5276C106.34 53.3737 106.218 53.242 106.074 53.1344C105.93 53.0267 105.768 52.9449 105.59 52.8906C105.412 52.8355 105.224 52.8079 105.024 52.8079C104.664 52.8079 104.342 52.8986 104.059 53.0792C103.775 53.2607 103.551 53.5258 103.387 53.8754C103.224 54.226 103.142 54.653 103.142 55.1574C103.142 55.6663 103.224 56.0951 103.387 56.4447C103.551 56.7952 103.775 57.0594 104.06 57.2382C104.345 57.4171 104.665 57.5069 105.022 57.5069C105.218 57.5069 105.406 57.4802 105.584 57.426C105.763 57.3726 105.924 57.2925 106.068 57.1866C106.212 57.0808 106.335 56.9509 106.435 56.7979C106.537 56.644 106.606 56.4678 106.644 56.2686L107.596 56.2712C107.546 56.5781 107.448 56.8602 107.303 57.1181C107.157 57.3752 106.971 57.5968 106.744 57.7827C106.517 57.9695 106.258 58.1128 105.967 58.2151C105.676 58.3165 105.359 58.3672 105.015 58.3672C104.474 58.3672 103.992 58.2391 103.569 57.9811C103.145 57.724 102.813 57.3557 102.57 56.8753C102.326 56.3949 102.205 55.8229 102.205 55.1574C102.205 54.4902 102.327 53.9173 102.571 53.4378C102.815 52.9591 103.149 52.5908 103.572 52.3337C103.995 52.0757 104.476 51.9476 105.015 51.9476C105.346 51.9476 105.657 51.9948 105.944 52.0891C106.232 52.1843 106.491 52.3222 106.721 52.5045C106.95 52.686 107.141 52.9084 107.291 53.1691C107.442 53.4306 107.544 53.7295 107.596 54.0649Z" fill="white" fill-opacity="0.9"/>
<path d="M108.418 52.8438V52.0325H113.254V52.8438H111.305V58.2812H110.364V52.8438H108.418Z" fill="white" fill-opacity="0.9"/>
<path d="M114.318 58.2812V52.0325H118.236V52.8438H115.261V54.7476H118.032V55.5563H115.261V57.4699H118.273V58.2812H114.318Z" fill="white" fill-opacity="0.9"/>
<path d="M120.443 57.4575H121.471C121.947 57.4575 122.343 57.3676 122.658 57.1879C122.973 57.0073 123.21 56.7457 123.366 56.4032C123.523 56.0607 123.601 55.6417 123.601 55.148C123.601 54.6578 123.523 54.2414 123.367 53.8998C123.212 53.5582 122.98 53.2984 122.673 53.1214C122.366 52.9444 121.985 52.8563 121.529 52.8563H120.443V57.4575ZM121.523 58.2812H119.5V52.0325H121.587C122.199 52.0325 122.725 52.157 123.164 52.4061C123.604 52.6552 123.941 53.012 124.176 53.4773C124.411 53.9416 124.528 54.4986 124.528 55.148C124.528 55.7983 124.41 56.3579 124.173 56.8258C123.937 57.2938 123.594 57.6532 123.147 57.9049C122.699 58.1558 122.158 58.2812 121.523 58.2812Z" fill="white" fill-opacity="0.9"/>
<path d="M109.277 23.6325C103.413 23.6325 98.643 28.4027 98.643 34.2662C98.643 40.1297 103.413 44.8999 109.277 44.8999C115.14 44.8999 119.91 40.1297 119.91 34.2662C119.91 28.4027 115.14 23.6325 109.277 23.6325ZM109.277 46.2344C102.678 46.2344 97.3086 40.8655 97.3086 34.2662C97.3086 27.6669 102.678 22.298 109.277 22.298C115.876 22.298 121.245 27.6669 121.245 34.2662C121.245 40.8655 115.876 46.2344 109.277 46.2344Z" fill="white" fill-opacity="0.9"/>
<path d="M64.7611 39.3869H66.9179C67.9217 39.3869 68.7674 39.2081 69.455 38.8505C70.1425 38.4919 70.6601 37.935 71.0079 37.1797C71.3555 36.4235 71.5294 35.4476 71.5294 34.2502C71.5294 33.0634 71.3555 32.0937 71.0079 31.3402C70.6601 30.5876 70.1438 30.0333 69.4589 29.6775C68.7739 29.3225 67.9296 29.1446 66.9258 29.1446H64.7611V39.3869ZM67.059 42.2969H61.3652V26.2346H67.1061C68.7217 26.2346 70.1124 26.5558 71.2785 27.1954C72.4443 27.836 73.3423 28.7549 73.9724 29.9524C74.6024 31.1498 74.9175 32.5821 74.9175 34.2502C74.9175 35.9236 74.6024 37.3612 73.9724 38.564C73.3423 39.7668 72.4404 40.6893 71.2667 41.3325C70.0928 41.9757 68.6904 42.2969 67.059 42.2969Z" fill="white" fill-opacity="0.9"/>
<path d="M77.4268 26.2346H81.6151L86.0375 37.0267H86.2261L90.6493 26.2346H94.8377V42.2969H91.5434V31.8429H91.4099L87.2536 42.2186H85.0108L80.8536 31.8037H80.7202V42.2969H77.4268V26.2346Z" fill="white" fill-opacity="0.9"/>
<path d="M127.66 35.9841L129.637 29.9052H129.763L131.737 35.9841H127.66ZM131.888 26.2355H127.512L121.968 42.2969H125.606L126.798 38.6343H132.597L133.786 42.2969H137.425L131.888 26.2355Z" fill="white" fill-opacity="0.9"/>
<path d="M35.3496 50.7113L36.8608 53.8365C36.9577 54.0358 36.8094 54.2671 36.5899 54.2671H32.0964C31.874 54.2671 31.7286 54.0358 31.8255 53.8365L33.3338 50.7113C33.408 50.56 33.3395 50.3803 33.1856 50.3092C32.2618 49.8732 31.6174 48.932 31.6174 47.8431C31.6174 46.9223 32.0764 46.1066 32.7807 45.6128C33.2997 45.2454 33.9553 45.0568 34.6539 45.1369C35.113 45.1885 35.5435 45.3593 35.9056 45.6128C36.5129 46.0407 36.9407 46.7106 37.0432 47.4721C37.2086 48.7149 36.53 49.8216 35.5007 50.3092C35.3468 50.3803 35.2784 50.56 35.3496 50.7113ZM26.7675 22.4211C26.7675 21.3233 27.6627 20.4283 28.7604 20.4283H39.9231C41.0237 20.4283 41.9189 21.3233 41.9189 22.4211V34.9613H26.7675V22.4211ZM51.5788 35.6908L51.3024 35.6098C49.8252 35.1792 48.2945 34.9613 46.7559 34.9613H46.0988V22.4211C46.0988 19.0102 43.3338 16.2453 39.9231 16.2453H28.7604C25.3497 16.2453 22.5847 19.0102 22.5847 22.4211V34.9613H21.9279C20.391 34.9613 18.8618 35.1792 17.3862 35.6089L17.1045 35.6908C16.7903 35.7824 16.5742 36.0707 16.5742 36.398V62.9881C16.5742 63.3137 16.7909 63.602 17.1045 63.6954L17.11 63.6972C18.7688 64.1802 20.4878 64.4258 22.2156 64.4258H46.4679C48.1975 64.4258 49.9183 64.1802 51.5789 63.6954C51.8925 63.602 52.1091 63.3137 52.1091 62.9881V36.398C52.1091 36.0707 51.8931 35.7824 51.5788 35.6908Z" fill="#28DE22"/>
<path d="M27.2118 34.5131H41.4736V22.4177C41.4736 21.5645 40.7778 20.8697 39.9226 20.8697H28.7599C27.9063 20.8697 27.2118 21.5645 27.2118 22.4177V34.5131ZM42.3633 35.4027H26.3222V22.4177C26.3222 21.0734 27.4157 19.9801 28.7599 19.9801H39.9226C41.2683 19.9801 42.3633 21.0734 42.3633 22.4177V35.4027ZM32.9327 50.5148C32.9325 50.5148 32.9322 50.5157 32.9319 50.5157L32.9327 50.5148ZM35.6925 50.707C35.6918 50.707 35.6913 50.7079 35.6907 50.7079C35.6912 50.7079 35.6918 50.707 35.6925 50.707ZM32.3258 53.8189H36.3593L34.9467 50.8973C34.862 50.7176 34.8528 50.5157 34.9209 50.328C34.9898 50.1385 35.1292 49.9873 35.3135 49.9019C36.2147 49.4748 36.734 48.5203 36.6018 47.5274C36.5183 46.9074 36.171 46.3407 35.649 45.9733C35.3372 45.7553 34.9756 45.6174 34.604 45.5756C34.0451 45.5115 33.4888 45.653 33.0375 45.9724C32.4257 46.4012 32.0617 47.0986 32.0617 47.8397C32.0617 48.7169 32.5773 49.5264 33.3751 49.9036C33.5552 49.9873 33.6987 50.1438 33.7656 50.3324C33.8325 50.521 33.8208 50.7239 33.7326 50.9036L32.3258 53.8189ZM32.2258 54.0253L32.2256 54.0262C32.2257 54.0262 32.2258 54.0262 32.2258 54.0253ZM36.5894 54.7085H32.0959C31.8369 54.7085 31.6005 54.5777 31.4633 54.358C31.3265 54.14 31.3121 53.8705 31.4248 53.6383L32.8697 50.6447C31.8327 50.0967 31.1721 49.0113 31.1721 47.8397C31.1721 46.8086 31.6778 45.8389 32.525 45.2455C33.1533 44.7998 33.9278 44.6032 34.7039 44.6913C35.2221 44.75 35.7262 44.9413 36.1604 45.2455C36.8849 45.7553 37.3669 46.5444 37.4836 47.4091C37.6609 48.7418 36.993 50.0255 35.8135 50.6465L37.2608 53.6392C37.3729 53.8705 37.3583 54.1392 37.2214 54.358C37.0839 54.5769 36.8476 54.7085 36.5894 54.7085ZM21.9274 35.4027C20.432 35.4027 18.9458 35.6144 17.5101 36.0325L17.2284 36.1144C17.1049 36.1509 17.0185 36.2656 17.0185 36.3946V62.9847C17.0185 63.1128 17.1063 63.2285 17.2319 63.2659C18.853 63.7382 20.5289 63.9776 22.2151 63.9776H46.4674C48.1554 63.9776 49.833 63.7374 51.4538 63.265C51.5762 63.2285 51.6638 63.1128 51.6638 62.9847V36.3946C51.6638 36.2656 51.5774 36.1509 51.4538 36.1144L51.1774 36.0334C49.7401 35.6144 48.2523 35.4027 46.7554 35.4027H45.6535V22.4177C45.6535 19.2577 43.0826 16.6867 39.9226 16.6867H28.7599C25.5999 16.6867 23.029 19.2577 23.029 22.4177V35.4027H21.9274ZM46.4674 64.8672H22.2151C20.4448 64.8672 18.6851 64.6163 16.9851 64.1208L16.9762 64.1181C16.4774 63.9687 16.1289 63.5025 16.1289 62.9847V36.3946C16.1289 35.8724 16.4788 35.4063 16.9796 35.2604L17.2613 35.1785C18.778 34.7364 20.3479 34.5131 21.9274 34.5131H22.1394V22.4177C22.1394 18.7675 25.1094 15.7971 28.7599 15.7971H39.9226C43.5732 15.7971 46.5431 18.7675 46.5431 22.4177V34.5131H46.7554C48.3367 34.5131 49.9082 34.7372 51.4264 35.1794L51.7028 35.2604C52.2036 35.4063 52.5534 35.8724 52.5534 36.3946V62.9847C52.5534 63.5025 52.205 63.9687 51.7061 64.1181C50.0012 64.6154 48.2397 64.8672 46.4674 64.8672Z" fill="white" fill-opacity="0.5"/>
</svg>
