<svg width="100" height="5" viewBox="0 0 100 5" fill="none" xmlns="http://www.w3.org/2000/svg">
<path d="M0.5 4.5L3.87868 1.12132C5.05025 -0.0502508 6.94975 -0.0502526 8.12132 1.12132L9.37868 2.37868C10.5503 3.55025 12.4497 3.55025 13.6213 2.37868L14.8787 1.12132C16.0503 -0.0502508 17.9497 -0.0502526 19.1213 1.12132L20.3787 2.37868C21.5503 3.55025 23.4497 3.55025 24.6213 2.37868L25.8787 1.12132C27.0503 -0.0502508 28.9497 -0.0502526 30.1213 1.12132L31.3787 2.37868C32.5503 3.55025 34.4497 3.55025 35.6213 2.37868L36.8787 1.12132C38.0503 -0.0502508 39.9497 -0.0502526 41.1213 1.12132L42.3787 2.37868C43.5503 3.55025 45.4497 3.55025 46.6213 2.37868L47.8787 1.12132C49.0503 -0.0502508 50.9497 -0.0502526 52.1213 1.12132L53.3787 2.37868C54.5503 3.55025 56.4497 3.55025 57.6213 2.37868L58.8787 1.12132C60.0503 -0.0502508 61.9497 -0.0502526 63.1213 1.12132L64.3787 2.37868C65.5503 3.55025 67.4497 3.55025 68.6213 2.37868L69.8787 1.12132C71.0503 -0.0502508 72.9497 -0.0502526 74.1213 1.12132L75.3787 2.37868C76.5503 3.55025 78.4497 3.55025 79.6213 2.37868L80.8787 1.12132C82.0503 -0.0502508 83.9497 -0.0502526 85.1213 1.12132L86.3787 2.37868C87.5503 3.55025 89.4497 3.55025 90.6213 2.37868L91.8787 1.12132C93.0503 -0.0502508 94.9497 -0.0502526 96.1213 1.12132L99.5 4.5" stroke="#E4F1FE" stroke-width="0.5" stroke-linecap="round"/>
</svg>
