<svg width="24" height="24" viewBox="0 0 24 24" fill="none" xmlns="http://www.w3.org/2000/svg">
<g clip-path="url(#clip0_220_7956)">
<path d="M12.1437 23.4894C10.1272 23.4899 8.15831 22.9589 6.42287 21.9492L0.493378 23.5859L2.08445 17.4704C1.17076 15.779 0.692009 13.8838 0.691891 11.9579L0.691891 11.9529C0.691892 5.59522 5.82519 0.419938 12.1347 0.417221C15.1921 0.416002 18.0671 1.61488 20.23 3.79306C22.3928 5.97087 23.5845 8.86728 23.5859 11.9533C23.5859 18.3117 18.4529 23.4867 12.1437 23.4893" fill="white" fill-opacity="0.11"/>
<path d="M17.1023 14.9381C17.5956 15.1618 17.6055 15.3972 17.6142 15.6099C17.6216 15.7841 17.6211 15.9833 17.6211 16.1822C17.6211 16.3813 17.5468 16.7048 17.2505 16.9783C16.9539 17.2521 16.2373 18.0234 14.7797 18.0234C13.322 18.0234 11.9134 16.9535 11.7155 16.8043C11.518 16.655 8.43113 14.7387 7.2436 11.7038C6.25671 9.18159 6.45299 8.66831 6.50248 8.12091C6.55178 7.57341 7.21895 6.35428 7.91076 6.10556C8.60248 5.85666 9.19541 5.85666 9.31932 5.93128C9.44276 6.00591 9.5169 6.20503 9.66499 6.50363C9.81318 6.80231 10.5299 8.27025 10.6288 8.54391C10.7276 8.81766 10.7769 9.01669 10.4802 9.21581C10.1841 9.41494 9.5169 9.98672 9.31932 10.161C9.12127 10.3351 9.09662 10.5094 9.24481 10.8079C9.39346 11.1067 9.70592 12.0682 10.7151 13.2091C11.5004 14.0967 12.4702 14.696 12.7669 14.8702C13.063 15.0443 13.2236 14.8888 13.3712 14.7391C13.504 14.6049 13.7172 14.4404 13.8901 14.291C14.0631 14.1421 14.1866 14.0924 14.3842 13.9928C14.5819 13.8932 14.7549 13.9431 14.9031 14.0176C15.0513 14.0924 16.5165 14.6726 17.1023 14.9381Z" fill="white"/>
</g>
<defs>
<clipPath id="clip0_220_7956">
<rect width="24" height="24" fill="white" transform="matrix(4.37114e-08 -1 -1 -4.37114e-08 24 24)"/>
</clipPath>
</defs>
</svg>
