<svg width="32" height="32" viewBox="0 0 32 32" fill="none" xmlns="http://www.w3.org/2000/svg">
<rect width="32" height="32" rx="5" fill="#0884F7"/>
<path fill-rule="evenodd" clip-rule="evenodd" d="M16.833 24.4945C20.0346 22.426 23 18.7755 23 14.3008C23 12.4443 22.2625 10.6638 20.9498 9.35103C19.637 8.03827 17.8565 7.30078 16 7.30078C14.1435 7.30078 12.363 8.03827 11.0502 9.35103C9.73749 10.6638 9 12.4443 9 14.3008C9 18.7755 11.9654 22.426 15.167 24.4945C15.415 24.6556 15.7043 24.7413 16 24.7413C16.2957 24.7413 16.585 24.6556 16.833 24.4945ZM16 17.995C16.6922 17.995 17.3689 17.7898 17.9445 17.4052C18.5201 17.0206 18.9687 16.474 19.2336 15.8344C19.4985 15.1949 19.5678 14.4911 19.4328 13.8122C19.2977 13.1333 18.9644 12.5096 18.4749 12.0202C17.9854 11.5307 17.3617 11.1973 16.6828 11.0623C16.0039 10.9272 15.3001 10.9966 14.6606 11.2615C14.021 11.5264 13.4745 11.975 13.0899 12.5505C12.7053 13.1261 12.5 13.8028 12.5 14.495C12.5 15.4233 12.8687 16.3135 13.5251 16.9699C14.1815 17.6263 15.0717 17.995 16 17.995Z" fill="white"/>
</svg>
