<svg width="28" height="28" viewBox="0 0 28 28" fill="none" xmlns="http://www.w3.org/2000/svg">
<path d="M13.9853 27.9705C21.7005 27.9705 27.9549 21.7161 27.9549 14.0009C27.9549 6.28567 21.7005 0.03125 13.9853 0.03125C6.27005 0.03125 0.015625 6.28567 0.015625 14.0009C0.015625 21.7161 6.27005 27.9705 13.9853 27.9705Z" fill="#40A459"/>
<path d="M13.9853 0.03125C13.8524 0.0314021 13.7196 0.0334075 13.5868 0.0372656C13.486 0.0400547 13.3855 0.0437734 13.2853 0.0486953C13.2594 0.0499531 13.2336 0.0517578 13.2077 0.053125C13.1316 0.0573296 13.0555 0.0621423 12.9795 0.0675625C12.9412 0.0702969 12.9031 0.0729219 12.8649 0.0759297C12.777 0.0829008 12.6891 0.0907033 12.6014 0.0993359C12.556 0.10382 12.5109 0.108797 12.4658 0.113664C12.4116 0.11957 12.3575 0.12575 12.3035 0.132258C12.2567 0.137891 12.2097 0.143305 12.1631 0.149375C19.0173 1.04226 24.3106 6.90317 24.3106 14.0007C24.3106 21.0983 19.0173 26.9593 12.1631 27.8521C12.2098 27.8582 12.2567 27.8637 12.3035 27.8693C12.3575 27.8758 12.4116 27.882 12.4658 27.8879C12.511 27.8928 12.5562 27.8978 12.6014 27.9022C12.6891 27.9108 12.7769 27.9186 12.865 27.9256C12.9031 27.9287 12.9413 27.9313 12.9795 27.934C13.0554 27.9394 13.1315 27.9442 13.2078 27.9484C13.2336 27.9499 13.2595 27.9516 13.2853 27.9528C13.4126 27.959 13.54 27.9635 13.6675 27.9663C13.7731 27.9686 13.879 27.9703 13.9853 27.9703C21.7006 27.9703 27.955 21.7158 27.955 14.0006C27.955 6.28542 21.7005 0.03125 13.9853 0.03125Z" fill="#378B4E"/>
<path d="M12.1631 12.7835L17.9907 9.43923C17.9907 9.43923 24.3656 10.7971 25.8369 8.11235L26.301 7.26562L26.7045 8.14281C27.5424 9.96412 27.9853 11.9889 27.9853 13.9983C27.9853 18.6298 25.6911 22.9579 21.8484 25.5758L21.4519 25.8459L12.1631 12.7835Z" fill="#898790"/>
<path d="M27.9552 13.9983C27.9552 11.5843 27.3428 9.3132 26.2649 7.33203L25.8373 8.11237C25.3205 9.05545 24.6403 10.0198 23.9624 10.8873C24.1944 11.908 24.3113 12.9515 24.3109 13.9983C24.3109 17.8996 22.7114 21.4268 20.1328 23.9611L21.4372 25.8569C25.3561 23.3826 27.9552 18.9755 27.9552 13.9983Z" fill="#7A797F"/>
<path d="M13.985 27.9981C9.20228 27.9981 4.79693 25.5874 2.2007 21.5495L1.95312 21.1645L9.73335 14.6055L18.6879 27.1903L18.1173 27.3754C16.7824 27.7886 15.3921 27.9981 13.985 27.9981Z" fill="#3D9AE3"/>
<path d="M18.7446 27.1685L17.7975 25.8125C16.1258 26.8698 14.2087 27.6125 12.1572 27.8797C12.7536 27.9574 13.3675 27.9679 13.9851 27.9679C15.6502 27.9679 17.2637 27.7029 18.7446 27.1685Z" fill="#1D81CE"/>
<path d="M9.7334 14.6073L12.1629 12.7852L21.5038 25.816L21.0498 26.0824C20.4078 26.4591 19.7369 26.784 19.0433 27.054L18.6879 27.1922L9.7334 14.6073Z" fill="white"/>
<path d="M18.6879 27.1915C19.6753 26.8403 20.62 26.3787 21.5038 25.8154L20.1576 23.9375C19.4231 24.6631 18.6108 25.3054 17.7354 25.8528L18.6879 27.1915Z" fill="#E0E0E3"/>
<path d="M1.71606 20.7363C1.33209 20.0394 1.00833 19.311 0.748312 18.559L0.632812 18.1183L17.0222 6.71094L19.4517 8.53307L1.95352 21.1658L1.71606 20.7363Z" fill="#FFCE00"/>
<path d="M20.9231 13.6837C20.0638 12.7863 15.7773 8.17376 15.7773 5.49675C15.7773 2.4658 18.2432 0 21.2741 0C24.305 0 26.7708 2.4658 26.7708 5.49675C26.7708 8.17195 22.4843 12.7859 21.625 13.6837C21.4338 13.8835 21.1144 13.8836 20.9231 13.6837Z" fill="#CD2900"/>
<path d="M21.2733 7.34937C19.9169 7.34937 18.8135 6.24589 18.8135 4.88953C18.8135 3.53317 19.917 2.42969 21.2733 2.42969C22.6297 2.42969 23.7332 3.53317 23.7332 4.88953C23.7332 6.24589 22.6297 7.34937 21.2733 7.34937Z" fill="#891D00"/>
<path d="M7.91146 10.2036C9.50221 10.2036 10.7965 8.90933 10.7965 7.31852C10.7965 7.1977 10.7485 7.08184 10.6631 6.9964C10.5776 6.91097 10.4618 6.86298 10.341 6.86298H8.51882C8.398 6.86298 8.28213 6.91097 8.1967 6.9964C8.11127 7.08184 8.06327 7.1977 8.06327 7.31852C8.06327 7.43934 8.11127 7.55521 8.1967 7.64064C8.28213 7.72608 8.398 7.77407 8.51882 7.77407H9.8323C9.62619 8.64366 8.84312 9.29252 7.91141 9.29252C6.82302 9.29252 5.93746 8.40697 5.93746 7.31858C5.93746 6.23019 6.82302 5.34463 7.91141 5.34463C8.39199 5.3444 8.85612 5.51972 9.21652 5.83764C9.26129 5.87778 9.31357 5.90867 9.37034 5.92851C9.4271 5.94835 9.48723 5.95675 9.54726 5.95324C9.60729 5.94972 9.66603 5.93436 9.7201 5.90803C9.77416 5.8817 9.82247 5.84493 9.86225 5.79983C9.90204 5.75474 9.93249 5.70222 9.95188 5.64529C9.97126 5.58837 9.97918 5.52817 9.97518 5.46817C9.97118 5.40817 9.95534 5.34956 9.92857 5.29571C9.90181 5.24186 9.86465 5.19385 9.81923 5.15443C9.29241 4.68964 8.61395 4.4333 7.91141 4.43359C6.32066 4.43359 5.02637 5.72783 5.02637 7.31863C5.02637 8.90944 6.32066 10.2036 7.91146 10.2036Z" fill="white"/>
</svg>
