<svg width="152" height="152" viewBox="0 0 152 152" fill="none" xmlns="http://www.w3.org/2000/svg">
<g opacity="0.15" clip-path="url(#clip0_220_7205)">
<mask id="mask0_220_7205" style="mask-type:luminance" maskUnits="userSpaceOnUse" x="0" y="0" width="152" height="152">
<path d="M152 0H0V152H152V0Z" fill="white"/>
</mask>
<g mask="url(#mask0_220_7205)">
<path d="M129.833 31.668C135.071 31.668 139.333 27.4056 139.333 22.168C139.333 16.9303 135.071 12.668 129.833 12.668C124.595 12.668 120.333 16.9303 120.333 22.168C120.333 27.4056 124.595 31.668 129.833 31.668ZM129.833 19.0013C130.673 19.0013 131.478 19.3349 132.072 19.9288C132.666 20.5227 133 21.3281 133 22.168C133 23.0078 132.666 23.8133 132.072 24.4071C131.478 25.001 130.673 25.3346 129.833 25.3346C128.993 25.3346 128.188 25.001 127.594 24.4071C127 23.8133 126.666 23.0078 126.666 22.168C126.666 21.3281 127 20.5227 127.594 19.9288C128.188 19.3349 128.993 19.0013 129.833 19.0013Z" fill="#A1A8AE"/>
<path d="M129.833 63.3333C130.346 63.3322 130.851 63.2073 131.306 62.9691C131.76 62.7309 132.15 62.3866 132.443 61.9653C134.444 59.071 152 33.326 152 22.1667C152 9.94333 142.057 0 129.833 0C117.61 0 107.667 9.94333 107.667 22.1667C107.667 33.326 125.223 59.071 127.224 61.9653C127.517 62.3866 127.907 62.7309 128.361 62.9691C128.815 63.2073 129.32 63.3322 129.833 63.3333ZM129.833 6.33333C134.031 6.33836 138.055 8.00813 141.024 10.9764C143.992 13.9446 145.662 17.969 145.667 22.1667C145.667 28.291 136.813 43.8393 129.833 54.492C122.854 43.8393 114 28.291 114 22.1667C114 13.4393 121.106 6.33333 129.833 6.33333ZM28.5 107.667C37.2273 107.667 44.3333 100.561 44.3333 91.8333C44.3333 83.106 37.2273 76 28.5 76C19.7727 76 12.6667 83.106 12.6667 91.8333C12.6667 100.561 19.7727 107.667 28.5 107.667ZM28.5 82.3333C33.7377 82.3333 38 86.5957 38 91.8333C38 97.071 33.7377 101.333 28.5 101.333C23.2623 101.333 19 97.071 19 91.8333C19 86.5957 23.2623 82.3333 28.5 82.3333Z" fill="#A1A8AE"/>
<path d="M28.4997 152.001C29.0507 152 29.592 151.856 30.0705 151.583C30.549 151.31 30.9483 150.917 31.2293 150.443C33.864 145.965 56.9997 106.268 56.9997 91.8343C56.9997 76.1213 44.2127 63.3343 28.4997 63.3343C12.7867 63.3343 -0.000335693 76.1213 -0.000335693 91.8343C-0.000335693 106.268 23.1353 145.965 25.77 150.443C26.051 150.917 26.4503 151.31 26.9288 151.583C27.4074 151.856 27.9487 152 28.4997 152.001ZM28.4997 69.6677C40.723 69.6677 50.6663 79.611 50.6663 91.8343C50.6663 101.385 36.5303 128.327 28.4997 142.495C20.469 128.327 6.33299 101.385 6.33299 91.8343C6.33299 79.611 16.2763 69.6677 28.4997 69.6677ZM41.1663 152.001C45.9923 152.001 50.4193 151.602 54.327 150.81C55.1193 150.612 55.8046 150.116 56.2404 149.425C56.6761 148.734 56.8286 147.902 56.6663 147.101C56.5039 146.301 56.0391 145.594 55.3686 145.128C54.6981 144.661 53.8736 144.471 53.0667 144.597C49.145 145.347 45.1587 145.705 41.1663 145.668C40.3265 145.668 39.521 146.001 38.9272 146.595C38.3333 147.189 37.9997 147.994 37.9997 148.834C37.9997 149.674 38.3333 150.48 38.9272 151.074C39.521 151.667 40.3265 152.001 41.1663 152.001ZM65.366 146.39C65.9702 146.391 66.5619 146.217 67.0697 145.889C71.0598 143.357 74.3537 139.867 76.652 135.737C77.0669 135.006 77.1745 134.141 76.9512 133.331C76.7279 132.521 76.192 131.833 75.4613 131.418C74.7307 131.003 73.8651 130.895 73.0551 131.118C72.245 131.342 71.5569 131.878 71.142 132.608C69.242 135.952 66.7973 138.549 63.656 140.55C63.0719 140.916 62.6232 141.462 62.3783 142.106C62.1334 142.75 62.1056 143.456 62.2993 144.118C62.4929 144.779 62.8973 145.359 63.4509 145.769C64.0046 146.179 64.677 146.397 65.366 146.39ZM78.0833 125.458C78.8123 125.457 79.5184 125.204 80.0826 124.742C80.6468 124.281 81.0346 123.639 81.1803 122.925C82.105 118.39 82.5547 113.615 82.846 109.967C82.9124 109.129 82.6434 108.3 82.0982 107.661C81.553 107.022 80.7763 106.626 79.939 106.559C79.1017 106.493 78.2723 106.762 77.6333 107.307C76.9943 107.852 76.598 108.629 76.5317 109.466C76.2593 112.937 75.8287 117.459 74.9737 121.664C74.8795 122.125 74.8892 122.6 75.002 123.056C75.1148 123.513 75.3279 123.938 75.6257 124.301C75.9236 124.665 76.2988 124.957 76.7239 125.157C77.149 125.357 77.6135 125.46 78.0833 125.458ZM80.5977 100.22C81.3912 100.219 82.1557 99.921 82.7398 99.3838C83.3239 98.8466 83.685 98.1098 83.7517 97.319C84.1823 92.2333 84.7017 88.4967 85.4553 85.2033C85.5521 84.7963 85.5673 84.3741 85.4999 83.9612C85.4326 83.5482 85.2841 83.1527 85.063 82.7975C84.8419 82.4423 84.5526 82.1344 84.2118 81.8917C83.871 81.6489 83.4855 81.4761 83.0776 81.3832C82.6696 81.2904 82.2473 81.2792 81.835 81.3505C81.4228 81.4218 81.0287 81.5741 80.6756 81.7985C80.3225 82.023 80.0174 82.3152 79.7779 82.6583C79.5385 83.0014 79.3693 83.3885 79.2803 83.7973C78.4633 87.3883 77.8997 91.3973 77.4437 96.7807C77.4059 97.2178 77.4594 97.658 77.6008 98.0733C77.7422 98.4886 77.9683 98.8701 78.2648 99.1934C78.5614 99.5167 78.9219 99.7749 79.3234 99.9516C79.725 100.128 80.1589 100.22 80.5977 100.22ZM86.9817 75.9883C87.511 75.9887 88.032 75.8561 88.4968 75.6027C88.9616 75.3493 89.3552 74.9832 89.6417 74.538C91.6184 71.4489 94.3697 68.9313 97.6217 67.2357C98.3469 66.8329 98.8851 66.1616 99.1206 65.3661C99.3561 64.5706 99.27 63.7145 98.8808 62.9819C98.4917 62.2492 97.8306 61.6985 97.0396 61.4482C96.2487 61.1979 95.3911 61.268 94.6513 61.6433C90.3953 63.9107 86.9183 67.09 84.328 71.099C84.0182 71.5768 83.843 72.1293 83.8208 72.6983C83.7987 73.2673 83.9303 73.8318 84.2019 74.3322C84.4736 74.8327 84.8751 75.2507 85.3643 75.5421C85.8535 75.8336 86.4122 75.9877 86.9817 75.9883ZM108.091 63.9297C108.243 63.9313 108.396 63.9207 108.547 63.898C111.407 63.5527 114.285 63.3645 117.166 63.3343C118.006 63.3343 118.812 63.0007 119.406 62.4068C119.999 61.813 120.333 61.0075 120.333 60.1677C120.333 58.3943 118.838 56.8617 117.097 57.001C113.734 57.001 110.554 57.21 107.647 57.628C106.869 57.758 106.167 58.1735 105.678 58.7934C105.189 59.4133 104.949 60.193 105.005 60.9803C105.06 61.7677 105.407 62.5061 105.978 63.0515C106.548 63.5968 107.302 63.9099 108.091 63.9297Z" fill="#A1A8AE"/>
</g>
</g>
<defs>
<clipPath id="clip0_220_7205">
<rect width="152" height="152" fill="white" transform="matrix(-1 0 0 1 152 0)"/>
</clipPath>
</defs>
</svg>
