<svg width="16" height="22" viewBox="0 0 16 22" fill="none" xmlns="http://www.w3.org/2000/svg">
<path d="M0.354024 4.52735H4.46169V0.359627C4.43628 0.382829 4.4113 0.406031 4.38716 0.430092L0.423471 4.45302C0.399333 4.47751 0.375621 4.50329 0.354024 4.52735ZM0 5.49065V20.531C0 21.3396 0.649606 22 1.44658 22H14.5534C15.3504 22 16 21.34 16 20.531V1.46902C16 0.660391 15.3504 0 14.5534 0H5.41111C5.32472 0 5.24172 0.00730426 5.16126 0.0206238V4.88268C5.16126 5.07861 5.00416 5.23715 4.81063 5.23715H0.0186328C0.0059287 5.31922 0 5.40429 0 5.49065ZM9.43112 6.66621C9.43112 7.46624 8.78787 8.11933 8.00021 8.11933C7.21171 8.11933 6.56803 7.46667 6.56803 6.66621C6.56803 5.86704 7.21129 5.21438 8.00021 5.21438C8.78787 5.21438 9.43112 5.86704 9.43112 6.66621ZM10.5165 12.4989C10.5165 12.6475 10.3975 12.7678 10.2514 12.7678H5.74862C5.6021 12.7678 5.48352 12.6471 5.48352 12.4989V10.9521C5.48352 9.66611 6.43422 8.59411 7.65762 8.42224L7.42217 10.131C7.41116 10.2101 7.43911 10.2831 7.50009 10.3342L7.86258 10.6316C7.90122 10.6641 7.94982 10.6818 8 10.6818C8.05018 10.6818 8.09878 10.6641 8.13742 10.6316L8.49991 10.3342C8.56131 10.2831 8.58884 10.2101 8.57783 10.131L8.34238 8.42224C9.56663 8.59411 10.5165 9.66568 10.5165 10.9521V12.4989ZM3.99333 18.5266C3.99333 18.3307 4.14959 18.1721 4.3427 18.1721H11.6569C11.85 18.1721 12.0075 18.3303 12.0075 18.5266C12.0075 18.7225 11.8504 18.8824 11.6569 18.8824H4.34312C4.14959 18.8819 3.99333 18.7225 3.99333 18.5266ZM2.14022 16.6666C2.14022 16.4707 2.29648 16.3121 2.48959 16.3121H13.51C13.7031 16.3121 13.8594 16.4707 13.8594 16.6666C13.8594 16.8625 13.7035 17.0224 13.51 17.0224H2.48916C2.29606 17.0224 2.14022 16.863 2.14022 16.6666ZM2.14022 14.807C2.14022 14.6111 2.29648 14.4526 2.48959 14.4526H13.51C13.7031 14.4526 13.8594 14.6111 13.8594 14.807C13.8594 15.0029 13.7035 15.1628 13.51 15.1628H2.48916C2.29606 15.1624 2.14022 15.0029 2.14022 14.807Z" fill="#333D45"/>
</svg>
