<svg width="20" height="20" viewBox="0 0 20 20" fill="none" xmlns="http://www.w3.org/2000/svg">
<path fill-rule="evenodd" clip-rule="evenodd" d="M0.976311 0.976311C0 1.95262 0 3.52397 0 6.66667V13.3333C0 16.476 0 18.0474 0.976311 19.0237C1.95262 20 3.52397 20 6.66667 20H13.3333C16.476 20 18.0474 20 19.0237 19.0237C20 18.0474 20 16.476 20 13.3333V6.66667C20 3.52397 20 1.95262 19.0237 0.976311C18.0474 0 16.476 0 13.3333 0H6.66667C3.52397 0 1.95262 0 0.976311 0.976311ZM6.10068 15H7.97039C8.07991 14.9999 8.18835 14.9783 8.28951 14.9364C8.39068 14.8944 8.48259 14.833 8.55999 14.7555C8.6374 14.678 8.69878 14.5861 8.74064 14.4849C8.7825 14.3837 8.80402 14.2753 8.80397 14.1658C8.80391 14.0563 8.78229 13.9479 8.74032 13.8468C8.69836 13.7457 8.63688 13.6538 8.5594 13.5764C8.48192 13.499 8.38995 13.4377 8.28874 13.3958C8.18754 13.354 8.07908 13.3324 7.96956 13.3325H6.09985C5.91885 13.3323 5.74533 13.2603 5.61735 13.1324C5.48937 13.0044 5.41737 12.8309 5.41715 12.65V7.34917C5.41737 7.16822 5.48937 6.99476 5.61735 6.86681C5.74533 6.73886 5.91885 6.66689 6.09985 6.66667H7.96956C8.19064 6.66667 8.40266 6.57887 8.55898 6.42259C8.71531 6.26631 8.80313 6.05435 8.80313 5.83333C8.80313 5.61232 8.71531 5.40036 8.55898 5.24408C8.40266 5.0878 8.19064 5 7.96956 5H6.09985C5.47676 5.00088 4.87945 5.24878 4.43893 5.68932C3.99842 6.12987 3.75066 6.72709 3.75 7.35V12.6508C3.75088 13.2737 3.99885 13.8709 4.43952 14.3113C4.8802 14.7517 5.47759 14.9993 6.10068 15ZM12.6793 15H12.7109C12.8868 15.0001 13.0581 14.9445 13.2004 14.8412C13.3427 14.7379 13.4486 14.5922 13.5028 14.425L16.212 6.09167C16.2775 5.88224 16.2578 5.65541 16.1571 5.46042C16.0564 5.26544 15.8828 5.11804 15.674 5.05023C15.4652 4.98242 15.2381 4.99966 15.042 5.09823C14.8459 5.19679 14.6966 5.36871 14.6265 5.57667L12.8251 11.1183L11.4881 5.63667C11.4622 5.53035 11.4156 5.43017 11.351 5.34185C11.2864 5.25354 11.205 5.1788 11.1115 5.12193C11.018 5.06505 10.9142 5.02715 10.806 5.01037C10.6979 4.9936 10.5875 4.99829 10.4811 5.02417C10.3748 5.05005 10.2746 5.09662 10.1862 5.16121C10.0979 5.22581 10.0231 5.30717 9.96623 5.40065C9.90934 5.49412 9.87142 5.59789 9.85464 5.70602C9.83786 5.81414 9.84255 5.92452 9.86844 6.03083L11.9007 14.3642C11.9436 14.5404 12.0428 14.6979 12.1833 14.8126C12.3238 14.9274 12.4979 14.9932 12.6793 15Z" fill="#333D45"/>
</svg>
