<svg width="10" height="12" viewBox="0 0 10 12" fill="none" xmlns="http://www.w3.org/2000/svg">
<path d="M0.168639 10.4629C0.0592069 10.5783 -0.00134563 10.7329 2.31374e-05 10.8934C0.00139191 11.0538 0.0645724 11.2073 0.175957 11.3208C0.287341 11.4342 0.438017 11.4986 0.595532 11.5C0.753047 11.5014 0.904798 11.4397 1.0181 11.3282L5.82411 6.43265C5.93673 6.31789 6 6.16227 6 6C6 5.83773 5.93673 5.68211 5.82411 5.56735L1.0181 0.671779C0.904797 0.560308 0.753046 0.498629 0.595531 0.500023C0.438016 0.501417 0.28734 0.56577 0.175956 0.67923C0.064572 0.79269 0.00139147 0.946179 2.27097e-05 1.10663C-0.00134605 1.26708 0.0592065 1.42166 0.168638 1.53707L4.54992 6L0.168639 10.4629Z" fill="#333D45"/>
<path d="M4.16864 10.4629C4.05921 10.5783 3.99865 10.7329 4.00002 10.8934C4.00139 11.0538 4.06457 11.2073 4.17596 11.3208C4.28734 11.4342 4.43802 11.4986 4.59553 11.5C4.75305 11.5014 4.9048 11.4397 5.0181 11.3282L9.82411 6.43265C9.93673 6.31789 10 6.16227 10 6C10 5.83773 9.93673 5.68211 9.82411 5.56735L5.0181 0.671779C4.9048 0.560308 4.75305 0.498629 4.59553 0.500023C4.43802 0.501417 4.28734 0.56577 4.17596 0.67923C4.06457 0.79269 4.00139 0.946179 4.00002 1.10663C3.99865 1.26708 4.05921 1.42166 4.16864 1.53707L8.54992 6L4.16864 10.4629Z" fill="#333D45"/>
</svg>
