<svg width="738" height="80" viewBox="0 0 738 80" fill="none" xmlns="http://www.w3.org/2000/svg">
<path d="M358.171 35.256C356.379 35.256 354.896 35.1493 353.723 34.936C352.571 34.7227 351.664 34.3707 351.003 33.88C350.342 33.368 349.862 32.6853 349.563 31.832C349.264 30.9573 349.072 29.88 348.987 28.6C348.902 27.32 348.859 25.784 348.859 23.992C348.859 22.2 348.902 20.664 348.987 19.384C349.072 18.104 349.264 17.0373 349.563 16.184C349.862 15.3093 350.342 14.6267 351.003 14.136C351.664 13.624 352.571 13.2613 353.723 13.048C354.896 12.8347 356.379 12.728 358.171 12.728C359.963 12.728 361.435 12.8347 362.587 13.048C363.76 13.2613 364.678 13.624 365.339 14.136C366 14.6267 366.48 15.3093 366.779 16.184C367.099 17.0373 367.302 18.104 367.387 19.384C367.472 20.664 367.515 22.2 367.515 23.992C367.515 25.784 367.472 27.32 367.387 28.6C367.302 29.88 367.099 30.9573 366.779 31.832C366.48 32.6853 366 33.368 365.339 33.88C364.678 34.3707 363.76 34.7227 362.587 34.936C361.435 35.1493 359.963 35.256 358.171 35.256ZM358.171 31.544C359.11 31.544 359.867 31.512 360.443 31.448C361.04 31.384 361.51 31.2347 361.851 31C362.192 30.7653 362.438 30.3813 362.587 29.848C362.758 29.3147 362.864 28.5787 362.907 27.64C362.95 26.7013 362.971 25.4853 362.971 23.992C362.971 22.4987 362.95 21.2827 362.907 20.344C362.864 19.4053 362.758 18.6693 362.587 18.136C362.438 17.6027 362.192 17.2187 361.851 16.984C361.51 16.7493 361.04 16.6 360.443 16.536C359.867 16.472 359.11 16.44 358.171 16.44C357.254 16.44 356.496 16.472 355.899 16.536C355.323 16.6 354.864 16.7493 354.523 16.984C354.182 17.2187 353.926 17.6027 353.755 18.136C353.606 18.6693 353.51 19.4053 353.467 20.344C353.424 21.2827 353.403 22.4987 353.403 23.992C353.403 25.4853 353.424 26.7013 353.467 27.64C353.51 28.5787 353.606 29.3147 353.755 29.848C353.926 30.3813 354.182 30.7653 354.523 31C354.864 31.2347 355.323 31.384 355.899 31.448C356.496 31.512 357.254 31.544 358.171 31.544ZM372.124 35V12.984H382.652C384.081 12.984 385.223 13.144 386.076 13.464C386.951 13.784 387.612 14.2533 388.06 14.872C388.508 15.4693 388.807 16.2053 388.956 17.08C389.127 17.9333 389.212 18.8933 389.212 19.96C389.212 20.7067 389.148 21.5067 389.02 22.36C388.892 23.2133 388.604 24.0027 388.156 24.728C387.729 25.4533 387.047 25.9867 386.108 26.328L389.628 35H384.828L381.5 26.168L382.62 26.776C382.471 26.84 382.289 26.8827 382.076 26.904C381.884 26.9253 381.66 26.936 381.404 26.936H376.668V35H372.124ZM376.668 23.256H380.828C381.724 23.256 382.428 23.2027 382.94 23.096C383.452 22.9893 383.836 22.8187 384.092 22.584C384.348 22.328 384.508 21.9973 384.572 21.592C384.636 21.1653 384.668 20.6213 384.668 19.96C384.668 19.2987 384.636 18.7547 384.572 18.328C384.508 17.9013 384.359 17.5707 384.124 17.336C383.889 17.1013 383.505 16.9307 382.972 16.824C382.46 16.7173 381.756 16.664 380.86 16.664H376.668V23.256Z" fill="#333D45"/>
<line x1="336.375" y1="24.625" x2="0.625" y2="24.625" stroke="#333D45" stroke-width="1.25" stroke-linecap="round" stroke-dasharray="6 6"/>
<line x1="737.375" y1="24.625" x2="401.625" y2="24.625" stroke="#333D45" stroke-width="1.25" stroke-linecap="round" stroke-dasharray="6 6"/>
<path d="M370.125 48C370.125 47.6548 369.845 47.375 369.5 47.375C369.155 47.375 368.875 47.6548 368.875 48L370.125 48ZM369.5 80L373.108 73.75L365.892 73.75L369.5 80ZM368.875 50.6667C368.875 51.0118 369.155 51.2917 369.5 51.2917C369.845 51.2917 370.125 51.0118 370.125 50.6667L368.875 50.6667ZM370.125 56C370.125 55.6548 369.845 55.375 369.5 55.375C369.155 55.375 368.875 55.6548 368.875 56L370.125 56ZM368.875 61.3333C368.875 61.6785 369.155 61.9583 369.5 61.9583C369.845 61.9583 370.125 61.6785 370.125 61.3333L368.875 61.3333ZM370.125 66.6667C370.125 66.3215 369.845 66.0417 369.5 66.0417C369.155 66.0417 368.875 66.3215 368.875 66.6667L370.125 66.6667ZM368.875 72C368.875 72.3452 369.155 72.625 369.5 72.625C369.845 72.625 370.125 72.3452 370.125 72L368.875 72ZM370.125 77.3333C370.125 76.9882 369.845 76.7083 369.5 76.7083C369.155 76.7083 368.875 76.9882 368.875 77.3333L370.125 77.3333ZM368.875 48L368.875 50.6667L370.125 50.6667L370.125 48L368.875 48ZM368.875 56L368.875 61.3333L370.125 61.3333L370.125 56L368.875 56ZM368.875 66.6667L368.875 72L370.125 72L370.125 66.6667L368.875 66.6667Z" fill="#333D45"/>
</svg>
