<svg width="20" height="23" viewBox="0 0 20 23" fill="none" xmlns="http://www.w3.org/2000/svg">
<path d="M19.9999 1.00004C19.9999 0.447755 19.5522 4.39163e-05 18.9999 4.26758e-05L1 2.24611e-06C0.447716 1.00562e-06 0 0.447717 0 1V20.0833C0 20.6356 0.447715 21.0833 1 21.0833H1.93538V23L2.90311 22.3611L3.87084 23V21.0833H19C19.5523 21.0833 20 20.6356 20 20.0833L19.9999 1.00004ZM12.6166 7.0318H15.067V7.7147H14.2394V9.88412H13.4483V7.7147H12.6166V7.0318ZM10.0648 7.0318H11.3874C11.528 7.0318 11.6578 7.0606 11.7768 7.11819C11.8959 7.17582 11.998 7.25075 12.0832 7.34315C12.1683 7.43556 12.2352 7.54149 12.2839 7.66057C12.3327 7.7798 12.357 7.89956 12.357 8.02013C12.357 8.18625 12.3205 8.34091 12.2475 8.48417C12.1744 8.62747 12.073 8.74463 11.9431 8.83568L12.5517 9.88421H11.6592L11.152 9.00836H10.8559V9.88416H10.0648V7.0318ZM6.28802 11.2352H5.10345V11.7092H6.06901V12.344H5.10345V13.4046H4.31236V10.5522H6.28806L6.28802 11.2352ZM6.26166 8.70514C6.17915 8.79755 6.07917 8.87126 5.96145 8.92607C5.84382 8.98096 5.71467 9.00841 5.57405 9.00841H5.10345V9.88421H4.31236V7.0318H5.55373C5.69435 7.0318 5.82414 7.0606 5.94321 7.11819C6.0622 7.17582 6.16431 7.25075 6.24946 7.34315C6.33461 7.43556 6.40161 7.54149 6.45024 7.66057C6.49896 7.7798 6.52327 7.89956 6.52327 8.02013C6.52333 8.14581 6.49997 8.27043 6.45437 8.38772C6.40828 8.50686 6.34409 8.61269 6.26166 8.70514ZM9.27786 12.5307C9.20483 12.7035 9.1034 12.8562 8.97361 12.9888C8.84383 13.1213 8.68896 13.2277 8.50909 13.3082C8.32923 13.3885 8.13244 13.4286 7.91892 13.4286C7.69981 13.4286 7.50099 13.3872 7.32253 13.3041C7.14402 13.2211 6.99115 13.112 6.86413 12.9767C6.73698 12.8415 6.63827 12.6868 6.568 12.5126C6.49822 12.3416 6.46242 12.1588 6.46253 11.9743C6.46253 11.7868 6.499 11.606 6.57204 11.432C6.64507 11.258 6.74714 11.1047 6.87838 10.972C7.00948 10.8395 7.16498 10.7337 7.34485 10.6546C7.52471 10.5756 7.7215 10.5361 7.93511 10.5361C8.15422 10.5361 8.353 10.5776 8.53146 10.6606C8.71005 10.7437 8.86274 10.8534 8.9899 10.99C9.11647 11.1258 9.21624 11.2839 9.28403 11.4561C9.35294 11.6302 9.38751 11.8083 9.38751 11.9904C9.38783 12.1759 9.35054 12.3597 9.27786 12.5307ZM9.55775 9.01029C9.48472 9.18306 9.38329 9.33575 9.2535 9.46832C9.12367 9.60088 8.96885 9.7073 8.78898 9.78771C8.60912 9.86803 8.41233 9.90819 8.19872 9.90819C7.97971 9.90819 7.78083 9.86669 7.60233 9.78367C7.42382 9.70065 7.27095 9.59154 7.14393 9.45623C7.01678 9.32106 6.91807 9.16635 6.8478 8.99219C6.77802 8.82113 6.74222 8.63834 6.74233 8.45385C6.74211 8.26767 6.77935 8.08331 6.85189 7.91155C6.92492 7.73743 7.02699 7.58412 7.15822 7.45155C7.28932 7.31899 7.44483 7.21324 7.62469 7.13413C7.80456 7.05516 8.00134 7.01567 8.21496 7.01567C8.43397 7.01567 8.63284 7.05718 8.8113 7.1402C8.9899 7.22326 9.14259 7.333 9.26974 7.46961C9.39632 7.6054 9.49608 7.76346 9.56388 7.93563C9.63278 8.10979 9.66735 8.28786 9.66735 8.46993C9.66772 8.6555 9.63045 8.83926 9.55775 9.01029ZM11.8824 13.4046H9.78502V10.5523H10.5761V12.7217H11.8824V13.4046ZM13.0102 13.4046H12.2191V10.5523H13.0102V13.4046ZM16.2232 12.5308C16.1501 12.7035 16.0487 12.8562 15.9189 12.9888C15.7891 13.1214 15.6342 13.2278 15.4544 13.3082C15.2745 13.3885 15.0777 13.4287 14.8642 13.4287C14.6452 13.4287 14.4463 13.3872 14.2678 13.3042C14.0893 13.2212 13.9364 13.112 13.8094 12.9767C13.6823 12.8415 13.5836 12.6868 13.5133 12.5127C13.4435 12.3416 13.4077 12.1588 13.4078 11.9743C13.4078 11.7869 13.4443 11.6061 13.5173 11.432C13.5904 11.2579 13.6924 11.1046 13.8237 10.972C13.9548 10.8395 14.1103 10.7337 14.2901 10.6546C14.47 10.5756 14.6668 10.5361 14.8804 10.5361C15.0995 10.5361 15.2983 10.5776 15.4767 10.6606C15.6553 10.7437 15.808 10.8535 15.9353 10.9901C16.0618 11.1259 16.1616 11.2839 16.2294 11.4561C16.2983 11.6302 16.3328 11.8083 16.3328 11.9904C16.3331 12.176 16.2958 12.3597 16.2232 12.5308Z" fill="#333D45"/>
</svg>
