<svg width="6" height="12" viewBox="0 0 6 12" fill="none" xmlns="http://www.w3.org/2000/svg">
<path d="M5.83136 10.4629C5.94079 10.5783 6.00135 10.7329 5.99998 10.8934C5.99861 11.0538 5.93543 11.2073 5.82404 11.3208C5.71266 11.4342 5.56198 11.4986 5.40447 11.5C5.24695 11.5014 5.0952 11.4397 4.9819 11.3282L0.175891 6.43265C0.0632679 6.31789 -2.43517e-07 6.16227 -2.36425e-07 6C-2.29332e-07 5.83773 0.063268 5.68211 0.175891 5.56735L4.9819 0.671779C5.0952 0.560307 5.24695 0.498629 5.40447 0.500023C5.56198 0.501417 5.71266 0.56577 5.82404 0.67923C5.93543 0.792689 5.99861 0.946178 5.99998 1.10663C6.00135 1.26708 5.94079 1.42166 5.83136 1.53707L1.45008 6L5.83136 10.4629Z" fill="#A1A8AE" fill-opacity="0.3"/>
</svg>
