<svg width="216" height="7" viewBox="0 0 216 7" fill="none" xmlns="http://www.w3.org/2000/svg">
<path d="M1 1L4.37868 4.37868C5.55025 5.55025 7.44975 5.55025 8.62132 4.37868L9.87868 3.12132C11.0503 1.94975 12.9497 1.94975 14.1213 3.12132L15.3787 4.37868C16.5503 5.55025 18.4497 5.55025 19.6213 4.37868L20.8787 3.12132C22.0503 1.94975 23.9497 1.94975 25.1213 3.12132L26.3787 4.37868C27.5503 5.55025 29.4497 5.55025 30.6213 4.37868L31.8787 3.12132C33.0503 1.94975 34.9497 1.94975 36.1213 3.12132L37.3787 4.37868C38.5503 5.55025 40.4497 5.55025 41.6213 4.37868L42.8787 3.12132C44.0503 1.94975 45.9497 1.94975 47.1213 3.12132L48.3787 4.37868C49.5503 5.55025 51.4497 5.55025 52.6213 4.37868L53.8787 3.12132C55.0503 1.94975 56.9497 1.94975 58.1213 3.12132L59.3787 4.37868C60.5503 5.55025 62.4497 5.55025 63.6213 4.37868L64.8787 3.12132C66.0503 1.94975 67.9497 1.94975 69.1213 3.12132L70.3787 4.37868C71.5503 5.55025 73.4497 5.55025 74.6213 4.37868L75.8787 3.12132C77.0503 1.94975 78.9497 1.94975 80.1213 3.12132L81.3787 4.37868C82.5503 5.55025 84.4497 5.55025 85.6213 4.37868L86.8787 3.12132C88.0503 1.94975 89.9497 1.94975 91.1213 3.12132L92.3787 4.37868C93.5503 5.55025 95.4497 5.55025 96.6213 4.37868L97.8787 3.12132C99.0503 1.94975 100.95 1.94975 102.121 3.12132L103.379 4.37868C104.55 5.55025 106.45 5.55025 107.621 4.37868L108.879 3.12132C110.05 1.94975 111.95 1.94975 113.121 3.12132L114.379 4.37868C115.55 5.55025 117.45 5.55025 118.621 4.37868L119.879 3.12132C121.05 1.94975 122.95 1.94975 124.121 3.12132L125.379 4.37868C126.55 5.55025 128.45 5.55025 129.621 4.37868L130.879 3.12132C132.05 1.94975 133.95 1.94975 135.121 3.12132L136.379 4.37868C137.55 5.55025 139.45 5.55025 140.621 4.37868L141.879 3.12132C143.05 1.94975 144.95 1.94975 146.121 3.12132L147.379 4.37868C148.55 5.55025 150.45 5.55025 151.621 4.37868L152.879 3.12132C154.05 1.94975 155.95 1.94975 157.121 3.12132L158.379 4.37868C159.55 5.55025 161.45 5.55025 162.621 4.37868L163.879 3.12132C165.05 1.94975 166.95 1.94975 168.121 3.12132L169.379 4.37868C170.55 5.55025 172.45 5.55025 173.621 4.37868L174.879 3.12132C176.05 1.94975 177.95 1.94975 179.121 3.12132L180.379 4.37868C181.55 5.55025 183.45 5.55025 184.621 4.37868L185.879 3.12132C187.05 1.94975 188.95 1.94975 190.121 3.12132L191.379 4.37868C192.55 5.55025 194.45 5.55025 195.621 4.37868L196.879 3.12132C198.05 1.94975 199.95 1.94975 201.121 3.12132L202.379 4.37868C203.55 5.55025 205.45 5.55025 206.621 4.37868L207.879 3.12132C209.05 1.94975 210.95 1.94975 212.121 3.12132L215.5 6.5" stroke="#000C17" stroke-linecap="round"/>
</svg>
