<svg width="24" height="24" viewBox="0 0 24 24" fill="none" xmlns="http://www.w3.org/2000/svg">
<path fill-rule="evenodd" clip-rule="evenodd" d="M9.00469 0C8.84556 0 8.69295 0.0632142 8.58042 0.175736C8.4679 0.288258 8.40469 0.44087 8.40469 0.6C8.40469 0.75913 8.4679 0.911742 8.58042 1.02426C8.69295 1.13679 8.84556 1.2 9.00469 1.2H9.60469V4.8H6.00469C5.68643 4.8 5.3812 4.92643 5.15616 5.15147C4.93112 5.37652 4.80469 5.68174 4.80469 6V21.6C4.80469 21.9183 4.93112 22.2235 5.15616 22.4485C5.3812 22.6736 5.68643 22.8 6.00469 22.8C6.00469 23.1183 6.13112 23.4235 6.35616 23.6485C6.5812 23.8736 6.88643 24 7.20469 24C7.52295 24 7.82817 23.8736 8.05322 23.6485C8.27826 23.4235 8.40469 23.1183 8.40469 22.8H15.6047C15.6047 23.1183 15.7311 23.4235 15.9562 23.6485C16.1812 23.8736 16.4864 24 16.8047 24C17.1229 24 17.4282 23.8736 17.6532 23.6485C17.8783 23.4235 18.0047 23.1183 18.0047 22.8C18.3229 22.8 18.6282 22.6736 18.8532 22.4485C19.0783 22.2235 19.2047 21.9183 19.2047 21.6V6C19.2047 5.68174 19.0783 5.37652 18.8532 5.15147C18.6282 4.92643 18.3229 4.8 18.0047 4.8H14.4047V1.2H15.0047C15.1638 1.2 15.3164 1.13679 15.429 1.02426C15.5415 0.911742 15.6047 0.75913 15.6047 0.6C15.6047 0.44087 15.5415 0.288258 15.429 0.175736C15.3164 0.0632142 15.1638 0 15.0047 0H9.00469ZM13.2047 4.8V1.2H10.8047V4.8H13.2047ZM8.40469 9C8.40469 8.84087 8.4679 8.68826 8.58042 8.57574C8.69295 8.46321 8.84556 8.4 9.00469 8.4H15.0047C15.1638 8.4 15.3164 8.46321 15.429 8.57574C15.5415 8.68826 15.6047 8.84087 15.6047 9C15.6047 9.15913 15.5415 9.31174 15.429 9.42426C15.3164 9.53679 15.1638 9.6 15.0047 9.6H9.00469C8.84556 9.6 8.69295 9.53679 8.58042 9.42426C8.4679 9.31174 8.40469 9.15913 8.40469 9ZM9.00469 13.2C8.84556 13.2 8.69295 13.2632 8.58042 13.3757C8.4679 13.4883 8.40469 13.6409 8.40469 13.8C8.40469 13.9591 8.4679 14.1117 8.58042 14.2243C8.69295 14.3368 8.84556 14.4 9.00469 14.4H15.0047C15.1638 14.4 15.3164 14.3368 15.429 14.2243C15.5415 14.1117 15.6047 13.9591 15.6047 13.8C15.6047 13.6409 15.5415 13.4883 15.429 13.3757C15.3164 13.2632 15.1638 13.2 15.0047 13.2H9.00469Z" fill="#333D45"/>
</svg>
