<svg width="22" height="22" viewBox="0 0 22 22" fill="none" xmlns="http://www.w3.org/2000/svg">
<path d="M11.7595 12.3565L11.7784 12.3376C11.8042 12.3118 11.8256 12.2602 11.8388 12.1966C11.8558 12.1242 11.8568 12.0484 11.8398 11.9886L11.5849 11.0823C11.5402 10.9539 11.5707 10.8057 11.6733 10.7031L12.9657 9.41063C12.9881 9.38829 13.0129 9.36847 13.0416 9.35242C13.2172 9.25171 13.4412 9.31151 13.5429 9.48616L15.1834 12.3414L15.5097 12.015C15.5802 11.9446 15.6246 11.8624 15.6435 11.7762C15.6611 11.6906 15.6532 11.5971 15.6167 11.5052L14.3856 8.3262C14.3249 8.19056 14.3501 8.02629 14.4605 7.91583L15.7363 6.64006C15.7873 6.58908 15.8131 6.52048 15.8131 6.4525C15.8131 6.38264 15.7882 6.31498 15.7366 6.26337C15.685 6.21176 15.617 6.18658 15.5475 6.1869C15.4773 6.18667 15.4098 6.21429 15.3599 6.26369L14.0842 7.53946C13.985 7.63859 13.8318 7.67604 13.6917 7.62159L10.4938 6.38233C10.4029 6.34677 10.3091 6.33858 10.2235 6.35621C10.1369 6.37477 10.0548 6.41978 9.98464 6.48995L9.6583 6.81629L12.494 8.44609C12.5286 8.46309 12.561 8.48606 12.5897 8.5147C12.7332 8.6582 12.7332 8.89044 12.5897 9.03395L11.2972 10.3264C11.2063 10.4173 11.0697 10.4576 10.9378 10.4202L10.012 10.1596C9.95222 10.1426 9.87638 10.1436 9.80306 10.1596C9.74043 10.1738 9.68882 10.1952 9.66302 10.221L9.64414 10.2399L11.0936 10.6477C11.2132 10.6798 11.3149 10.7726 11.3517 10.902L11.7595 12.3565ZM12.2939 18.3162L8.82813 21.7819C8.53736 22.0727 8.06091 22.0727 7.77013 21.7819L6.39901 20.4108C6.18942 20.2012 6.16078 19.878 6.3304 19.6354C7.10644 18.5239 6.9985 16.9834 6.00752 15.9925C5.01655 15.0015 3.4758 14.8932 2.36462 15.6696C2.12199 15.8392 1.7988 15.8106 1.58921 15.601L0.218084 14.2299C-0.0726945 13.9391 -0.0726945 13.4626 0.218084 13.1719L3.68382 9.70613L4.18953 10.2118C4.33303 10.3553 4.56591 10.3547 4.70972 10.2109C4.85322 10.0674 4.85322 9.83516 4.70972 9.69166L4.20401 9.18594L13.1719 0.218084C13.4626 -0.0726945 13.9391 -0.0726945 14.2299 0.218083L21.7819 7.77013C22.0727 8.06091 22.0727 8.53736 21.7819 8.82813L12.8137 17.7963L12.308 17.2906C12.1645 17.1471 11.9323 17.1471 11.7888 17.2906C11.6453 17.4341 11.6443 17.6673 11.7878 17.8108L12.2936 18.3165L12.2939 18.3162ZM10.6996 11.3004L11.2179 13.1391C11.2328 13.2073 11.2669 13.2697 11.3161 13.3191C11.4596 13.4626 11.6934 13.463 11.8372 13.3191L12.2986 12.8578C12.4245 12.7319 12.5135 12.5485 12.5563 12.354C12.5963 12.1692 12.5963 11.9678 12.5466 11.7891L12.3448 11.0719L13.1467 10.2701L14.7765 13.1058C14.7925 13.1395 14.8155 13.1719 14.8442 13.2005C14.9877 13.344 15.2199 13.344 15.3634 13.2005L16.029 12.5349C16.2002 12.3637 16.3125 12.1551 16.3597 11.9291C16.4069 11.7032 16.389 11.4662 16.3015 11.2396L15.1504 8.2664L16.2565 7.16025C16.451 6.96577 16.5482 6.70803 16.5482 6.45313C16.5482 6.19634 16.451 5.94049 16.2556 5.74507C16.0601 5.54964 15.8043 5.4524 15.5475 5.4524C15.2926 5.4524 15.0349 5.54964 14.8404 5.74412L13.7342 6.85028L10.761 5.69849C10.5344 5.61101 10.2971 5.59339 10.0715 5.64028C9.84586 5.68779 9.6369 5.79983 9.4657 5.97102L8.80013 6.6366C8.77873 6.658 8.75796 6.6838 8.74191 6.71244C8.64026 6.8871 8.701 7.1121 8.87565 7.21375L11.7302 8.85362L10.9284 9.65547L10.2112 9.45375C10.0328 9.40371 9.83138 9.40371 9.64634 9.44399C9.45186 9.48679 9.26808 9.57616 9.14251 9.70173L8.68117 10.1631L8.68212 10.164C8.63837 10.2078 8.60627 10.2613 8.58771 10.3245C8.53232 10.519 8.64655 10.7226 8.84167 10.7767L10.6996 11.3004ZM6.21554 12.2379C6.35904 12.3814 6.59191 12.3807 6.73573 12.2369C6.87923 12.0934 6.87923 11.8612 6.73573 11.7177L6.23001 11.2119C6.08651 11.0684 5.85427 11.0684 5.71077 11.2119C5.56727 11.3554 5.56601 11.5883 5.70982 11.7321L6.21554 12.2379ZM8.24123 14.2635C8.38473 14.407 8.61855 14.4074 8.76236 14.2635C8.90586 14.12 8.90523 13.8872 8.76142 13.7434L8.25665 13.2386C8.11315 13.0951 7.87996 13.0941 7.73646 13.2376C7.59296 13.3811 7.59264 13.615 7.73646 13.7588L8.24123 14.2635ZM10.2682 16.2905C10.411 16.4334 10.6446 16.4334 10.7884 16.2895C10.9319 16.146 10.9312 15.9132 10.7884 15.7703L10.2827 15.2646C10.1392 15.1211 9.90691 15.1211 9.76341 15.2646C9.61991 15.4081 9.61896 15.6413 9.76246 15.7848L10.2682 16.2905Z" fill="#333D45"/>
</svg>
