<svg width="64" height="56" viewBox="0 0 64 56" fill="none" xmlns="http://www.w3.org/2000/svg">
<mask id="mask0_2097_32525" style="mask-type:alpha" maskUnits="userSpaceOnUse" x="0" y="0" width="64" height="56">
<path d="M0 56L36 56C51.464 56 64 43.464 64 28C64 12.536 51.464 4.49912e-06 36 3.14722e-06L30 2.62268e-06C13.4315 1.17422e-06 3.72146e-06 13.4315 2.27299e-06 30L0 56Z" fill="#000C17"/>
</mask>
<g mask="url(#mask0_2097_32525)">
<path d="M7.95486 38.9396C8.03673 39.321 8.25771 39.6024 8.50766 39.7593C8.74259 39.9067 8.98537 39.9401 9.237 39.8627C16.829 37.5268 23.8115 33.4899 29.641 28.0361C35.4706 22.5823 39.9632 15.884 42.7992 8.46427C42.8932 8.21835 42.876 7.97388 42.7446 7.72967C42.6047 7.46983 42.3386 7.23061 41.9635 7.12354C41.3143 6.93826 40.3297 7.28438 39.9058 8.33494C37.2054 15.029 33.0705 21.075 27.7688 26.0349C22.4671 30.9948 16.1594 34.7181 9.30049 36.9672C8.22406 37.3201 7.81318 38.2795 7.95486 38.9396ZM19.5759 51.2066C19.8007 52.2538 20.7086 52.6174 21.3361 52.4244C29.6033 49.8806 37.2067 45.4847 43.5548 39.5459C49.9028 33.6071 54.795 26.3131 57.8832 18.2335C58.1175 17.6203 57.8152 16.6901 56.7853 16.3962C55.9204 16.1493 54.7131 16.6215 54.2054 17.88C51.2957 25.0928 46.8403 31.6074 41.1277 36.9517C35.4152 42.296 28.6185 46.3079 21.2281 48.7312C19.9386 49.154 19.3872 50.3273 19.5759 51.2066Z" stroke="url(#paint0_linear_2097_32525)" stroke-width="7"/>
<path d="M6 3.60938C6 4.9226 6.24573 6.22295 6.72315 7.43621C7.20056 8.64947 7.90033 9.75186 8.78249 10.6804C9.66464 11.609 10.7119 12.3456 11.8645 12.8482C13.0171 13.3507 14.2524 13.6094 15.5 13.6094C16.7476 13.6094 17.9829 13.3507 19.1355 12.8482C20.2881 12.3456 21.3354 11.609 22.2175 10.6804C23.0997 9.75186 23.7994 8.64947 24.2769 7.43621C24.7543 6.22295 25 4.9226 25 3.60938L6 3.60938Z" fill="#1D7DFE" fill-opacity="0.7"/>
<path d="M6 3.60938C6 2.29616 6.24573 0.99585 6.72315 -0.217406C7.20057 -1.43066 7.90033 -2.53305 8.78249 -3.46164C9.66464 -4.39022 10.7119 -5.12682 11.8645 -5.62937C13.0171 -6.13191 14.2524 -6.39057 15.5 -6.39057C16.7476 -6.39057 17.9829 -6.13191 19.1355 -5.62937C20.2881 -5.12682 21.3354 -4.39022 22.2175 -3.46164C23.0997 -2.53305 23.7994 -1.43066 24.2769 -0.217404C24.7543 0.995852 25 2.29616 25 3.60938L6 3.60938Z" fill="#1D7DFE" fill-opacity="0.7"/>
<path d="M5 23.6055C6.31322 23.6055 7.61358 23.3468 8.82684 22.8443C10.0401 22.3417 11.1425 21.6051 12.0711 20.6765C12.9997 19.748 13.7362 18.6456 14.2388 17.4323C14.7413 16.219 15 14.9187 15 13.6055C15 12.2923 14.7413 10.9919 14.2388 9.77863C13.7362 8.56538 12.9997 7.46299 12.0711 6.5344C11.1425 5.60582 10.0401 4.86922 8.82684 4.36667C7.61358 3.86413 6.31322 3.60547 5 3.60547L5 23.6055Z" fill="#1D7DFE" fill-opacity="0.7"/>
<path d="M5 3.60547C3.68678 3.60547 2.38642 3.86418 1.17317 4.36673C-0.0400899 4.86927 -1.14248 5.60587 -2.07107 6.53445C-2.99965 7.46304 -3.73625 8.56543 -4.23879 9.77869C-4.74134 10.9919 -5 12.2923 -5 13.6055C-5 14.9187 -4.74134 16.2191 -4.23879 17.4324C-3.73625 18.6456 -2.99965 19.748 -2.07107 20.6766C-1.14248 21.6052 -0.04009 22.3418 1.17317 22.8443C2.38642 23.3469 3.68678 23.6055 5 23.6055L5 3.60547Z" fill="#1D7DFE" fill-opacity="0.7"/>
</g>
<defs>
<linearGradient id="paint0_linear_2097_32525" x1="-53.1325" y1="-20.7674" x2="63.7577" y2="33.4912" gradientUnits="userSpaceOnUse">
<stop stop-color="#C9E0FF" stop-opacity="0.41"/>
<stop offset="1" stop-color="#1D7DFE" stop-opacity="0"/>
</linearGradient>
</defs>
</svg>
