<svg width="152" height="118" viewBox="0 0 152 118" fill="none" xmlns="http://www.w3.org/2000/svg">
<g clip-path="url(#clip0_2103_52878)">
<path d="M78.3736 28.0984C77.9381 26.7231 77.5435 25.3891 77.0808 24.0825C75.965 20.8918 74.6586 17.7974 72.6855 15.0331C71.9779 14.0291 71.9507 14.0291 72.6991 13.0527C76.4957 8.06038 81.2993 4.44336 87.137 2.21539C91.5868 0.523783 96.1999 -0.0675921 100.908 0.248725C112.257 0.991382 120.517 6.78136 126.409 16.3671C128.451 19.6953 129.662 23.3124 130.26 27.1494C130.791 30.5464 130.873 33.9571 130.437 37.3816C129.839 42.1263 128.178 46.4585 125.538 50.4194C125.117 51.052 125.117 51.0382 125.675 51.5884C130.002 55.8793 134.316 60.1702 138.643 64.4611C138.806 64.6261 139.065 64.7499 139.051 65.0525C138.861 65.2588 138.616 65.1625 138.412 65.1625C133.349 65.1625 128.287 65.1625 123.212 65.1762C122.667 65.1762 122.273 64.9974 121.892 64.6261C120.299 63.0995 118.68 61.6005 117.102 60.0739C116.748 59.7301 116.489 59.7026 116.054 59.9776C112.189 62.4394 107.998 64.0347 103.494 64.8049C99.3705 65.5063 95.261 65.4238 91.1786 64.4611C87.3276 63.5534 83.7623 61.903 80.4556 59.6888C78.0198 58.0522 75.7473 56.1956 73.7061 54.0776C72.182 52.496 70.9709 50.6669 69.8006 48.824C67.773 45.6471 66.1129 42.3051 64.9834 38.6881C64.6296 37.5329 64.4255 36.3364 64.1806 35.1536C63.4866 31.7429 62.3299 28.4972 60.6833 25.4303C58.9279 22.1846 56.6962 19.3378 53.7025 17.1511C50.7496 14.9918 47.4429 13.7541 43.8368 13.314C42.2583 13.1215 40.6661 13.0527 39.1012 13.2177C36.7471 13.4653 34.5154 14.1942 32.4198 15.3082C27.9972 17.6599 25.0171 21.2769 23.2481 25.9667C23.2072 26.0767 23.18 26.1867 23.1528 26.2967C23.1392 26.338 23.1664 26.3793 23.18 26.4343C23.3977 26.5993 23.6563 26.5168 23.9012 26.5168C34.8011 26.5168 45.7011 26.5168 56.601 26.5168C57.431 26.5168 57.431 26.5168 57.7168 27.287C59.064 30.8902 60.3976 34.4935 61.7311 38.0967C61.908 38.5781 61.8672 38.6606 61.3637 38.6881C61.2004 38.7019 61.0507 38.6881 60.8875 38.6881C48.5587 38.6881 36.2436 38.6881 23.9148 38.6881C23.6699 38.6881 23.425 38.6331 23.2072 38.7431C23.1256 38.9357 23.2072 39.087 23.2753 39.2245C25.0851 43.1578 27.5209 46.596 30.9365 49.2779C33.1818 51.0382 35.6993 52.1797 38.5161 52.5098C40.6525 52.7711 42.8026 52.6061 44.8982 52.0147C48.4498 51.0245 51.5933 49.2091 54.5326 47.0086C55.1994 46.5135 55.1994 46.4998 55.7981 47.1049C58.4516 49.7867 61.1052 52.4685 63.7723 55.1504C64.3575 55.7417 64.3575 55.7417 63.7315 56.3194C60.0982 59.6338 55.9478 62.0543 51.2803 63.5671C47.9872 64.6399 44.5988 65.1762 41.156 65.1212C36.7062 65.0387 32.4742 63.966 28.3238 62.3569C23.0984 60.3352 19.2337 56.6494 15.8998 52.3035C13.3143 48.934 11.4364 45.1932 10.2934 41.0811C9.35441 37.6704 8.987 34.1909 9.17751 30.6564C9.28637 28.731 9.43606 26.8194 9.95316 24.9765C11.1098 20.9194 12.8516 17.1236 15.2602 13.6578C18.1451 9.50444 21.792 6.25875 26.2554 3.907C29.0722 2.49045 31.9435 1.33521 35.0053 0.688818C37.9173 0.08369 40.8703 -0.15011 43.8368 0.0974429C50.3413 0.661312 56.2199 2.95805 61.4454 6.85012C66.6436 10.7284 70.4538 15.7758 73.1618 21.6895C74.7947 25.2653 75.9786 28.9923 76.7542 32.8431C77.7612 37.8492 80.2787 41.9751 83.7079 45.6058C85.9804 48.0126 88.6203 49.9105 91.7365 51.052C94.7439 52.166 97.8328 52.4548 101.003 51.9734C102.841 51.6984 104.61 51.2033 106.351 50.5431C106.515 50.4744 106.692 50.4056 106.855 50.3368C107.141 50.2268 107.195 50.0618 106.977 49.828C106.868 49.718 106.76 49.5942 106.637 49.4842C102.106 44.9044 97.5879 40.3385 93.0565 35.7587C92.4986 35.1949 92.5122 35.1949 93.0565 34.6585C95.5331 32.2243 98.0234 29.79 100.5 27.342C101.099 26.7506 101.099 26.7506 101.711 27.3695C106.243 31.9354 110.76 36.5152 115.292 41.0811C115.36 41.1499 115.414 41.2187 115.482 41.2737C115.85 41.6175 115.945 41.6037 116.149 41.1224C116.544 40.2009 116.87 39.252 117.129 38.2893C117.619 36.5014 117.904 34.6723 117.918 32.8156C117.959 27.8783 116.272 23.6012 113.074 19.8741C109.917 16.1884 105.943 14.0842 101.221 13.314C96.4176 12.5301 91.9679 13.369 87.9671 16.2434C85.1231 18.2788 82.973 20.9331 81.2857 23.9725C80.51 25.3753 79.4894 26.5993 78.5913 27.9058C78.5777 27.9884 78.496 28.0159 78.3736 28.0984Z" fill="url(#paint0_linear_2103_52878)"/>
<path d="M135.758 89.6564C135.812 89.3951 135.69 89.1751 135.567 88.955C134.955 87.731 134.193 86.5895 133.322 85.5443C132.9 85.0354 132.41 84.5816 131.785 84.334C130.9 83.9765 130.356 84.3478 130.369 85.2967C130.369 85.5718 130.383 85.8469 130.465 86.1082C130.587 86.4932 130.424 86.6033 130.084 86.6308C129.73 86.6583 129.362 86.6995 129.008 86.7408C128.709 86.7821 128.587 86.6445 128.627 86.342C128.804 85.1867 129.158 84.114 130.084 83.3438C131.063 82.5187 132.166 82.5462 133.268 83.0688C134.37 83.5776 135.159 84.4716 135.88 85.4068C136.751 86.5483 137.459 87.7998 137.976 89.1476C138.112 89.5051 138.316 89.6427 138.684 89.6289C139.813 89.6152 140.943 89.6014 142.072 89.6289C142.902 89.6427 143.596 89.2438 143.596 88.1436C143.583 85.8881 143.651 83.6189 143.555 81.3634C143.528 80.8408 143.419 80.3182 143.338 79.8093C143.283 79.4655 143.351 79.2455 143.746 79.1767C144.195 79.1079 144.63 78.9842 145.052 78.8466C145.488 78.7091 145.569 78.9154 145.569 79.2867C145.569 80.2907 145.569 81.2947 145.569 82.2986C145.569 84.2653 145.569 86.2319 145.569 88.1986C145.569 88.7075 145.515 89.2026 145.352 89.6839C144.971 90.7429 144.086 91.3618 142.889 91.3893C141.718 91.4168 140.534 91.4305 139.364 91.4168C135.527 91.3893 131.676 91.403 127.838 91.4168C123.81 91.4305 119.782 91.403 115.768 91.3893C114.938 91.3893 114.094 91.403 113.264 91.3893C112.87 91.3755 112.706 91.5406 112.625 91.9257C112.189 93.8511 110.937 94.965 109.127 95.5702C108.76 95.694 108.583 95.5839 108.42 95.2676C108.216 94.8688 108.556 94.8 108.774 94.69C109.862 94.1261 110.556 93.2459 110.788 92.0219C110.883 91.4993 110.815 91.4168 110.298 91.403C109.849 91.3893 109.4 91.403 108.937 91.403C107.127 91.3755 105.821 90.2478 105.494 88.4462C105.113 86.3282 106.134 84.2103 107.957 83.3576C108.515 83.0963 109.114 82.9587 109.726 82.945C110.543 82.9312 111.359 82.9588 112.162 82.9312C112.652 82.9175 112.774 83.1238 112.774 83.5776C112.747 85.3793 112.761 87.1946 112.761 88.9963C112.761 89.7664 112.761 89.7664 113.496 89.7664C120.68 89.7664 127.879 89.7664 135.064 89.7664C135.323 89.7527 135.554 89.8352 135.758 89.6564ZM110.842 86.8646C110.842 86.1082 110.842 85.3655 110.842 84.6091C110.842 84.3753 110.828 84.169 110.515 84.114C109.277 83.8664 108.202 84.4166 107.739 85.6131C107.386 86.5345 107.345 87.4697 107.59 88.4187C107.794 89.1613 108.27 89.5602 109.046 89.6152C109.454 89.6427 109.862 89.6014 110.257 89.6427C110.719 89.6839 110.842 89.4639 110.842 89.0375C110.828 88.3224 110.842 87.5935 110.842 86.8646Z" fill="url(#paint1_linear_2103_52878)"/>
<path d="M17.4511 89.6427C19.397 89.6427 21.3429 89.6427 23.2753 89.6427C23.9012 89.6427 24.5408 89.6564 25.1668 89.6427C26.1329 89.6152 26.582 89.1751 26.5956 88.2124C26.6092 86.9746 26.6228 85.7506 26.3779 84.5266C26.2146 83.7014 26.1874 83.4814 27.1399 83.4126C27.1671 83.4126 27.1807 83.3989 27.2079 83.3989C28.5415 83.0963 28.5415 83.0963 28.5415 84.5128C28.5415 85.5443 28.5415 86.562 28.5415 87.5935C28.5415 87.8823 28.5687 88.1849 28.6096 88.4737C28.7184 89.2438 29.0994 89.6152 29.8751 89.6152C32.202 89.6289 34.529 89.6152 36.8559 89.6152C37.618 89.6152 38.3936 89.6289 39.1557 89.6289C40.3395 89.6289 40.7614 89.1888 40.8294 87.9786C40.8975 86.7408 40.7206 85.5168 40.5437 84.3065C40.4756 83.8389 40.5573 83.6189 41.0335 83.5639C41.3601 83.5226 41.6867 83.4126 42.0133 83.3301C42.7073 83.1513 42.7209 83.1513 42.7209 83.9215C42.7209 84.9529 42.7209 85.9706 42.7209 87.0021C42.7209 87.4422 42.7209 87.8685 42.7209 88.3086C42.7073 90.3578 41.7003 91.3893 39.6864 91.403C37.0873 91.403 34.4882 91.403 31.8891 91.403C31.1406 91.403 30.3922 91.3893 29.6574 91.403C29.0178 91.4168 28.3918 91.348 27.8339 91.0042C27.6298 90.8804 27.4665 90.8942 27.276 91.018C26.7181 91.348 26.0921 91.403 25.4525 91.403C20.8939 91.403 16.3216 91.403 11.763 91.403C10.8785 91.403 10.0076 91.403 9.12307 91.403C8.37464 91.403 7.68064 91.2243 7.10911 90.7291C6.82334 90.4816 6.5784 90.4954 6.25181 90.6329C5.53059 90.9217 4.75494 91.018 3.9929 90.963C2.40078 90.8529 1.40741 89.9727 1.0536 88.2399C0.604542 86.0257 1.3938 84.169 3.4622 83.3163C4.08816 83.055 4.76855 82.945 5.44895 82.945C5.81636 82.945 6.07491 82.89 5.99326 82.4224C5.93883 82.1198 6.15656 82.0236 6.38789 81.9685C6.82334 81.8585 7.25879 81.7623 7.70785 81.666C8.23856 81.556 8.27939 81.5972 8.27939 82.1748C8.27939 83.9765 8.27939 85.7781 8.27939 87.5935C8.27939 89.3814 8.63319 89.6702 10.4022 89.6427C12.2937 89.6014 14.1988 89.6427 16.0903 89.6564C16.553 89.6427 17.002 89.6427 17.4511 89.6427ZM6.38789 86.7408C6.38789 86.0807 6.38789 85.4205 6.38789 84.7604C6.38789 84.5128 6.34707 84.3203 6.04769 84.2653C4.82298 84.0452 3.53024 84.7054 3.10839 85.8469C2.82263 86.5895 2.89067 87.3872 3.122 88.1298C3.40776 89.0238 3.91126 89.3676 4.8502 89.3401C5.1904 89.3401 5.51699 89.2576 5.85718 89.2301C6.26542 89.2026 6.38789 88.9688 6.38789 88.5975C6.37428 87.9786 6.38789 87.3597 6.38789 86.7408Z" fill="url(#paint2_linear_2103_52878)"/>
<path d="M94.5125 115.842C95.1113 116.131 95.7508 116.158 96.336 116.337C96.5945 116.42 96.8667 116.447 97.1252 116.502C97.3566 116.543 97.724 116.502 97.6695 116.846C97.6151 117.231 97.5199 117.657 97.2341 117.96C97.1524 118.042 97.03 117.974 96.9211 117.932C95.4106 117.327 93.8321 116.97 92.308 116.42C92.0223 116.31 91.6821 116.351 91.3691 116.31C89.0285 115.952 87.3139 114.302 86.8377 111.936C86.3886 109.694 86.6336 107.563 88.0624 105.706C90.226 102.887 95.4651 102.873 97.1388 107.026C97.9281 108.993 97.8873 111.001 97.1252 112.968C96.6898 114.082 95.9277 114.948 94.8527 115.512C94.7439 115.567 94.5942 115.594 94.5125 115.842ZM88.3482 110.107C88.3209 111.221 88.5387 112.294 89.151 113.27C90.6071 115.636 93.8049 115.677 95.1793 113.27C96.404 111.138 96.3768 108.91 95.1657 106.751C93.8321 104.386 90.4574 104.537 89.1646 106.793C88.5795 107.824 88.3209 108.91 88.3482 110.107Z" fill="url(#paint3_linear_2103_52878)"/>
<path d="M79.367 113.6C79.6119 113.229 79.4078 107.178 79.3806 104.427C79.3806 104.069 79.5166 103.932 79.8568 103.932C80.061 103.932 80.2651 103.932 80.4692 103.932C80.7413 103.946 80.8638 104.083 80.8638 104.372C80.8638 108.14 80.8638 111.909 80.8638 115.677C80.8638 115.993 80.7141 116.117 80.4148 116.145C80.0065 116.186 79.3125 116.227 79.0131 116.076C78.7818 115.952 75.4479 110.121 73.9374 107.411C73.7333 107.04 73.6244 106.614 73.2842 106.284C73.0665 106.531 73.1618 106.793 73.1618 107.013C73.257 109.777 73.257 112.541 73.2434 115.306C73.2434 115.567 73.3659 115.911 73.0801 116.062C72.7399 116.241 72.3317 116.186 71.9507 116.103C71.7193 116.048 71.7738 115.814 71.7738 115.636C71.7738 114.7 71.7738 113.765 71.7738 112.83C71.7738 110.093 71.7738 107.343 71.7738 104.606C71.7738 103.959 71.7874 103.987 72.3997 103.932C72.8488 103.891 73.6925 103.877 73.9918 104.097C74.196 104.235 79.0948 113.325 79.367 113.6Z" fill="url(#paint4_linear_2103_52878)"/>
<path d="M40.4484 109.791C40.4484 111.221 40.2171 112.39 39.6592 113.49C38.5977 115.539 36.4069 116.653 34.0935 116.323C31.8346 116.007 30.0384 114.274 29.5893 111.991C29.2083 110.066 29.3444 108.223 30.2969 106.476C31.3583 104.551 33.59 103.451 35.7401 103.767C38.0398 104.111 39.6728 105.665 40.2035 107.948C40.3532 108.635 40.4756 109.296 40.4484 109.791ZM31.0862 109.942C31.0862 111.235 31.3175 112.404 32.0115 113.449C33.4267 115.567 36.3388 115.594 37.7949 113.518C38.2439 112.871 38.5025 112.142 38.6522 111.386C38.9924 109.708 38.761 108.113 37.8493 106.655C36.4885 104.482 33.2635 104.537 31.9435 106.738C31.3311 107.755 31.1134 108.842 31.0862 109.942Z" fill="url(#paint5_linear_2103_52878)"/>
<path d="M74.4409 88.5562C74.6178 88.3912 74.5634 88.2261 74.5634 88.0748C74.5634 86.4933 74.5362 84.9254 74.5634 83.3438C74.5906 82.2161 74.4273 81.1159 74.2096 80.0156C74.1007 79.438 74.1415 79.3555 74.7131 79.2317C75.0805 79.1492 75.4615 79.0804 75.8425 78.9979C76.414 78.8879 76.4685 78.9292 76.4685 79.5205C76.4685 80.9371 76.4821 82.3536 76.4685 83.7702C76.4549 85.4893 76.5365 87.1946 76.4276 88.9138C76.3324 90.3578 75.271 91.3755 73.8558 91.3893C72.182 91.4168 70.5082 91.403 68.8344 91.3893C68.2765 91.3893 68.2357 91.3068 68.4806 90.7979C69.1338 89.4089 68.8617 89.6564 70.2633 89.6289C71.1206 89.6152 71.9779 89.6289 72.9985 89.6289C72.1956 88.0748 71.2975 86.7133 70.5354 85.2968C69.7734 83.8802 68.8208 82.6012 67.7866 81.3634C68.5759 81.1846 69.2835 81.2259 69.9911 81.2534C70.2769 81.2671 70.3585 81.556 70.481 81.776C71.6921 83.8802 72.9032 85.9981 74.1143 88.1023C74.196 88.2674 74.2368 88.4599 74.4409 88.5562Z" fill="url(#paint6_linear_2103_52878)"/>
<path d="M25.7519 110.382C26.8814 111.001 27.2079 112.074 27.4529 113.215C27.6298 114.013 27.8747 114.797 28.0789 115.594C28.1197 115.759 28.2558 115.938 28.0652 116.103C27.6978 116.406 26.6092 116.103 26.4731 115.636C26.2554 114.921 26.0921 114.192 25.9016 113.463C25.7927 113.023 25.6839 112.583 25.507 112.156C25.1668 111.4 24.568 111.015 23.7788 110.918C21.9825 110.712 21.9825 110.712 21.9825 112.514C21.9825 113.49 21.9825 114.48 21.9825 115.457C21.9825 116.131 21.9553 116.158 21.3021 116.158C21.1388 116.158 20.9891 116.158 20.8259 116.158C20.5265 116.145 20.3632 116.007 20.3768 115.691C20.3768 115.594 20.3768 115.512 20.3768 115.416C20.3768 111.895 20.3768 108.374 20.3768 104.867C20.3768 104.152 20.4176 104.083 21.1252 104.014C22.6085 103.877 24.0917 103.726 25.5614 104.152C26.8678 104.537 27.657 105.39 27.8067 106.751C27.9564 108.113 27.4937 109.213 26.3098 109.956C26.1601 110.052 25.9424 110.093 25.7519 110.382ZM21.9825 107.384C21.9825 107.975 21.9825 108.567 21.9825 109.172C21.9825 109.406 21.9961 109.653 22.3227 109.653C23.1392 109.653 23.9557 109.736 24.7449 109.488C25.6703 109.199 26.2962 108.347 26.3234 107.384C26.3507 106.394 25.7791 105.624 24.7994 105.28C24.0101 105.005 23.1936 105.128 22.3771 105.142C22.0642 105.156 21.9825 105.376 21.9825 105.665C21.9961 106.242 21.9825 106.82 21.9825 107.384Z" fill="url(#paint7_linear_2103_52878)"/>
<path d="M51.8246 87.5247C51.7702 88.735 51.8926 90.1653 51.7293 91.6093C51.5116 93.521 49.8515 95.3364 48.0008 95.6389C47.6198 95.7077 47.5245 95.4464 47.4156 95.2126C47.2524 94.8825 47.5381 94.8138 47.7286 94.7312C48.8173 94.2911 49.4568 93.466 49.7426 92.3382C49.9195 91.6093 49.8515 91.5268 49.1438 91.6919C47.1843 92.1595 45.7147 91.5131 44.9254 89.794C44.1362 88.0886 44.558 85.6406 45.878 84.3203C46.6128 83.5776 47.5109 83.2063 48.5587 83.1788C49.4568 83.165 50.3686 83.1926 51.2667 83.165C51.6749 83.1513 51.8246 83.3163 51.8246 83.7289C51.811 84.9254 51.8246 86.1082 51.8246 87.5247ZM49.9195 87.3047C49.9195 86.507 49.9195 85.7093 49.9195 84.9117C49.9195 84.6504 49.9059 84.4303 49.5657 84.3753C48.1233 84.1277 47.0482 84.8429 46.64 86.2732C46.3542 87.2772 46.3951 88.2536 46.6808 89.2438C46.8441 89.8215 47.1571 90.3028 47.7695 90.4403C48.2729 90.5504 48.8036 90.5091 49.3071 90.3991C49.7426 90.3028 49.9467 90.069 49.9195 89.5877C49.8923 88.8037 49.9195 88.0473 49.9195 87.3047Z" fill="url(#paint8_linear_2103_52878)"/>
<path d="M65.9768 91.2517C65.8271 93.741 64.2214 95.0063 62.2891 95.6114C61.9353 95.7214 61.7856 95.5427 61.6495 95.2813C61.4862 94.9513 61.7039 94.8275 61.9489 94.7312C63.1191 94.2636 63.7723 93.3559 64.0037 92.1319C64.0989 91.6368 64.0309 91.5543 63.541 91.6643C62.7109 91.8431 61.8808 91.9807 61.078 91.6643C59.6355 91.1005 58.9551 89.9315 58.8191 88.4462C58.6694 86.8371 59.0096 85.3517 60.2479 84.2103C60.9555 83.5501 61.7992 83.2063 62.7653 83.1925C63.6499 83.1788 64.5344 83.2063 65.4053 83.1788C65.8679 83.165 66.0448 83.3026 66.0312 83.7977C66.004 85.0354 66.0176 86.2594 66.0176 87.4972C66.0176 87.4835 66.0584 90.0002 65.9768 91.2517ZM64.1533 87.2496C64.1533 86.4795 64.1533 85.6956 64.1533 84.9254C64.1533 84.7054 64.1806 84.4716 63.8676 84.389C62.6837 84.0727 61.3637 84.7329 60.9555 85.9294C60.5609 87.0571 60.5745 88.2124 60.9419 89.3539C61.1188 89.8765 61.4454 90.3166 61.9761 90.4266C62.5204 90.5503 63.0919 90.5091 63.6499 90.3441C64.0037 90.234 64.167 90.0415 64.1533 89.6564C64.1261 88.845 64.1533 88.0473 64.1533 87.2496Z" fill="url(#paint9_linear_2103_52878)"/>
<path d="M10.4158 108.292C10.4158 109.254 10.4158 110.217 10.4158 111.166C10.4158 111.757 10.4566 112.349 10.6063 112.926C10.9465 114.233 11.8991 115.031 13.1782 115.058C14.4982 115.086 15.5188 114.329 15.8862 113.009C16.0631 112.39 16.1583 111.771 16.1583 111.111C16.1447 108.966 16.1583 106.82 16.1583 104.661C16.1583 103.932 16.1583 103.932 16.8524 103.918C17.0156 103.918 17.1653 103.918 17.3286 103.918C17.628 103.932 17.7777 104.069 17.7641 104.4C17.7096 106.958 17.8729 109.516 17.6552 112.074C17.6144 112.528 17.5327 112.968 17.3831 113.408C16.8115 115.154 15.5732 116.09 13.8042 116.31C12.9469 116.42 12.0896 116.337 11.2731 115.993C9.93955 115.429 9.29998 114.329 8.97339 112.968C8.8237 112.294 8.79648 111.606 8.79648 110.932C8.79648 108.828 8.79648 106.724 8.79648 104.62C8.79648 103.932 8.79649 103.932 9.46327 103.918C9.53131 103.918 9.59935 103.918 9.66739 103.918C10.3886 103.918 10.4022 103.932 10.4022 104.633C10.4158 105.871 10.4158 107.081 10.4158 108.292Z" fill="url(#paint10_linear_2103_52878)"/>
<path d="M69.1066 116.158C68.3446 116.158 68.3446 116.158 68.086 115.388C67.7866 114.522 67.4601 113.683 67.2015 112.803C67.0926 112.431 66.9021 112.335 66.5755 112.335C65.4733 112.335 64.3575 112.349 63.2552 112.335C62.8606 112.335 62.6837 112.514 62.5884 112.858C62.3027 113.765 61.9761 114.673 61.7175 115.581C61.5951 116.021 61.3637 116.186 60.9419 116.145C60.7786 116.131 60.6289 116.145 60.4656 116.145C59.9757 116.117 59.9213 116.035 60.0846 115.553C61.3093 111.936 62.5204 108.319 63.7451 104.702C64.0036 103.946 64.0036 103.946 64.7793 103.946C64.8745 103.946 64.9562 103.946 65.0515 103.946C65.8815 103.946 65.8951 103.946 66.1537 104.716C67.3512 108.25 68.5487 111.771 69.7462 115.306C70.0183 116.158 70.0183 116.158 69.1066 116.158ZM64.929 105.761C64.5888 105.995 64.6432 106.352 64.548 106.641C64.1397 107.865 63.7451 109.103 63.3369 110.341C63.1191 111.001 63.16 111.083 63.8676 111.083C64.616 111.083 65.3644 111.097 66.1129 111.083C66.63 111.07 66.6708 111.028 66.5075 110.533C66.1537 109.433 65.7863 108.333 65.4189 107.233C65.2556 106.751 65.2148 106.229 64.929 105.761Z" fill="url(#paint11_linear_2103_52878)"/>
<path d="M114.829 103.946C114.965 103.946 115.101 103.946 115.237 103.946C115.632 103.918 115.822 104.083 115.959 104.482C117.142 108.044 118.367 111.592 119.551 115.141C119.905 116.186 119.891 116.172 118.775 116.172C118.326 116.172 118.136 115.966 118.013 115.581C117.728 114.687 117.401 113.82 117.129 112.926C117.006 112.514 116.816 112.335 116.367 112.335C115.305 112.362 114.244 112.362 113.183 112.335C112.774 112.321 112.584 112.5 112.461 112.885C112.203 113.752 111.903 114.618 111.618 115.484C111.4 116.158 111.386 116.158 110.651 116.158C109.767 116.158 109.767 116.145 110.053 115.278C111.25 111.716 112.434 108.168 113.632 104.606C113.877 103.932 113.877 103.946 114.829 103.946ZM114.843 105.651C114.707 105.83 114.652 105.871 114.625 105.926C114.203 107.508 113.645 109.048 113.128 110.588C112.992 111.001 113.21 111.07 113.523 111.07C114.353 111.07 115.196 111.056 116.027 111.07C116.38 111.07 116.544 110.96 116.408 110.588C115.904 108.993 115.333 107.398 114.843 105.651Z" fill="url(#paint12_linear_2103_52878)"/>
<path d="M99.7107 108.347C99.7107 107.095 99.7243 105.83 99.6971 104.578C99.6835 104.111 99.806 103.877 100.296 103.932C100.391 103.946 100.473 103.932 100.568 103.932C101.248 103.946 101.262 103.946 101.262 104.62C101.262 106.655 101.262 108.69 101.262 110.726C101.262 111.386 101.276 112.06 101.439 112.706C101.82 114.315 102.827 115.141 104.229 115.058C105.739 114.962 106.732 113.972 106.923 112.321C106.991 111.73 107.032 111.138 107.032 110.547C107.018 108.58 107.018 106.614 107.032 104.647C107.032 104.413 106.909 104.083 107.236 104.001C107.644 103.904 108.093 103.863 108.501 104.056C108.624 104.111 108.61 104.29 108.61 104.427C108.583 106.958 108.706 109.502 108.542 112.032C108.433 113.738 107.78 115.196 106.12 115.938C104.8 116.53 103.439 116.543 102.106 115.993C101.003 115.539 100.378 114.645 100.01 113.531C99.7515 112.761 99.7107 111.964 99.7107 111.166C99.7107 110.231 99.7107 109.282 99.7107 108.347Z" fill="url(#paint13_linear_2103_52878)"/>
<path d="M0.0194033 109.997C0.0194033 108.209 0.0194033 106.435 0.0194033 104.647C0.0194033 103.946 0.0194033 103.946 0.672581 103.946C2.41439 103.946 4.1562 103.946 5.89801 103.946C6.11573 103.946 6.41511 103.877 6.49675 104.138C6.59201 104.455 6.61922 104.826 6.46954 105.142C6.37428 105.362 6.10213 105.28 5.91162 105.28C4.68691 105.28 3.4758 105.293 2.2511 105.266C1.78843 105.252 1.59792 105.404 1.61153 105.885C1.63874 106.779 1.63874 107.673 1.61153 108.553C1.59792 108.965 1.734 109.117 2.15584 109.103C3.32612 109.076 4.51 109.089 5.68028 109.103C6.25181 109.103 6.26542 109.144 6.26542 109.818C6.25181 110.437 6.25181 110.451 5.66667 110.451C4.53722 110.451 3.40777 110.451 2.27831 110.451C1.62513 110.451 1.62513 110.451 1.62513 111.07C1.62513 112.101 1.62513 113.133 1.62513 114.15C1.62513 114.824 1.63874 114.824 2.31913 114.824C3.61188 114.824 4.89102 114.824 6.18377 114.824C6.78252 114.824 6.79613 114.852 6.79613 115.443C6.80974 116.076 6.76891 116.131 6.17016 116.131C4.29228 116.145 2.41439 116.131 0.536503 116.145C0.128266 116.145 -0.0078125 116.021 -0.0078125 115.594C0.0194033 113.738 0.0194033 111.867 0.0194033 109.997Z" fill="url(#paint14_linear_2103_52878)"/>
<path d="M51.9879 109.983C51.9879 108.182 52.0015 106.366 51.9743 104.565C51.9743 104.083 52.124 103.918 52.5866 103.918C54.3693 103.932 56.1655 103.932 57.9481 103.918C58.4516 103.918 58.5469 104.152 58.5197 104.592C58.4925 105.225 58.4925 105.252 57.9481 105.252C56.7234 105.266 55.5123 105.252 54.2876 105.252C53.5936 105.252 53.5936 105.252 53.5936 105.912C53.5936 106.751 53.5936 107.604 53.5936 108.443C53.5936 109.062 53.6072 109.062 54.2468 109.062C55.3763 109.062 56.5057 109.062 57.6352 109.062C58.2203 109.062 58.2475 109.103 58.2339 109.763C58.2339 110.382 58.2067 110.41 57.6488 110.41C56.4785 110.423 55.2946 110.423 54.1243 110.41C53.7161 110.396 53.5664 110.533 53.58 110.96C53.6072 112.032 53.58 113.105 53.5936 114.178C53.5936 114.797 53.6072 114.797 54.2604 114.81C55.5532 114.81 56.8323 114.81 58.125 114.81C58.7374 114.81 59.0368 115.347 58.7782 115.911C58.6694 116.145 58.4516 116.117 58.2475 116.117C57.3494 116.117 56.4377 116.117 55.5396 116.117C54.6142 116.117 53.6889 116.117 52.7635 116.117C52.0015 116.117 52.0015 116.117 52.0015 115.374C51.9879 113.6 51.9879 111.799 51.9879 109.983Z" fill="url(#paint15_linear_2103_52878)"/>
<path d="M89.9539 91.403C87.6814 91.4443 85.8851 89.849 85.9804 86.8508C86.0076 86.1632 86.1165 85.4893 86.4022 84.8567C87.1779 83.1238 88.7019 82.3949 90.539 82.5187C92.4169 82.6424 93.5872 83.7564 94.009 85.6131C94.2403 86.617 94.1995 87.6072 93.9138 88.5837C93.3831 90.3441 91.8862 91.403 89.9539 91.403ZM92.0495 86.9608C92.0631 86.452 91.9951 85.9569 91.8862 85.4618C91.6685 84.4716 91.0425 83.8802 90.1444 83.8664C89.151 83.8527 88.4434 84.4303 88.2121 85.4343C87.9671 86.4795 87.9807 87.511 88.2257 88.5562C88.4434 89.5189 89.1374 90.069 90.0627 90.0553C90.9745 90.0415 91.6685 89.4776 91.8726 88.5149C91.9814 88.0061 92.0631 87.4835 92.0495 86.9608Z" fill="url(#paint16_linear_2103_52878)"/>
<path d="M42.476 110.079C42.476 108.305 42.476 106.517 42.476 104.743C42.476 104.083 42.476 104.056 43.1428 104.001C44.5852 103.863 46.014 103.712 47.4429 104.124C48.722 104.496 49.5793 105.293 49.8242 106.641C50.0828 108.154 49.7834 109.516 48.4771 110.465C47.3476 111.276 46.0276 111.455 44.6669 111.372C44.0817 111.345 44.0545 111.345 44.0409 111.936C44.0273 113.105 44.0409 114.26 44.0409 115.429C44.0409 116.131 44.0273 116.145 43.3061 116.145C43.1972 116.145 43.0747 116.145 42.9659 116.145C42.5712 116.186 42.4624 115.979 42.476 115.608C42.4896 114.15 42.476 112.693 42.476 111.235C42.476 110.863 42.476 110.465 42.476 110.079ZM44.0409 107.631C44.0409 108.25 44.0409 108.855 44.0409 109.474C44.0409 109.736 44.0681 110.011 44.3947 110.038C45.32 110.093 46.2454 110.176 47.1027 109.722C47.9872 109.254 48.4226 108.333 48.3138 107.178C48.2321 106.242 47.6606 105.596 46.708 105.293C46.0685 105.087 45.4153 105.128 44.7621 105.142C44.1361 105.156 44.0545 105.252 44.0409 105.857C44.0273 106.449 44.0409 107.04 44.0409 107.631Z" fill="url(#paint17_linear_2103_52878)"/>
<path d="M147.42 109.639C148.223 108.072 149.012 106.531 149.801 105.005C150.386 103.849 150.618 103.739 151.924 104.001C151.938 104.001 151.951 104.028 151.979 104.056C152.06 104.262 151.883 104.386 151.788 104.523C150.645 106.517 149.488 108.498 148.332 110.492C148.128 110.836 148.046 111.193 148.046 111.592C148.06 112.899 148.06 114.192 148.046 115.498C148.046 116.131 148.019 116.145 147.393 116.158C147.297 116.158 147.216 116.158 147.121 116.158C146.508 116.145 146.467 116.103 146.454 115.498C146.454 114.247 146.44 112.981 146.467 111.73C146.481 111.207 146.345 110.753 146.1 110.3C145.052 108.388 144.004 106.462 142.97 104.551C142.889 104.413 142.834 104.276 142.739 104.097C143.256 103.836 143.773 103.946 144.277 103.987C144.562 104.014 144.63 104.317 144.739 104.537C145.515 106.077 146.277 107.631 147.039 109.186C147.134 109.323 147.175 109.516 147.42 109.639Z" fill="url(#paint18_linear_2103_52878)"/>
<path d="M138.275 110.767C138.275 112.321 138.275 113.875 138.275 115.429C138.275 116.158 138.275 116.158 137.568 116.158C137.432 116.158 137.296 116.158 137.16 116.158C136.779 116.172 136.643 115.993 136.656 115.608C136.67 114.508 136.656 113.421 136.656 112.321C136.656 110.203 136.656 108.072 136.656 105.954C136.656 105.307 136.643 105.307 136.017 105.293C135.227 105.293 134.438 105.293 133.649 105.293C133.009 105.293 132.996 105.28 132.996 104.647C132.996 104.001 133.009 103.959 133.608 103.946C136.207 103.932 138.806 103.932 141.405 103.946C141.95 103.946 141.95 103.987 141.963 104.688C141.977 105.101 141.895 105.321 141.419 105.307C140.602 105.266 139.786 105.293 138.983 105.293C138.303 105.293 138.289 105.307 138.289 105.967C138.275 107.563 138.275 109.172 138.275 110.767Z" fill="url(#paint19_linear_2103_52878)"/>
<path d="M121.647 109.969C121.647 108.182 121.647 106.407 121.647 104.62C121.647 103.946 121.66 103.932 122.341 103.932C122.518 103.932 122.708 103.932 122.885 103.946C123.13 103.959 123.252 104.083 123.239 104.345C123.225 104.51 123.239 104.661 123.239 104.826C123.239 107.907 123.239 110.987 123.239 114.082C123.239 114.838 123.252 114.852 123.987 114.852C125.253 114.852 126.518 114.852 127.784 114.852C128.369 114.852 128.383 114.879 128.383 115.484C128.383 116.131 128.369 116.158 127.757 116.158C125.92 116.158 124.096 116.158 122.259 116.158C121.687 116.158 121.647 116.117 121.647 115.526C121.633 113.669 121.647 111.826 121.647 109.969Z" fill="url(#paint20_linear_2103_52878)"/>
<path d="M99.8196 91.403C98.7309 91.403 97.6423 91.403 96.5673 91.403C96.0638 91.403 95.9822 91.3068 96.1182 90.8392C96.5265 89.5602 96.2543 89.6289 97.6423 89.6427C98.6765 89.6427 99.7243 89.6152 100.759 89.6564C101.248 89.6702 101.398 89.4914 101.384 89.0238C101.357 88.2536 101.371 87.4697 101.371 86.6995C101.371 86.1907 101.208 85.7093 100.99 85.2555C100.663 84.5816 100.146 84.169 99.3705 84.2653C98.9079 84.3203 98.8398 84.0727 98.8126 83.7152C98.7854 83.3301 98.9623 83.2063 99.3297 83.1788C101.303 83.055 103.004 84.6091 103.29 86.8096C103.426 87.8548 103.29 88.9138 103.412 89.959C103.439 90.2616 103.48 90.5504 103.548 90.8392C103.643 91.238 103.535 91.4306 103.085 91.4168C101.983 91.3893 100.908 91.403 99.8196 91.403Z" fill="url(#paint21_linear_2103_52878)"/>
<path d="M80.823 90.6329C80.823 91.403 80.823 91.4168 80.0882 91.403C78.7954 91.3893 78.9043 91.5818 78.9043 90.1928C78.9043 87.9098 78.8498 80.8408 78.7002 79.5893C78.6457 79.1217 78.809 78.9704 79.2309 78.9566C79.6799 78.9429 80.129 78.9154 80.578 78.8604C80.9182 78.8191 81.0271 78.9567 81.0135 79.273C81.0135 79.3692 80.823 88.9825 80.823 90.6329Z" fill="url(#paint22_linear_2103_52878)"/>
<path d="M147.964 85.7918C147.964 84.5128 147.951 83.2338 147.964 81.9548C147.978 81.1571 147.855 80.3594 147.76 79.5755C147.706 79.1217 147.883 78.9566 148.304 78.9566C148.754 78.9429 149.203 78.9016 149.652 78.8604C149.937 78.8329 150.087 78.9429 150.074 79.2317C150.074 79.328 150.073 79.4105 150.06 79.5068C149.72 83.1925 149.965 86.8921 149.883 90.5779C149.883 90.7154 149.91 90.8529 149.883 90.9904C149.706 91.7469 149.107 91.3068 148.713 91.3893C148.413 91.4443 147.991 91.5406 147.951 90.9904C147.937 90.8529 147.951 90.7154 147.951 90.5779C147.964 88.9825 147.964 87.3872 147.964 85.7918Z" fill="url(#paint23_linear_2103_52878)"/>
<path d="M56.9548 87.456C56.9003 88.6387 57.0364 90.0553 56.8731 91.4718C56.5874 93.9198 54.7367 95.1163 53.1446 95.6114C52.7771 95.7215 52.6547 95.5014 52.5322 95.2401C52.3825 94.91 52.6547 94.855 52.8452 94.7725C54.3012 94.1124 55.0088 92.9709 54.9952 91.3755C54.9952 89.6564 54.9816 87.9511 54.968 86.2319C54.968 85.6131 54.7911 85.0217 54.7095 84.4028C54.6278 83.7564 54.6414 83.7289 55.2674 83.5639C55.6348 83.4676 56.0158 83.3851 56.3832 83.2888C56.8595 83.1788 56.9412 83.2338 56.9412 83.7289C56.9684 84.8979 56.9548 86.0532 56.9548 87.456Z" fill="url(#paint24_linear_2103_52878)"/>
<path d="M131.662 110.024C131.662 111.826 131.662 113.641 131.662 115.443C131.662 116.158 131.662 116.158 130.927 116.158C130.764 116.158 130.614 116.158 130.451 116.145C130.247 116.131 130.124 116.021 130.124 115.787C130.124 115.718 130.124 115.649 130.124 115.581C130.124 111.881 130.124 108.182 130.124 104.482C130.124 104.097 130.247 103.918 130.628 103.946C130.723 103.946 130.805 103.946 130.9 103.946C131.676 103.946 131.676 103.946 131.676 104.757C131.662 106.504 131.662 108.264 131.662 110.024Z" fill="url(#paint25_linear_2103_52878)"/>
<path d="M70.8348 79.2042C71.0525 79.4655 70.7804 79.4655 70.7259 79.4793C70.6579 79.4793 67.1607 79.5755 67.0518 79.4793C67.0246 79.4655 67.0246 79.4242 67.0382 79.383C67.0518 79.273 67.011 78.8329 67.0518 78.7779C67.1335 78.6816 67.3648 78.7228 67.5281 78.7091C68.0316 78.6403 67.8275 78.3653 67.8819 78.1177C68.1132 77.045 69.2155 76.5361 70.1408 77.0587C70.3313 77.1688 70.6579 77.2375 70.413 77.5263C70.3721 77.9389 70.1136 77.7051 69.9095 77.6226C69.5693 77.4713 69.2427 77.4851 68.9977 77.8289C68.8344 78.049 68.7528 78.2828 68.8344 78.5303C68.9433 78.8191 69.2291 78.7091 69.4468 78.7228C69.6101 78.7366 69.7734 78.7091 69.9367 78.6816C70.3994 78.5991 70.5627 78.8741 70.8348 79.2042Z" fill="url(#paint26_linear_2103_52878)"/>
<path d="M4.90463 79.603C4.89102 80.2632 4.38753 80.772 3.74796 80.7583C3.122 80.7445 2.59129 80.2082 2.59129 79.5618C2.59129 78.9016 3.17643 78.3378 3.816 78.3653C4.45557 78.4065 4.91824 78.9154 4.90463 79.603Z" fill="url(#paint27_linear_2103_52878)"/>
<path d="M89.8042 80.0844C89.7906 80.6758 89.1918 81.2396 88.5931 81.2396C87.9399 81.2396 87.382 80.6345 87.4228 79.9881C87.4636 79.3555 88.0079 78.8604 88.6475 78.8879C89.2871 78.9154 89.8314 79.4793 89.8042 80.0844Z" fill="url(#paint28_linear_2103_52878)"/>
<path d="M6.87777 78.3653C7.49013 78.379 8.02084 78.9291 8.02084 79.5755C8.02084 80.2219 7.49013 80.7583 6.85056 80.7583C6.17016 80.7583 5.65306 80.2082 5.68028 79.5205C5.7075 78.8741 6.2382 78.3653 6.87777 78.3653Z" fill="url(#paint29_linear_2103_52878)"/>
<path d="M92.8251 80.0706C92.8251 80.717 92.308 81.2396 91.6821 81.2534C91.0561 81.2534 90.5254 80.7308 90.5118 80.0981C90.4982 79.4105 91.0017 78.9016 91.6957 78.9016C92.3489 78.9016 92.8251 79.3968 92.8251 80.0706Z" fill="url(#paint30_linear_2103_52878)"/>
<path d="M25.6839 94.5525C25.6703 95.1988 25.1668 95.7077 24.5136 95.7077C23.8876 95.7077 23.3433 95.1851 23.3433 94.5525C23.3433 93.9061 23.9148 93.3422 24.5544 93.3559C25.2076 93.3697 25.6975 93.8923 25.6839 94.5525Z" fill="url(#paint31_linear_2103_52878)"/>
<path d="M133.485 93.3559C134.111 93.3697 134.629 93.9061 134.615 94.5525C134.601 95.1988 134.098 95.7077 133.458 95.7077C132.778 95.7077 132.288 95.1851 132.302 94.4837C132.315 93.8373 132.846 93.3284 133.485 93.3559Z" fill="url(#paint32_linear_2103_52878)"/>
<path d="M27.6162 93.3422C28.2421 93.3559 28.7865 93.9061 28.7729 94.5249C28.7729 95.1576 28.2285 95.6802 27.589 95.6939C26.9358 95.6939 26.4459 95.1851 26.4459 94.5112C26.4595 93.8786 26.9902 93.3422 27.6162 93.3422Z" fill="url(#paint33_linear_2103_52878)"/>
<path d="M41.6731 94.5112C41.6731 95.1576 41.156 95.6802 40.5165 95.6939C39.8769 95.7077 39.3598 95.1851 39.3462 94.5249C39.3462 93.8786 39.8633 93.3422 40.4892 93.3284C41.1424 93.3422 41.6731 93.8648 41.6731 94.5112Z" fill="url(#paint34_linear_2103_52878)"/>
</g>
<defs>
<linearGradient id="paint0_linear_2103_52878" x1="-106.569" y1="-97.7463" x2="299.128" y2="182.754" gradientUnits="userSpaceOnUse">
<stop stop-color="white"/>
<stop offset="1" stop-color="#DAECFF"/>
</linearGradient>
<linearGradient id="paint1_linear_2103_52878" x1="-106.569" y1="-97.7463" x2="299.128" y2="182.754" gradientUnits="userSpaceOnUse">
<stop stop-color="white"/>
<stop offset="1" stop-color="#DAECFF"/>
</linearGradient>
<linearGradient id="paint2_linear_2103_52878" x1="-106.569" y1="-97.7463" x2="299.128" y2="182.754" gradientUnits="userSpaceOnUse">
<stop stop-color="white"/>
<stop offset="1" stop-color="#DAECFF"/>
</linearGradient>
<linearGradient id="paint3_linear_2103_52878" x1="-106.569" y1="-97.7463" x2="299.128" y2="182.754" gradientUnits="userSpaceOnUse">
<stop stop-color="white"/>
<stop offset="1" stop-color="#DAECFF"/>
</linearGradient>
<linearGradient id="paint4_linear_2103_52878" x1="-106.569" y1="-97.7463" x2="299.128" y2="182.754" gradientUnits="userSpaceOnUse">
<stop stop-color="white"/>
<stop offset="1" stop-color="#DAECFF"/>
</linearGradient>
<linearGradient id="paint5_linear_2103_52878" x1="-106.569" y1="-97.7463" x2="299.128" y2="182.754" gradientUnits="userSpaceOnUse">
<stop stop-color="white"/>
<stop offset="1" stop-color="#DAECFF"/>
</linearGradient>
<linearGradient id="paint6_linear_2103_52878" x1="-106.569" y1="-97.7463" x2="299.128" y2="182.754" gradientUnits="userSpaceOnUse">
<stop stop-color="white"/>
<stop offset="1" stop-color="#DAECFF"/>
</linearGradient>
<linearGradient id="paint7_linear_2103_52878" x1="-106.569" y1="-97.7463" x2="299.128" y2="182.754" gradientUnits="userSpaceOnUse">
<stop stop-color="white"/>
<stop offset="1" stop-color="#DAECFF"/>
</linearGradient>
<linearGradient id="paint8_linear_2103_52878" x1="-106.569" y1="-97.7463" x2="299.128" y2="182.754" gradientUnits="userSpaceOnUse">
<stop stop-color="white"/>
<stop offset="1" stop-color="#DAECFF"/>
</linearGradient>
<linearGradient id="paint9_linear_2103_52878" x1="-106.569" y1="-97.7463" x2="299.128" y2="182.754" gradientUnits="userSpaceOnUse">
<stop stop-color="white"/>
<stop offset="1" stop-color="#DAECFF"/>
</linearGradient>
<linearGradient id="paint10_linear_2103_52878" x1="-106.569" y1="-97.7463" x2="299.128" y2="182.754" gradientUnits="userSpaceOnUse">
<stop stop-color="white"/>
<stop offset="1" stop-color="#DAECFF"/>
</linearGradient>
<linearGradient id="paint11_linear_2103_52878" x1="-106.569" y1="-97.7463" x2="299.128" y2="182.754" gradientUnits="userSpaceOnUse">
<stop stop-color="white"/>
<stop offset="1" stop-color="#DAECFF"/>
</linearGradient>
<linearGradient id="paint12_linear_2103_52878" x1="-106.569" y1="-97.7463" x2="299.128" y2="182.754" gradientUnits="userSpaceOnUse">
<stop stop-color="white"/>
<stop offset="1" stop-color="#DAECFF"/>
</linearGradient>
<linearGradient id="paint13_linear_2103_52878" x1="-106.569" y1="-97.7463" x2="299.128" y2="182.754" gradientUnits="userSpaceOnUse">
<stop stop-color="white"/>
<stop offset="1" stop-color="#DAECFF"/>
</linearGradient>
<linearGradient id="paint14_linear_2103_52878" x1="-106.569" y1="-97.7463" x2="299.128" y2="182.754" gradientUnits="userSpaceOnUse">
<stop stop-color="white"/>
<stop offset="1" stop-color="#DAECFF"/>
</linearGradient>
<linearGradient id="paint15_linear_2103_52878" x1="-106.569" y1="-97.7463" x2="299.128" y2="182.754" gradientUnits="userSpaceOnUse">
<stop stop-color="white"/>
<stop offset="1" stop-color="#DAECFF"/>
</linearGradient>
<linearGradient id="paint16_linear_2103_52878" x1="-106.569" y1="-97.7463" x2="299.128" y2="182.754" gradientUnits="userSpaceOnUse">
<stop stop-color="white"/>
<stop offset="1" stop-color="#DAECFF"/>
</linearGradient>
<linearGradient id="paint17_linear_2103_52878" x1="-106.569" y1="-97.7463" x2="299.128" y2="182.754" gradientUnits="userSpaceOnUse">
<stop stop-color="white"/>
<stop offset="1" stop-color="#DAECFF"/>
</linearGradient>
<linearGradient id="paint18_linear_2103_52878" x1="-106.569" y1="-97.7463" x2="299.128" y2="182.754" gradientUnits="userSpaceOnUse">
<stop stop-color="white"/>
<stop offset="1" stop-color="#DAECFF"/>
</linearGradient>
<linearGradient id="paint19_linear_2103_52878" x1="-106.569" y1="-97.7463" x2="299.128" y2="182.754" gradientUnits="userSpaceOnUse">
<stop stop-color="white"/>
<stop offset="1" stop-color="#DAECFF"/>
</linearGradient>
<linearGradient id="paint20_linear_2103_52878" x1="-106.569" y1="-97.7463" x2="299.128" y2="182.754" gradientUnits="userSpaceOnUse">
<stop stop-color="white"/>
<stop offset="1" stop-color="#DAECFF"/>
</linearGradient>
<linearGradient id="paint21_linear_2103_52878" x1="-106.569" y1="-97.7463" x2="299.128" y2="182.754" gradientUnits="userSpaceOnUse">
<stop stop-color="white"/>
<stop offset="1" stop-color="#DAECFF"/>
</linearGradient>
<linearGradient id="paint22_linear_2103_52878" x1="-106.569" y1="-97.7463" x2="299.128" y2="182.754" gradientUnits="userSpaceOnUse">
<stop stop-color="white"/>
<stop offset="1" stop-color="#DAECFF"/>
</linearGradient>
<linearGradient id="paint23_linear_2103_52878" x1="-106.569" y1="-97.7463" x2="299.128" y2="182.754" gradientUnits="userSpaceOnUse">
<stop stop-color="white"/>
<stop offset="1" stop-color="#DAECFF"/>
</linearGradient>
<linearGradient id="paint24_linear_2103_52878" x1="-106.569" y1="-97.7463" x2="299.128" y2="182.754" gradientUnits="userSpaceOnUse">
<stop stop-color="white"/>
<stop offset="1" stop-color="#DAECFF"/>
</linearGradient>
<linearGradient id="paint25_linear_2103_52878" x1="-106.569" y1="-97.7463" x2="299.128" y2="182.754" gradientUnits="userSpaceOnUse">
<stop stop-color="white"/>
<stop offset="1" stop-color="#DAECFF"/>
</linearGradient>
<linearGradient id="paint26_linear_2103_52878" x1="-106.569" y1="-97.7463" x2="299.128" y2="182.754" gradientUnits="userSpaceOnUse">
<stop stop-color="white"/>
<stop offset="1" stop-color="#DAECFF"/>
</linearGradient>
<linearGradient id="paint27_linear_2103_52878" x1="-106.569" y1="-97.7463" x2="299.128" y2="182.754" gradientUnits="userSpaceOnUse">
<stop stop-color="white"/>
<stop offset="1" stop-color="#DAECFF"/>
</linearGradient>
<linearGradient id="paint28_linear_2103_52878" x1="-106.569" y1="-97.7463" x2="299.128" y2="182.754" gradientUnits="userSpaceOnUse">
<stop stop-color="white"/>
<stop offset="1" stop-color="#DAECFF"/>
</linearGradient>
<linearGradient id="paint29_linear_2103_52878" x1="-106.569" y1="-97.7463" x2="299.128" y2="182.754" gradientUnits="userSpaceOnUse">
<stop stop-color="white"/>
<stop offset="1" stop-color="#DAECFF"/>
</linearGradient>
<linearGradient id="paint30_linear_2103_52878" x1="-106.569" y1="-97.7463" x2="299.128" y2="182.754" gradientUnits="userSpaceOnUse">
<stop stop-color="white"/>
<stop offset="1" stop-color="#DAECFF"/>
</linearGradient>
<linearGradient id="paint31_linear_2103_52878" x1="-106.569" y1="-97.7463" x2="299.128" y2="182.754" gradientUnits="userSpaceOnUse">
<stop stop-color="white"/>
<stop offset="1" stop-color="#DAECFF"/>
</linearGradient>
<linearGradient id="paint32_linear_2103_52878" x1="-106.569" y1="-97.7463" x2="299.128" y2="182.754" gradientUnits="userSpaceOnUse">
<stop stop-color="white"/>
<stop offset="1" stop-color="#DAECFF"/>
</linearGradient>
<linearGradient id="paint33_linear_2103_52878" x1="-106.569" y1="-97.7463" x2="299.128" y2="182.754" gradientUnits="userSpaceOnUse">
<stop stop-color="white"/>
<stop offset="1" stop-color="#DAECFF"/>
</linearGradient>
<linearGradient id="paint34_linear_2103_52878" x1="-106.569" y1="-97.7463" x2="299.128" y2="182.754" gradientUnits="userSpaceOnUse">
<stop stop-color="white"/>
<stop offset="1" stop-color="#DAECFF"/>
</linearGradient>
<clipPath id="clip0_2103_52878">
<rect width="152" height="118" fill="white"/>
</clipPath>
</defs>
</svg>
