<svg width="20" height="20" viewBox="0 0 20 20" fill="none" xmlns="http://www.w3.org/2000/svg">
<path d="M18.5795 4.714C19.328 3.96875 19.8183 3.00351 19.9787 1.95954C20.0212 1.6955 20 1.42512 19.9169 1.1709C19.8339 0.916682 19.6914 0.685964 19.5012 0.497935C19.3131 0.308081 19.0825 0.165806 18.8284 0.0829109C18.5744 1.59932e-05 18.3042 -0.0211087 18.0404 0.0212896C16.9965 0.181585 16.0312 0.671714 15.2859 1.41998L12.9614 3.74446L11.5698 3.44156C11.6871 3.26279 11.7394 3.04909 11.7178 2.83634C11.6961 2.62359 11.602 2.42477 11.451 2.27327C11.2766 2.09942 11.0404 2.0018 10.7942 2.0018C10.5479 2.0018 10.3117 2.09942 10.1373 2.27327L9.43443 2.97616L7.78532 2.61701L7.90032 2.50201C8.07414 2.32769 8.17175 2.09156 8.17175 1.84538C8.17175 1.5992 8.07414 1.36306 7.90032 1.18874C7.55074 0.83792 6.93868 0.837504 6.58703 1.18874L5.62873 2.14703L2.21551 1.40373C2.0837 1.37484 1.94674 1.37963 1.81726 1.41764C1.68779 1.45565 1.56998 1.52567 1.4747 1.62122L0.787643 2.30827C0.607233 2.48868 0.523902 2.73742 0.559734 2.99033C0.595566 3.24323 0.744311 3.45906 0.968054 3.5828L8.98403 8.01094L4.92625 12.4507L0.805142 12.6699L0.166831 13.3078C0.0996184 13.375 0.0502924 13.4579 0.0233526 13.549C-0.00358718 13.6401 -0.00728334 13.7365 0.0126011 13.8295C0.0324855 13.9224 0.0753177 14.0088 0.137191 14.081C0.199064 14.1531 0.278009 14.2086 0.366824 14.2423L4.26794 15.7323L5.75831 19.6338C5.79928 19.7418 5.87226 19.8348 5.96749 19.9002C6.06272 19.9656 6.17566 20.0005 6.2912 20C6.44037 20 6.58453 19.9412 6.69327 19.8329L7.33075 19.1954L7.54991 15.074L11.9898 11.0162L16.415 19.0292C16.5384 19.2529 16.7542 19.4017 17.0071 19.4375C17.1307 19.4553 17.2567 19.444 17.3751 19.4044C17.4935 19.3648 17.6011 19.2981 17.6891 19.2096L18.3766 18.5226C18.4722 18.4274 18.5422 18.3097 18.5803 18.1802C18.6183 18.0508 18.623 17.9139 18.5941 17.7822L17.8521 14.3723L18.8116 13.4132C18.987 13.2378 19.0837 13.0045 19.0837 12.7561C19.0837 12.5078 18.987 12.2745 18.8116 12.0991C18.6372 11.9252 18.401 11.8276 18.1548 11.8276C17.9085 11.8276 17.6723 11.9252 17.4979 12.0991L17.3825 12.2145L17.0238 10.5654L17.7271 9.86211C17.9025 9.6867 17.9991 9.45337 17.9991 9.20505C17.9991 8.95673 17.9025 8.72341 17.7275 8.54842C17.4212 8.24218 16.9158 8.20343 16.5592 8.43134L16.2559 7.03765L18.5804 4.71317L18.5795 4.714Z" fill="#333D45"/>
</svg>
