<svg width="24" height="24" viewBox="0 0 24 24" fill="none" xmlns="http://www.w3.org/2000/svg">
<path d="M21.0871 6.97953C20.2371 6.03953 18.8171 5.56953 16.7571 5.56953H16.5171V5.52953C16.5171 3.84953 16.5171 1.76953 12.7571 1.76953H11.2371C7.47711 1.76953 7.47711 3.85953 7.47711 5.52953V5.57953H7.23711C5.16711 5.57953 3.75711 6.04953 2.90711 6.98953C1.91711 8.08953 1.94711 9.56953 2.04711 10.5795L2.05711 10.6495L2.13456 11.4628C2.14883 11.6126 2.22949 11.7479 2.35538 11.8303C2.59519 11.9872 2.99653 12.2459 3.23711 12.3795C3.37711 12.4695 3.52711 12.5495 3.67711 12.6295C5.38711 13.5695 7.26711 14.1995 9.17711 14.5095C9.26711 15.4495 9.67711 16.5495 11.8671 16.5495C14.0571 16.5495 14.4871 15.4595 14.5571 14.4895C16.5971 14.1595 18.5671 13.4495 20.3471 12.4095C20.4071 12.3795 20.4471 12.3495 20.4971 12.3195C20.8938 12.0953 21.3054 11.819 21.6806 11.5484C21.7936 11.4668 21.8659 11.3408 21.8812 11.2023L21.8971 11.0595L21.9471 10.5895C21.9571 10.5295 21.9571 10.4795 21.9671 10.4095C22.0471 9.39953 22.0271 8.01953 21.0871 6.97953ZM13.0871 13.8295C13.0871 14.8895 13.0871 15.0495 11.8571 15.0495C10.6271 15.0495 10.6271 14.8595 10.6271 13.8395V12.5795H13.0871V13.8295ZM8.90711 5.56953V5.52953C8.90711 3.82953 8.90711 3.19953 11.2371 3.19953H12.7571C15.0871 3.19953 15.0871 3.83953 15.0871 5.52953V5.57953H8.90711V5.56953Z" fill="#333D45"/>
<path d="M20.8772 13.7349C21.2308 13.5666 21.6381 13.8469 21.6027 14.2369L21.2438 18.1907C21.0338 20.1907 20.2138 22.2307 15.8138 22.2307H8.19375C3.79375 22.2307 2.97375 20.1907 2.76375 18.2007L2.42304 14.4529C2.388 14.0674 2.78595 13.7874 3.13859 13.947C4.27801 14.4625 6.38115 15.3771 7.68032 15.7174C7.84463 15.7604 7.97752 15.878 8.04946 16.0319C8.65643 17.33 9.97286 18.0207 11.8737 18.0207C13.7559 18.0207 15.0889 17.3034 15.6979 16.0021C15.7699 15.8481 15.903 15.7305 16.0674 15.6873C17.4469 15.3243 19.6855 14.3019 20.8772 13.7349Z" fill="#333D45"/>
</svg>
