<svg width="20" height="20" viewBox="0 0 20 20" fill="none" xmlns="http://www.w3.org/2000/svg">
<path d="M9.99977 6.33336C9.91316 6.33339 9.82748 6.31552 9.74811 6.28086L4.53977 3.98919C4.42909 3.93992 4.33506 3.85962 4.26908 3.75801C4.20309 3.6564 4.16797 3.53785 4.16797 3.41669C4.16797 3.29554 4.20309 3.17698 4.26908 3.07537C4.33506 2.97377 4.42909 2.89347 4.53977 2.84419L9.74811 0.552526C9.82749 0.517882 9.91316 0.5 9.99977 0.5C10.0864 0.5 10.1721 0.517882 10.2514 0.552526L15.4598 2.84419C15.5705 2.89347 15.6645 2.97377 15.7305 3.07537C15.7965 3.17698 15.8316 3.29554 15.8316 3.41669C15.8316 3.53785 15.7965 3.6564 15.7305 3.75801C15.6645 3.85962 15.5705 3.93992 15.4598 3.98919L10.2514 6.28086C10.1721 6.31552 10.0864 6.33339 9.99977 6.33336Z" fill="#F77B08"/>
<path d="M10.7547 7.42354C10.5174 7.52825 10.2609 7.58247 10.0015 7.58275C9.74214 7.58304 9.48554 7.52939 9.24801 7.42521L5.83301 5.92188V6.49521C5.83301 7.00354 6.09884 7.48187 6.52634 7.74104C7.72717 8.47021 8.86384 8.83437 9.99967 8.83437C11.1355 8.83437 12.2722 8.46937 13.473 7.74104C13.9005 7.48187 14.1663 7.00437 14.1663 6.49521V5.92188L10.7547 7.42354Z" fill="#F77B08"/>
<path d="M18.5417 3.83594H17.4583C17.325 4.56927 16.8417 5.19427 16.15 5.5026H18.3333V14.6693H1.66667V5.5026H3.85C3.51253 5.35257 3.21689 5.12226 2.98884 4.83176C2.7608 4.54126 2.60728 4.19938 2.54167 3.83594H1.45833C0.658333 3.83594 0 4.49427 0 5.29427V16.5443C0 17.3443 0.658333 18.0026 1.45833 18.0026H7.84167C7.74167 18.4193 7.48333 18.0943 6.79167 18.7943C6.66667 18.9109 6.63333 19.0859 6.7 19.2443C6.76667 19.4026 6.91667 19.5026 7.08333 19.5026H12.9167C13.0833 19.5026 13.2333 19.4026 13.3 19.2443C13.3667 19.0859 13.3333 18.9109 13.2083 18.7943C12.5167 18.1026 12.25 18.4193 12.15 18.0026H18.5417C19.3417 18.0026 20 17.3443 20 16.5443V5.29427C20 4.49427 19.3417 3.83594 18.5417 3.83594Z" fill="#F77B08"/>
</svg>
