<svg width="32" height="32" viewBox="0 0 32 32" fill="none" xmlns="http://www.w3.org/2000/svg">
<path d="M10.1266 7.22463L23.7831 14.0175C24.1482 14.1992 24.4558 14.4814 24.6709 14.832C24.886 15.1825 25.0001 15.5874 25 16.0005C24.9999 16.4136 24.8858 16.8184 24.6706 17.1689C24.4554 17.5193 24.1477 17.8013 23.7826 17.9829L10.1276 24.7748C9.73462 24.9706 9.29262 25.041 8.85952 24.977C8.42643 24.913 8.02246 24.7175 7.70055 24.4162C7.37863 24.1148 7.15376 23.7216 7.05547 23.2881C6.95718 22.8547 6.99006 22.4011 7.14974 21.987L9.30017 16.4016C9.39957 16.1432 9.39953 15.8562 9.3001 15.5978L7.14982 10.0113C6.99047 9.59733 6.95782 9.14406 7.05615 8.7109C7.15448 8.27774 7.37921 7.88485 7.70091 7.58369C8.02261 7.28253 8.42628 7.08711 8.85909 7.02304C9.29191 6.95897 9.7337 7.02926 10.1266 7.22463Z" fill="white"/>
</svg>
