<svg width="56" height="56" viewBox="0 0 56 56" fill="none" xmlns="http://www.w3.org/2000/svg">
<path d="M27.9983 40.3553C35.5873 40.3553 41.7614 34.1825 41.7614 26.5951C41.7573 22.9462 40.3059 19.4479 37.7257 16.8677C35.1455 14.2875 31.6472 12.8362 27.9983 12.832C20.411 12.832 14.2383 19.0061 14.2383 26.5951C14.2442 30.0667 15.557 33.4088 17.9155 35.9563L16.4922 41.2661C16.4081 41.5796 16.419 41.911 16.5233 42.2183C16.6276 42.5257 16.8207 42.7951 17.0782 42.9927C17.3357 43.1902 17.6461 43.307 17.9699 43.3281C18.2938 43.3493 18.6166 43.2739 18.8977 43.1115L24.4643 39.895C25.6173 40.2013 26.8053 40.356 27.9983 40.3553ZM23.4322 36.7021L20.6879 38.2881L21.3297 35.8939C21.4069 35.606 21.4042 35.3027 21.3219 35.0162C21.2397 34.7298 21.081 34.4713 20.8629 34.2682C19.8035 33.2915 18.9592 32.1049 18.3835 30.7839C17.8079 29.4629 17.5137 28.0366 17.5195 26.5957C17.5203 24.3837 18.2212 22.2288 19.5219 20.4397C20.8225 18.6506 22.6561 17.3191 24.7599 16.636C26.8637 15.9529 29.1297 15.9533 31.2333 16.6371C33.3369 17.3209 35.17 18.653 36.4701 20.4426C37.7701 22.2321 38.4703 24.3873 38.4703 26.5992C38.4703 28.8111 37.7702 30.9663 36.4702 32.7559C35.1702 34.5455 33.3371 35.8777 31.2336 36.5615C29.13 37.2454 26.864 37.2458 24.7602 36.5628C24.5414 36.4916 24.3102 36.4672 24.0814 36.4911C23.8526 36.5151 23.6315 36.5872 23.4322 36.7021ZM24.1652 26.4343C24.1704 26.4878 24.173 26.5414 24.1728 26.5951C24.173 26.6492 24.1704 26.7032 24.1652 26.757C24.1597 26.8095 24.1509 26.8631 24.1411 26.9156C24.1312 26.9681 24.117 27.0206 24.1017 27.072C24.0864 27.1234 24.0678 27.1737 24.047 27.2229C24.0263 27.2722 24.0033 27.3214 23.9781 27.3684C23.953 27.4154 23.9256 27.4614 23.8961 27.5062C23.8669 27.551 23.8351 27.5941 23.8009 27.6353C23.767 27.6779 23.7298 27.7173 23.6927 27.7556C23.6544 27.7937 23.6142 27.8298 23.5723 27.8639C23.5308 27.8978 23.487 27.9295 23.4433 27.9601C23.3984 27.9886 23.3525 28.017 23.3044 28.0422C23.2575 28.0674 23.2093 28.09 23.16 28.11C23.1107 28.1308 23.0603 28.149 23.0091 28.1647C22.9577 28.18 22.9052 28.1931 22.8527 28.204C22.8002 28.2147 22.7473 28.2228 22.6941 28.2281C22.5864 28.2383 22.478 28.2383 22.3703 28.2281C22.3171 28.2228 22.2641 28.2147 22.2117 28.204C22.1592 28.1931 22.1067 28.18 22.0553 28.1647C22.0041 28.149 21.9537 28.1308 21.9044 28.11C21.855 28.09 21.8068 28.0674 21.76 28.0422C21.7119 28.017 21.6659 27.9886 21.6211 27.9601C21.5773 27.9295 21.5336 27.8978 21.492 27.8639C21.4501 27.8298 21.41 27.7937 21.3717 27.7556C21.3345 27.7173 21.2973 27.6779 21.2634 27.6353C21.2293 27.5941 21.1975 27.551 21.1683 27.5062C21.1391 27.4614 21.1118 27.4154 21.0863 27.3684C21.0611 27.3214 21.0381 27.2722 21.0173 27.2229C20.9966 27.1737 20.9791 27.1234 20.9627 27.072C20.9462 27.0206 20.9342 26.9681 20.9233 26.9156C20.9015 26.8102 20.8909 26.7028 20.8916 26.5951C20.8916 26.5415 20.8948 26.4879 20.8992 26.4343C20.9036 26.3807 20.9134 26.3272 20.9233 26.2747C20.9331 26.2222 20.9473 26.1708 20.9627 26.1193C20.978 26.0679 20.9966 26.0176 21.0173 25.9684C21.0381 25.9192 21.0611 25.87 21.0863 25.8229C21.1367 25.7282 21.1961 25.6385 21.2634 25.555C21.2973 25.5134 21.3345 25.4729 21.3717 25.4358C21.41 25.3977 21.4501 25.3615 21.492 25.3275C21.5336 25.2936 21.5773 25.2607 21.6211 25.2312C21.666 25.2016 21.7123 25.1742 21.76 25.1492C21.807 25.124 21.8552 25.1011 21.9044 25.0803C21.9536 25.0606 22.005 25.042 22.0553 25.0267C22.1067 25.0109 22.1589 24.9977 22.2117 24.9873C22.4232 24.9443 22.6412 24.9443 22.8527 24.9873C22.9054 24.9977 22.9576 25.0109 23.0091 25.0267C23.0594 25.042 23.1108 25.0606 23.16 25.0803C23.2092 25.1 23.2573 25.124 23.3044 25.1492C23.352 25.1742 23.3984 25.2016 23.4433 25.2312C23.487 25.2607 23.5308 25.2936 23.5723 25.3275C23.6142 25.3615 23.6544 25.3977 23.6927 25.4358C23.7298 25.4729 23.767 25.5134 23.8009 25.555C23.8683 25.6385 23.9276 25.7282 23.9781 25.8229C24.0033 25.87 24.0263 25.9192 24.047 25.9684C24.0678 26.0176 24.0853 26.0679 24.1017 26.1193C24.1181 26.1708 24.1302 26.2233 24.1411 26.2747C24.152 26.3261 24.1597 26.3807 24.1652 26.4343ZM26.3592 26.5951C26.359 26.3798 26.4013 26.1665 26.4836 25.9674C26.5659 25.7684 26.6866 25.5875 26.8388 25.4352C26.991 25.2828 27.1718 25.162 27.3707 25.0795C27.5697 24.997 27.7829 24.9545 27.9983 24.9545H28.0014C28.3258 24.9548 28.6428 25.0513 28.9124 25.2317C29.182 25.4122 29.3921 25.6685 29.516 25.9683C29.64 26.2682 29.6722 26.598 29.6088 26.9161C29.5453 27.2343 29.3889 27.5265 29.1594 27.7558C28.9299 27.9851 28.6376 28.1412 28.3194 28.2043C28.0011 28.2675 27.6713 28.2349 27.3716 28.1107C27.072 27.9865 26.8158 27.7762 26.6356 27.5064C26.4554 27.2367 26.3592 26.9195 26.3592 26.5951ZM31.8345 26.7566C31.8293 26.7028 31.8267 26.6487 31.8269 26.5947C31.8267 26.541 31.8293 26.4873 31.8345 26.4339C31.84 26.3803 31.8488 26.3267 31.8586 26.2742C31.8684 26.2217 31.8827 26.1703 31.898 26.1189C31.9134 26.0676 31.9317 26.0172 31.9527 25.968C31.9723 25.9187 31.9964 25.8695 32.0205 25.8225C32.0719 25.7281 32.1315 25.6384 32.1988 25.5545C32.2327 25.513 32.2698 25.4725 32.307 25.4353C32.3453 25.3972 32.3854 25.3611 32.4273 25.327C32.4685 25.2925 32.5116 25.2604 32.5564 25.2308C32.6013 25.2016 32.6472 25.1743 32.6942 25.1487C32.7413 25.1236 32.7905 25.1006 32.8397 25.0798C32.8889 25.0591 32.9403 25.0416 32.9906 25.0262C33.042 25.0104 33.0943 24.9973 33.147 24.9869C33.3053 24.9547 33.4676 24.9466 33.6283 24.9628C33.6819 24.9681 33.7352 24.9761 33.788 24.9869C33.8404 24.9972 33.8923 25.0103 33.9433 25.0262C33.9947 25.0416 34.0461 25.0602 34.0953 25.0798C34.1445 25.0995 34.1927 25.1236 34.2397 25.1487C34.2873 25.1737 34.3337 25.2011 34.3786 25.2308C34.4223 25.2603 34.4661 25.2931 34.5077 25.327C34.5494 25.3608 34.5892 25.397 34.6269 25.4353C34.6652 25.4725 34.7013 25.513 34.7362 25.5545C34.7691 25.5961 34.8019 25.6398 34.8314 25.6847C34.8611 25.7292 34.8884 25.7752 34.9134 25.8225C34.9386 25.8695 34.9616 25.9187 34.9823 25.968C35.003 26.0173 35.0209 26.0676 35.0359 26.1189C35.0523 26.1698 35.0654 26.2217 35.0753 26.2742C35.0866 26.3269 35.0947 26.3802 35.0994 26.4339C35.105 26.4873 35.1079 26.541 35.1081 26.5947C35.1079 26.6488 35.105 26.7028 35.0994 26.7566C35.0946 26.8099 35.0865 26.8628 35.0753 26.9152C35.0654 26.9681 35.0523 27.0203 35.0359 27.0716C35.0207 27.1228 35.0028 27.1731 34.9823 27.2225C34.9616 27.2717 34.9386 27.3209 34.9134 27.368C34.8883 27.415 34.8609 27.4609 34.8314 27.5058C34.8019 27.5506 34.7691 27.5944 34.7362 27.6348C34.7013 27.6775 34.6652 27.7169 34.6269 27.7552C34.5892 27.7935 34.5494 27.8297 34.5077 27.8634C34.4661 27.8973 34.4223 27.9291 34.3786 27.9586C34.3337 27.9886 34.2874 28.0164 34.2397 28.0417C34.1929 28.067 34.1447 28.0896 34.0953 28.1095C34.0457 28.1305 33.9949 28.1488 33.9433 28.1642C33.893 28.1795 33.8405 28.1927 33.788 28.2036C33.6825 28.225 33.5751 28.2357 33.4675 28.2353C33.4134 28.2355 33.3594 28.2329 33.3056 28.2277C33.2524 28.2223 33.1995 28.2143 33.147 28.2036C33.0945 28.1927 33.042 28.1795 32.9906 28.1642C32.9394 28.1486 32.889 28.1303 32.8397 28.1095C32.79 28.0896 32.7414 28.067 32.6942 28.0417C32.6472 28.0166 32.6013 27.9881 32.5564 27.9586C32.5116 27.9294 32.4685 27.8976 32.4273 27.8634C32.3854 27.8294 32.3453 27.7933 32.307 27.7552C32.2698 27.7169 32.2327 27.6775 32.1988 27.6348C32.1646 27.5937 32.1328 27.5506 32.1036 27.5058C32.0741 27.4609 32.0456 27.415 32.0205 27.368C31.9953 27.3209 31.9723 27.2717 31.9527 27.2225C31.9319 27.1732 31.9136 27.1228 31.898 27.0716C31.8827 27.0202 31.8695 26.9677 31.8586 26.9152C31.8477 26.8627 31.84 26.8091 31.8345 26.7566Z" fill="#0884F7"/>
<path d="M55.1029 27.7691L55.1029 27.7711C55.0839 28.4806 55.0644 29.2148 55.1007 30.0366C55.145 31.0608 54.9871 32.0837 54.636 33.0469C54.2849 34.0101 53.7475 34.8947 53.0545 35.6501C52.3615 36.4056 51.5265 37.0172 50.5971 37.4499C49.6678 37.8827 48.6622 38.1281 47.638 38.1722C47.5168 38.1777 47.396 38.1805 47.2754 38.1805C46.7256 38.1801 46.1773 38.1207 45.6402 38.0033C44.0483 40.4618 41.9606 42.5609 39.5107 44.1662C37.0609 45.7714 34.3029 46.8475 31.4132 47.3255C31.0715 48.3292 30.3898 49.1819 29.486 49.7364C28.5822 50.2908 27.5131 50.5121 26.4635 50.3619C25.4139 50.2117 24.4497 49.6995 23.7376 48.9139C23.0256 48.1282 22.6104 47.1185 22.5638 46.0592C22.5173 45 22.8423 43.9577 23.4826 43.1126C24.123 42.2675 25.0385 41.6727 26.0709 41.431C27.1032 41.1893 28.1876 41.3159 29.1366 41.7888C30.0856 42.2618 30.8395 43.0515 31.268 44.0213C35.3358 43.2691 39.0107 41.1132 41.6522 37.9295C44.2936 34.7458 45.7341 30.7361 45.7226 26.5993C45.7226 16.8266 37.7698 8.875 27.9982 8.875C18.2266 8.875 10.2768 16.8261 10.2768 26.5993C10.2767 29.6214 11.0481 32.5935 12.518 35.2341C12.558 35.3033 12.5883 35.3777 12.6082 35.4551C12.768 35.8541 12.7645 36.3 12.5985 36.6965C12.4324 37.093 12.1172 37.4084 11.7207 37.5745C10.7718 37.975 9.75215 38.181 8.72217 38.1804C8.60033 38.1804 8.47823 38.1775 8.35588 38.1719C6.28944 38.0795 4.34395 37.1715 2.94602 35.6468C1.5481 34.1222 0.811838 32.1054 0.898689 30.0387C0.93511 29.2144 0.915642 28.4808 0.89672 27.7714L0.896669 27.7695C0.878856 27.0986 0.860438 26.4049 0.892564 25.6803C0.979809 23.6615 1.84682 21.7553 3.31111 20.3628C4.77541 18.9704 6.72278 18.2003 8.74339 18.2146C11.9872 10.7934 19.3949 5.59375 27.9982 5.59375C36.6015 5.59375 44.0122 10.7935 47.256 18.2148C49.2771 18.2003 51.2249 18.9706 52.6893 20.3636C54.1538 21.7566 55.0205 23.6635 55.1071 25.6828C55.1391 26.4048 55.1207 27.0984 55.1029 27.7691Z" fill="#F77B08"/>
</svg>
