<svg width="26" height="26" viewBox="0 0 26 26" fill="none" xmlns="http://www.w3.org/2000/svg">
<rect x="0.5" y="0.5" width="25" height="25" rx="12.5" fill="#F9FAFA" stroke="url(#paint0_linear_1291_56868)"/>
<path fill-rule="evenodd" clip-rule="evenodd" d="M13.5911 18.8302C15.878 17.407 17.9961 14.8952 17.9961 11.8164C17.9961 10.539 17.4693 9.31393 16.5316 8.41068C15.5939 7.50743 14.3222 7 12.9961 7C11.67 7 10.3982 7.50743 9.46056 8.41068C8.52287 9.31393 7.99609 10.539 7.99609 11.8164C7.99609 14.8952 10.1142 17.407 12.4011 18.8302C12.5782 18.941 12.7849 19 12.9961 19C13.2073 19 13.414 18.941 13.5911 18.8302ZM12.9961 14.3582C13.4905 14.3582 13.9739 14.217 14.385 13.9524C14.7961 13.6878 15.1166 13.3116 15.3058 12.8716C15.495 12.4316 15.5445 11.9474 15.4481 11.4802C15.3516 11.0131 15.1135 10.584 14.7639 10.2472C14.4142 9.91039 13.9688 9.68104 13.4838 9.58812C12.9989 9.4952 12.4962 9.54289 12.0394 9.72516C11.5826 9.90743 11.1921 10.2161 10.9174 10.6121C10.6427 11.0081 10.4961 11.4737 10.4961 11.95C10.4961 12.5887 10.7595 13.2013 11.2283 13.6529C11.6972 14.1045 12.3331 14.3582 12.9961 14.3582Z" fill="#333D45"/>
<defs>
<linearGradient id="paint0_linear_1291_56868" x1="-0.504883" y1="13.0244" x2="7.99512" y2="13.0244" gradientUnits="userSpaceOnUse">
<stop stop-color="#000C17"/>
<stop offset="1" stop-color="#000C17" stop-opacity="0"/>
</linearGradient>
</defs>
</svg>
