<svg width="10" height="12" viewBox="0 0 10 12" fill="none" xmlns="http://www.w3.org/2000/svg">
<path d="M9.83136 10.4629C9.94079 10.5783 10.0013 10.7329 9.99998 10.8934C9.99861 11.0538 9.93543 11.2073 9.82404 11.3208C9.71266 11.4342 9.56198 11.4986 9.40447 11.5C9.24695 11.5014 9.0952 11.4397 8.9819 11.3282L4.17589 6.43265C4.06327 6.31789 4 6.16227 4 6C4 5.83773 4.06327 5.68211 4.17589 5.56735L8.9819 0.671779C9.0952 0.560308 9.24695 0.498629 9.40447 0.500023C9.56198 0.501417 9.71266 0.56577 9.82404 0.67923C9.93543 0.79269 9.99861 0.946179 9.99998 1.10663C10.0013 1.26708 9.94079 1.42166 9.83136 1.53707L5.45008 6L9.83136 10.4629Z" fill="#333D45"/>
<path d="M5.83136 10.4629C5.94079 10.5783 6.00135 10.7329 5.99998 10.8934C5.99861 11.0538 5.93543 11.2073 5.82404 11.3208C5.71266 11.4342 5.56198 11.4986 5.40447 11.5C5.24695 11.5014 5.0952 11.4397 4.9819 11.3282L0.175891 6.43265C0.0632682 6.31789 -7.08561e-09 6.16227 0 6C7.10016e-09 5.83773 0.0632682 5.68211 0.175891 5.56735L4.9819 0.671779C5.0952 0.560308 5.24695 0.498629 5.40447 0.500023C5.56198 0.501417 5.71266 0.56577 5.82404 0.67923C5.93543 0.79269 5.99861 0.946179 5.99998 1.10663C6.00135 1.26708 5.94079 1.42166 5.83136 1.53707L1.45008 6L5.83136 10.4629Z" fill="#333D45"/>
</svg>
