<svg width="6" height="12" viewBox="0 0 6 12" fill="none" xmlns="http://www.w3.org/2000/svg">
<path d="M0.168638 10.4629C0.0592065 10.5783 -0.00134609 10.7329 2.26834e-05 10.8934C0.00139145 11.0538 0.064572 11.2073 0.175956 11.3208C0.28734 11.4342 0.438016 11.4986 0.595531 11.5C0.753046 11.5014 0.904797 11.4397 1.0181 11.3282L5.82411 6.43265C5.93673 6.31789 6 6.16227 6 6C6 5.83773 5.93673 5.68211 5.82411 5.56735L1.0181 0.671779C0.904797 0.560307 0.753046 0.498629 0.595531 0.500023C0.438016 0.501417 0.28734 0.56577 0.175956 0.67923C0.0645715 0.792689 0.00139101 0.946178 2.22556e-05 1.10663C-0.0013465 1.26708 0.0592061 1.42166 0.168638 1.53707L4.54992 6L0.168638 10.4629Z" fill="#A1A8AE"/>
</svg>
