<svg width="12" height="7" viewBox="0 0 12 7" fill="none" xmlns="http://www.w3.org/2000/svg">
<path d="M0.0630559 1.25779C-0.0210181 1.17523 -0.0210171 1.04138 0.0630569 0.958825L0.976434 0.0619363C1.06051 -0.02062 1.19682 -0.02062 1.28089 0.0619363L7.06562 5.74223C7.14969 5.82479 7.14969 5.95864 7.06562 6.04119L6.15224 6.93808C6.06817 7.02064 5.93185 7.02064 5.84778 6.93808L0.0630559 1.25779Z" fill="#000C17"/>
<path d="M6.15224 6.93808C6.06817 7.02064 5.93185 7.02064 5.84778 6.93808L4.93438 6.04118C4.85031 5.95862 4.85031 5.82477 4.93438 5.74221L10.7191 0.0619171C10.8032 -0.0206392 10.9395 -0.0206391 11.0236 0.0619173L11.9369 0.958806C12.021 1.04136 12.021 1.17521 11.9369 1.25777L6.15224 6.93808Z" fill="#000C17"/>
</svg>
