<svg width="40" height="40" viewBox="0 0 40 40" fill="none" xmlns="http://www.w3.org/2000/svg">
<path d="M12.4853 5.85547C15.1519 3.1888 16.4853 1.85547 18.1421 1.85547C19.799 1.85547 21.1323 3.1888 23.799 5.85547L32.2843 14.3408C34.9509 17.0074 36.2843 18.3407 36.2843 19.9976C36.2843 21.6545 34.9509 22.9878 32.2843 25.6545L23.799 34.1397C21.1323 36.8064 19.799 38.1397 18.1421 38.1397C16.4853 38.1397 15.1519 36.8064 12.4853 34.1397L4 25.6545C1.33333 22.9878 0 21.6545 0 19.9976C0 18.3407 1.33333 17.0074 4 14.3407L12.4853 5.85547Z" fill="#E4F1FE"/>
<path d="M24.9013 12.2381C26.9013 10.2381 27.9013 9.23813 29.1439 9.23813C30.3866 9.23813 31.3866 10.2381 33.3866 12.2381L36.9031 15.7546C38.9031 17.7546 39.9031 18.7546 39.9031 19.9973C39.9031 21.2399 38.9031 22.2399 36.9031 24.2399L33.3866 27.7564C31.3866 29.7564 30.3866 30.7564 29.1439 30.7564C27.9013 30.7564 26.9013 29.7564 24.9013 27.7564L21.3848 24.2399C19.3848 22.2399 18.3848 21.2399 18.3848 19.9973C18.3848 18.7546 19.3848 17.7546 21.3848 15.7546L24.9013 12.2381Z" fill="#0884F7"/>
</svg>
