<svg width="56" height="56" viewBox="0 0 56 56" fill="none" xmlns="http://www.w3.org/2000/svg">
<path d="M10 13C10 12.4477 10.4477 12 11 12H19C19.5523 12 20 12.4477 20 13V25C20 25.5523 19.5523 26 19 26H11C10.4477 26 10 25.5523 10 25V13Z" fill="#A1A8AE"/>
<path d="M10 31C10 30.4477 10.4477 30 11 30H19C19.5523 30 20 30.4477 20 31V43C20 43.5523 19.5523 44 19 44H11C10.4477 44 10 43.5523 10 43V31Z" fill="#A1A8AE"/>
<path d="M23 13C23 12.4477 23.4477 12 24 12H32C32.5523 12 33 12.4477 33 13V25C33 25.5523 32.5523 26 32 26H24C23.4477 26 23 25.5523 23 25V13Z" fill="#A1A8AE"/>
<path d="M23 31C23 30.4477 23.4477 30 24 30H32C32.5523 30 33 30.4477 33 31V43C33 43.5523 32.5523 44 32 44H24C23.4477 44 23 43.5523 23 43V31Z" fill="#A1A8AE"/>
<path d="M36 13C36 12.4477 36.4477 12 37 12H45C45.5523 12 46 12.4477 46 13V25C46 25.5523 45.5523 26 45 26H37C36.4477 26 36 25.5523 36 25V13Z" fill="#A1A8AE"/>
<path d="M36 31C36 30.4477 36.4477 30 37 30H45C45.5523 30 46 30.4477 46 31V43C46 43.5523 45.5523 44 45 44H37C36.4477 44 36 43.5523 36 43V31Z" fill="#A1A8AE"/>
</svg>
