<svg width="11" height="12" viewBox="0 0 11 12" fill="none" xmlns="http://www.w3.org/2000/svg">
<path d="M0.668639 10.4629C0.559207 10.5783 0.498654 10.7329 0.500023 10.8934C0.501392 11.0538 0.564572 11.2073 0.675957 11.3208C0.787341 11.4342 0.938017 11.4986 1.09553 11.5C1.25305 11.5014 1.4048 11.4397 1.5181 11.3282L6.32411 6.43265C6.43673 6.31789 6.5 6.16227 6.5 6C6.5 5.83773 6.43673 5.68211 6.32411 5.56735L1.5181 0.671779C1.4048 0.560308 1.25305 0.498629 1.09553 0.500023C0.938016 0.501417 0.78734 0.56577 0.675956 0.67923C0.564572 0.79269 0.501391 0.946179 0.500023 1.10663C0.498654 1.26708 0.559207 1.42166 0.668638 1.53707L5.04992 6L0.668639 10.4629Z" fill="#333D45"/>
<path d="M4.66864 10.4629C4.55921 10.5783 4.49865 10.7329 4.50002 10.8934C4.50139 11.0538 4.56457 11.2073 4.67596 11.3208C4.78734 11.4342 4.93802 11.4986 5.09553 11.5C5.25305 11.5014 5.4048 11.4397 5.5181 11.3282L10.3241 6.43265C10.4367 6.31789 10.5 6.16227 10.5 6C10.5 5.83773 10.4367 5.68211 10.3241 5.56735L5.5181 0.671779C5.4048 0.560308 5.25305 0.498629 5.09553 0.500023C4.93802 0.501417 4.78734 0.56577 4.67596 0.67923C4.56457 0.79269 4.50139 0.946179 4.50002 1.10663C4.49865 1.26708 4.55921 1.42166 4.66864 1.53707L9.04992 6L4.66864 10.4629Z" fill="#333D45"/>
</svg>
