<svg width="56" height="56" viewBox="0 0 56 56" fill="none" xmlns="http://www.w3.org/2000/svg">
<rect width="56" height="56" rx="8" fill="#E4F1FE"/>
<path d="M10 13C10 12.7239 10.2239 12.5 10.5 12.5H45.5C45.7761 12.5 46 12.7239 46 13V16C46 16.2761 45.7761 16.5 45.5 16.5H10.5C10.2239 16.5 10 16.2761 10 16V13Z" fill="#0884F7"/>
<path d="M10 22C10 21.7239 10.2239 21.5 10.5 21.5H45.5C45.7761 21.5 46 21.7239 46 22V25C46 25.2761 45.7761 25.5 45.5 25.5H10.5C10.2239 25.5 10 25.2761 10 25V22Z" fill="#0884F7"/>
<path d="M10 31C10 30.7239 10.2239 30.5 10.5 30.5H45.5C45.7761 30.5 46 30.7239 46 31V34C46 34.2761 45.7761 34.5 45.5 34.5H10.5C10.2239 34.5 10 34.2761 10 34V31Z" fill="#0884F7"/>
<path d="M10 40C10 39.7239 10.2239 39.5 10.5 39.5H45.5C45.7761 39.5 46 39.7239 46 40V43C46 43.2761 45.7761 43.5 45.5 43.5H10.5C10.2239 43.5 10 43.2761 10 43V40Z" fill="#0884F7"/>
</svg>
