<svg width="32" height="32" viewBox="0 0 32 32" fill="none" xmlns="http://www.w3.org/2000/svg">
<path d="M13.6686 20.8686C13.5592 20.9946 13.4987 21.1632 13.5 21.3382C13.5014 21.5133 13.5646 21.6807 13.676 21.8045C13.7873 21.9283 13.938 21.9985 14.0955 22C14.253 22.0015 14.4048 21.9342 14.5181 21.8126L19.3241 16.472C19.4367 16.3468 19.5 16.177 19.5 16C19.5 15.823 19.4367 15.6532 19.3241 15.528L14.5181 10.1874C14.4048 10.0658 14.253 9.9985 14.0955 10C13.938 10.0015 13.7873 10.0717 13.676 10.1955C13.5646 10.3193 13.5014 10.4867 13.5 10.6618C13.4987 10.8368 13.5592 11.0054 13.6686 11.1314L18.0499 16L13.6686 20.8686Z" fill="white"/>
</svg>
