<svg width="20" height="19" viewBox="0 0 20 19" fill="none" xmlns="http://www.w3.org/2000/svg">
<path d="M9.99977 5.83336C9.91316 5.83339 9.82748 5.81552 9.74811 5.78086L4.53977 3.48919C4.42909 3.43992 4.33506 3.35962 4.26908 3.25801C4.20309 3.1564 4.16797 3.03785 4.16797 2.91669C4.16797 2.79554 4.20309 2.67698 4.26908 2.57537C4.33506 2.47377 4.42909 2.39347 4.53977 2.34419L9.74811 0.0525259C9.82749 0.0178819 9.91316 0 9.99977 0C10.0864 0 10.1721 0.0178819 10.2514 0.0525259L15.4598 2.34419C15.5705 2.39347 15.6645 2.47377 15.7305 2.57537C15.7965 2.67698 15.8316 2.79554 15.8316 2.91669C15.8316 3.03785 15.7965 3.1564 15.7305 3.25801C15.6645 3.35962 15.5705 3.43992 15.4598 3.48919L10.2514 5.78086C10.1721 5.81552 10.0864 5.83339 9.99977 5.83336Z" fill="white"/>
<path d="M10.7557 6.92354C10.5183 7.02825 10.2619 7.08247 10.0025 7.08275C9.74312 7.08304 9.48652 7.02939 9.24898 6.92521L5.83398 5.42188V5.99521C5.83398 6.50354 6.09982 6.98187 6.52732 7.24104C7.72815 7.97021 8.86482 8.33437 10.0007 8.33437C11.1365 8.33437 12.2732 7.96937 13.474 7.24104C13.9015 6.98187 14.1673 6.50437 14.1673 5.99521V5.42188L10.7557 6.92354Z" fill="white"/>
<path d="M18.5417 3.33594H17.4583C17.325 4.06927 16.8417 4.69427 16.15 5.0026H18.3333V14.1693H1.66667V5.0026H3.85C3.51253 4.85257 3.21689 4.62226 2.98884 4.33176C2.7608 4.04126 2.60728 3.69938 2.54167 3.33594H1.45833C0.658333 3.33594 0 3.99427 0 4.79427V16.0443C0 16.8443 0.658333 17.5026 1.45833 17.5026H7.84167C7.74167 17.9193 7.48333 17.5943 6.79167 18.2943C6.66667 18.4109 6.63333 18.5859 6.7 18.7443C6.76667 18.9026 6.91667 19.0026 7.08333 19.0026H12.9167C13.0833 19.0026 13.2333 18.9026 13.3 18.7443C13.3667 18.5859 13.3333 18.4109 13.2083 18.2943C12.5167 17.6026 12.25 17.9193 12.15 17.5026H18.5417C19.3417 17.5026 20 16.8443 20 16.0443V4.79427C20 3.99427 19.3417 3.33594 18.5417 3.33594Z" fill="white"/>
</svg>
