<svg width="24" height="24" viewBox="0 0 24 24" fill="none" xmlns="http://www.w3.org/2000/svg">
<path d="M24 11.9961C24 17.006 23.9948 18.4712 23.9712 18.756C23.8857 19.7841 23.7238 20.4239 23.3767 21.1208C23.1099 21.658 22.8006 22.0816 22.3671 22.4996C21.5765 23.261 20.6039 23.7225 19.4477 23.8895C18.8865 23.9708 18.772 23.9944 15.905 23.9992C14.9494 24.001 13.6917 23.9992 12.0047 23.9992C6.99751 23.9992 5.53339 23.9936 5.24906 23.9696C4.24836 23.8866 3.61877 23.7297 2.93009 23.3974C1.61183 22.7625 0.622206 21.5498 0.252945 20.1211C0.12555 19.6265 0.0553896 19.0801 0.022156 18.3787C0.00923183 18.0815 3.91105e-07 15.0526 5.23586e-07 12.0217C6.56068e-07 8.99092 0.00369151 5.96011 0.018462 5.67032C0.0566815 4.85816 0.120013 4.38656 0.254794 3.86512C0.625901 2.42723 1.60075 1.23669 2.93748 0.588811C3.60954 0.263026 4.26313 0.0978251 5.21158 0.0230705C5.41837 0.0068275 8.71532 -6.68115e-07 12.0078 -5.24194e-07C15.3009 -3.80249e-07 18.5918 0.0073812 18.7986 0.0236242C19.7624 0.0993021 20.4104 0.264503 21.0954 0.600811C21.6561 0.876758 22.0749 1.18316 22.503 1.628C23.2615 2.42188 23.7231 3.39278 23.89 4.54973C23.971 5.1103 23.995 5.22197 24 8.09035L24 11.9961Z" fill="white" fill-opacity="0.11"/>
<path d="M20.8613 12.0027C20.8613 14.4089 20.8508 14.7108 20.8078 15.6559C20.7646 16.5991 20.6152 17.2429 20.3961 17.8063C20.1697 18.389 19.8669 18.8833 19.3741 19.3757C18.8815 19.8686 18.3871 20.1713 17.8044 20.3983C17.2407 20.618 16.5965 20.7675 15.6534 20.8099C14.7081 20.8522 14.4059 20.8633 11.999 20.8633C9.59219 20.8633 9.29105 20.8526 8.34574 20.8098C7.40228 20.7664 6.75829 20.617 6.19479 20.3981C5.61191 20.1717 5.11747 19.8689 4.62487 19.3763C4.13191 18.884 3.82837 18.3897 3.60202 17.8074C3.38286 17.2437 3.23349 16.5997 3.19029 15.6566C3.14727 14.7116 3.13675 14.4098 3.13675 12.0038C3.13675 9.5974 3.14727 9.29635 3.19029 8.3513C3.23349 7.40809 3.38286 6.76353 3.60202 6.19983C3.82838 5.61729 4.13191 5.12372 4.62487 4.63144C5.11747 4.13861 5.61191 3.8359 6.19461 3.60887C6.75829 3.39106 7.40246 3.24155 8.34556 3.19725C9.29087 3.1548 9.59219 3.14372 11.999 3.14372C14.4059 3.14372 14.7079 3.1548 15.6533 3.19725C16.5967 3.24155 17.2407 3.39106 17.8042 3.60887C18.3871 3.8359 18.8815 4.13861 19.3741 4.63144C19.8671 5.12427 20.1699 5.6171 20.3961 6.20038C20.6152 6.7652 20.7646 7.40938 20.8078 8.35259C20.8508 9.29764 20.8613 9.59851 20.8613 12.0054L20.8613 12.0027ZM19.2643 12.7975C19.2646 12.5616 19.2643 12.2984 19.2643 12.0027C19.2643 9.63709 19.2558 9.35671 19.2133 8.42255C19.1738 7.55871 19.0294 7.08987 18.9081 6.77756C18.7475 6.3641 18.5555 6.06933 18.2453 5.75942C17.9351 5.44932 17.6397 5.25736 17.2261 5.0964C16.9141 4.97513 16.4451 4.83061 15.5811 4.79129C14.6468 4.74884 14.3662 4.73961 12.0011 4.73961C9.63595 4.73961 9.35531 4.74884 8.42107 4.79129C7.557 4.83079 7.08804 4.97513 6.77601 5.0964C6.36244 5.25699 6.06795 5.44932 5.75795 5.75942C5.44777 6.06951 5.25576 6.36392 5.09513 6.77756C4.97327 7.0895 4.82926 7.55871 4.78975 8.42254C4.74728 9.35652 4.73805 9.63709 4.73805 12.0027C4.73805 14.3684 4.74728 14.6488 4.78975 15.5828C4.82963 16.4466 4.97401 16.9155 5.09531 17.228C5.25594 17.6414 5.44796 17.9368 5.75814 18.2469C6.06832 18.5569 6.36299 18.7489 6.77675 18.9099C7.08877 19.0311 7.55774 19.1757 8.42181 19.215C9.35604 19.2574 9.63668 19.2659 12.0033 19.2659C14.3699 19.2659 14.649 19.2574 15.5833 19.215C16.4474 19.1755 16.9163 19.0311 17.2287 18.9099C17.6423 18.7493 17.9377 18.5569 18.2479 18.2469C18.5581 17.9368 18.7501 17.6414 18.9111 17.228C19.0329 16.9157 19.1769 16.4466 19.2166 15.5828C19.2536 14.7655 19.2646 14.4487 19.2665 12.7975L19.2643 12.7975ZM17.7928 7.27335C17.7928 7.86031 17.317 8.33653 16.7297 8.33653C16.1425 8.33653 15.6662 7.86031 15.6662 7.27335C15.6662 6.68638 16.1425 6.21016 16.7297 6.21016C17.3168 6.21016 17.7931 6.68638 17.7931 7.27335L17.7928 7.27335ZM16.5502 12.0027C16.5502 14.5154 14.5124 16.5526 11.999 16.5526C9.48566 16.5526 7.44881 14.5154 7.44881 12.0027C7.44881 9.48998 9.48566 7.4535 11.999 7.4535C14.5124 7.4535 16.5502 9.48998 16.5502 12.0027ZM14.9531 12.0027C14.9531 10.3717 13.6306 9.04938 11.999 9.04938C10.3676 9.04938 9.04494 10.3717 9.04494 12.0027C9.04494 13.6338 10.3676 14.956 11.999 14.956C13.6306 14.956 14.9531 13.6338 14.9531 12.0027Z" fill="white"/>
</svg>
