<svg width="22" height="22" viewBox="0 0 22 22" fill="none" xmlns="http://www.w3.org/2000/svg">
<path d="M20.625 14.6667H18.3334V13.2917C18.3334 13.0387 18.128 12.8334 17.875 12.8334H12.375C12.122 12.8334 11.9167 13.0387 11.9167 13.2917V14.6667H7.33336V7.7917C7.33336 7.5387 7.12801 7.33336 6.87501 7.33336H6.59451L7.30951 5.18651C7.32511 5.13976 7.33336 5.09116 7.33336 5.04166V3.20835C7.33336 2.95535 7.12801 2.75 6.87501 2.75H4.58335V0.458348C4.58335 0.205348 4.37801 0 4.125 0C3.872 0 3.66666 0.205348 3.66666 0.458348V2.75H1.375C1.122 2.75 0.916653 2.95535 0.916653 3.20835V5.0417C0.916653 5.0912 0.924903 5.1398 0.940501 5.18655L1.6555 7.3334H1.375C1.122 7.3334 0.916653 7.53875 0.916653 7.79175V14.6668H0.458348C0.205348 14.6667 0 14.872 0 15.125V21.5417C0 21.7947 0.205348 22 0.458348 22H15.5834V16.9584C15.5834 16.7054 15.7887 16.5 16.0417 16.5H18.7917C19.0447 16.5 19.2501 16.7054 19.2501 16.9584V22H20.6251C20.8781 22 21.0834 21.7947 21.0834 21.5417V15.125C21.0834 14.872 20.878 14.6667 20.625 14.6667ZM4.58335 18.7917C4.58335 19.0447 4.37801 19.2501 4.125 19.2501H2.29165C2.03865 19.2501 1.83331 19.0447 1.83331 18.7917V16.9584C1.83331 16.7054 2.03865 16.5 2.29165 16.5H4.125C4.37801 16.5 4.58335 16.7054 4.58335 16.9584V18.7917ZM5.50001 11.4584C5.50001 11.7114 5.29466 11.9167 5.04166 11.9167H3.20835C2.95535 11.9167 2.75 11.7114 2.75 11.4584V9.62501C2.75 9.37201 2.95535 9.16666 3.20835 9.16666H5.0417C5.2947 9.16666 5.50005 9.37201 5.50005 9.62501V11.4584H5.50001ZM5.04166 5.50001H3.20835C2.95535 5.50001 2.75 5.2947 2.75 5.0417C2.75 4.7887 2.95535 4.58335 3.20835 4.58335H5.0417C5.2947 4.58335 5.50005 4.7887 5.50005 5.0417C5.50005 5.2947 5.29466 5.50001 5.04166 5.50001ZM9.16666 18.7917C9.16666 19.0447 8.96132 19.2501 8.70831 19.2501H6.87501C6.62201 19.2501 6.41666 19.0447 6.41666 18.7917V16.9584C6.41666 16.7054 6.62201 16.5 6.87501 16.5H8.70836C8.96136 16.5 9.16671 16.7054 9.16671 16.9584V18.7917H9.16666ZM13.75 18.7917C13.75 19.0447 13.5447 19.2501 13.2917 19.2501H11.4583C11.2053 19.2501 11 19.0447 11 18.7917V16.9584C11 16.7054 11.2053 16.5 11.4583 16.5H13.2917C13.5447 16.5 13.75 16.7054 13.75 16.9584V18.7917Z" fill="#333D45"/>
<path d="M21.6544 4.0845C20.9027 3.57025 20.1043 3.507 19.3215 3.88741L16.7236 5.10841L16.6466 5.15426L15.0388 4.31366C14.3669 3.86631 13.5987 3.62891 12.8039 3.62891H12.803L11.4464 3.66741C11.3513 3.67004 11.2594 3.70227 11.1835 3.75961C11.1075 3.81696 11.0514 3.89655 11.0229 3.98731C10.9642 4.17341 11.0284 4.37596 11.1851 4.49241L14.0387 6.63191L11.7929 7.79881C11.5151 7.77222 10.7121 7.57606 10.3125 7.47797C9.79547 7.35237 9.71572 7.33406 9.62497 7.33406H8.70832C8.61376 7.33412 8.52153 7.36339 8.44425 7.41787C8.36696 7.47235 8.3084 7.54937 8.27657 7.63841C8.24482 7.7275 8.24144 7.82424 8.26688 7.91533C8.29233 8.00643 8.34535 8.08741 8.41866 8.14716C8.82841 8.48176 10.9313 10.151 12.0899 10.151C12.287 10.151 12.4612 10.107 12.5831 10.0346L21.6645 5.41735C21.8762 5.26885 22.0018 5.01951 22 4.75001C21.9991 4.48145 21.8698 4.233 21.6544 4.0845Z" fill="#333D45"/>
</svg>
