<svg width="32" height="32" viewBox="0 0 32 32" fill="none" xmlns="http://www.w3.org/2000/svg">
<path d="M15.9957 23.0596C20.3322 23.0596 23.8603 19.5323 23.8603 15.1967C23.8579 13.1116 23.0286 11.1125 21.5542 9.63814C20.0798 8.16375 18.0808 7.3344 15.9957 7.33203C11.6601 7.33203 8.13281 10.8601 8.13281 15.1967C8.13619 17.1804 8.88637 19.0902 10.2341 20.5459L9.42075 23.5801C9.37272 23.7592 9.37891 23.9486 9.43852 24.1242C9.49813 24.2998 9.60849 24.4538 9.75564 24.5667C9.90279 24.6796 10.0801 24.7463 10.2652 24.7584C10.4502 24.7705 10.6347 24.7274 10.7953 24.6346L13.9763 22.7966C14.6351 22.9716 15.314 23.06 15.9957 23.0596ZM13.3865 20.9721L11.8183 21.8783L12.1851 20.5102C12.2292 20.3458 12.2276 20.1724 12.1806 20.0087C12.1336 19.8451 12.0429 19.6973 11.9183 19.5813C11.313 19.0231 10.8305 18.3451 10.5015 17.5902C10.1726 16.8354 10.0045 16.0203 10.0078 15.197C10.0083 13.933 10.4088 12.7016 11.152 11.6793C11.8952 10.6569 12.943 9.89607 14.1452 9.50573C15.3473 9.11539 16.6422 9.11561 17.8443 9.50636C19.0463 9.8971 20.0938 10.6583 20.8367 11.6809C21.5796 12.7035 21.9797 13.935 21.9797 15.199C21.9797 16.463 21.5796 17.6945 20.8368 18.7171C20.0939 19.7397 19.0464 20.501 17.8444 20.8917C16.6424 21.2825 15.3475 21.2828 14.1453 20.8925C14.0203 20.8518 13.8882 20.8378 13.7575 20.8515C13.6267 20.8652 13.5003 20.9064 13.3865 20.9721ZM13.8053 15.1048C13.8083 15.1353 13.8098 15.166 13.8097 15.1967C13.8098 15.2275 13.8083 15.2584 13.8053 15.2892C13.8022 15.3192 13.7972 15.3498 13.7916 15.3798C13.7859 15.4098 13.7778 15.4398 13.7691 15.4692C13.7603 15.4985 13.7497 15.5273 13.7378 15.5554C13.7259 15.5835 13.7128 15.6117 13.6984 15.6385C13.6841 15.6654 13.6684 15.6917 13.6516 15.7173C13.6349 15.7429 13.6167 15.7675 13.5972 15.791C13.5778 15.8154 13.5566 15.8379 13.5353 15.8598C13.5135 15.8815 13.4905 15.9022 13.4666 15.9217C13.4428 15.941 13.4178 15.9592 13.3928 15.9767C13.3672 15.9929 13.3409 16.0092 13.3134 16.0235C13.2867 16.038 13.2591 16.0509 13.2309 16.0623C13.2027 16.0742 13.174 16.0846 13.1447 16.0935C13.1153 16.1023 13.0853 16.1098 13.0553 16.116C13.0254 16.1221 12.9951 16.1267 12.9647 16.1298C12.9032 16.1356 12.8412 16.1356 12.7797 16.1298C12.7493 16.1267 12.719 16.1221 12.6891 16.116C12.6591 16.1098 12.6291 16.1023 12.5997 16.0935C12.5704 16.0846 12.5416 16.0742 12.5134 16.0623C12.4852 16.0509 12.4577 16.038 12.4309 16.0235C12.4034 16.0092 12.3772 15.9929 12.3516 15.9767C12.3266 15.9592 12.3016 15.941 12.2778 15.9217C12.2539 15.9022 12.2309 15.8815 12.2091 15.8598C12.1878 15.8379 12.1666 15.8154 12.1472 15.791C12.1277 15.7675 12.1095 15.7429 12.0928 15.7173C12.0761 15.6917 12.0605 15.6654 12.0459 15.6385C12.0316 15.6117 12.0184 15.5835 12.0066 15.5554C11.9947 15.5273 11.9847 15.4985 11.9753 15.4692C11.9659 15.4398 11.9591 15.4098 11.9528 15.3798C11.9404 15.3195 11.9343 15.2582 11.9347 15.1967C11.9347 15.166 11.9366 15.1354 11.9391 15.1048C11.9416 15.0742 11.9472 15.0435 11.9528 15.0135C11.9584 14.9835 11.9666 14.9542 11.9753 14.9248C11.9841 14.8954 11.9947 14.8667 12.0066 14.8385C12.0184 14.8104 12.0316 14.7823 12.0459 14.7554C12.0748 14.7013 12.1087 14.65 12.1472 14.6023C12.1666 14.5785 12.1878 14.5554 12.2091 14.5342C12.2309 14.5124 12.2539 14.4917 12.2778 14.4723C12.3016 14.4529 12.3266 14.4342 12.3516 14.4173C12.3772 14.4003 12.4037 14.3847 12.4309 14.3704C12.4578 14.356 12.4853 14.3429 12.5134 14.331C12.5416 14.3198 12.5709 14.3092 12.5997 14.3004C12.6291 14.2914 12.6589 14.2839 12.6891 14.2779C12.8099 14.2534 12.9345 14.2534 13.0553 14.2779C13.0855 14.2839 13.1153 14.2914 13.1447 14.3004C13.1734 14.3092 13.2028 14.3198 13.2309 14.331C13.2591 14.3423 13.2866 14.356 13.3134 14.3704C13.3407 14.3847 13.3672 14.4003 13.3928 14.4173C13.4178 14.4342 13.4428 14.4529 13.4666 14.4723C13.4905 14.4917 13.5135 14.5124 13.5353 14.5342C13.5566 14.5554 13.5778 14.5785 13.5972 14.6023C13.6357 14.65 13.6696 14.7013 13.6984 14.7554C13.7128 14.7823 13.7259 14.8104 13.7378 14.8385C13.7497 14.8667 13.7597 14.8954 13.7691 14.9248C13.7784 14.9542 13.7853 14.9842 13.7916 15.0135C13.7978 15.0429 13.8022 15.0742 13.8053 15.1048ZM15.0591 15.1967C15.059 15.0736 15.0831 14.9517 15.1301 14.838C15.1772 14.7242 15.2461 14.6209 15.3331 14.5338C15.4201 14.4468 15.5234 14.3777 15.6371 14.3306C15.7508 14.2834 15.8726 14.2592 15.9957 14.2592H15.9974C16.1828 14.2593 16.364 14.3145 16.518 14.4176C16.6721 14.5207 16.7921 14.6672 16.863 14.8385C16.9338 15.0098 16.9522 15.1983 16.9159 15.3801C16.8797 15.5619 16.7903 15.7289 16.6592 15.8599C16.528 15.9909 16.361 16.0801 16.1791 16.1162C15.9973 16.1523 15.8088 16.1337 15.6376 16.0627C15.4663 15.9917 15.32 15.8716 15.217 15.7174C15.114 15.5633 15.0591 15.382 15.0591 15.1967ZM18.1878 15.2889C18.1848 15.2582 18.1833 15.2273 18.1834 15.1964C18.1833 15.1657 18.1848 15.1351 18.1878 15.1045C18.1909 15.0739 18.1959 15.0433 18.2016 15.0133C18.2072 14.9833 18.2153 14.9539 18.2241 14.9245C18.2329 14.8952 18.2433 14.8664 18.2553 14.8383C18.2666 14.8102 18.2803 14.782 18.2941 14.7552C18.3234 14.7012 18.3575 14.65 18.3959 14.602C18.4153 14.5783 18.4366 14.5552 18.4578 14.5339C18.4797 14.5121 18.5026 14.4915 18.5266 14.472C18.5501 14.4523 18.5747 14.4339 18.6003 14.417C18.6259 14.4004 18.6522 14.3847 18.6791 14.3702C18.7059 14.3558 18.7341 14.3427 18.7622 14.3308C18.7903 14.3189 18.8197 14.3089 18.8484 14.3002C18.8778 14.2911 18.9077 14.2836 18.9378 14.2777C19.0283 14.2593 19.121 14.2546 19.2128 14.2639C19.2434 14.2669 19.2739 14.2715 19.3041 14.2777C19.334 14.2835 19.3637 14.291 19.3928 14.3002C19.4222 14.3089 19.4516 14.3195 19.4797 14.3308C19.5078 14.342 19.5353 14.3558 19.5622 14.3702C19.5894 14.3844 19.6159 14.4001 19.6416 14.417C19.6666 14.4339 19.6916 14.4527 19.7153 14.472C19.7392 14.4913 19.7619 14.512 19.7834 14.5339C19.8053 14.5552 19.8259 14.5783 19.8459 14.602C19.8647 14.6258 19.8834 14.6508 19.9003 14.6764C19.9173 14.7018 19.9329 14.7281 19.9472 14.7552C19.9616 14.782 19.9747 14.8102 19.9866 14.8383C19.9983 14.8664 20.0086 14.8952 20.0172 14.9245C20.0265 14.9536 20.034 14.9833 20.0397 15.0133C20.0461 15.0434 20.0507 15.0739 20.0534 15.1045C20.0567 15.1351 20.0583 15.1657 20.0584 15.1964C20.0583 15.2273 20.0567 15.2582 20.0534 15.2889C20.0507 15.3194 20.0461 15.3496 20.0397 15.3795C20.034 15.4098 20.0265 15.4396 20.0172 15.4689C20.0085 15.4982 19.9983 15.527 19.9866 15.5552C19.9747 15.5833 19.9616 15.6114 19.9472 15.6383C19.9328 15.6652 19.9172 15.6914 19.9003 15.717C19.8834 15.7427 19.8647 15.7677 19.8459 15.7908C19.8259 15.8152 19.8053 15.8377 19.7834 15.8595C19.7619 15.8814 19.7392 15.9021 19.7153 15.9214C19.6916 15.9408 19.6666 15.9589 19.6416 15.9758C19.6159 15.9929 19.5894 16.0088 19.5622 16.0233C19.5354 16.0377 19.5079 16.0506 19.4797 16.062C19.4513 16.074 19.4223 16.0845 19.3928 16.0933C19.3641 16.102 19.3341 16.1095 19.3041 16.1158C19.2438 16.128 19.1824 16.1341 19.1209 16.1339C19.0901 16.134 19.0592 16.1325 19.0284 16.1295C18.998 16.1265 18.9678 16.1219 18.9378 16.1158C18.9078 16.1095 18.8778 16.102 18.8484 16.0933C18.8192 16.0844 18.7904 16.0739 18.7622 16.062C18.7338 16.0506 18.706 16.0377 18.6791 16.0233C18.6522 16.0089 18.6259 15.9927 18.6003 15.9758C18.5747 15.9591 18.5501 15.9409 18.5266 15.9214C18.5026 15.902 18.4797 15.8813 18.4578 15.8595C18.4366 15.8377 18.4153 15.8152 18.3959 15.7908C18.3764 15.7673 18.3583 15.7426 18.3416 15.717C18.3247 15.6914 18.3084 15.6652 18.2941 15.6383C18.2797 15.6114 18.2666 15.5833 18.2553 15.5552C18.2434 15.527 18.233 15.4982 18.2241 15.4689C18.2153 15.4395 18.2078 15.4095 18.2016 15.3795C18.1953 15.3495 18.1909 15.3189 18.1878 15.2889Z" fill="#E4F1FE"/>
<path d="M31.4874 15.8669L31.4873 15.8681C31.4765 16.2735 31.4653 16.6931 31.4861 17.1626C31.5114 17.7479 31.4212 18.3324 31.2206 18.8828C31.0199 19.4332 30.7129 19.9387 30.3169 20.3704C29.9209 20.8021 29.4437 21.1516 28.9126 21.3988C28.3816 21.6461 27.807 21.7864 27.2217 21.8116C27.1525 21.8147 27.0834 21.8163 27.0145 21.8163C26.7003 21.8161 26.3871 21.7822 26.0801 21.7151C25.1704 23.1199 23.9775 24.3194 22.5776 25.2367C21.1776 26.154 19.6016 26.7689 17.9504 27.042C17.7551 27.6156 17.3656 28.1029 16.8491 28.4197C16.3327 28.7365 15.7218 28.8629 15.122 28.7771C14.5222 28.6913 13.9713 28.3986 13.5644 27.9497C13.1575 27.5007 12.9202 26.9237 12.8936 26.3184C12.867 25.7131 13.0527 25.1176 13.4186 24.6347C13.7846 24.1517 14.3077 23.8119 14.8976 23.6737C15.4876 23.5356 16.1072 23.6079 16.6495 23.8782C17.1918 24.1485 17.6225 24.5997 17.8674 25.1539C20.1919 24.7241 22.2918 23.4921 23.8012 21.6729C25.3106 19.8536 26.1338 17.5624 26.1272 15.1985C26.1272 9.61406 21.5827 5.07031 15.999 5.07031C10.4152 5.07031 5.87247 9.61381 5.87247 15.1985C5.87241 16.9254 6.31322 18.6237 7.15316 20.1326C7.17599 20.1722 7.19331 20.2147 7.20466 20.2589C7.29599 20.487 7.294 20.7418 7.19912 20.9683C7.10425 21.1949 6.92409 21.3751 6.69754 21.47C6.1553 21.6989 5.57266 21.8166 4.9841 21.8162C4.91447 21.8162 4.8447 21.8146 4.77479 21.8114C3.59396 21.7586 2.48226 21.2397 1.68344 20.3685C0.884628 19.4973 0.463907 18.3448 0.513536 17.1639C0.534349 16.6928 0.523224 16.2736 0.512411 15.8683L0.512382 15.8672C0.502204 15.4838 0.491679 15.0874 0.510036 14.6733C0.559891 13.5197 1.05532 12.4305 1.89206 11.6348C2.7288 10.8391 3.84159 10.3991 4.99622 10.4072C6.84985 6.16656 11.0828 3.19531 15.999 3.19531C20.9152 3.19531 25.1498 6.16663 27.0034 10.4073C28.1583 10.399 29.2714 10.8393 30.1082 11.6352C30.945 12.4312 31.4403 13.5209 31.4898 14.6748C31.5081 15.0873 31.4976 15.4837 31.4874 15.8669Z" fill="#0884F7"/>
</svg>
