<svg width="26" height="26" viewBox="0 0 26 26" fill="none" xmlns="http://www.w3.org/2000/svg">
<rect x="0.507812" y="0.5" width="25" height="25" rx="12.5" fill="white" fill-opacity="0.1" stroke="url(#paint0_linear_2097_32562)"/>
<path fill-rule="evenodd" clip-rule="evenodd" d="M13.595 18.8302C15.8819 17.407 18 14.8952 18 11.8164C18 10.539 17.4732 9.31393 16.5355 8.41068C15.5979 7.50743 14.3261 7 13 7C11.6739 7 10.4021 7.50743 9.46446 8.41068C8.52678 9.31393 8 10.539 8 11.8164C8 14.8952 10.1181 17.407 12.405 18.8302C12.5821 18.941 12.7888 19 13 19C13.2112 19 13.4179 18.941 13.595 18.8302ZM13 14.3582C13.4945 14.3582 13.9778 14.217 14.3889 13.9524C14.8001 13.6878 15.1205 13.3116 15.3097 12.8716C15.4989 12.4316 15.5484 11.9474 15.452 11.4802C15.3555 11.0131 15.1174 10.584 14.7678 10.2472C14.4181 9.91039 13.9727 9.68104 13.4877 9.58812C13.0028 9.4952 12.5001 9.54289 12.0433 9.72516C11.5865 9.90743 11.196 10.2161 10.9213 10.6121C10.6466 11.0081 10.5 11.4737 10.5 11.95C10.5 12.5887 10.7634 13.2013 11.2322 13.6529C11.7011 14.1045 12.337 14.3582 13 14.3582Z" fill="#0884F7"/>
<defs>
<linearGradient id="paint0_linear_2097_32562" x1="-0.49707" y1="13.0244" x2="8.00293" y2="13.0244" gradientUnits="userSpaceOnUse">
<stop stop-color="#0884F7"/>
<stop offset="1" stop-color="#0884F7" stop-opacity="0"/>
</linearGradient>
</defs>
</svg>
