<svg width="24" height="24" viewBox="0 0 24 24" fill="none" xmlns="http://www.w3.org/2000/svg">
<path fill-rule="evenodd" clip-rule="evenodd" d="M22.1561 21.652H20.8228V7.76537H18.7695V21.652H5.22281V7.76537H3.22281V21.652H1.88948C1.7551 21.652 1.62623 21.7054 1.53121 21.8004C1.43619 21.8955 1.38281 22.0243 1.38281 22.1587C1.38281 22.2931 1.43619 22.422 1.53121 22.517C1.62623 22.612 1.7551 22.6654 1.88948 22.6654H22.1561C22.2905 22.6654 22.4194 22.612 22.5144 22.517C22.6094 22.422 22.6628 22.2931 22.6628 22.1587C22.6628 22.0243 22.6094 21.8955 22.5144 21.8004C22.4194 21.7054 22.2905 21.652 22.1561 21.652ZM20.8028 4.03871C20.8028 3.6827 20.7326 3.33019 20.5961 3.00137C20.4597 2.67254 20.2597 2.37387 20.0077 2.12244C19.7556 1.87102 19.4565 1.67179 19.1273 1.53616C18.7982 1.40053 18.4455 1.33116 18.0895 1.33204H5.90281C5.54681 1.33116 5.19413 1.40053 4.86497 1.53616C4.53581 1.67179 4.23664 1.87102 3.9846 2.12244C3.73256 2.37387 3.53259 2.67254 3.39615 3.00137C3.25971 3.33019 3.18948 3.6827 3.18948 4.03871V6.75204H20.8028V4.03871ZM10.3228 4.56537C10.2521 4.63668 10.1619 4.68539 10.0635 4.7053C9.96505 4.72522 9.86295 4.71545 9.7701 4.67724C9.67726 4.63902 9.59786 4.57408 9.54199 4.49066C9.48611 4.40725 9.45628 4.30911 9.45628 4.20871C9.45628 4.1083 9.48611 4.01017 9.54199 3.92675C9.59786 3.84333 9.67726 3.77839 9.7701 3.74018C9.86295 3.70196 9.96505 3.69219 10.0635 3.71211C10.1619 3.73202 10.2521 3.78073 10.3228 3.85204C10.3702 3.89858 10.4078 3.95409 10.4335 4.01532C10.4592 4.07656 10.4724 4.1423 10.4724 4.20871C10.4724 4.27511 10.4592 4.34085 10.4335 4.40209C10.4078 4.46333 10.3702 4.51883 10.3228 4.56537ZM12.3228 4.56537C12.2757 4.61294 12.2196 4.6507 12.1578 4.67647C12.096 4.70224 12.0298 4.71551 11.9628 4.71551C11.8959 4.71551 11.8296 4.70224 11.7678 4.67647C11.706 4.6507 11.6499 4.61294 11.6028 4.56537C11.5554 4.51883 11.5178 4.46333 11.4921 4.40209C11.4665 4.34085 11.4532 4.27511 11.4532 4.20871C11.4532 4.1423 11.4665 4.07656 11.4921 4.01532C11.5178 3.95409 11.5554 3.89858 11.6028 3.85204C11.6499 3.80447 11.706 3.76671 11.7678 3.74094C11.8296 3.71517 11.8959 3.7019 11.9628 3.7019C12.0298 3.7019 12.096 3.71517 12.1578 3.74094C12.2196 3.76671 12.2757 3.80447 12.3228 3.85204C12.3724 3.89632 12.4127 3.95006 12.4413 4.0101C12.4699 4.07014 12.4862 4.13528 12.4893 4.20171C12.4924 4.26813 12.4822 4.33451 12.4594 4.39695C12.4365 4.4594 12.4014 4.51666 12.3561 4.56537H12.3228ZM14.3561 4.56537C14.309 4.61294 14.253 4.6507 14.1912 4.67647C14.1294 4.70224 14.0631 4.71551 13.9961 4.71551C13.9292 4.71551 13.8629 4.70224 13.8011 4.67647C13.7393 4.6507 13.6833 4.61294 13.6361 4.56537C13.5888 4.51883 13.5512 4.46333 13.5255 4.40209C13.4998 4.34085 13.4866 4.27511 13.4866 4.20871C13.4866 4.1423 13.4998 4.07656 13.5255 4.01532C13.5512 3.95409 13.5888 3.89858 13.6361 3.85204C13.683 3.80476 13.7387 3.76718 13.8 3.74142C13.8614 3.71567 13.9272 3.70226 13.9938 3.70195C14.0603 3.70164 14.1263 3.71444 14.1879 3.73962C14.2495 3.7648 14.3055 3.80187 14.3528 3.84871C14.4001 3.89554 14.4377 3.95124 14.4634 4.0126C14.4892 4.07396 14.5026 4.1398 14.5029 4.20635C14.5032 4.2729 14.4904 4.33886 14.4652 4.40046C14.4401 4.46206 14.403 4.5181 14.3561 4.56537Z" fill="#333D45"/>
</svg>
