<svg width="18" height="16" viewBox="0 0 18 16" fill="none" xmlns="http://www.w3.org/2000/svg">
<path d="M9.47185 14.4915C9.31268 14.6594 9.2246 14.8842 9.2266 15.1176C9.22859 15.351 9.32049 15.5743 9.4825 15.7393C9.64451 15.9043 9.86368 15.9979 10.0928 16C10.3219 16.002 10.5426 15.9123 10.7074 15.7501L17.698 8.6293C17.8618 8.46238 17.9538 8.23602 17.9538 8C17.9538 7.76398 17.8618 7.53761 17.698 7.37069L10.7074 0.24986C10.5426 0.0877199 10.3219 -0.00199513 10.0928 3.33407e-05C9.86368 0.00206086 9.64451 0.095665 9.4825 0.260697C9.32048 0.425731 9.22859 0.648987 9.22659 0.88237C9.2246 1.11575 9.31268 1.34059 9.47185 1.50847L15.8446 8L9.47185 14.4915Z" fill="#0884F7"/>
<path opacity="0.5" d="M5.10857 14.4915C4.9494 14.6594 4.86132 14.8842 4.86331 15.1176C4.86531 15.351 4.9572 15.5743 5.11922 15.7393C5.28123 15.9043 5.5004 15.9979 5.72951 16C5.95862 16.002 6.17935 15.9123 6.34415 15.7501L13.3347 8.6293C13.4985 8.46238 13.5906 8.23602 13.5906 8C13.5906 7.76398 13.4985 7.53761 13.3347 7.37069L6.34415 0.24986C6.17935 0.0877199 5.95862 -0.00199513 5.72951 3.33407e-05C5.5004 0.00206086 5.28123 0.095665 5.11922 0.260697C4.9572 0.425731 4.8653 0.648987 4.86331 0.88237C4.86132 1.11575 4.9494 1.34059 5.10857 1.50847L11.4813 8L5.10857 14.4915Z" fill="#0884F7"/>
<path opacity="0.2" d="M0.745292 14.4915C0.586119 14.6594 0.498042 14.8842 0.500033 15.1176C0.502024 15.351 0.593923 15.5743 0.755936 15.7393C0.917949 15.9043 1.13711 15.9979 1.36623 16C1.59534 16.002 1.81607 15.9123 1.98087 15.7501L8.97143 8.6293C9.13525 8.46238 9.22727 8.23602 9.22727 8C9.22727 7.76398 9.13525 7.53761 8.97143 7.37069L1.98087 0.24986C1.81607 0.0877199 1.59534 -0.00199513 1.36623 3.33407e-05C1.13711 0.00206086 0.917949 0.095665 0.755935 0.260697C0.593922 0.425731 0.502023 0.648987 0.500032 0.88237C0.498041 1.11575 0.586118 1.34059 0.745291 1.50847L7.11806 8L0.745292 14.4915Z" fill="#0884F7"/>
</svg>
