<svg width="353" height="513" viewBox="0 0 353 513" fill="none" xmlns="http://www.w3.org/2000/svg">
<g opacity="0.34">
<path fill-rule="evenodd" clip-rule="evenodd" d="M280.421 -35.547C337.455 -38.607 397.733 -96.652 446.039 -66.1853C495.043 -35.2789 469.631 44.9645 492.476 98.1956C511.789 143.195 557.696 172.973 569.116 220.59C581.924 273.994 588.131 334.78 560.619 382.314C533.109 429.844 474.503 447.291 424.61 470.259C378.431 491.516 330.989 516.533 280.421 511.296C231.359 506.216 196.675 464.026 152.505 442.082C104.831 418.399 35.8933 423.176 9.73441 376.825C-16.4749 330.384 24.3524 273.819 27.5028 220.59C30.4263 171.195 10.8228 121.222 27.6172 74.6764C45.7114 24.5289 75.8778 -27.6366 124.757 -48.9483C173.322 -70.1227 227.515 -32.7086 280.421 -35.547Z" stroke="#A1A8AE" stroke-width="0.5"/>
<path fill-rule="evenodd" clip-rule="evenodd" d="M282.736 28.8908C325.433 26.6029 370.559 -16.7983 406.723 5.98215C443.408 29.0913 424.384 89.0905 441.487 128.892C455.945 162.539 490.312 184.804 498.862 220.408C508.45 260.339 513.097 305.79 492.5 341.332C471.906 376.87 428.032 389.916 390.68 407.089C356.109 422.983 320.593 441.689 282.736 437.774C246.007 433.975 220.041 402.428 186.974 386.021C151.284 368.313 99.675 371.885 80.0917 337.227C60.4706 302.503 91.0352 260.208 93.3937 220.408C95.5822 183.475 80.9065 146.109 93.4793 111.306C107.025 73.8105 129.609 34.8055 166.201 18.8705C202.558 3.03808 243.128 31.0132 282.736 28.8908Z" stroke="#A1A8AE" stroke-width="0.5"/>
<path fill-rule="evenodd" clip-rule="evenodd" d="M285.521 98.9165C312.459 97.472 340.929 70.0704 363.744 84.453C386.889 99.0431 374.887 136.924 385.677 162.053C394.799 183.296 416.481 197.353 421.875 219.832C427.924 245.043 430.856 273.738 417.861 296.178C404.868 318.615 377.188 326.852 353.623 337.694C331.812 347.729 309.405 359.539 285.521 357.067C262.348 354.669 245.967 334.752 225.104 324.393C202.588 313.213 170.028 315.468 157.672 293.586C145.293 271.663 164.577 244.96 166.065 219.832C167.445 196.514 158.186 172.923 166.119 150.95C174.665 127.277 188.913 102.651 211.999 92.5901C234.937 82.5942 260.532 100.256 285.521 98.9165Z" stroke="#A1A8AE" stroke-width="0.5"/>
</g>
</svg>
