<svg width="20" height="20" viewBox="0 0 20 20" fill="none" xmlns="http://www.w3.org/2000/svg">
<rect x="0.125" y="0.125" width="19.75" height="19.75" rx="5.875" stroke="#0884F7" stroke-width="0.25"/>
<path d="M11.6009 5.60156H6.0008C5.33805 5.60156 4.80078 6.13883 4.80078 6.80158V14.8017C4.80078 15.4645 5.33805 16.0017 6.0008 16.0017H11.6009C12.2636 16.0017 12.8009 15.4645 12.8009 14.8017V6.80158C12.8009 6.13883 12.2636 5.60156 11.6009 5.60156Z" fill="#0884F7"/>
<path d="M15.2006 5.20002V13.2001C15.1996 13.5181 15.0729 13.8228 14.8481 14.0476C14.6232 14.2725 14.3185 14.3992 14.0006 14.4002H13.6006V6.80004C13.6006 6.2696 13.3898 5.76089 13.0148 5.38581C12.6397 5.01073 12.131 4.80001 11.6005 4.80001H7.27246C7.35499 4.56659 7.50769 4.3644 7.70964 4.22118C7.91159 4.07795 8.1529 4.0007 8.40048 4H14.0006C14.3185 4.00095 14.6232 4.12768 14.8481 4.35253C15.0729 4.57737 15.1996 4.88205 15.2006 5.20002Z" fill="#0884F7"/>
</svg>
