<svg width="24" height="24" viewBox="0 0 24 24" fill="none" xmlns="http://www.w3.org/2000/svg">
<path d="M12.8015 11.5913L18.2024 19.3165H15.9858L11.5786 13.0127V13.0123L10.9316 12.087L5.7832 4.72266H7.99973L12.1544 10.6659L12.8015 11.5913Z" fill="white"/>
<path d="M21.4067 0L2.59325 0C1.16108 0 0 1.16108 0 2.59325L0 21.4067C0 22.8389 1.16108 24 2.59325 24H21.4067C22.8389 24 24 22.8389 24 21.4067V2.59325C24 1.16108 22.8389 0 21.4067 0ZM15.308 20.3525L10.8481 13.8617L5.26435 20.3525H3.82122L10.2073 12.9295L3.82122 3.63521H8.69203L12.9152 9.78152L18.2026 3.63521H19.6458L13.5562 10.7139H13.5558L20.1788 20.3525H15.308Z" fill="white" fill-opacity="0.11"/>
</svg>
