<svg width="36" height="36" viewBox="0 0 36 36" fill="none" xmlns="http://www.w3.org/2000/svg">
<g opacity="0.3">
<path d="M18 35.3793C18 35.3793 18 18 31.0345 18C18 18 18 0.62069 18 0.62069C18 0.62069 18 18 4.96552 18C18 18 18 35.3793 18 35.3793ZM31.0345 14.8966C31.0345 14.8966 31.0345 7.44828 36 7.44828C31.0345 7.44828 31.0345 0 31.0345 0C31.0345 0 31.0345 7.44828 26.069 7.44828C31.0345 7.44828 31.0345 14.8966 31.0345 14.8966ZM4.96552 36C4.96552 36 4.96552 28.5517 9.93103 28.5517C4.96552 28.5517 4.96552 21.1034 4.96552 21.1034C4.96552 21.1034 4.96552 28.5517 0 28.5517C4.96552 28.5517 4.96552 36 4.96552 36Z" fill="white"/>
<path d="M30.5 36C30.5 36 30.5 30 34 30C30.5 30 30.5 24 30.5 24C30.5 24 30.5 30 27 30C30.5 30 30.5 36 30.5 36Z" fill="#0884F7"/>
</g>
</svg>
