<svg width="20" height="20" viewBox="0 0 20 20" fill="none" xmlns="http://www.w3.org/2000/svg">
<path d="M4.16406 7.39844C3.00071 7.39844 2.05469 6.45242 2.05469 5.28906C2.05469 4.12571 3.00071 3.17969 4.16406 3.17969C5.32742 3.17969 6.27344 4.12571 6.27344 5.28906C6.27344 6.45242 5.32742 7.39844 4.16406 7.39844ZM15.8359 7.39844C14.6726 7.39844 13.7266 6.45242 13.7266 5.28906C13.7266 4.12571 14.6726 3.17969 15.8359 3.17969C16.9993 3.17969 17.9453 4.12571 17.9453 5.28906C17.9453 6.45242 16.9993 7.39844 15.8359 7.39844ZM10 6.27344C8.54618 6.27344 7.36328 5.09054 7.36328 3.63672C7.36328 2.1829 8.54618 1 10 1C11.4538 1 12.6367 2.1829 12.6367 3.63672C12.6367 5.09054 11.4538 6.27344 10 6.27344ZM10.5273 6.32673V9.96484C10.5273 10.2563 10.2915 10.4922 10 10.4922C9.70852 10.4922 9.47266 10.2563 9.47266 9.96484V6.32673C7.68848 6.58538 6.30859 8.11018 6.30859 9.96484V13.1289C6.30859 13.4204 6.54446 13.6562 6.83594 13.6562H8.01733L8.42004 18.517C8.44268 18.7899 8.67134 19 8.94531 19H11.0547C11.3287 19 11.5573 18.7899 11.58 18.517L11.9827 13.6562H13.1641C13.4555 13.6562 13.6914 13.4204 13.6914 13.1289V9.96484C13.6914 8.11018 12.3115 6.58538 10.5273 6.32673ZM5.21875 13.1992V10.0352C5.21875 9.2447 5.43145 8.51015 5.77461 7.85399C5.30109 7.57134 4.75448 7.39844 4.16406 7.39844C2.41929 7.39844 1 8.81773 1 10.5625V13.1992C1 13.4907 1.23586 13.7266 1.52734 13.7266H2.10464L2.5846 18.5252C2.61139 18.7945 2.8385 19 3.10938 19H5.21875C5.48963 19 5.71674 18.7945 5.74353 18.5252L6.13331 14.6284C5.59489 14.3757 5.21875 13.8323 5.21875 13.1992ZM19 10.5625C19 8.81773 17.5807 7.39844 15.8359 7.39844C15.2455 7.39844 14.6989 7.57134 14.2254 7.85399C14.5686 8.51015 14.7812 9.2447 14.7812 10.0352V13.1992C14.7812 13.8323 14.4051 14.3757 13.8667 14.6284L14.2565 18.5252C14.2833 18.7945 14.5104 19 14.7812 19H16.8906C17.1615 19 17.3886 18.7945 17.4154 18.5252L17.8954 13.7266H18.4727C18.7641 13.7266 19 13.4907 19 13.1992V10.5625Z" fill="#0884F7"/>
</svg>
