<svg width="28" height="28" viewBox="0 0 28 28" fill="none" xmlns="http://www.w3.org/2000/svg">
<rect width="28" height="28" rx="4" fill="#333D45"/>
<path d="M8.2 5.5C7.26112 5.5 6.5 6.24135 6.5 7.15584C6.5 8.07034 7.26112 8.81169 8.2 8.81169C9.13888 8.81169 9.9 8.07034 9.9 7.15584C9.9 6.24135 9.13888 5.5 8.2 5.5Z" fill="white"/>
<path d="M6.6 10.1753C6.54477 10.1753 6.5 10.2189 6.5 10.2727V20.4026C6.5 20.4564 6.54477 20.5 6.6 20.5H9.8C9.85523 20.5 9.9 20.4564 9.9 20.4026V10.2727C9.9 10.2189 9.85523 10.1753 9.8 10.1753H6.6Z" fill="white"/>
<path d="M11.8 10.1753C11.7448 10.1753 11.7 10.2189 11.7 10.2727V20.4026C11.7 20.4564 11.7448 20.5 11.8 20.5H15C15.0552 20.5 15.1 20.4564 15.1 20.4026V14.9481C15.1 14.5606 15.258 14.1889 15.5393 13.9149C15.8206 13.6409 16.2022 13.487 16.6 13.487C16.9978 13.487 17.3794 13.6409 17.6607 13.9149C17.942 14.1889 18.1 14.5606 18.1 14.9481V20.4026C18.1 20.4564 18.1448 20.5 18.2 20.5H21.4C21.4552 20.5 21.5 20.4564 21.5 20.4026V13.6859C21.5 11.7949 19.8115 10.3156 17.8799 10.4866C17.2842 10.5394 16.6952 10.6836 16.1452 10.9132L15.1 11.3495V10.2727C15.1 10.2189 15.0552 10.1753 15 10.1753H11.8Z" fill="white"/>
</svg>
