<svg width="249" height="226" viewBox="0 0 249 226" fill="none" xmlns="http://www.w3.org/2000/svg">
<g opacity="0.2">
<path d="M3.13366 9.98828H103.7L107.27 18.5446H3.13366V9.98828Z" stroke="black" stroke-linejoin="round"/>
<path d="M3.13366 18.5469H103.7L107.27 27.1084H3.13366V18.5469Z" stroke="black" stroke-linejoin="round"/>
<path d="M3.13366 27.1055H103.7L107.27 35.6618H3.13366V27.1055Z" stroke="black" stroke-linejoin="round"/>
<path d="M3.13366 35.6641H103.7L107.27 44.2256H3.13366V35.6641Z" stroke="black" stroke-linejoin="round"/>
<path d="M3.13366 44.2227H103.7L107.27 52.7789H3.13366V44.2227Z" stroke="black" stroke-linejoin="round"/>
<path d="M3.13366 52.7812H103.7L107.27 61.3428H3.13366V52.7812Z" stroke="black" stroke-linejoin="round"/>
<path d="M3.13366 61.3398H103.7L107.27 69.8961H3.13366V61.3398Z" stroke="black" stroke-linejoin="round"/>
<path d="M3.13366 69.8984H103.7L107.27 78.46H3.13366V69.8984Z" stroke="black" stroke-linejoin="round"/>
<path d="M3.13366 78.4609H103.7L107.27 87.0172H3.13366V78.4609Z" stroke="black" stroke-linejoin="round"/>
<path d="M3.13366 87.0156H103.7L107.27 95.5772H3.13366V87.0156Z" stroke="black" stroke-linejoin="round"/>
<path d="M3.13366 95.5781H103.7L107.27 104.134H3.13366V95.5781Z" stroke="black" stroke-linejoin="round"/>
<path d="M3.13366 104.133H103.7L107.27 112.694H3.13366V104.133Z" stroke="black" stroke-linejoin="round"/>
<path d="M3.13366 112.695H103.7L107.27 121.252H3.13366V112.695Z" stroke="black" stroke-linejoin="round"/>
<path d="M3.13366 121.25H103.7L107.27 129.812H3.13366V121.25Z" stroke="black" stroke-linejoin="round"/>
<path d="M3.13366 129.812H103.7L107.27 138.369H3.13366V129.812Z" stroke="black" stroke-linejoin="round"/>
<path d="M3.13366 138.367H103.7L107.27 146.929H3.13366V138.367Z" stroke="black" stroke-linejoin="round"/>
<path d="M1.00062 7.13672H108.342V149.784H1.00062V7.13672Z" stroke="black" stroke-linejoin="round"/>
</g>
<g opacity="0.2">
<path d="M199.156 201.234H235.227V220.271H199.156V201.234Z" stroke="black" stroke-linejoin="round"/>
<path d="M214.268 208.523H220.125V211.36H214.268V208.523Z" stroke="black" stroke-linejoin="round"/>
<path d="M197.312 176.492H237.078V225.199H197.312V176.492Z" stroke="black" stroke-linejoin="round"/>
<path d="M199.156 178.961H235.227V197.998H199.156V178.961Z" stroke="black" stroke-linejoin="round"/>
<path d="M214.268 186.254H220.125V189.09H214.268V186.254Z" stroke="black" stroke-linejoin="round"/>
<path d="M213.239 173.41H227.42V176.494H213.239V173.41Z" stroke="black" stroke-linejoin="round"/>
<path d="M219.712 163.859H222.18V173.418H219.712V163.859Z" stroke="black" stroke-linejoin="round"/>
<path d="M207.999 141.656H234.512V163.851H207.999V141.656Z" stroke="black" stroke-linejoin="round"/>
</g>
<g opacity="0.2">
<path d="M49.8622 202.145V161.446C49.8615 160.677 50.0124 159.916 50.3062 159.205C50.6001 158.495 51.0311 157.85 51.5746 157.306C52.1181 156.763 52.7635 156.332 53.4738 156.038C54.1841 155.744 54.9454 155.593 55.714 155.594H109.182V202.551" stroke="black" stroke-linejoin="round"/>
<path d="M108.732 155.594H163.196C163.965 155.594 164.725 155.745 165.435 156.039C166.145 156.333 166.789 156.765 167.332 157.308C167.875 157.851 168.306 158.497 168.599 159.207C168.893 159.917 169.044 160.677 169.043 161.446V202.145" stroke="black" stroke-linejoin="round"/>
<path d="M44.5788 206.051V219.758H109.154V202.145H48.4694C47.957 202.144 47.4494 202.245 46.9761 202.441C46.5027 202.637 46.0728 202.925 45.7112 203.288C45.3495 203.651 45.0633 204.082 44.869 204.556C44.6746 205.031 44.576 205.539 44.5788 206.051Z" stroke="black" stroke-linejoin="round"/>
<path d="M108.663 202.145H170.439C170.95 202.145 171.455 202.245 171.927 202.441C172.399 202.636 172.827 202.923 173.188 203.284C173.549 203.646 173.835 204.075 174.03 204.547C174.225 205.019 174.325 205.525 174.324 206.035V219.742H108.663" stroke="black" stroke-linejoin="round"/>
<path d="M174.324 225.474V219.723H44.4667V225.474" stroke="black" stroke-linejoin="round"/>
<path d="M169.044 178.793C169.41 178.412 169.85 178.108 170.336 177.901C170.822 177.693 171.346 177.586 171.875 177.586H183.636C184.151 177.585 184.661 177.686 185.137 177.883C185.613 178.079 186.045 178.368 186.409 178.731C186.774 179.095 187.063 179.527 187.26 180.003C187.457 180.478 187.559 180.988 187.559 181.503V225.196" stroke="black" stroke-linejoin="round"/>
<path d="M32.7138 224.912V181.503C32.7138 180.464 33.1265 179.468 33.861 178.733C34.5956 177.999 35.5919 177.586 36.6308 177.586H48.3924C48.8971 177.584 49.3972 177.682 49.8633 177.876" stroke="black" stroke-linejoin="round"/>
</g>
<path d="M23.7365 6.2719V133.325C23.7365 134.863 24.3475 136.338 25.435 137.425C26.5226 138.513 27.9976 139.124 29.5356 139.124H212.998C214.536 139.124 216.011 138.513 217.098 137.425C218.186 136.338 218.797 134.863 218.797 133.325V6.2719C218.797 4.87371 218.241 3.53278 217.253 2.5441C216.264 1.55543 214.923 1 213.525 1H29.0084C27.6102 1 26.2693 1.55543 25.2806 2.5441C24.2919 3.53278 23.7365 4.87371 23.7365 6.2719Z" fill="#F77B08" stroke="#263238" stroke-miterlimit="10"/>
<path d="M23.7365 6.2719V17.2375H218.797V6.2719C218.797 4.87371 218.241 3.53278 217.253 2.5441C216.264 1.55543 214.923 1 213.525 1H29.0084C27.6102 1 26.2693 1.55543 25.2806 2.5441C24.2919 3.53278 23.7365 4.87371 23.7365 6.2719Z" fill="white" stroke="#263238" stroke-miterlimit="10"/>
<path d="M93.0834 15.1091H197.14C197.609 15.1077 198.058 14.9205 198.389 14.5884C198.72 14.2564 198.906 13.8066 198.906 13.3378C198.906 12.8689 198.72 12.4191 198.389 12.0871C198.058 11.755 197.609 11.5678 197.14 11.5664H93.0834C92.6136 11.5664 92.163 11.753 91.8308 12.0852C91.4986 12.4174 91.312 12.868 91.312 13.3378C91.312 13.8076 91.4986 14.2581 91.8308 14.5903C92.163 14.9225 92.6136 15.1091 93.0834 15.1091Z" fill="white" stroke="#263238" stroke-miterlimit="10"/>
<path d="M33.6211 11.9219H26.8937" stroke="#263238" stroke-miterlimit="10"/>
<path d="M33.6211 13.3398H26.8937" stroke="#263238" stroke-miterlimit="10"/>
<path d="M33.6211 14.7617H26.8937" stroke="#263238" stroke-miterlimit="10"/>
<path d="M23.7365 6.2719V9.43504H218.797V6.2719C218.797 4.87371 218.241 3.53278 217.253 2.5441C216.264 1.55543 214.923 1 213.525 1H29.0084C27.6102 1 26.2693 1.55543 25.2806 2.5441C24.2919 3.53278 23.7365 4.87371 23.7365 6.2719Z" fill="#263238" stroke="#263238" stroke-miterlimit="10"/>
<path d="M43.1682 5.39102C43.1619 5.07044 43.2513 4.75527 43.425 4.48571C43.5986 4.21616 43.8486 4.00447 44.1431 3.87765C44.4376 3.75083 44.7632 3.71464 45.0784 3.7737C45.3935 3.83276 45.6839 3.98439 45.9125 4.20923C46.1411 4.43408 46.2975 4.72194 46.3618 5.03607C46.4261 5.3502 46.3953 5.67636 46.2733 5.97291C46.1514 6.26946 45.9438 6.52295 45.6772 6.70102C45.4106 6.8791 45.0969 6.97368 44.7763 6.97269C44.5664 6.97619 44.3578 6.93786 44.1629 6.85994C43.9679 6.78203 43.7905 6.66607 43.6408 6.51885C43.4911 6.37163 43.3722 6.19609 43.2911 6.00245C43.21 5.80882 43.1682 5.60097 43.1682 5.39102Z" fill="white" stroke="#263238" stroke-miterlimit="10"/>
<path d="M36.5049 5.3922C36.4996 5.07309 36.5895 4.75965 36.763 4.49176C36.9364 4.22388 37.1857 4.01368 37.479 3.88792C37.7724 3.76216 38.0965 3.72653 38.4101 3.78556C38.7238 3.8446 39.0128 3.99563 39.2403 4.21944C39.4678 4.44324 39.6236 4.72968 39.6878 5.04231C39.752 5.35494 39.7218 5.6796 39.6009 5.97497C39.48 6.27033 39.2739 6.52304 39.009 6.70093C38.744 6.87882 38.432 6.97383 38.1129 6.97387C37.903 6.97737 37.6945 6.93904 37.4995 6.86113C37.3046 6.78321 37.1271 6.66726 36.9774 6.52004C36.8277 6.37281 36.7089 6.19727 36.6277 6.00363C36.5466 5.81 36.5048 5.60215 36.5049 5.3922Z" fill="white" stroke="#263238" stroke-miterlimit="10"/>
<path d="M29.8427 5.3922C29.8375 5.07309 29.9274 4.75965 30.1008 4.49176C30.2743 4.22388 30.5236 4.01368 30.8169 3.88792C31.1102 3.76216 31.4344 3.72653 31.748 3.78556C32.0617 3.8446 32.3506 3.99563 32.5782 4.21944C32.8057 4.44324 32.9615 4.72968 33.0257 5.04231C33.0899 5.35494 33.0597 5.6796 32.9388 5.97497C32.8179 6.27033 32.6118 6.52304 32.3468 6.70093C32.0818 6.87882 31.7699 6.97383 31.4508 6.97387C31.2409 6.97737 31.0324 6.93904 30.8374 6.86113C30.6425 6.78321 30.465 6.66726 30.3153 6.52004C30.1656 6.37281 30.0468 6.19727 29.9656 6.00363C29.8845 5.81 29.8427 5.60215 29.8427 5.3922Z" fill="white" stroke="#263238" stroke-miterlimit="10"/>
<path d="M34.2484 22.6484H207.752V131.229H34.2484V22.6484Z" fill="white" stroke="#263238" stroke-miterlimit="10"/>
<path d="M38.6761 27.1484H203.328V126.724H38.6761V27.1484Z" stroke="#F77B08" stroke-width="5" stroke-miterlimit="10"/>
<path d="M42.883 32.1289H199.121V121.751H42.883V32.1289Z" stroke="#F77B08" stroke-miterlimit="10"/>
<path d="M94.9338 42.6196V43.5421H93.8478V42.5616C93.8478 41.639 93.484 41.0854 92.6511 41.0854C91.8181 41.0854 91.4544 41.6126 91.4544 42.5616V47.9705C91.4544 48.8878 91.8339 49.4467 92.6511 49.4467C93.4682 49.4467 93.8478 48.8878 93.8478 47.9705V46.6367H94.9338V47.8915C94.9338 49.4414 94.201 50.4641 92.6194 50.4641C91.0379 50.4641 90.3262 49.4414 90.3262 47.8915V42.6196C90.3262 41.0696 91.059 40.0469 92.6194 40.0469C94.1799 40.0469 94.9338 41.0644 94.9338 42.6196Z" fill="#263238"/>
<path d="M99.6091 44.6784V45.7011H97.1049V49.3387H100.178V50.3931H95.9609V40.1445H100.178V41.1989H97.1049V44.6942L99.6091 44.6784Z" fill="#263238"/>
<path d="M103.511 40.1445C105.119 40.1445 105.789 40.9669 105.789 42.4853V43.3182C105.789 44.4464 105.393 45.1476 104.518 45.427C105.451 45.7064 105.805 46.4814 105.805 47.5621V49.1437C105.771 49.5638 105.842 49.9857 106.01 50.372H104.856C104.694 49.9803 104.629 49.5553 104.666 49.1331V47.5252C104.666 46.3654 104.139 46.0016 103.174 46.0016H102.367V50.372H101.229V40.1445H103.511ZM103.216 44.9683C104.123 44.9683 104.666 44.6784 104.666 43.566V42.5854C104.666 41.6681 104.328 41.1831 103.48 41.1831H102.367V44.9683H103.216Z" fill="#263238"/>
<path d="M108.478 50.3736V41.1794H106.596V40.125H111.504V41.1794H109.622V50.3736H108.478Z" fill="#263238"/>
<path d="M113.432 40.1445V50.3773H112.293V40.1445H113.432Z" fill="#263238"/>
<path d="M118.097 44.9103V45.9647H115.74V50.3931H114.602V40.1445H118.666V41.1989H115.74V44.9261L118.097 44.9103Z" fill="#263238"/>
<path d="M120.714 40.1445V50.3773H119.57V40.1445H120.714Z" fill="#263238"/>
<path d="M126.396 42.6196V43.5421H125.299V42.5616C125.299 41.639 124.935 41.0854 124.102 41.0854C123.269 41.0854 122.9 41.6126 122.9 42.5616V47.9705C122.9 48.8878 123.28 49.4467 124.102 49.4467C124.925 49.4467 125.299 48.8878 125.299 47.9705V46.6367H126.38V47.8915C126.38 49.4414 125.652 50.4641 124.071 50.4641C122.489 50.4641 121.777 49.4414 121.777 47.8915V42.6196C121.777 41.0696 122.505 40.0469 124.071 40.0469C125.636 40.0469 126.396 41.0644 126.396 42.6196Z" fill="#263238"/>
<path d="M128.59 48.316L128.195 50.3773H127.141L129.097 40.1445H130.747L132.708 50.3773H131.574L131.179 48.316H128.59ZM128.738 47.3354H131.015L129.861 41.4309L128.738 47.3354Z" fill="#263238"/>
<path d="M135.094 50.3736V41.1794H133.207V40.125H138.12V41.1794H136.233V50.3736H135.094Z" fill="#263238"/>
<path d="M140.061 40.1445V50.3773H138.922V40.1445H140.061Z" fill="#263238"/>
<path d="M141.115 42.6196C141.115 41.038 141.89 40.0469 143.451 40.0469C145.011 40.0469 145.807 41.0538 145.807 42.6196V47.8915C145.807 49.4414 145.032 50.4641 143.451 50.4641C141.869 50.4641 141.115 49.473 141.115 47.8915V42.6196ZM142.238 47.9705C142.238 48.9037 142.634 49.4467 143.451 49.4467C144.268 49.4467 144.663 48.9195 144.663 47.9705V42.5563C144.663 41.6337 144.284 41.0802 143.451 41.0802C142.618 41.0802 142.238 41.6074 142.238 42.5563V47.9705Z" fill="#263238"/>
<path d="M147.91 50.3773H146.914V40.1445H148.359L150.726 47.5252V40.1445H151.738V50.3773H150.552L147.916 42.1057L147.91 50.3773Z" fill="#263238"/>
<path d="M159.336 56.0742H80.8531" stroke="#263238" stroke-miterlimit="10"/>
<path d="M53.4492 66.0859H48.0188" stroke="#263238" stroke-miterlimit="10"/>
<path d="M99.9102 66.0859H56.3168" stroke="#263238" stroke-miterlimit="10"/>
<path d="M125.146 66.0859H102.398" stroke="#263238" stroke-miterlimit="10"/>
<path d="M158.992 66.0859H127.445" stroke="#263238" stroke-miterlimit="10"/>
<path d="M179.453 66.0859H162.246" stroke="#263238" stroke-miterlimit="10"/>
<path d="M192.168 66.0859H181.935" stroke="#263238" stroke-miterlimit="10"/>
<path d="M126.871 70.8906H48.0193" stroke="#263238" stroke-miterlimit="10"/>
<path d="M188.055 70.8906H129.352" stroke="#263238" stroke-miterlimit="10"/>
<path d="M192.168 70.8906H190.349" stroke="#263238" stroke-miterlimit="10"/>
<path d="M54.0234 75.6914H48.0184" stroke="#263238" stroke-miterlimit="10"/>
<path d="M86.3359 75.6914H56.8924" stroke="#263238" stroke-miterlimit="10"/>
<path d="M130.889 75.6914H88.6291" stroke="#263238" stroke-miterlimit="10"/>
<path d="M137.389 75.6914H133.371" stroke="#263238" stroke-miterlimit="10"/>
<path d="M192.168 75.6914H140.83" stroke="#263238" stroke-miterlimit="10"/>
<path d="M71.9961 80.5H48.0195" stroke="#263238" stroke-miterlimit="10"/>
<path d="M157.652 80.5H74.2878" stroke="#263238" stroke-miterlimit="10"/>
<path d="M165.303 80.5H160.711" stroke="#263238" stroke-miterlimit="10"/>
<path d="M192.168 80.5H167.785" stroke="#263238" stroke-miterlimit="10"/>
<path d="M63.0078 85.3008H48.0198" stroke="#263238" stroke-miterlimit="10"/>
<path d="M127.061 85.3008H66.0646" stroke="#263238" stroke-miterlimit="10"/>
<path d="M151.539 85.3008H129.93" stroke="#263238" stroke-miterlimit="10"/>
<path d="M185.764 85.3008H154.406" stroke="#263238" stroke-miterlimit="10"/>
<path d="M192.168 85.3008H187.671" stroke="#263238" stroke-miterlimit="10"/>
<path d="M186.344 106.462L181.399 119.309L179.005 113.5L173.19 115.867L178.873 103.805L186.344 106.462Z" fill="#263238" stroke="#263238" stroke-linecap="round" stroke-linejoin="round"/>
<path d="M188.11 103.672L194.094 116.066L188.221 113.847L185.97 119.704L181.056 107.309L188.11 103.672Z" fill="#263238" stroke="#263238" stroke-linecap="round" stroke-linejoin="round"/>
<path d="M173.206 100.547C173.206 100.077 172.188 99.5397 172.251 99.0863C172.315 98.6329 173.443 98.3957 173.575 97.9581C173.706 97.5206 172.884 96.7087 173.074 96.2922C173.264 95.8757 174.413 95.9706 174.655 95.5805C174.898 95.1904 174.344 94.1887 174.655 93.8408C174.966 93.4928 176.031 93.9093 176.379 93.6035C176.727 93.2978 176.464 92.1854 176.854 91.9323C177.244 91.6793 178.151 92.3857 178.578 92.1907C179.005 91.9956 179.057 90.8516 179.506 90.7198C179.954 90.588 180.618 91.5211 181.087 91.4579C181.556 91.3946 181.925 90.3086 182.395 90.3086C182.864 90.3086 183.249 91.3946 183.702 91.4579C184.155 91.5211 184.841 90.5933 185.284 90.7198C185.726 90.8463 185.811 92.0009 186.217 92.1907C186.623 92.3804 187.545 91.6635 187.935 91.9323C188.325 92.2012 188.062 93.303 188.41 93.6088C188.758 93.9146 189.833 93.4928 190.134 93.8408C190.434 94.1887 189.875 95.1904 190.134 95.5805C190.392 95.9706 191.531 95.8705 191.715 96.2922C191.9 96.714 191.083 97.51 191.214 97.9581C191.346 98.4062 192.469 98.6276 192.538 99.0863C192.606 99.545 191.584 100.077 191.584 100.547C191.584 101.016 192.601 101.548 192.538 102.002C192.474 102.455 191.346 102.692 191.214 103.135C191.083 103.578 191.91 104.379 191.715 104.796C191.52 105.212 190.376 105.123 190.134 105.507C189.891 105.892 190.45 106.899 190.134 107.247C189.817 107.595 188.763 107.179 188.41 107.484C188.057 107.79 188.325 108.903 187.935 109.156C187.545 109.409 186.638 108.702 186.217 108.897C185.795 109.092 185.732 110.236 185.284 110.368C184.835 110.5 184.171 109.567 183.702 109.635C183.233 109.704 182.864 110.779 182.395 110.779C181.925 110.779 181.541 109.699 181.087 109.635C180.634 109.572 179.948 110.495 179.506 110.368C179.063 110.242 178.978 109.087 178.572 108.897C178.167 108.708 177.244 109.425 176.854 109.156C176.464 108.887 176.727 107.785 176.379 107.484C176.031 107.184 174.956 107.595 174.655 107.247C174.355 106.899 174.914 105.898 174.655 105.507C174.397 105.117 173.258 105.218 173.074 104.796C172.889 104.374 173.706 103.578 173.575 103.13C173.443 102.682 172.32 102.466 172.251 102.002C172.183 101.538 173.206 101.016 173.206 100.547Z" fill="#F77B08" stroke="#263238" stroke-miterlimit="10"/>
<path d="M182.384 106.911C178.873 106.911 176.026 104.065 176.026 100.553C176.026 97.0418 178.873 94.1953 182.384 94.1953C185.896 94.1953 188.742 97.0418 188.742 100.553C188.742 104.065 185.896 106.911 182.384 106.911Z" fill="#263238" stroke="#263238" stroke-linecap="round" stroke-linejoin="round"/>
<path d="M182.385 96.1836L181.404 99.2046H178.23L180.798 101.066L179.817 104.087L182.385 102.22L184.952 104.087L183.971 101.066L186.539 99.2046H183.365L182.385 96.1836Z" fill="#F77B08"/>
<path d="M165.725 97.5H141.474" stroke="#263238" stroke-miterlimit="10"/>
<path d="M165.725 103.297H141.474" stroke="#263238" stroke-miterlimit="10"/>
<path d="M61.5729 111.256C56.5941 111.256 52.558 107.22 52.558 102.242C52.558 97.2627 56.5941 93.2266 61.5729 93.2266C66.5518 93.2266 70.5879 97.2627 70.5879 102.242C70.5879 107.22 66.5518 111.256 61.5729 111.256Z" stroke="#F77B08" stroke-miterlimit="10"/>
<path d="M60.2695 108.23C56.9702 107.507 54.8812 104.247 55.6036 100.948C56.326 97.6485 59.5862 95.5595 62.8855 96.2819C66.1848 97.0042 68.2738 100.264 67.5514 103.564C66.829 106.863 63.5688 108.952 60.2695 108.23Z" fill="#F77B08"/>
<path d="M31.888 203.675C31.888 203.675 33.7332 200.512 34.6558 198.798C35.2996 197.558 35.8717 196.282 36.3691 194.976C36.3691 194.976 34.1286 196.294 33.4696 196.821C32.8106 197.349 30.0429 200.644 30.0429 200.644L29.2521 199.721L30.1747 196.69L27.1433 200.116L25.6935 193.922L23.453 199.853L19.2355 194.581L18.9719 199.853L13.8318 195.767L15.6769 202.225L17.6539 204.993H31.7562L31.888 203.675Z" fill="#F77B08" stroke="#263238" stroke-miterlimit="10"/>
<path d="M32.6797 203.676C32.6797 203.676 33.8658 203.148 35.8428 200.776C37.1054 199.239 38.2509 197.608 39.2695 195.9C39.2695 195.9 34.7884 198.404 33.2068 199.59C31.8574 200.743 30.6217 202.023 29.5165 203.412C29.5165 203.412 30.8345 200.117 30.9663 198.535C31.0981 196.954 31.2299 193.527 31.2299 193.527C31.2299 193.527 27.4078 197.349 27.1442 198.404C26.8806 199.458 25.4308 203.017 25.4308 203.017C24.9936 201.411 24.6417 199.783 24.3764 198.14C24.1128 196.163 22.0041 193 22.0041 193C22.0041 193 21.7405 195.241 21.6087 197.481C21.4769 199.722 22.7948 203.939 22.7948 203.939C22.7948 203.939 21.0815 199.853 19.3681 197.877C18.023 196.407 16.5691 195.041 15.0188 193.791C15.0188 193.791 16.3368 197.877 16.8639 199.722C17.3565 201.158 18.0202 202.53 18.8409 203.807C17.6041 202.244 16.2842 200.748 14.887 199.326C13.6005 198.297 12.2343 197.371 10.8013 196.559C10.8013 196.559 12.251 199.326 13.3054 200.908C14.2893 202.281 15.3451 203.601 16.4686 204.862H32.6797V203.676Z" fill="#F77B08" stroke="#263238" stroke-miterlimit="10"/>
<path d="M14.1213 203.41L15.0333 211.45L16.5991 225.199H33.1159L34.6817 211.45L35.5938 203.41H14.1213Z" fill="white" stroke="#263238" stroke-miterlimit="10"/>
<path d="M15.0352 211.453L16.601 225.202H33.1178L34.6836 211.453H15.0352Z" fill="#F77B08" stroke="#263238" stroke-miterlimit="10"/>
<path d="M31.6249 215.274C31.188 215.274 30.8339 214.919 30.8339 214.482C30.8339 214.046 31.188 213.691 31.6249 213.691C32.0618 213.691 32.416 214.046 32.416 214.482C32.416 214.919 32.0618 215.274 31.6249 215.274Z" fill="#263238"/>
<path d="M25.8261 215.274C25.3892 215.274 25.035 214.919 25.035 214.482C25.035 214.046 25.3892 213.691 25.8261 213.691C26.263 213.691 26.6172 214.046 26.6172 214.482C26.6172 214.919 26.263 215.274 25.8261 215.274Z" fill="#263238"/>
<path d="M29.3847 219.359C28.9478 219.359 28.5936 219.005 28.5936 218.568C28.5936 218.132 28.9478 217.777 29.3847 217.777C29.8216 217.777 30.1758 218.132 30.1758 218.568C30.1758 219.005 29.8216 219.359 29.3847 219.359Z" fill="#263238"/>
<path d="M22.3984 219.359C21.9615 219.359 21.6073 219.005 21.6073 218.568C21.6073 218.132 21.9615 217.777 22.3984 217.777C22.8353 217.777 23.1895 218.132 23.1895 218.568C23.1895 219.005 22.8353 219.359 22.3984 219.359Z" fill="#263238"/>
<path d="M17.7871 219.359C17.3502 219.359 16.996 219.005 16.996 218.568C16.996 218.132 17.3502 217.777 17.7871 217.777C18.2239 217.777 18.5781 218.132 18.5781 218.568C18.5781 219.005 18.2239 219.359 17.7871 219.359Z" fill="#263238"/>
<path d="M20.0273 215.274C19.5904 215.274 19.2362 214.919 19.2362 214.482C19.2362 214.046 19.5904 213.691 20.0273 213.691C20.4642 213.691 20.8184 214.046 20.8184 214.482C20.8184 214.919 20.4642 215.274 20.0273 215.274Z" fill="#263238"/>
<path d="M31.6249 222.656C31.188 222.656 30.8339 222.302 30.8339 221.865C30.8339 221.428 31.188 221.074 31.6249 221.074C32.0618 221.074 32.416 221.428 32.416 221.865C32.416 222.302 32.0618 222.656 31.6249 222.656Z" fill="#263238"/>
<path d="M25.8261 222.656C25.3892 222.656 25.035 222.302 25.035 221.865C25.035 221.428 25.3892 221.074 25.8261 221.074C26.263 221.074 26.6172 221.428 26.6172 221.865C26.6172 222.302 26.263 222.656 25.8261 222.656Z" fill="#263238"/>
<path d="M20.0273 222.656C19.5904 222.656 19.2362 222.302 19.2362 221.865C19.2362 221.428 19.5904 221.074 20.0273 221.074C20.4642 221.074 20.8184 221.428 20.8184 221.865C20.8184 222.302 20.4642 222.656 20.0273 222.656Z" fill="#263238"/>
<path d="M111.926 136.123C111.916 132.105 114.04 128.843 116.669 128.836C119.298 128.83 121.437 132.082 121.447 136.1C121.457 140.118 119.333 143.38 116.704 143.387C114.075 143.393 111.936 140.141 111.926 136.123Z" fill="white" stroke="#263238" stroke-linecap="round" stroke-linejoin="round"/>
<path d="M110.707 117.898C110.707 117.898 113.274 119.369 115.72 117.776C118.167 116.184 116.453 115.457 115.963 114.476C115.473 113.496 116.696 113.253 116.944 111.909C117.191 110.565 116.332 109.463 115.842 109.341C115.351 109.22 115.473 107.871 115.473 106.526C115.473 105.182 113.891 103.959 113.153 103.959C112.415 103.959 111.93 102.984 111.44 101.76C110.949 100.537 109.969 99.4355 108.277 100.179C106.584 100.922 105.709 100.912 104.85 99.6886C103.99 98.4655 101.919 98.223 101.159 98.8346C100.4 99.4461 100.063 100.669 98.592 99.4461C97.1212 98.223 95.2918 98.4708 94.4378 99.3248C93.5837 100.179 93.705 101.159 92.329 100.669C90.953 100.179 88.7863 100.912 88.296 102.383C87.8057 103.853 85.1329 105.44 84.1365 105.071C83.1401 104.702 81.4478 105.071 82.3071 106.906C83.1665 108.74 82.1806 109.964 81.4478 109.964C80.715 109.964 79.1229 110.454 79.9822 112.041C80.8415 113.628 81.4478 114.856 80.4725 115.341C79.4972 115.826 77.9051 115.952 79.1229 118.035C80.3407 120.117 81.3265 119.991 80.9575 121.198C80.5885 122.405 79.861 122.78 80.9575 123.644C82.0541 124.509 83.4037 124.867 83.4037 125.6C83.4037 126.333 81.9381 126.697 83.6515 127.308C84.6396 127.669 85.6653 127.916 86.7092 128.046C86.7092 128.046 89.1501 121.44 96.1248 119.242C103.1 117.044 107.127 117.281 108.719 118.14C110.311 119 110.707 117.898 110.707 117.898Z" fill="#263238" stroke="#263238" stroke-linecap="round" stroke-linejoin="round"/>
<path d="M108.246 162.73L117.208 166.864C117.208 166.864 121.842 192.517 121.51 199.634C121.178 206.751 117.208 224.459 117.208 224.459H95.678C95.678 224.459 98.9887 202.776 97.3334 195C95.678 187.224 91.703 165.873 91.703 165.873C91.703 165.873 98.3245 164.054 100.312 163.722C102.299 163.389 108.246 162.73 108.246 162.73Z" fill="white" stroke="#263238" stroke-miterlimit="10"/>
<path d="M118.526 174.713L93.7478 176.853C93.9481 177.908 94.1484 178.962 94.354 180.016L119.027 177.908C118.874 176.79 118.689 175.72 118.526 174.713ZM97.3221 194.978C97.1323 194.082 96.9109 193.006 96.6684 191.815L120.74 189.738C120.877 190.845 120.998 191.915 121.109 192.933L97.3221 194.994V194.978ZM95.2134 184.318L119.722 182.21C119.881 183.264 120.039 184.318 120.186 185.404L95.8354 187.513C95.6087 186.49 95.4031 185.425 95.1923 184.339L95.2134 184.318ZM121.494 197.625C121.525 198.384 121.531 199.053 121.494 199.612C121.494 199.997 121.446 200.413 121.409 200.851L97.7861 202.359C97.7861 201.231 97.7861 200.145 97.7861 199.132L121.494 197.625ZM117.055 166.773L117.202 166.842C117.202 166.842 117.413 168.023 117.73 169.947L92.8674 172.098C92.646 170.901 92.4403 169.826 92.2716 168.935L117.055 166.773ZM97.0216 213.915L119.401 213.678C119.19 214.795 118.974 215.876 118.768 216.904L96.6262 217.157C96.7317 216.145 96.8687 215.059 96.9847 213.957L97.0216 213.915ZM120.36 208.601L97.3907 209.95C97.482 208.871 97.5611 207.791 97.6279 206.708L120.882 205.343C120.692 206.413 120.513 207.509 120.323 208.622L120.36 208.601Z" fill="#263238"/>
<path d="M109.567 158.077C109.567 158.077 111.386 165.025 111.55 168.668C111.713 172.311 107.912 175.284 102.45 174.789C96.9886 174.293 95.9975 168.336 95.9975 166.844C95.9975 165.352 95.6759 152.805 95.6759 152.805C97.5069 154.371 99.4446 155.809 101.475 157.107C104.601 159.089 109.567 158.077 109.567 158.077Z" fill="#F9FAFA" stroke="#263238" stroke-miterlimit="10"/>
<path d="M104.602 164.056C99.4306 161.578 96.8526 156.713 95.6876 153.623C95.6876 153.096 95.6876 152.801 95.6876 152.801C97.5185 154.367 99.4562 155.805 101.487 157.103C104.65 159.09 109.595 158.099 109.595 158.099C109.595 158.099 110.728 162.443 111.287 166.06C108.963 165.768 106.704 165.091 104.602 164.056Z" fill="#263238" stroke="#263238" stroke-miterlimit="10"/>
<path d="M86.8785 131.525C86.8785 131.525 87.0894 124.187 89.8149 119.99C92.5405 115.794 98.2869 113.226 104.703 114.318C112.663 115.688 116.238 121.656 117.498 126.691C118.758 131.726 117.287 139.064 117.287 144.088C117.287 149.112 111.414 158.138 109.737 159.609C108.061 161.079 105.472 161.564 102.515 160.067C99.7999 158.686 95.3346 153.989 92.609 151.263C89.8835 148.538 88.2597 140.429 87.838 138.542C87.4162 136.655 86.8785 131.525 86.8785 131.525Z" fill="#F9FAFA" stroke="#263238" stroke-linecap="round" stroke-linejoin="round"/>
<path d="M109.114 145.781C109.114 145.781 109.361 147.363 105.692 147.126" stroke="#263238" stroke-linecap="round" stroke-linejoin="round"/>
<path d="M110.217 149.934C110.217 149.934 105.936 152.87 101.655 150.06" stroke="#263238" stroke-linecap="round" stroke-linejoin="round"/>
<path d="M101.656 140.148C101.656 140.148 100.56 138.313 97.3752 139.9" stroke="#263238" stroke-width="2" stroke-linecap="round" stroke-linejoin="round"/>
<path d="M110.216 139.054C110.216 139.935 110.627 140.636 111.133 140.636C111.64 140.636 112.051 139.924 112.051 139.054C112.051 138.184 111.64 137.473 111.133 137.473C110.627 137.473 110.216 138.179 110.216 139.054Z" fill="#263238"/>
<path d="M114.129 134.038C114.129 134.038 113.027 131.592 109.384 132.815" stroke="#263238" stroke-linecap="round" stroke-linejoin="round"/>
<path d="M103.248 133.823C103.248 133.823 99.8211 131.988 96.0304 134.798" stroke="#263238" stroke-linecap="round" stroke-linejoin="round"/>
<path d="M104.702 114.316C112.663 115.686 116.237 121.654 117.497 126.689C117.76 127.806 117.916 128.947 117.961 130.094C117.55 128.813 115.415 123.193 109.362 121.659C102.509 119.951 96.5201 122.15 94.443 125.086C92.3659 128.022 92.8614 131.813 92.1181 133.648C91.6542 134.807 89.324 136.558 87.6739 137.686C87.2943 135.435 86.8778 131.497 86.8778 131.497C86.8778 131.497 87.0887 124.158 89.8143 119.962C92.5398 115.765 98.2862 113.224 104.702 114.316Z" fill="#263238" stroke="#263238" stroke-linecap="round" stroke-linejoin="round"/>
<path d="M88.9392 132.817C88.9392 132.817 88.3277 126.338 90.1623 122.057C91.9969 117.776 94.1953 115.941 94.1953 115.941C94.1953 115.941 89.0605 118.635 87.2259 121.213C85.3912 123.791 85.1487 130.017 85.6443 134.298L89.4348 133.687L88.9392 132.817Z" fill="#F77B08" stroke="#263238" stroke-miterlimit="10"/>
<path d="M84.0109 139.172C84.749 143.121 87.4429 145.931 90.0314 145.451C92.6199 144.971 94.1119 141.371 93.3738 137.422C92.6357 133.473 89.9418 130.663 87.3586 131.143C84.7753 131.623 83.2728 135.224 84.0109 139.172Z" fill="white" stroke="#263238" stroke-linecap="round" stroke-linejoin="round"/>
<path d="M84.4786 139.682C83.9189 136.685 85.0545 133.959 87.015 133.593C88.9755 133.226 91.0186 135.359 91.5783 138.355C92.1381 141.352 91.0025 144.078 89.0419 144.444C87.0814 144.811 85.0383 142.678 84.4786 139.682Z" fill="#F77B08" stroke="#263238" stroke-miterlimit="10"/>
<path d="M114.365 208.327C113.131 217.078 111.613 224.928 111.613 224.928H120.654C120.654 224.928 122.968 213.009 125.784 206.392C127.365 202.628 127.75 201.12 127.776 200.504C129.005 203.43 136.66 221.507 138.03 222.118C139.522 222.777 144.984 221.591 146.992 220.959C149.001 220.326 149.138 217.484 148.806 216.325C148.474 215.165 134.572 181.567 133.254 179.421C132.018 177.235 131.072 174.898 130.439 172.468C130.275 171.477 130.607 169.157 129.115 168.334C128.214 167.834 121.877 166.368 116.99 165.282C113.795 164.57 111.228 164.027 111.228 164.027C111.228 164.027 115.182 178.752 115.857 189.18C116.147 193.803 115.329 201.352 114.365 208.322C114.359 208.322 114.359 208.322 114.365 208.327Z" fill="#F77B08" stroke="#263238" stroke-miterlimit="10"/>
<path d="M114.367 208.321C115.506 206.449 120.124 198.415 120.741 190.048C121.295 182.541 118.3 170.221 116.982 165.27C113.787 164.559 111.22 164.016 111.22 164.016C111.22 164.016 115.185 178.751 115.859 189.178C116.149 193.802 115.353 201.351 114.367 208.321Z" fill="#F77B08" stroke="#263238" stroke-miterlimit="10"/>
<path d="M126.502 183.162C126.091 181.375 125.785 180.41 125.785 180.41" stroke="#263238" stroke-miterlimit="10"/>
<path d="M127.604 200.101C127.604 200.101 128.601 196.621 127.773 190.337C127.551 188.676 127.314 187.2 127.077 185.93" stroke="#263238" stroke-miterlimit="10"/>
<path d="M54.7876 201.551C58.594 201.383 77.6255 189.526 77.6255 189.526C77.6255 189.526 83.588 201.209 83.7515 203.581C83.9149 205.953 79.1175 224.927 79.1175 224.927H99.4723C99.4723 224.927 100.089 218.269 100.216 210.967C100.274 207.598 100.216 204.114 99.9678 201.04C99.1402 191.387 95.8347 164.137 95.8347 164.137L92.5187 164.474C92.5187 164.474 91.5802 164.79 90.1094 165.302C86.1924 166.662 78.5112 169.446 75.1425 171.417C70.5137 174.127 64.0715 178.534 60.9083 180.569C57.7452 182.604 50.3171 187.175 48.8304 193.275C47.3437 199.374 50.9813 201.72 54.7876 201.551Z" fill="#F77B08" stroke="#263238" stroke-miterlimit="10"/>
<path d="M90.1094 165.281C90.5575 172.06 91.8755 188.208 94.717 196.021C97.4373 203.491 99.3932 208.758 100.216 210.967C100.274 207.598 100.216 204.114 99.9678 201.04C99.1402 191.387 95.8347 164.137 95.8347 164.137L92.5187 164.474C92.5187 164.474 91.5802 164.769 90.1094 165.281Z" stroke="#263238" stroke-miterlimit="10"/>
<path d="M77.6252 189.52L85.2383 187.152" stroke="#263238" stroke-miterlimit="10"/>
<path d="M88.4531 182.023C88.2317 184.528 87.541 187.296 85.7327 188.846" stroke="#263238" stroke-miterlimit="10"/>
<path d="M88.3873 176.82C88.4939 177.769 88.5485 178.723 88.5508 179.678" stroke="#263238" stroke-miterlimit="10"/>
<path d="M89.3516 185.629C89.3516 185.629 87.5326 189.019 85.3816 190.205" stroke="#263238" stroke-miterlimit="10"/>
<path d="M77.9473 161.365C78.2535 160.123 78.4128 158.849 78.4218 157.569C78.4218 155.529 77.9473 154.38 78.6907 154.448C79.434 154.517 80.7309 155.466 81.1368 157.084C81.5428 158.703 80.6624 160.205 80.5253 160.748C80.4421 161.081 80.3962 161.422 80.3882 161.766C80.3882 161.766 86.2927 161.966 87.3788 161.966C88.4648 161.966 89.5508 162.577 89.5508 163.595C89.5508 164.612 88.3962 165.177 88.3962 165.177L87.869 165.451C87.869 165.451 88.5491 166.737 88.0746 167.417C87.8125 167.805 87.4904 168.148 87.1204 168.435C87.2629 168.64 87.3504 168.879 87.3744 169.128C87.3983 169.378 87.3581 169.629 87.2575 169.858C87.082 170.32 86.7762 170.721 86.3771 171.013C86.3771 171.013 87.2575 171.83 86.103 172.916C84.9484 174.002 82.439 174.07 80.6782 174.07C78.9173 174.07 77.4201 174.133 77.4201 174.133L76.6715 174.202L70.4296 183.502L64.5251 176.917C64.5251 176.917 73.2131 168.482 74.3677 167.011C75.5222 165.54 77.9473 161.365 77.9473 161.365Z" fill="#F9FAFA" stroke="#263238" stroke-miterlimit="10"/>
<path d="M64.7199 176.129L72.8281 183.742C72.8281 183.742 65.3789 193.674 61.4092 198.666C57.4394 203.659 50.1537 204.465 47.0116 201.972C43.8696 199.478 43.5322 193.864 46.3474 190.374C49.1625 186.884 64.7199 176.129 64.7199 176.129Z" fill="#F77B08" stroke="#263238" stroke-miterlimit="10"/>
<path d="M118.978 216.121C118.978 216.121 107.074 218.177 105.962 218.177C104.849 218.177 93.1033 215.162 92.3126 215.794C91.5218 216.427 86.2815 220.876 85.011 222.147C84.256 222.897 83.6149 223.753 83.1078 224.688H94.0575L97.3894 223.892C97.3894 223.892 100.215 225.199 101.802 225.199C103.389 225.199 108.703 224.894 108.703 224.894L118.055 224.741C118.055 224.741 121.203 219.453 118.978 216.121Z" fill="#F9FAFA" stroke="#263238" stroke-miterlimit="10"/>
<path d="M90.7254 224.693C90.7254 224.693 93.4248 221.677 94.5319 220.881C95.2029 220.396 95.9444 220.017 96.7305 219.758" stroke="#263238" stroke-miterlimit="10"/>
<path d="M87.0718 224.851C87.0718 224.851 92.3124 219.136 92.945 218.656C93.6451 218.25 94.3923 217.931 95.1699 217.707" stroke="#263238" stroke-miterlimit="10"/>
<path d="M145.012 210.72C145.012 210.72 149.756 214.532 150.568 217.046C151.38 219.561 150.252 222.603 147.711 223.557C145.17 224.512 116.828 225.028 116.828 225.028C117.292 225.244 119.369 223.299 118.188 220.7C117.387 218.939 115.173 216.414 115.173 216.414L138.822 210.383" fill="#F77B08"/>
<path d="M145.012 210.72C145.012 210.72 149.756 214.532 150.568 217.046C151.38 219.561 150.252 222.603 147.711 223.557C145.17 224.512 116.828 225.028 116.828 225.028C117.292 225.244 119.369 223.299 118.188 220.7C117.387 218.939 115.173 216.414 115.173 216.414L138.822 210.383" stroke="#263238" stroke-miterlimit="10"/>
<path d="M105.03 223.949H202.297V225.199H105.03V223.949Z" fill="#263238" stroke="#263238" stroke-miterlimit="10"/>
<path d="M140.315 225.197H200.979L206.588 183.012H145.924L140.315 225.197Z" fill="white" stroke="#263238" stroke-miterlimit="10"/>
<path d="M141.549 225.197H202.207L207.816 183.012H147.158L141.549 225.197Z" fill="white" stroke="#263238" stroke-miterlimit="10"/>
<path d="M197.52 225.198H141.732L145.95 193.355C153.415 198.1 162.509 204.242 172.42 211.807C179.974 217.65 188.46 222.177 197.52 225.198Z" fill="#263238" stroke="#263238" stroke-miterlimit="10"/>
<path d="M176.612 207.387C174.411 207.387 172.626 205.74 172.626 203.707C172.626 201.675 174.411 200.027 176.612 200.027C178.813 200.027 180.598 201.675 180.598 203.707C180.598 205.74 178.813 207.387 176.612 207.387Z" fill="white" stroke="#263238" stroke-miterlimit="10"/>
<path d="M249 225.199H5.52775" stroke="#263238" stroke-miterlimit="10"/>
</svg>
