<svg width="32" height="32" viewBox="0 0 32 32" fill="none" xmlns="http://www.w3.org/2000/svg">
<rect x="0.15" y="0.15" width="31.7" height="31.7" rx="15.85" stroke="#0884F7" stroke-width="0.3"/>
<mask id="mask0_1042_22997" style="mask-type:luminance" maskUnits="userSpaceOnUse" x="7" y="8" width="18" height="16">
<path d="M25 8H7V23.0248H25V8Z" fill="white"/>
</mask>
<g mask="url(#mask0_1042_22997)">
<path d="M16.0005 18.5148C15.8467 18.5148 15.6997 18.4517 15.594 18.3406L11.6565 14.2097C11.3153 13.8522 11.5688 13.2574 12.063 13.2574H14.1255V8.93882C14.1255 8.42134 14.5463 8 15.063 8H16.938C17.4548 8 17.8755 8.42134 17.8755 8.93882V13.2574H19.938C20.4323 13.2574 20.6858 13.8522 20.3445 14.2097L16.407 18.3406C16.3012 18.4517 16.1542 18.5148 16.0005 18.5148Z" fill="#0884F7"/>
<path opacity="0.3" d="M23.6875 23.0199H8.3125C7.58875 23.0199 7 22.4302 7 21.7055V21.33C7 20.6052 7.58875 20.0156 8.3125 20.0156H23.6875C24.4112 20.0156 25 20.6052 25 21.33V21.7055C25 22.4302 24.4112 23.0199 23.6875 23.0199Z" fill="#0884F7"/>
</g>
</svg>
