<svg width="30" height="24" viewBox="0 0 30 24" fill="none" xmlns="http://www.w3.org/2000/svg">
<g clip-path="url(#clip0_1042_23008)">
<path d="M15.4671 5.48725C15.3812 5.21867 15.3033 4.95815 15.212 4.703C14.9918 4.07991 14.7339 3.47561 14.3445 2.93577C14.2048 2.73971 14.1994 2.73971 14.3472 2.54902C15.0965 1.57409 16.0446 0.867731 17.1968 0.432637C18.075 0.102288 18.9855 -0.0131999 19.9148 0.0485727C22.1547 0.193604 23.7849 1.32431 24.9479 3.19629C25.3507 3.84624 25.5898 4.5526 25.708 5.30193C25.8127 5.96531 25.8288 6.63138 25.7429 7.30014C25.6247 8.22673 25.297 9.07274 24.776 9.84624C24.6927 9.96979 24.6927 9.9671 24.8029 10.0745C25.6569 10.9125 26.5083 11.7505 27.3624 12.5884C27.3946 12.6206 27.4456 12.6448 27.443 12.7039C27.4054 12.7442 27.357 12.7254 27.3167 12.7254C26.3176 12.7254 25.3185 12.7254 24.3167 12.7281C24.2093 12.7281 24.1314 12.6932 24.0562 12.6206C23.742 12.3225 23.4224 12.0298 23.1108 11.7317C23.041 11.6645 22.99 11.6591 22.904 11.7129C22.1413 12.1936 21.314 12.5052 20.4251 12.6556C19.6113 12.7925 18.8002 12.7764 17.9944 12.5884C17.2344 12.4111 16.5307 12.0889 15.8781 11.6565C15.3973 11.3368 14.9488 10.9743 14.5459 10.5607C14.2451 10.2518 14.0061 9.89459 13.7751 9.53469C13.3749 8.91428 13.0473 8.26164 12.8243 7.55529C12.7545 7.32968 12.7142 7.09602 12.6659 6.86505C12.5289 6.19898 12.3006 5.56513 11.9756 4.96621C11.6292 4.33237 11.1887 3.77641 10.5978 3.34938C10.015 2.92771 9.36239 2.68599 8.65066 2.60005C8.33911 2.56245 8.02487 2.54902 7.71601 2.58125C7.25137 2.62959 6.81091 2.77194 6.3973 2.98949C5.52443 3.44875 4.93624 4.15511 4.5871 5.07095C4.57904 5.09244 4.57367 5.11393 4.5683 5.13541C4.56561 5.14347 4.57098 5.15153 4.57367 5.16227C4.61664 5.1945 4.66767 5.17838 4.71601 5.17838C6.86731 5.17838 9.01861 5.17838 11.1699 5.17838C11.3337 5.17838 11.3337 5.17838 11.3901 5.32879C11.656 6.03246 11.9192 6.73613 12.1824 7.4398C12.2174 7.5338 12.2093 7.54991 12.1099 7.55529C12.0777 7.55797 12.0482 7.55529 12.0159 7.55529C9.58262 7.55529 7.152 7.55529 4.7187 7.55529C4.67035 7.55529 4.62201 7.54454 4.57904 7.56603C4.56292 7.60363 4.57904 7.63317 4.59247 7.66003C4.94967 8.42816 5.43043 9.0996 6.10455 9.62333C6.5477 9.9671 7.04457 10.19 7.60052 10.2545C8.02219 10.3055 8.44654 10.2733 8.86015 10.1578C9.56113 9.96442 10.1815 9.6099 10.7617 9.18017C10.8933 9.08349 10.8933 9.0808 11.0114 9.19897C11.5352 9.7227 12.0589 10.2464 12.5853 10.7701C12.7008 10.8856 12.7008 10.8856 12.5772 10.9984C11.8601 11.6457 11.041 12.1184 10.1198 12.4138C9.46982 12.6233 8.80106 12.7281 8.12156 12.7173C7.24332 12.7012 6.40804 12.4917 5.58889 12.1775C4.55755 11.7827 3.79479 11.0629 3.13678 10.2142C2.62649 9.55618 2.25585 8.82565 2.03025 8.02261C1.84493 7.35654 1.77241 6.67704 1.81001 5.9868C1.8315 5.61079 1.86104 5.23747 1.9631 4.87758C2.19139 4.08528 2.53517 3.34401 3.01055 2.66719C3.57993 1.85609 4.29972 1.22225 5.18065 0.762986C5.7366 0.486353 6.3033 0.260748 6.9076 0.134517C7.48235 0.0163436 8.06516 -0.0293144 8.65066 0.0190293C9.93445 0.129146 11.0947 0.577669 12.126 1.33774C13.152 2.09513 13.904 3.0808 14.4385 4.23568C14.7608 4.93398 14.9944 5.66182 15.1475 6.41384C15.3463 7.39146 15.8431 8.19718 16.52 8.90623C16.9685 9.37624 17.4895 9.74687 18.1046 9.96979C18.6981 10.1873 19.3078 10.2437 19.9336 10.1497C20.2961 10.096 20.6453 9.99933 20.9891 9.87042C21.0213 9.85699 21.0562 9.84356 21.0884 9.83013C21.1448 9.80864 21.1556 9.77641 21.1126 9.73076C21.0911 9.70927 21.0696 9.6851 21.0455 9.66361C20.1511 8.76925 19.2594 7.87758 18.3651 6.98322C18.255 6.8731 18.2576 6.8731 18.3651 6.76836C18.8539 6.29298 19.3454 5.8176 19.8342 5.33953C19.9524 5.22404 19.9524 5.22404 20.0732 5.3449C20.9676 6.23658 21.8593 7.13094 22.7536 8.02261C22.767 8.03604 22.7778 8.04947 22.7912 8.06021C22.8637 8.12735 22.8825 8.12467 22.9228 8.03067C23.0007 7.85072 23.0652 7.6654 23.1162 7.4774C23.2129 7.12825 23.2693 6.77104 23.272 6.40847C23.28 5.44428 22.947 4.609 22.3158 3.88116C21.6927 3.16137 20.9085 2.75045 19.9765 2.60005C19.0285 2.44696 18.1502 2.61079 17.3606 3.17212C16.7993 3.56961 16.3749 4.08796 16.0419 4.68152C15.8888 4.95547 15.6874 5.1945 15.5101 5.44965C15.5074 5.46576 15.4913 5.47113 15.4671 5.48725Z" fill="url(#paint0_linear_1042_23008)"/>
<path d="M26.7929 17.5086C26.8037 17.4576 26.7795 17.4146 26.7553 17.3716C26.6345 17.1326 26.4841 16.9097 26.3122 16.7056C26.2289 16.6062 26.1322 16.5176 26.0087 16.4692C25.8341 16.3994 25.7267 16.4719 25.7293 16.6572C25.7293 16.7109 25.732 16.7646 25.7481 16.8157C25.7723 16.8909 25.7401 16.9124 25.673 16.9177C25.6031 16.9231 25.5306 16.9312 25.4608 16.9392C25.4017 16.9473 25.3775 16.9204 25.3856 16.8613C25.4205 16.6357 25.4903 16.4262 25.673 16.2758C25.8663 16.1147 26.0839 16.1201 26.3014 16.2221C26.519 16.3215 26.6747 16.4961 26.8171 16.6787C26.989 16.9016 27.1286 17.146 27.2307 17.4092C27.2576 17.4791 27.2978 17.5059 27.3704 17.5032C27.5933 17.5005 27.8162 17.4979 28.0391 17.5032C28.2029 17.5059 28.3399 17.428 28.3399 17.2132C28.3372 16.7727 28.3507 16.3295 28.3319 15.8891C28.3265 15.787 28.305 15.685 28.2889 15.5856C28.2781 15.5184 28.2916 15.4755 28.3695 15.462C28.4581 15.4486 28.544 15.4244 28.6273 15.3976C28.7132 15.3707 28.7293 15.411 28.7293 15.4835C28.7293 15.6796 28.7293 15.8757 28.7293 16.0717C28.7293 16.4558 28.7293 16.8398 28.7293 17.2239C28.7293 17.3233 28.7186 17.42 28.6864 17.514C28.6112 17.7208 28.4366 17.8416 28.2003 17.847C27.9693 17.8524 27.7356 17.8551 27.5046 17.8524C26.7473 17.847 25.9872 17.8497 25.2298 17.8524C24.4348 17.8551 23.6398 17.8497 22.8475 17.847C22.6837 17.847 22.5172 17.8497 22.3533 17.847C22.2755 17.8443 22.2432 17.8766 22.2271 17.9518C22.1412 18.3278 21.8941 18.5453 21.5369 18.6635C21.4644 18.6877 21.4294 18.6662 21.3972 18.6044C21.3569 18.5265 21.4241 18.5131 21.467 18.4916C21.6819 18.3815 21.8189 18.2096 21.8645 17.9706C21.8833 17.8685 21.8699 17.8524 21.7678 17.8497C21.6792 17.847 21.5906 17.8497 21.4993 17.8497C21.1421 17.8443 20.8842 17.6241 20.8198 17.2723C20.7446 16.8586 20.946 16.445 21.3059 16.2785C21.416 16.2275 21.5342 16.2006 21.655 16.1979C21.8162 16.1953 21.9773 16.2006 22.1358 16.1953C22.2325 16.1926 22.2567 16.2329 22.2567 16.3215C22.2513 16.6733 22.254 17.0278 22.254 17.3797C22.254 17.5301 22.254 17.5301 22.399 17.5301C23.8171 17.5301 25.2379 17.5301 26.6559 17.5301C26.707 17.5274 26.7526 17.5435 26.7929 17.5086ZM21.8753 16.9634C21.8753 16.8157 21.8753 16.6706 21.8753 16.5229C21.8753 16.4773 21.8726 16.437 21.8108 16.4262C21.5664 16.3779 21.3542 16.4853 21.2629 16.719C21.1931 16.8989 21.185 17.0816 21.2334 17.2669C21.2737 17.4119 21.3677 17.4898 21.5208 17.5005C21.6013 17.5059 21.6819 17.4979 21.7598 17.5059C21.8511 17.514 21.8753 17.471 21.8753 17.3877C21.8726 17.2481 21.8753 17.1057 21.8753 16.9634Z" fill="url(#paint1_linear_1042_23008)"/>
<path d="M3.44267 17.5068C3.82674 17.5068 4.2108 17.5068 4.59218 17.5068C4.71573 17.5068 4.84196 17.5095 4.9655 17.5068C5.15619 17.5014 5.24482 17.4155 5.24751 17.2275C5.25019 16.9858 5.25288 16.7467 5.20454 16.5077C5.17231 16.3465 5.16693 16.3036 5.35494 16.2901C5.36031 16.2901 5.36299 16.2875 5.36837 16.2875C5.63157 16.2284 5.63157 16.2284 5.63157 16.505C5.63157 16.7064 5.63157 16.9052 5.63157 17.1066C5.63157 17.163 5.63694 17.2221 5.645 17.2785C5.66649 17.4289 5.74169 17.5014 5.89478 17.5014C6.35404 17.5041 6.81331 17.5014 7.27257 17.5014C7.42298 17.5014 7.57607 17.5041 7.72647 17.5041C7.96013 17.5041 8.04339 17.4182 8.05682 17.1818C8.07025 16.9401 8.03533 16.7011 8.00042 16.4647C7.98699 16.3734 8.0031 16.3304 8.0971 16.3197C8.16156 16.3116 8.22602 16.2901 8.29048 16.274C8.42745 16.2391 8.43014 16.2391 8.43014 16.3895C8.43014 16.591 8.43014 16.7897 8.43014 16.9911C8.43014 17.0771 8.43014 17.1603 8.43014 17.2463C8.42745 17.6465 8.22871 17.8479 7.83121 17.8506C7.31823 17.8506 6.80525 17.8506 6.29227 17.8506C6.14455 17.8506 5.99684 17.8479 5.8518 17.8506C5.72557 17.8533 5.60203 17.8398 5.49191 17.7727C5.45163 17.7485 5.4194 17.7512 5.3818 17.7754C5.27168 17.8398 5.14813 17.8506 5.0219 17.8506C4.12217 17.8506 3.21975 17.8506 2.32002 17.8506C2.14545 17.8506 1.97356 17.8506 1.79898 17.8506C1.65127 17.8506 1.51429 17.8157 1.40149 17.719C1.34509 17.6706 1.29675 17.6733 1.23229 17.7002C1.08994 17.7566 0.936854 17.7754 0.786451 17.7646C0.472217 17.7431 0.276156 17.5713 0.206326 17.2328C0.117696 16.8004 0.27347 16.4379 0.681706 16.2713C0.805252 16.2203 0.93954 16.1988 1.07383 16.1988C1.14634 16.1988 1.19737 16.1881 1.18126 16.0968C1.17052 16.0377 1.21349 16.0189 1.25915 16.0081C1.34509 15.9867 1.43104 15.9679 1.51967 15.9491C1.62441 15.9276 1.63247 15.9356 1.63247 16.0484C1.63247 16.4003 1.63247 16.7521 1.63247 17.1066C1.63247 17.4558 1.7023 17.5122 2.05145 17.5068C2.42477 17.4987 2.80078 17.5068 3.1741 17.5095C3.26541 17.5068 3.35404 17.5068 3.44267 17.5068ZM1.25915 16.9401C1.25915 16.8112 1.25915 16.6823 1.25915 16.5534C1.25915 16.505 1.25109 16.4674 1.192 16.4567C0.950283 16.4137 0.695135 16.5426 0.611877 16.7655C0.555476 16.9106 0.568904 17.0663 0.614562 17.2114C0.670963 17.3859 0.770337 17.4531 0.955655 17.4477C1.0228 17.4477 1.08726 17.4316 1.1544 17.4262C1.23497 17.4209 1.25915 17.3752 1.25915 17.3027C1.25646 17.1818 1.25915 17.061 1.25915 16.9401Z" fill="url(#paint2_linear_1042_23008)"/>
<path d="M18.6525 22.6223C18.7707 22.6787 18.8969 22.6841 19.0124 22.719C19.0634 22.7351 19.1172 22.7405 19.1682 22.7512C19.2138 22.7593 19.2864 22.7512 19.2756 22.8184C19.2649 22.8936 19.2461 22.9769 19.1897 23.0359C19.1736 23.0521 19.1494 23.0386 19.1279 23.0306C18.8298 22.9124 18.5182 22.8426 18.2174 22.7351C18.161 22.7136 18.0939 22.7217 18.0321 22.7136C17.5702 22.6438 17.2317 22.3215 17.1377 21.8596C17.0491 21.4218 17.0975 21.0055 17.3795 20.6429C17.8065 20.0923 18.8405 20.0897 19.1709 20.9008C19.3266 21.2848 19.3186 21.6769 19.1682 22.061C19.0822 22.2786 18.9318 22.4478 18.7197 22.5579C18.6982 22.5686 18.6686 22.574 18.6525 22.6223ZM17.4359 21.5024C17.4305 21.7199 17.4735 21.9294 17.5943 22.1201C17.8817 22.582 18.5129 22.5901 18.7841 22.1201C19.0258 21.7038 19.0205 21.2687 18.7814 20.847C18.5182 20.3851 17.8522 20.4146 17.597 20.8551C17.4815 21.0565 17.4305 21.2687 17.4359 21.5024Z" fill="url(#paint3_linear_1042_23008)"/>
<path d="M15.6629 22.1851C15.7113 22.1126 15.671 20.9309 15.6656 20.3937C15.6656 20.3239 15.6925 20.297 15.7596 20.297C15.7999 20.297 15.8402 20.297 15.8805 20.297C15.9342 20.2997 15.9583 20.3266 15.9583 20.383C15.9583 21.1189 15.9583 21.8548 15.9583 22.5907C15.9583 22.6525 15.9288 22.6766 15.8697 22.682C15.7891 22.6901 15.6522 22.6981 15.5931 22.6686C15.5474 22.6444 14.8894 21.5056 14.5913 20.9765C14.551 20.904 14.5295 20.8208 14.4624 20.7563C14.4194 20.8047 14.4382 20.8557 14.4382 20.8987C14.457 21.4385 14.457 21.9783 14.4543 22.5182C14.4543 22.5692 14.4785 22.6363 14.4221 22.6659C14.3549 22.7008 14.2744 22.6901 14.1992 22.6739C14.1535 22.6632 14.1643 22.6175 14.1643 22.5826C14.1643 22.4 14.1643 22.2174 14.1643 22.0347C14.1643 21.5003 14.1643 20.9631 14.1643 20.4286C14.1643 20.3024 14.1669 20.3078 14.2878 20.297C14.3764 20.289 14.5429 20.2863 14.602 20.3293C14.6423 20.3561 15.6092 22.1314 15.6629 22.1851Z" fill="url(#paint4_linear_1042_23008)"/>
<path d="M7.98166 21.4415C7.98166 21.7208 7.936 21.9491 7.82588 22.164C7.61639 22.5641 7.18398 22.7817 6.72741 22.7172C6.28157 22.6554 5.92705 22.317 5.83842 21.8712C5.76321 21.4952 5.79007 21.1353 5.97808 20.7942C6.18757 20.4182 6.62803 20.2033 7.05238 20.2651C7.50628 20.3323 7.82857 20.6358 7.93331 21.0816C7.96286 21.2159 7.98703 21.3448 7.98166 21.4415ZM6.13385 21.471C6.13385 21.7235 6.17951 21.9518 6.31648 22.1559C6.5958 22.5695 7.17056 22.5749 7.45793 22.1693C7.54656 22.0431 7.59759 21.9007 7.62714 21.753C7.69428 21.4254 7.64862 21.1138 7.46868 20.8291C7.2001 20.4048 6.56357 20.4155 6.30305 20.8452C6.18219 21.044 6.13922 21.2562 6.13385 21.471Z" fill="url(#paint5_linear_1042_23008)"/>
<path d="M14.6907 17.2945C14.7256 17.2623 14.7149 17.2301 14.7149 17.2005C14.7149 16.8917 14.7095 16.5855 14.7149 16.2766C14.7203 16.0564 14.688 15.8415 14.6451 15.6267C14.6236 15.5139 14.6316 15.4978 14.7444 15.4736C14.8169 15.4575 14.8921 15.4441 14.9673 15.4279C15.0801 15.4065 15.0909 15.4145 15.0909 15.53C15.0909 15.8066 15.0936 16.0833 15.0909 16.3599C15.0882 16.6956 15.1043 17.0287 15.0828 17.3644C15.064 17.6464 14.8545 17.8451 14.5752 17.8478C14.2449 17.8532 13.9145 17.8505 13.5842 17.8478C13.4741 17.8478 13.466 17.8317 13.5143 17.7323C13.6433 17.4611 13.5895 17.5094 13.8662 17.504C14.0354 17.5013 14.2046 17.504 14.406 17.504C14.2476 17.2005 14.0703 16.9347 13.9199 16.658C13.7695 16.3814 13.5815 16.1316 13.3774 15.8899C13.5331 15.855 13.6728 15.863 13.8125 15.8684C13.8689 15.8711 13.885 15.9275 13.9092 15.9705C14.1482 16.3814 14.3872 16.795 14.6263 17.2059C14.6424 17.2381 14.6504 17.2757 14.6907 17.2945Z" fill="url(#paint6_linear_1042_23008)"/>
<path d="M5.08119 21.5553C5.30411 21.6761 5.36857 21.8856 5.41691 22.1085C5.45183 22.2643 5.50017 22.4174 5.54046 22.5732C5.54852 22.6054 5.57537 22.6403 5.53777 22.6726C5.46526 22.7316 5.25039 22.6726 5.22354 22.5812C5.18056 22.4416 5.14834 22.2992 5.11074 22.1569C5.08925 22.0709 5.06776 21.985 5.03285 21.9017C4.9657 21.754 4.84753 21.6788 4.69176 21.66C4.33723 21.6197 4.33723 21.6197 4.33723 21.9716C4.33723 22.1623 4.33723 22.3556 4.33723 22.5463C4.33723 22.6779 4.33186 22.6833 4.20295 22.6833C4.17072 22.6833 4.14117 22.6833 4.10894 22.6833C4.04986 22.6806 4.01763 22.6538 4.02031 22.592C4.02031 22.5732 4.02031 22.5571 4.02031 22.5383C4.02031 21.8507 4.02031 21.1632 4.02031 20.4783C4.02031 20.3386 4.02837 20.3252 4.16803 20.3118C4.46078 20.2849 4.75353 20.2554 5.04359 20.3386C5.30142 20.4138 5.4572 20.5803 5.48674 20.8462C5.51629 21.1121 5.42497 21.327 5.19131 21.472C5.16177 21.4908 5.11879 21.4989 5.08119 21.5553ZM4.33723 20.9698C4.33723 21.0853 4.33723 21.2008 4.33723 21.3189C4.33723 21.3646 4.33992 21.4129 4.40438 21.4129C4.56553 21.4129 4.72667 21.4291 4.88245 21.3807C5.06508 21.3243 5.18862 21.1578 5.19399 20.9698C5.19937 20.7764 5.08656 20.626 4.89319 20.5589C4.73741 20.5051 4.57627 20.5293 4.41512 20.532C4.35335 20.5347 4.33723 20.5777 4.33723 20.6341C4.33992 20.7469 4.33723 20.8597 4.33723 20.9698Z" fill="url(#paint7_linear_1042_23008)"/>
<path d="M10.2273 17.0925C10.2165 17.3288 10.2407 17.6081 10.2085 17.8901C10.1655 18.2635 9.83785 18.618 9.47258 18.6771C9.39738 18.6905 9.37858 18.6395 9.3571 18.5938C9.32487 18.5294 9.38127 18.5159 9.41887 18.4998C9.63373 18.4139 9.75996 18.2527 9.81636 18.0325C9.85128 17.8901 9.83785 17.874 9.69819 17.9063C9.31144 17.9976 9.02137 17.8713 8.8656 17.5356C8.70983 17.2026 8.79309 16.7245 9.0536 16.4667C9.19864 16.3217 9.3759 16.2491 9.5827 16.2438C9.75996 16.2411 9.93991 16.2465 10.1172 16.2411C10.1977 16.2384 10.2273 16.2706 10.2273 16.3512C10.2246 16.5849 10.2273 16.8158 10.2273 17.0925ZM9.85128 17.0495C9.85128 16.8937 9.85128 16.738 9.85128 16.5822C9.85128 16.5311 9.84859 16.4882 9.78145 16.4774C9.49676 16.4291 9.28458 16.5687 9.20401 16.8481C9.14761 17.0441 9.15566 17.2348 9.21206 17.4282C9.24429 17.541 9.30607 17.635 9.42692 17.6619C9.5263 17.6833 9.63104 17.6753 9.73042 17.6538C9.81636 17.635 9.85665 17.5893 9.85128 17.4953C9.8459 17.3423 9.85128 17.1945 9.85128 17.0495Z" fill="url(#paint8_linear_1042_23008)"/>
<path d="M13.0205 17.8197C12.9909 18.3059 12.674 18.553 12.2926 18.6711C12.2228 18.6926 12.1933 18.6577 12.1664 18.6067C12.1342 18.5422 12.1771 18.518 12.2255 18.4992C12.4565 18.4079 12.5854 18.2307 12.631 17.9916C12.6498 17.895 12.6364 17.8788 12.5397 17.9003C12.3759 17.9352 12.2121 17.9621 12.0536 17.9003C11.7689 17.7902 11.6346 17.5619 11.6078 17.2719C11.5782 16.9576 11.6454 16.6676 11.8898 16.4446C12.0294 16.3157 12.1959 16.2486 12.3866 16.2459C12.5612 16.2432 12.7358 16.2486 12.9077 16.2432C12.999 16.2405 13.0339 16.2674 13.0312 16.3641C13.0258 16.6058 13.0285 16.8448 13.0285 17.0865C13.0285 17.0838 13.0366 17.5753 13.0205 17.8197ZM12.6606 17.0382C12.6606 16.8878 12.6606 16.7347 12.6606 16.5843C12.6606 16.5413 12.6659 16.4957 12.6042 16.4796C12.3705 16.4178 12.11 16.5467 12.0294 16.7804C11.9515 17.0006 11.9542 17.2262 12.0267 17.4491C12.0616 17.5512 12.1261 17.6371 12.2309 17.6586C12.3383 17.6828 12.4511 17.6747 12.5612 17.6425C12.631 17.621 12.6633 17.5834 12.6606 17.5082C12.6552 17.3497 12.6606 17.194 12.6606 17.0382Z" fill="url(#paint9_linear_1042_23008)"/>
<path d="M2.05461 21.1484C2.05461 21.3364 2.05461 21.5244 2.05461 21.7098C2.05461 21.8253 2.06267 21.9407 2.09221 22.0535C2.15935 22.3087 2.34736 22.4645 2.59982 22.4698C2.86034 22.4752 3.06177 22.3275 3.13429 22.0697C3.1692 21.9488 3.188 21.8279 3.188 21.699C3.18532 21.28 3.188 20.8611 3.188 20.4394C3.188 20.297 3.188 20.297 3.32498 20.2944C3.3572 20.2944 3.38675 20.2944 3.41898 20.2944C3.47806 20.297 3.50761 20.3239 3.50492 20.3884C3.49418 20.8879 3.52641 21.3875 3.48344 21.887C3.47538 21.9757 3.45926 22.0616 3.42972 22.1475C3.31692 22.4886 3.07251 22.6713 2.72336 22.7142C2.55416 22.7357 2.38496 22.7196 2.22381 22.6525C1.96061 22.5424 1.83438 22.3275 1.76992 22.0616C1.74037 21.93 1.735 21.7957 1.735 21.6641C1.735 21.2532 1.735 20.8423 1.735 20.4313C1.735 20.2971 1.735 20.297 1.86661 20.2944C1.88003 20.2944 1.89346 20.2944 1.90689 20.2944C2.04924 20.2944 2.05192 20.2971 2.05192 20.434C2.05461 20.6757 2.05461 20.9121 2.05461 21.1484Z" fill="url(#paint10_linear_1042_23008)"/>
<path d="M13.6378 22.6835C13.4874 22.6835 13.4874 22.6835 13.4364 22.5331C13.3773 22.3639 13.3129 22.2001 13.2618 22.0282C13.2404 21.9557 13.2028 21.9369 13.1383 21.9369C12.9208 21.9369 12.7005 21.9396 12.483 21.9369C12.4051 21.9369 12.3702 21.9718 12.3514 22.0389C12.295 22.2162 12.2305 22.3934 12.1795 22.5707C12.1553 22.6567 12.1096 22.6889 12.0264 22.6808C11.9942 22.6781 11.9646 22.6808 11.9324 22.6808C11.8357 22.6755 11.825 22.6593 11.8572 22.5653C12.0989 21.859 12.3379 21.1526 12.5797 20.4463C12.6307 20.2985 12.6307 20.2985 12.7838 20.2985C12.8026 20.2985 12.8187 20.2985 12.8375 20.2985C13.0013 20.2985 13.004 20.2985 13.055 20.449C13.2914 21.1392 13.5277 21.8267 13.7641 22.517C13.8178 22.6835 13.8178 22.6835 13.6378 22.6835ZM12.8133 20.6531C12.7462 20.6987 12.7569 20.7686 12.7381 20.825C12.6575 21.064 12.5797 21.3057 12.4991 21.5474C12.4561 21.6763 12.4642 21.6925 12.6038 21.6925C12.7515 21.6925 12.8993 21.6951 13.047 21.6925C13.149 21.6898 13.1571 21.6817 13.1249 21.585C13.055 21.3702 12.9825 21.1553 12.91 20.9404C12.8778 20.8464 12.8697 20.7444 12.8133 20.6531Z" fill="url(#paint11_linear_1042_23008)"/>
<path d="M22.6624 20.2991C22.6892 20.2991 22.7161 20.2991 22.7429 20.2991C22.8208 20.2937 22.8584 20.326 22.8853 20.4039C23.1189 21.0995 23.3606 21.7924 23.5943 22.4853C23.6641 22.6895 23.6615 22.6868 23.4412 22.6868C23.3526 22.6868 23.315 22.6465 23.2908 22.5713C23.2344 22.3967 23.17 22.2275 23.1162 22.0529C23.0921 21.9724 23.0545 21.9374 22.9658 21.9374C22.7564 21.9428 22.5469 21.9428 22.3374 21.9374C22.2568 21.9348 22.2192 21.9697 22.195 22.0449C22.144 22.2141 22.0849 22.3833 22.0285 22.5525C21.9855 22.6841 21.9829 22.6841 21.8378 22.6841C21.6632 22.6841 21.6632 22.6814 21.7196 22.5122C21.956 21.8166 22.1897 21.1237 22.426 20.428C22.4743 20.2964 22.4743 20.2991 22.6624 20.2991ZM22.665 20.6322C22.6382 20.6671 22.6274 20.6751 22.6221 20.6859C22.5388 20.9947 22.4287 21.2955 22.3266 21.5963C22.2998 21.6769 22.3427 21.6903 22.4045 21.6903C22.5683 21.6903 22.7349 21.6877 22.8987 21.6903C22.9685 21.6903 23.0008 21.6689 22.9739 21.5963C22.8745 21.2848 22.7617 20.9732 22.665 20.6322Z" fill="url(#paint12_linear_1042_23008)"/>
<path d="M19.6786 21.1589C19.6786 20.9145 19.6812 20.6674 19.6759 20.423C19.6732 20.3316 19.6974 20.286 19.794 20.2967C19.8128 20.2994 19.829 20.2967 19.8478 20.2967C19.982 20.2994 19.9847 20.2994 19.9847 20.431C19.9847 20.8285 19.9847 21.226 19.9847 21.6235C19.9847 21.7524 19.9874 21.884 20.0197 22.0102C20.0949 22.3245 20.2936 22.4856 20.5702 22.4695C20.8684 22.4507 21.0644 22.2573 21.102 21.935C21.1154 21.8196 21.1235 21.7041 21.1235 21.5886C21.1208 21.2045 21.1208 20.8205 21.1235 20.4364C21.1235 20.3907 21.0993 20.3263 21.1638 20.3102C21.2444 20.2914 21.333 20.2833 21.4136 20.3209C21.4377 20.3316 21.435 20.3666 21.435 20.3934C21.4297 20.8876 21.4538 21.3845 21.4216 21.8786C21.4001 22.2117 21.2712 22.4964 20.9436 22.6414C20.683 22.7569 20.4145 22.7596 20.1513 22.6521C19.9337 22.5635 19.8102 22.3889 19.7376 22.1714C19.6866 22.021 19.6786 21.8652 19.6786 21.7094C19.6786 21.5268 19.6786 21.3415 19.6786 21.1589Z" fill="url(#paint13_linear_1042_23008)"/>
<path d="M0.00244184 21.4819C0.00244184 21.1327 0.00244184 20.7863 0.00244184 20.4371C0.00244184 20.3001 0.00244184 20.3001 0.131359 20.3001C0.475137 20.3001 0.818914 20.3001 1.16269 20.3001C1.20566 20.3001 1.26475 20.2867 1.28087 20.3377C1.29967 20.3995 1.30504 20.472 1.27549 20.5338C1.25669 20.5768 1.20298 20.5607 1.16538 20.5607C0.923659 20.5607 0.684626 20.5634 0.442907 20.558C0.351591 20.5553 0.313991 20.5848 0.316676 20.6788C0.322048 20.8534 0.322048 21.028 0.316676 21.1999C0.313991 21.2805 0.340848 21.31 0.424107 21.3073C0.655083 21.3019 0.888744 21.3046 1.11972 21.3073C1.23252 21.3073 1.23521 21.3154 1.23521 21.447C1.23252 21.5678 1.23252 21.5705 1.11703 21.5705C0.894116 21.5705 0.671197 21.5705 0.448279 21.5705C0.319362 21.5705 0.319362 21.5705 0.319362 21.6914C0.319362 21.8928 0.319362 22.0942 0.319362 22.293C0.319362 22.4246 0.322048 22.4246 0.456336 22.4246C0.711484 22.4246 0.963946 22.4246 1.21909 22.4246C1.33727 22.4246 1.33995 22.43 1.33995 22.5454C1.34264 22.669 1.33458 22.6797 1.21641 22.6797C0.845772 22.6824 0.475137 22.6797 0.104501 22.6824C0.023928 22.6824 -0.00292969 22.6582 -0.00292969 22.575C0.00244184 22.2124 0.00244184 21.8471 0.00244184 21.4819Z" fill="url(#paint14_linear_1042_23008)"/>
<path d="M10.2594 21.4788C10.2594 21.127 10.2621 20.7724 10.2567 20.4206C10.2567 20.3266 10.2863 20.2944 10.3776 20.2944C10.7294 20.297 11.0839 20.297 11.4358 20.2944C11.5352 20.2944 11.554 20.34 11.5486 20.426C11.5432 20.5495 11.5432 20.5549 11.4358 20.5549C11.1941 20.5576 10.955 20.5549 10.7133 20.5549C10.5763 20.5549 10.5763 20.5549 10.5763 20.6838C10.5763 20.8476 10.5763 21.0141 10.5763 21.178C10.5763 21.2988 10.579 21.2988 10.7053 21.2988C10.9282 21.2988 11.1511 21.2988 11.374 21.2988C11.4895 21.2988 11.4949 21.3069 11.4922 21.4358C11.4922 21.5567 11.4868 21.562 11.3767 21.562C11.1457 21.5647 10.9121 21.5647 10.6811 21.562C10.6005 21.5594 10.571 21.5862 10.5737 21.6695C10.579 21.879 10.5737 22.0885 10.5763 22.2979C10.5763 22.4188 10.579 22.4188 10.7079 22.4215C10.9631 22.4215 11.2156 22.4215 11.4707 22.4215C11.5916 22.4215 11.6506 22.5262 11.5996 22.6364C11.5781 22.682 11.5352 22.6766 11.4949 22.6766C11.3176 22.6766 11.1377 22.6766 10.9604 22.6766C10.7778 22.6766 10.5951 22.6766 10.4125 22.6766C10.2621 22.6766 10.2621 22.6766 10.2621 22.5316C10.2594 22.1851 10.2594 21.8333 10.2594 21.4788Z" fill="url(#paint15_linear_1042_23008)"/>
<path d="M17.7528 17.8488C17.3042 17.8569 16.9497 17.5453 16.9685 16.9598C16.9739 16.8255 16.9954 16.6939 17.0518 16.5704C17.2049 16.232 17.5057 16.0896 17.8683 16.1138C18.2389 16.138 18.4699 16.3555 18.5531 16.7181C18.5988 16.9142 18.5907 17.1075 18.5343 17.2982C18.4296 17.642 18.1341 17.8488 17.7528 17.8488ZM18.1664 16.9813C18.1691 16.8819 18.1556 16.7852 18.1341 16.6886C18.0912 16.4952 17.9676 16.3797 17.7904 16.377C17.5943 16.3743 17.4546 16.4871 17.409 16.6832C17.3606 16.8873 17.3633 17.0887 17.4117 17.2929C17.4546 17.4809 17.5916 17.5883 17.7743 17.5856C17.9542 17.5829 18.0912 17.4728 18.1315 17.2848C18.1529 17.1854 18.1691 17.0834 18.1664 16.9813Z" fill="url(#paint16_linear_1042_23008)"/>
<path d="M8.38195 21.4971C8.38195 21.1507 8.38195 20.8015 8.38195 20.4551C8.38195 20.3261 8.38195 20.3208 8.51355 20.31C8.79824 20.2832 9.08025 20.2536 9.36225 20.3342C9.61472 20.4067 9.78392 20.5625 9.83226 20.8257C9.88329 21.1211 9.82421 21.387 9.56637 21.5723C9.34345 21.7308 9.08293 21.7657 8.81436 21.7496C8.69887 21.7442 8.6935 21.7442 8.69081 21.8597C8.68813 22.088 8.69081 22.3136 8.69081 22.5419C8.69081 22.6789 8.68813 22.6816 8.54578 22.6816C8.5243 22.6816 8.50012 22.6816 8.47864 22.6816C8.40075 22.6896 8.37926 22.6493 8.38195 22.5768C8.38464 22.2921 8.38195 22.0074 8.38195 21.7227C8.38195 21.6502 8.38195 21.5723 8.38195 21.4971ZM8.69081 21.0191C8.69081 21.1399 8.69081 21.2581 8.69081 21.379C8.69081 21.43 8.69618 21.4837 8.76064 21.4891C8.94327 21.4998 9.12591 21.5159 9.29511 21.4273C9.46968 21.336 9.55563 21.156 9.53414 20.9304C9.51803 20.7478 9.40523 20.6216 9.21722 20.5625C9.09099 20.5222 8.96207 20.5303 8.83316 20.533C8.70961 20.5356 8.6935 20.5544 8.69081 20.6726C8.68813 20.7881 8.69081 20.9036 8.69081 21.0191Z" fill="url(#paint17_linear_1042_23008)"/>
<path d="M29.0946 21.4122C29.2531 21.106 29.4089 20.8052 29.5646 20.5071C29.6801 20.2815 29.7258 20.26 29.9836 20.311C29.9863 20.311 29.989 20.3164 29.9944 20.3217C30.0105 20.362 29.9756 20.3862 29.9568 20.4131C29.7312 20.8025 29.5029 21.1893 29.2746 21.5787C29.2343 21.6458 29.2182 21.7157 29.2182 21.7935C29.2209 22.0487 29.2209 22.3012 29.2182 22.5563C29.2182 22.6798 29.2128 22.6825 29.0893 22.6852C29.0705 22.6852 29.0543 22.6852 29.0355 22.6852C28.9147 22.6825 28.9066 22.6745 28.9039 22.5563C28.9039 22.3119 28.9013 22.0648 28.9066 21.8204C28.9093 21.7183 28.8825 21.6297 28.8341 21.5411C28.6273 21.1678 28.4205 20.7918 28.2164 20.4184C28.2003 20.3916 28.1895 20.3647 28.1707 20.3298C28.2728 20.2788 28.3748 20.3003 28.4742 20.3083C28.5306 20.3137 28.544 20.3728 28.5655 20.4158C28.7186 20.7166 28.869 21.02 29.0194 21.3235C29.0382 21.3504 29.0463 21.388 29.0946 21.4122Z" fill="url(#paint18_linear_1042_23008)"/>
<path d="M27.2897 21.6306C27.2897 21.9341 27.2897 22.2376 27.2897 22.5411C27.2897 22.6834 27.2897 22.6834 27.15 22.6834C27.1232 22.6834 27.0963 22.6834 27.0694 22.6834C26.9942 22.6861 26.9674 22.6512 26.9701 22.576C26.9727 22.3611 26.9701 22.149 26.9701 21.9341C26.9701 21.5205 26.9701 21.1042 26.9701 20.6906C26.9701 20.5644 26.9674 20.5644 26.8438 20.5617C26.6881 20.5617 26.5323 20.5617 26.3765 20.5617C26.2503 20.5617 26.2476 20.559 26.2476 20.4354C26.2476 20.3092 26.2503 20.3012 26.3685 20.2985C26.8814 20.2958 27.3944 20.2958 27.9074 20.2985C28.0148 20.2985 28.0148 20.3065 28.0175 20.4435C28.0202 20.5241 28.0041 20.567 27.9101 20.5644C27.7489 20.5563 27.5878 20.5617 27.4293 20.5617C27.295 20.5617 27.2924 20.5644 27.2924 20.6933C27.2897 21.0048 27.2897 21.3191 27.2897 21.6306Z" fill="url(#paint19_linear_1042_23008)"/>
<path d="M24.0076 21.4755C24.0076 21.1264 24.0076 20.7799 24.0076 20.4307C24.0076 20.2991 24.0103 20.2965 24.1445 20.2965C24.1795 20.2965 24.2171 20.2965 24.252 20.2991C24.3003 20.3018 24.3245 20.326 24.3218 20.377C24.3191 20.4093 24.3218 20.4388 24.3218 20.471C24.3218 21.0726 24.3218 21.6743 24.3218 22.2785C24.3218 22.4263 24.3245 22.429 24.4695 22.429C24.7193 22.429 24.9691 22.429 25.2189 22.429C25.3343 22.429 25.337 22.4343 25.337 22.5525C25.337 22.6787 25.3343 22.6841 25.2135 22.6841C24.8509 22.6841 24.491 22.6841 24.1284 22.6841C24.0156 22.6841 24.0076 22.676 24.0076 22.5606C24.0049 22.198 24.0076 21.8381 24.0076 21.4755Z" fill="url(#paint20_linear_1042_23008)"/>
<path d="M19.7 17.8505C19.4851 17.8505 19.2703 17.8505 19.0581 17.8505C18.9587 17.8505 18.9426 17.8317 18.9695 17.7403C19.05 17.4906 18.9963 17.504 19.2703 17.5067C19.4744 17.5067 19.6812 17.5013 19.8853 17.5094C19.982 17.5121 20.0116 17.4771 20.0089 17.3858C20.0035 17.2354 20.0062 17.0823 20.0062 16.9319C20.0062 16.8326 19.9739 16.7386 19.931 16.6499C19.8665 16.5183 19.7645 16.4377 19.6114 16.4565C19.5201 16.4673 19.5066 16.4189 19.5013 16.3491C19.4959 16.2739 19.5308 16.2497 19.6033 16.2444C19.9928 16.2202 20.3285 16.5237 20.3849 16.9534C20.4117 17.1575 20.3849 17.3643 20.409 17.5685C20.4144 17.6275 20.4225 17.6839 20.4359 17.7403C20.4547 17.8182 20.4332 17.8558 20.3446 17.8531C20.127 17.8478 19.9149 17.8505 19.7 17.8505Z" fill="url(#paint21_linear_1042_23008)"/>
<path d="M15.9506 17.7001C15.9506 17.8505 15.9506 17.8532 15.8056 17.8505C15.5504 17.8478 15.5719 17.8854 15.5719 17.6142C15.5719 17.1683 15.5612 15.7878 15.5316 15.5434C15.5209 15.4521 15.5531 15.4226 15.6364 15.4199C15.725 15.4172 15.8136 15.4118 15.9023 15.4011C15.9694 15.393 15.9909 15.4199 15.9882 15.4817C15.9882 15.5005 15.9506 17.3778 15.9506 17.7001Z" fill="url(#paint22_linear_1042_23008)"/>
<path d="M29.2022 16.7541C29.2022 16.5043 29.1995 16.2546 29.2022 16.0048C29.2049 15.849 29.1807 15.6932 29.1619 15.5401C29.1512 15.4515 29.1861 15.4193 29.2693 15.4193C29.358 15.4166 29.4466 15.4085 29.5352 15.4005C29.5916 15.3951 29.6212 15.4166 29.6185 15.473C29.6185 15.4918 29.6185 15.5079 29.6158 15.5267C29.5487 16.2465 29.597 16.969 29.5809 17.6888C29.5809 17.7156 29.5863 17.7425 29.5809 17.7693C29.546 17.9171 29.4278 17.8311 29.3499 17.8472C29.2908 17.858 29.2076 17.8768 29.1995 17.7693C29.1968 17.7425 29.1995 17.7156 29.1995 17.6888C29.2022 17.3772 29.2022 17.0657 29.2022 16.7541Z" fill="url(#paint23_linear_1042_23008)"/>
<path d="M11.2396 17.0787C11.2289 17.3096 11.2557 17.5863 11.2235 17.8629C11.1671 18.341 10.8018 18.5746 10.4876 18.6713C10.4151 18.6928 10.3909 18.6498 10.3668 18.5988C10.3372 18.5343 10.3909 18.5236 10.4285 18.5075C10.7159 18.3786 10.8556 18.1557 10.8529 17.8441C10.8529 17.5084 10.8502 17.1754 10.8475 16.8396C10.8475 16.7188 10.8126 16.6033 10.7965 16.4824C10.7804 16.3562 10.783 16.3508 10.9066 16.3186C10.9791 16.2998 11.0543 16.2837 11.1268 16.2649C11.2208 16.2434 11.2369 16.2541 11.2369 16.3508C11.2423 16.5791 11.2396 16.8047 11.2396 17.0787Z" fill="url(#paint24_linear_1042_23008)"/>
<path d="M25.9845 21.4862C25.9845 21.838 25.9845 22.1926 25.9845 22.5444C25.9845 22.684 25.9845 22.684 25.8395 22.684C25.8072 22.684 25.7777 22.684 25.7455 22.6814C25.7052 22.6787 25.681 22.6572 25.681 22.6115C25.681 22.5981 25.681 22.5847 25.681 22.5712C25.681 21.8488 25.681 21.1263 25.681 20.4038C25.681 20.3286 25.7052 20.2937 25.7804 20.2991C25.7992 20.2991 25.8153 20.2991 25.8341 20.2991C25.9872 20.2991 25.9872 20.2991 25.9872 20.4575C25.9845 20.7986 25.9845 21.1424 25.9845 21.4862Z" fill="url(#paint25_linear_1042_23008)"/>
<path d="M13.9794 15.4678C14.0223 15.5188 13.9686 15.5188 13.9579 15.5215C13.9444 15.5215 13.2542 15.5403 13.2327 15.5215C13.2273 15.5188 13.2273 15.5107 13.23 15.5027C13.2327 15.4812 13.2247 15.3952 13.2327 15.3845C13.2488 15.3657 13.2945 15.3738 13.3267 15.3711C13.4261 15.3576 13.3858 15.3039 13.3966 15.2556C13.4422 15.0461 13.6598 14.9467 13.8424 15.0488C13.88 15.0703 13.9444 15.0837 13.8961 15.1401C13.888 15.2207 13.837 15.175 13.7967 15.1589C13.7296 15.1294 13.6651 15.132 13.6168 15.1992C13.5846 15.2422 13.5684 15.2878 13.5846 15.3362C13.606 15.3926 13.6624 15.3711 13.7054 15.3738C13.7376 15.3764 13.7699 15.3711 13.8021 15.3657C13.8934 15.3496 13.9256 15.4033 13.9794 15.4678Z" fill="url(#paint26_linear_1042_23008)"/>
<path d="M0.966869 15.5453C0.964183 15.6743 0.86481 15.7736 0.738579 15.7709C0.615034 15.7683 0.510289 15.6635 0.510289 15.5373C0.510289 15.4084 0.625777 15.2982 0.752008 15.3036C0.878239 15.3117 0.969555 15.4111 0.966869 15.5453Z" fill="url(#paint27_linear_1042_23008)"/>
<path d="M17.7234 15.6398C17.7207 15.7553 17.6025 15.8655 17.4843 15.8655C17.3554 15.8655 17.2453 15.7473 17.2533 15.621C17.2614 15.4975 17.3688 15.4008 17.4951 15.4062C17.6213 15.4116 17.7287 15.5217 17.7234 15.6398Z" fill="url(#paint28_linear_1042_23008)"/>
<path d="M1.35632 15.3034C1.47718 15.3061 1.58192 15.4135 1.58192 15.5398C1.58192 15.666 1.47718 15.7708 1.35095 15.7708C1.21666 15.7708 1.1146 15.6633 1.11997 15.529C1.12534 15.4028 1.23009 15.3034 1.35632 15.3034Z" fill="url(#paint29_linear_1042_23008)"/>
<path d="M18.3196 15.6364C18.3196 15.7626 18.2175 15.8646 18.094 15.8673C17.9704 15.8673 17.8657 15.7653 17.863 15.6417C17.8603 15.5074 17.9597 15.4081 18.0966 15.4081C18.2256 15.4081 18.3196 15.5048 18.3196 15.6364Z" fill="url(#paint30_linear_1042_23008)"/>
<path d="M5.06805 18.4647C5.06536 18.591 4.96599 18.6903 4.83707 18.6903C4.71353 18.6903 4.6061 18.5883 4.6061 18.4647C4.6061 18.3385 4.7189 18.2284 4.84513 18.2311C4.97405 18.2338 5.07073 18.3358 5.06805 18.4647Z" fill="url(#paint31_linear_1042_23008)"/>
<path d="M26.3442 18.2312C26.4678 18.2339 26.5698 18.3387 26.5672 18.4649C26.5645 18.5911 26.4651 18.6905 26.3389 18.6905C26.2046 18.6905 26.1079 18.5884 26.1106 18.4515C26.1133 18.3252 26.218 18.2259 26.3442 18.2312Z" fill="url(#paint32_linear_1042_23008)"/>
<path d="M5.44917 18.2289C5.57271 18.2316 5.68014 18.339 5.67746 18.4599C5.67746 18.5835 5.57003 18.6855 5.4438 18.6882C5.31488 18.6882 5.21819 18.5888 5.21819 18.4572C5.22088 18.3337 5.32562 18.2289 5.44917 18.2289Z" fill="url(#paint33_linear_1042_23008)"/>
<path d="M8.22367 18.4578C8.22367 18.584 8.12161 18.6861 7.99538 18.6888C7.86915 18.6915 7.76709 18.5894 7.7644 18.4605C7.7644 18.3343 7.86646 18.2295 7.99001 18.2268C8.11893 18.2295 8.22367 18.3316 8.22367 18.4578Z" fill="url(#paint34_linear_1042_23008)"/>
</g>
<defs>
<linearGradient id="paint0_linear_1042_23008" x1="-2.67889" y1="-5.08929" x2="35.6247" y2="24.1071" gradientUnits="userSpaceOnUse">
<stop stop-color="#0884F7"/>
<stop offset="1" stop-color="#0A77DC"/>
</linearGradient>
<linearGradient id="paint1_linear_1042_23008" x1="-2.67889" y1="-5.08929" x2="35.6247" y2="24.1071" gradientUnits="userSpaceOnUse">
<stop stop-color="#0884F7"/>
<stop offset="1" stop-color="#0A77DC"/>
</linearGradient>
<linearGradient id="paint2_linear_1042_23008" x1="-2.67889" y1="-5.08929" x2="35.6247" y2="24.1071" gradientUnits="userSpaceOnUse">
<stop stop-color="#0884F7"/>
<stop offset="1" stop-color="#0A77DC"/>
</linearGradient>
<linearGradient id="paint3_linear_1042_23008" x1="-2.67889" y1="-5.08929" x2="35.6247" y2="24.1071" gradientUnits="userSpaceOnUse">
<stop stop-color="#0884F7"/>
<stop offset="1" stop-color="#0A77DC"/>
</linearGradient>
<linearGradient id="paint4_linear_1042_23008" x1="-2.67889" y1="-5.08929" x2="35.6247" y2="24.1071" gradientUnits="userSpaceOnUse">
<stop stop-color="#0884F7"/>
<stop offset="1" stop-color="#0A77DC"/>
</linearGradient>
<linearGradient id="paint5_linear_1042_23008" x1="-2.67889" y1="-5.08929" x2="35.6247" y2="24.1071" gradientUnits="userSpaceOnUse">
<stop stop-color="#0884F7"/>
<stop offset="1" stop-color="#0A77DC"/>
</linearGradient>
<linearGradient id="paint6_linear_1042_23008" x1="-2.67889" y1="-5.08929" x2="35.6247" y2="24.1071" gradientUnits="userSpaceOnUse">
<stop stop-color="#0884F7"/>
<stop offset="1" stop-color="#0A77DC"/>
</linearGradient>
<linearGradient id="paint7_linear_1042_23008" x1="-2.67889" y1="-5.08929" x2="35.6247" y2="24.1071" gradientUnits="userSpaceOnUse">
<stop stop-color="#0884F7"/>
<stop offset="1" stop-color="#0A77DC"/>
</linearGradient>
<linearGradient id="paint8_linear_1042_23008" x1="-2.67889" y1="-5.08929" x2="35.6247" y2="24.1071" gradientUnits="userSpaceOnUse">
<stop stop-color="#0884F7"/>
<stop offset="1" stop-color="#0A77DC"/>
</linearGradient>
<linearGradient id="paint9_linear_1042_23008" x1="-2.67889" y1="-5.08929" x2="35.6247" y2="24.1071" gradientUnits="userSpaceOnUse">
<stop stop-color="#0884F7"/>
<stop offset="1" stop-color="#0A77DC"/>
</linearGradient>
<linearGradient id="paint10_linear_1042_23008" x1="-2.67889" y1="-5.08929" x2="35.6247" y2="24.1071" gradientUnits="userSpaceOnUse">
<stop stop-color="#0884F7"/>
<stop offset="1" stop-color="#0A77DC"/>
</linearGradient>
<linearGradient id="paint11_linear_1042_23008" x1="-2.67889" y1="-5.08929" x2="35.6247" y2="24.1071" gradientUnits="userSpaceOnUse">
<stop stop-color="#0884F7"/>
<stop offset="1" stop-color="#0A77DC"/>
</linearGradient>
<linearGradient id="paint12_linear_1042_23008" x1="-2.67889" y1="-5.08929" x2="35.6247" y2="24.1071" gradientUnits="userSpaceOnUse">
<stop stop-color="#0884F7"/>
<stop offset="1" stop-color="#0A77DC"/>
</linearGradient>
<linearGradient id="paint13_linear_1042_23008" x1="-2.67889" y1="-5.08929" x2="35.6247" y2="24.1071" gradientUnits="userSpaceOnUse">
<stop stop-color="#0884F7"/>
<stop offset="1" stop-color="#0A77DC"/>
</linearGradient>
<linearGradient id="paint14_linear_1042_23008" x1="-2.67889" y1="-5.08929" x2="35.6247" y2="24.1071" gradientUnits="userSpaceOnUse">
<stop stop-color="#0884F7"/>
<stop offset="1" stop-color="#0A77DC"/>
</linearGradient>
<linearGradient id="paint15_linear_1042_23008" x1="-2.67889" y1="-5.08929" x2="35.6247" y2="24.1071" gradientUnits="userSpaceOnUse">
<stop stop-color="#0884F7"/>
<stop offset="1" stop-color="#0A77DC"/>
</linearGradient>
<linearGradient id="paint16_linear_1042_23008" x1="-2.67889" y1="-5.08929" x2="35.6247" y2="24.1071" gradientUnits="userSpaceOnUse">
<stop stop-color="#0884F7"/>
<stop offset="1" stop-color="#0A77DC"/>
</linearGradient>
<linearGradient id="paint17_linear_1042_23008" x1="-2.67889" y1="-5.08929" x2="35.6247" y2="24.1071" gradientUnits="userSpaceOnUse">
<stop stop-color="#0884F7"/>
<stop offset="1" stop-color="#0A77DC"/>
</linearGradient>
<linearGradient id="paint18_linear_1042_23008" x1="-2.67889" y1="-5.08929" x2="35.6247" y2="24.1071" gradientUnits="userSpaceOnUse">
<stop stop-color="#0884F7"/>
<stop offset="1" stop-color="#0A77DC"/>
</linearGradient>
<linearGradient id="paint19_linear_1042_23008" x1="-2.67889" y1="-5.08929" x2="35.6247" y2="24.1071" gradientUnits="userSpaceOnUse">
<stop stop-color="#0884F7"/>
<stop offset="1" stop-color="#0A77DC"/>
</linearGradient>
<linearGradient id="paint20_linear_1042_23008" x1="-2.67889" y1="-5.08929" x2="35.6247" y2="24.1071" gradientUnits="userSpaceOnUse">
<stop stop-color="#0884F7"/>
<stop offset="1" stop-color="#0A77DC"/>
</linearGradient>
<linearGradient id="paint21_linear_1042_23008" x1="-2.67889" y1="-5.08929" x2="35.6247" y2="24.1071" gradientUnits="userSpaceOnUse">
<stop stop-color="#0884F7"/>
<stop offset="1" stop-color="#0A77DC"/>
</linearGradient>
<linearGradient id="paint22_linear_1042_23008" x1="-2.67889" y1="-5.08929" x2="35.6247" y2="24.1071" gradientUnits="userSpaceOnUse">
<stop stop-color="#0884F7"/>
<stop offset="1" stop-color="#0A77DC"/>
</linearGradient>
<linearGradient id="paint23_linear_1042_23008" x1="-2.67889" y1="-5.08929" x2="35.6247" y2="24.1071" gradientUnits="userSpaceOnUse">
<stop stop-color="#0884F7"/>
<stop offset="1" stop-color="#0A77DC"/>
</linearGradient>
<linearGradient id="paint24_linear_1042_23008" x1="-2.67889" y1="-5.08929" x2="35.6247" y2="24.1071" gradientUnits="userSpaceOnUse">
<stop stop-color="#0884F7"/>
<stop offset="1" stop-color="#0A77DC"/>
</linearGradient>
<linearGradient id="paint25_linear_1042_23008" x1="-2.67889" y1="-5.08929" x2="35.6247" y2="24.1071" gradientUnits="userSpaceOnUse">
<stop stop-color="#0884F7"/>
<stop offset="1" stop-color="#0A77DC"/>
</linearGradient>
<linearGradient id="paint26_linear_1042_23008" x1="-2.67889" y1="-5.08929" x2="35.6247" y2="24.1071" gradientUnits="userSpaceOnUse">
<stop stop-color="#0884F7"/>
<stop offset="1" stop-color="#0A77DC"/>
</linearGradient>
<linearGradient id="paint27_linear_1042_23008" x1="-2.67889" y1="-5.08929" x2="35.6247" y2="24.1071" gradientUnits="userSpaceOnUse">
<stop stop-color="#0884F7"/>
<stop offset="1" stop-color="#0A77DC"/>
</linearGradient>
<linearGradient id="paint28_linear_1042_23008" x1="-2.67889" y1="-5.08929" x2="35.6247" y2="24.1071" gradientUnits="userSpaceOnUse">
<stop stop-color="#0884F7"/>
<stop offset="1" stop-color="#0A77DC"/>
</linearGradient>
<linearGradient id="paint29_linear_1042_23008" x1="-2.67889" y1="-5.08929" x2="35.6247" y2="24.1071" gradientUnits="userSpaceOnUse">
<stop stop-color="#0884F7"/>
<stop offset="1" stop-color="#0A77DC"/>
</linearGradient>
<linearGradient id="paint30_linear_1042_23008" x1="-2.67889" y1="-5.08929" x2="35.6247" y2="24.1071" gradientUnits="userSpaceOnUse">
<stop stop-color="#0884F7"/>
<stop offset="1" stop-color="#0A77DC"/>
</linearGradient>
<linearGradient id="paint31_linear_1042_23008" x1="-2.67889" y1="-5.08929" x2="35.6247" y2="24.1071" gradientUnits="userSpaceOnUse">
<stop stop-color="#0884F7"/>
<stop offset="1" stop-color="#0A77DC"/>
</linearGradient>
<linearGradient id="paint32_linear_1042_23008" x1="-2.67889" y1="-5.08929" x2="35.6247" y2="24.1071" gradientUnits="userSpaceOnUse">
<stop stop-color="#0884F7"/>
<stop offset="1" stop-color="#0A77DC"/>
</linearGradient>
<linearGradient id="paint33_linear_1042_23008" x1="-2.67889" y1="-5.08929" x2="35.6247" y2="24.1071" gradientUnits="userSpaceOnUse">
<stop stop-color="#0884F7"/>
<stop offset="1" stop-color="#0A77DC"/>
</linearGradient>
<linearGradient id="paint34_linear_1042_23008" x1="-2.67889" y1="-5.08929" x2="35.6247" y2="24.1071" gradientUnits="userSpaceOnUse">
<stop stop-color="#0884F7"/>
<stop offset="1" stop-color="#0A77DC"/>
</linearGradient>
<clipPath id="clip0_1042_23008">
<rect width="30" height="23.0439" fill="white"/>
</clipPath>
</defs>
</svg>
