<svg width="32" height="32" viewBox="0 0 32 32" fill="none" xmlns="http://www.w3.org/2000/svg">
<rect x="0.15" y="0.15" width="31.7" height="31.7" rx="15.85" stroke="#0884F7" stroke-width="0.3"/>
<path fill-rule="evenodd" clip-rule="evenodd" d="M12.8817 16C12.8785 16.5791 13.0588 17.1461 13.3997 17.6291C13.7406 18.1121 14.2267 18.4893 14.7965 18.713C15.3663 18.9367 15.9941 18.9968 16.6004 18.8857C17.2066 18.7745 17.7641 18.4971 18.202 18.0886C18.6399 17.6801 18.9387 17.159 19.0604 16.5912C19.182 16.0234 19.1212 15.4345 18.8855 14.8992C18.6499 14.3638 18.25 13.9061 17.7366 13.584C17.2232 13.2619 16.6193 13.09 16.0016 13.09C15.5929 13.089 15.1881 13.1635 14.8101 13.3092C14.4321 13.4549 14.0885 13.669 13.7988 13.9392C13.5091 14.2095 13.279 14.5305 13.1216 14.8841C12.9643 15.2377 12.8827 15.6169 12.8817 16ZM20.5927 11.5375C22.0791 12.662 23.2354 14.1229 23.9526 15.7825C23.9839 15.8499 24 15.9227 24 15.9962C24 16.0698 23.9839 16.1426 23.9526 16.21C22.283 19.8325 19.3127 22 16 22H15.992C12.6905 22 9.71697 19.8325 8.04741 16.21C8.01614 16.1426 8 16.0698 8 15.9962C8 15.9227 8.01614 15.8499 8.04741 15.7825C9.71697 12.16 12.6873 10 15.992 10H16.0016C17.6726 10.0127 19.2899 10.5546 20.5911 11.5375H20.5927ZM16.0016 17.8075C16.515 17.8075 17.0075 17.6163 17.3705 17.2759C17.7336 16.9355 17.9376 16.4739 17.9376 15.9925C17.9376 15.5111 17.7336 15.0495 17.3705 14.7091C17.0075 14.3687 16.515 14.1775 16.0016 14.1775C15.9101 14.1772 15.8188 14.1847 15.7288 14.2C15.7134 14.5877 15.538 14.9547 15.2394 15.2234C14.9409 15.492 14.5427 15.6414 14.1288 15.64H14.0896C14.0647 15.7586 14.0516 15.8791 14.0505 16C14.0538 16.4822 14.2612 16.9434 14.6271 17.2823C14.9929 17.6212 15.4873 17.8101 16.0016 17.8075Z" fill="#0884F7"/>
</svg>
