<svg width="24" height="24" viewBox="0 0 24 24" fill="none" xmlns="http://www.w3.org/2000/svg">
<rect width="24" height="24" rx="12" fill="white" fill-opacity="0.11"/>
<path d="M9.32768 7.11599C9.32768 7.47809 9.2203 7.83206 9.01913 8.13314C8.81795 8.43422 8.53202 8.66888 8.19748 8.80745C7.86294 8.94602 7.49482 8.98228 7.13967 8.91164C6.78452 8.841 6.4583 8.66663 6.20225 8.41058C5.94621 8.15453 5.77184 7.82831 5.7012 7.47316C5.63055 7.11802 5.66681 6.7499 5.80538 6.41536C5.94395 6.08082 6.17861 5.79488 6.47969 5.59371C6.78077 5.39253 7.13474 5.28516 7.49685 5.28516C7.98241 5.28516 8.44809 5.47805 8.79144 5.82139C9.13479 6.16474 9.32768 6.63042 9.32768 7.11599ZM8.91269 10.1674V18.256C8.91301 18.3157 8.90154 18.3748 8.87892 18.43C8.85631 18.4852 8.82301 18.5354 8.78093 18.5778C8.73885 18.6201 8.68882 18.6536 8.63372 18.6765C8.57862 18.6995 8.51954 18.7112 8.45986 18.7112H6.53017C6.4705 18.7114 6.41138 18.6998 6.35622 18.677C6.30106 18.6543 6.25094 18.6208 6.20875 18.5786C6.16656 18.5364 6.13312 18.4863 6.11036 18.4311C6.0876 18.376 6.07596 18.3169 6.07612 18.2572V10.1674C6.07612 10.047 6.12396 9.93146 6.20911 9.84631C6.29426 9.76116 6.40975 9.71333 6.53017 9.71333H8.45986C8.58007 9.71365 8.69525 9.76163 8.78013 9.84674C8.86502 9.93186 8.91269 10.0472 8.91269 10.1674ZM18.9993 14.3783V18.2938C18.9995 18.3487 18.9888 18.403 18.9679 18.4538C18.947 18.5045 18.9162 18.5505 18.8774 18.5893C18.8387 18.6281 18.7926 18.6589 18.7419 18.6798C18.6911 18.7007 18.6368 18.7114 18.5819 18.7112H16.507C16.4521 18.7114 16.3978 18.7007 16.347 18.6798C16.2963 18.6589 16.2502 18.6281 16.2114 18.5893C16.1727 18.5505 16.1419 18.5045 16.121 18.4538C16.1001 18.403 16.0894 18.3487 16.0895 18.2938V14.4991C16.0895 13.9328 16.2555 12.019 14.609 12.019C13.3335 12.019 13.0736 13.3286 13.0223 13.9169V18.2938C13.0223 18.4035 12.9792 18.5087 12.9022 18.5868C12.8252 18.665 12.7206 18.7096 12.611 18.7112H10.6068C10.5521 18.7112 10.4978 18.7004 10.4473 18.6794C10.3967 18.6585 10.3507 18.6277 10.3121 18.5889C10.2734 18.5501 10.2428 18.5041 10.2219 18.4535C10.2011 18.4028 10.1904 18.3486 10.1906 18.2938V10.132C10.1904 10.0772 10.2011 10.023 10.2219 9.97232C10.2428 9.92169 10.2734 9.87566 10.3121 9.83688C10.3507 9.7981 10.3967 9.76734 10.4473 9.74634C10.4978 9.72535 10.5521 9.71455 10.6068 9.71455H12.611C12.7217 9.71455 12.8279 9.75852 12.9061 9.83681C12.9844 9.91509 13.0284 10.0213 13.0284 10.132V10.8375C13.502 10.1271 14.2038 9.57906 15.7014 9.57906C19.0189 9.57906 18.9993 12.6768 18.9993 14.3783Z" fill="white"/>
</svg>
