<svg width="20" height="20" viewBox="0 0 20 20" fill="none" xmlns="http://www.w3.org/2000/svg">
<g clip-path="url(#clip0_334_21390)">
<path d="M16.7412 15.6477C16.6632 15.7083 16.5673 15.7411 16.4685 15.7411C16.3698 15.7411 16.2739 15.7083 16.1959 15.6477C16.1189 15.5854 14.2874 14.0292 13.1136 12.2831C13.0687 12.2169 13.0427 12.1398 13.0385 12.0599C13.0343 11.9801 13.052 11.9006 13.0897 11.8301C13.1275 11.7596 13.1837 11.7008 13.2524 11.66C13.3212 11.6191 13.3998 11.5979 13.4797 11.5985H15.012C15.1728 10.6392 15.2212 5.27077 15.3328 5.11385C15.4966 4.88231 16.0266 4.72539 16.4689 4.72539C16.9089 4.72539 17.3782 4.88231 17.5405 5.11385C17.652 5.27077 17.7628 10.6392 17.9236 11.5985H19.4605C19.5399 11.599 19.6178 11.6211 19.6858 11.6622C19.7537 11.7033 19.8094 11.762 19.8468 11.8321C19.8842 11.9022 19.902 11.9811 19.8983 12.0605C19.8946 12.1398 19.8696 12.2167 19.8259 12.2831C18.6497 14.0292 16.8189 15.5854 16.7412 15.6477ZM7.82509 8.26231L5.29201 0.0892326C5.28399 0.0634461 5.26796 0.0408896 5.24624 0.0248421C5.22452 0.00879471 5.19825 9.29112e-05 5.17124 1.81037e-06H2.73509C2.70783 -0.000144204 2.68125 0.00854589 2.65934 0.0247707C2.63743 0.0409954 2.62136 0.0638816 2.61355 0.0900018L0.105858 8.29769C0.0996015 8.31651 0.098013 8.33656 0.101229 8.35613C0.104445 8.37569 0.11237 8.39418 0.124319 8.41C0.136007 8.42615 0.151398 8.43926 0.1692 8.44822C0.187002 8.45719 0.206695 8.46176 0.226627 8.46154H2.1497C2.17746 8.46154 2.20446 8.45243 2.22655 8.43562C2.24864 8.41881 2.26461 8.39522 2.27201 8.36846L2.83124 6.35462H4.99047L5.59586 8.37154C5.61278 8.42539 5.66201 8.46154 5.71817 8.46154H7.72124C7.75484 8.46154 7.78709 8.4483 7.811 8.42469C7.8349 8.40107 7.84853 8.36899 7.84894 8.33539C7.84868 8.30916 7.84035 8.28364 7.82509 8.26231ZM4.64817 4.71308H3.1697L3.61124 3.13308C3.69355 2.84385 3.7697 2.50385 3.84432 2.17308L3.88278 2.00539C3.97663 2.38462 4.08124 2.79 4.18432 3.13539L4.64817 4.71308ZM7.16432 18.2123H3.48663L7.20817 12.81C7.22265 12.7887 7.23042 12.7635 7.23047 12.7377V11.6662C7.23047 11.6323 7.21702 11.5998 7.19307 11.5759C7.16913 11.5519 7.13665 11.5385 7.10278 11.5385H1.14893C1.11507 11.5385 1.08259 11.5519 1.05864 11.5759C1.0347 11.5998 1.02124 11.6323 1.02124 11.6662V13.2C1.02124 13.2708 1.07817 13.3262 1.14893 13.3262H4.48278L0.679704 18.8023C0.664586 18.8234 0.65651 18.8487 0.656627 18.8746V19.8738C0.656627 19.9431 0.71355 20 0.78355 20H7.16432C7.19792 20 7.23017 19.9868 7.25407 19.9631C7.27798 19.9395 7.29161 19.9074 7.29201 19.8738V18.3392C7.29201 18.3225 7.2887 18.3059 7.28228 18.2905C7.27585 18.275 7.26643 18.261 7.25456 18.2492C7.2427 18.2374 7.22861 18.2281 7.21313 18.2218C7.19764 18.2154 7.18105 18.2122 7.16432 18.2123Z" fill="#0884F7"/>
</g>
<defs>
<clipPath id="clip0_334_21390">
<rect width="20" height="20" fill="white"/>
</clipPath>
</defs>
</svg>
