<svg width="20" height="20" viewBox="0 0 20 20" fill="none" xmlns="http://www.w3.org/2000/svg">
<g clip-path="url(#clip0_334_21394)">
<path d="M16.4686 15.741C16.5673 15.741 16.6633 15.7081 16.7412 15.6475C16.8189 15.5852 18.6497 14.0291 19.8259 12.2829C19.8696 12.2166 19.8946 12.1397 19.8983 12.0603C19.902 11.9809 19.8842 11.902 19.8468 11.8319C19.8094 11.7618 19.7537 11.7031 19.6858 11.662C19.6178 11.6209 19.5399 11.5989 19.4605 11.5983H17.9236C17.8404 11.1018 17.7705 9.4243 17.7071 7.89946C17.6479 6.47808 17.5943 5.18937 17.5405 5.11367C17.3782 4.88213 16.9089 4.7252 16.4689 4.7252C16.0266 4.7252 15.4966 4.88213 15.3328 5.11367C15.2799 5.1881 15.2412 6.43515 15.1979 7.828C15.15 9.37151 15.0965 11.0941 15.012 11.5983H13.4797C13.3998 11.5977 13.3212 11.6189 13.2524 11.6598C13.1837 11.7006 13.1275 11.7594 13.0898 11.8299C13.0521 11.9004 13.0343 11.9799 13.0385 12.0597C13.0427 12.1396 13.0687 12.2167 13.1136 12.2829C14.2874 14.0291 16.1189 15.5852 16.1959 15.6475C16.2739 15.7081 16.3698 15.741 16.4686 15.741Z" fill="#A1A8AE"/>
<path d="M3.48663 6.67385H7.16433C7.18106 6.67374 7.19765 6.67695 7.21313 6.68329C7.22862 6.68962 7.2427 6.69895 7.25457 6.71075C7.26644 6.72254 7.27586 6.73657 7.28228 6.75202C7.28871 6.76747 7.29202 6.78404 7.29202 6.80077V8.33539C7.29161 8.36898 7.27798 8.40107 7.25408 8.42468C7.23018 8.4483 7.19793 8.46154 7.16433 8.46154H0.783556C0.713556 8.46154 0.656633 8.40462 0.656633 8.33539V7.33615C0.656515 7.31022 0.664592 7.28492 0.67971 7.26385L4.48279 1.78769H1.14894C1.07817 1.78769 1.02125 1.73231 1.02125 1.66154V0.127692C1.02125 0.0938261 1.0347 0.0613465 1.05865 0.0373995C1.0826 0.0134526 1.11507 0 1.14894 0H7.10279C7.13665 0 7.16913 0.0134526 7.19308 0.0373995C7.21703 0.0613465 7.23048 0.0938261 7.23048 0.127692V1.19923C7.23042 1.22502 7.22266 1.2502 7.20817 1.27154L3.48663 6.67385Z" fill="#A1A8AE"/>
<path fill-rule="evenodd" clip-rule="evenodd" d="M5.29201 11.6278L7.82509 19.8009C7.84035 19.8222 7.84868 19.8477 7.84894 19.8739C7.84853 19.9075 7.8349 19.9396 7.811 19.9632C7.78709 19.9868 7.75484 20.0001 7.72124 20.0001H5.71817C5.66201 20.0001 5.61278 19.9639 5.59586 19.9101L4.99047 17.8932H2.83124L2.27201 19.907C2.26461 19.9338 2.24864 19.9574 2.22655 19.9742C2.20446 19.991 2.17746 20.0001 2.1497 20.0001H0.226627C0.206695 20.0003 0.187002 19.9957 0.1692 19.9868C0.151398 19.9778 0.136007 19.9647 0.124319 19.9485C0.11237 19.9327 0.104445 19.9142 0.101229 19.8947C0.098013 19.8751 0.0996015 19.8551 0.105858 19.8362L2.61355 11.6285C2.62136 11.6024 2.63743 11.5795 2.65934 11.5633C2.68125 11.5471 2.70783 11.5384 2.73509 11.5385H5.17124C5.19825 11.5386 5.22452 11.5473 5.24624 11.5634C5.26796 11.5794 5.28399 11.602 5.29201 11.6278ZM3.1697 16.2516H4.64817L4.18432 14.6739C4.08124 14.3285 3.97663 13.9232 3.88278 13.5439L3.84432 13.7116L3.83761 13.7414C3.76514 14.0627 3.69109 14.3911 3.61124 14.6716L3.1697 16.2516Z" fill="#A1A8AE"/>
</g>
<defs>
<clipPath id="clip0_334_21394">
<rect width="20" height="20" fill="white"/>
</clipPath>
</defs>
</svg>
