<svg width="10" height="142" viewBox="0 0 10 142" fill="none" xmlns="http://www.w3.org/2000/svg">
<path d="M4.99999 142L9.33012 134.5L0.669867 134.5L4.99999 142ZM4.25 2.53571C4.25 2.94993 4.58579 3.28571 5 3.28571C5.41421 3.28571 5.75 2.94993 5.75 2.53571L4.25 2.53571ZM5.75 7.60714C5.75 7.19293 5.41421 6.85714 5 6.85714C4.58579 6.85714 4.25 7.19293 4.25 7.60714L5.75 7.60714ZM4.25 12.6786C4.25 13.0928 4.58579 13.4286 5 13.4286C5.41421 13.4286 5.75 13.0928 5.75 12.6786L4.25 12.6786ZM5.75 17.75C5.75 17.3358 5.41421 17 5 17C4.58579 17 4.25 17.3358 4.25 17.75L5.75 17.75ZM4.25 22.8214C4.25 23.2356 4.58579 23.5714 5 23.5714C5.41421 23.5714 5.75 23.2356 5.75 22.8214L4.25 22.8214ZM5.75 27.8929C5.75 27.4786 5.41421 27.1429 5 27.1429C4.58579 27.1429 4.25 27.4786 4.25 27.8929L5.75 27.8929ZM4.25 32.9643C4.25 33.3785 4.58578 33.7143 5 33.7143C5.41421 33.7143 5.75 33.3785 5.75 32.9643L4.25 32.9643ZM5.75 38.0357C5.75 37.6215 5.41421 37.2857 5 37.2857C4.58578 37.2857 4.25 37.6215 4.25 38.0357L5.75 38.0357ZM4.25 43.1071C4.25 43.5214 4.58578 43.8571 5 43.8571C5.41421 43.8571 5.75 43.5214 5.75 43.1071L4.25 43.1071ZM5.75 48.1786C5.75 47.7644 5.41421 47.4286 5 47.4286C4.58578 47.4286 4.25 47.7644 4.25 48.1786L5.75 48.1786ZM4.25 53.25C4.25 53.6642 4.58578 54 5 54C5.41421 54 5.75 53.6642 5.75 53.25L4.25 53.25ZM5.75 58.3214C5.75 57.9072 5.41421 57.5714 5 57.5714C4.58578 57.5714 4.25 57.9072 4.25 58.3214L5.75 58.3214ZM4.25 63.3929C4.25 63.8071 4.58578 64.1429 5 64.1429C5.41421 64.1429 5.75 63.8071 5.75 63.3929L4.25 63.3929ZM5.75 68.4643C5.75 68.0501 5.41421 67.7143 5 67.7143C4.58578 67.7143 4.25 68.0501 4.25 68.4643L5.75 68.4643ZM4.25 73.5357C4.25 73.9499 4.58578 74.2857 5 74.2857C5.41421 74.2857 5.75 73.9499 5.75 73.5357L4.25 73.5357ZM5.75 78.6071C5.75 78.1929 5.41421 77.8571 5 77.8571C4.58578 77.8571 4.25 78.1929 4.25 78.6071L5.75 78.6071ZM4.25 83.6786C4.25 84.0928 4.58578 84.4286 5 84.4286C5.41421 84.4286 5.75 84.0928 5.75 83.6786L4.25 83.6786ZM5.75 88.75C5.75 88.3358 5.41421 88 5 88C4.58578 88 4.25 88.3358 4.25 88.75L5.75 88.75ZM4.25 93.8214C4.25 94.2356 4.58578 94.5714 5 94.5714C5.41421 94.5714 5.75 94.2356 5.75 93.8214L4.25 93.8214ZM5.75 98.8929C5.75 98.4786 5.41421 98.1429 5 98.1429C4.58578 98.1429 4.25 98.4786 4.25 98.8929L5.75 98.8929ZM4.25 103.964C4.25 104.378 4.58578 104.714 5 104.714C5.41421 104.714 5.75 104.378 5.75 103.964L4.25 103.964ZM5.75 109.036C5.75 108.621 5.41421 108.286 5 108.286C4.58578 108.286 4.25 108.621 4.25 109.036L5.75 109.036ZM4.25 114.107C4.24999 114.521 4.58578 114.857 4.99999 114.857C5.41421 114.857 5.74999 114.521 5.75 114.107L4.25 114.107ZM5.74999 119.179C5.74999 118.764 5.41421 118.429 4.99999 118.429C4.58578 118.429 4.24999 118.764 4.24999 119.179L5.74999 119.179ZM4.24999 124.25C4.24999 124.664 4.58578 125 4.99999 125C5.41421 125 5.74999 124.664 5.74999 124.25L4.24999 124.25ZM5.74999 129.321C5.74999 128.907 5.41421 128.571 4.99999 128.571C4.58578 128.571 4.24999 128.907 4.24999 129.321L5.74999 129.321ZM4.24999 134.393C4.24999 134.807 4.58578 135.143 4.99999 135.143C5.41421 135.143 5.74999 134.807 5.74999 134.393L4.24999 134.393ZM5.74999 139.464C5.74999 139.05 5.41421 138.714 4.99999 138.714C4.58578 138.714 4.24999 139.05 4.24999 139.464L5.74999 139.464ZM4.25 -3.27835e-08L4.25 2.53571L5.75 2.53571L5.75 3.27835e-08L4.25 -3.27835e-08ZM4.25 7.60714L4.25 12.6786L5.75 12.6786L5.75 7.60714L4.25 7.60714ZM4.25 17.75L4.25 22.8214L5.75 22.8214L5.75 17.75L4.25 17.75ZM4.25 27.8929L4.25 32.9643L5.75 32.9643L5.75 27.8929L4.25 27.8929ZM4.25 38.0357L4.25 43.1071L5.75 43.1071L5.75 38.0357L4.25 38.0357ZM4.25 48.1786L4.25 53.25L5.75 53.25L5.75 48.1786L4.25 48.1786ZM4.25 58.3214L4.25 63.3929L5.75 63.3929L5.75 58.3214L4.25 58.3214ZM4.25 68.4643L4.25 73.5357L5.75 73.5357L5.75 68.4643L4.25 68.4643ZM4.25 78.6071L4.25 83.6786L5.75 83.6786L5.75 78.6071L4.25 78.6071ZM4.25 88.75L4.25 93.8214L5.75 93.8214L5.75 88.75L4.25 88.75ZM4.25 98.8929L4.25 103.964L5.75 103.964L5.75 98.8929L4.25 98.8929ZM4.25 109.036L4.25 114.107L5.75 114.107L5.75 109.036L4.25 109.036ZM4.24999 119.179L4.24999 124.25L5.74999 124.25L5.74999 119.179L4.24999 119.179ZM4.24999 129.321L4.24999 134.393L5.74999 134.393L5.74999 129.321L4.24999 129.321Z" fill="url(#paint0_linear_220_7988)"/>
<defs>
<linearGradient id="paint0_linear_220_7988" x1="5" y1="5.1018" x2="5" y2="156.88" gradientUnits="userSpaceOnUse">
<stop stop-color="white" stop-opacity="0"/>
<stop offset="1" stop-color="white" stop-opacity="0.85"/>
</linearGradient>
</defs>
</svg>
