<svg width="17" height="16" viewBox="0 0 17 16" fill="none" xmlns="http://www.w3.org/2000/svg">
<path d="M2.56306 6.25779C2.47898 6.17523 2.47898 6.04138 2.56306 5.95882L3.47643 5.06194C3.56051 4.97938 3.69682 4.97938 3.78089 5.06194L9.56562 10.7422C9.64969 10.8248 9.64969 10.9586 9.56562 11.0412L8.65224 11.9381C8.56817 12.0206 8.43185 12.0206 8.34778 11.9381L2.56306 6.25779Z" fill="#000C17"/>
<path d="M8.65224 11.9381C8.56817 12.0206 8.43185 12.0206 8.34778 11.9381L7.43438 11.0412C7.35031 10.9586 7.35031 10.8248 7.43438 10.7422L13.2191 5.06192C13.3032 4.97936 13.4395 4.97936 13.5236 5.06192L14.4369 5.95881C14.521 6.04136 14.521 6.17521 14.4369 6.25777L8.65224 11.9381Z" fill="#000C17"/>
</svg>
