<svg width="60" height="60" viewBox="0 0 60 60" fill="none" xmlns="http://www.w3.org/2000/svg">
<circle cx="30" cy="30" r="30" fill="#E4F1FE"/>
<path fill-rule="evenodd" clip-rule="evenodd" d="M30 16C33.7395 16 37.2552 17.4563 39.8995 20.1005C42.5437 22.7448 44 26.2605 44 30C44 33.7395 42.5437 37.2552 39.8995 39.8995C37.2552 42.5437 33.7395 44 30 44C27.6143 44 25.2699 43.3916 23.197 42.2376L16.7402 43.9863L16.0137 43.2598L17.7624 36.803C16.6084 34.7301 16 32.3857 16 30C16 26.2605 17.4563 22.7448 20.1005 20.1005C22.7448 17.4563 26.2605 16 30 16ZM37.3066 38.6257C37.5374 38.2143 37.6562 37.7734 37.6562 37.3281H28.4688C28.4688 37.7734 28.5876 38.2143 28.8184 38.6257C29.0493 39.037 29.3877 39.4108 29.8142 39.7257C30.2408 40.0405 30.7472 40.2903 31.3045 40.4607C31.8619 40.6311 32.4592 40.7188 33.0625 40.7188C33.6658 40.7188 34.2631 40.6311 34.8205 40.4607C35.3778 40.2903 35.8842 40.0405 36.3108 39.7257C36.7373 39.4108 37.0757 39.037 37.3066 38.6257Z" fill="#0884F7"/>
</svg>
