<svg width="56" height="44" viewBox="0 0 56 44" fill="none" xmlns="http://www.w3.org/2000/svg">
<path d="M28.8726 10.2429C28.7121 9.74152 28.5667 9.25522 28.3963 8.77894C27.9852 7.61583 27.5039 6.4878 26.777 5.4801C26.5163 5.11412 26.5062 5.11412 26.782 4.75817C28.1807 2.9383 29.9505 1.61976 32.1012 0.807589C33.7406 0.190938 35.4402 -0.0246397 37.1748 0.0906691C41.356 0.361394 44.3992 2.47205 46.57 5.96641C47.322 7.17966 47.7682 8.49819 47.9888 9.89694C48.1843 11.1353 48.2144 12.3786 48.0539 13.6269C47.8334 15.3566 47.2217 16.9358 46.2491 18.3797C46.0937 18.6103 46.0937 18.6053 46.2992 18.8058C47.8935 20.37 49.4828 21.9342 51.077 23.4984C51.1372 23.5585 51.2325 23.6036 51.2274 23.7139C51.1573 23.7891 51.067 23.7541 50.9918 23.7541C49.1268 23.7541 47.2618 23.7541 45.3918 23.7591C45.1913 23.7591 45.0459 23.6939 44.9055 23.5585C44.3189 23.002 43.7223 22.4556 43.1408 21.8991C43.0104 21.7737 42.9152 21.7637 42.7547 21.864C41.3309 22.7614 39.7868 23.343 38.1274 23.6237C36.6083 23.8794 35.0942 23.8493 33.5902 23.4984C32.1714 23.1675 30.8579 22.5659 29.6396 21.7587C28.7422 21.1621 27.905 20.4853 27.153 19.7132C26.5915 19.1367 26.1453 18.4699 25.7141 17.7981C24.9671 16.64 24.3555 15.4217 23.9394 14.1032C23.809 13.6821 23.7338 13.2459 23.6436 12.8148C23.3879 11.5714 22.9617 10.3883 22.3551 9.27026C21.7084 8.08709 20.8862 7.04931 19.7832 6.25217C18.6953 5.46506 17.477 5.01386 16.1485 4.85343C15.5669 4.78324 14.9804 4.75817 14.4038 4.81833C13.5365 4.90857 12.7143 5.17429 11.9422 5.58037C10.3129 6.43767 9.21491 7.7562 8.56316 9.46578C8.54812 9.50589 8.5381 9.546 8.52807 9.5861C8.52306 9.60114 8.53308 9.61618 8.5381 9.63624C8.61831 9.6964 8.71357 9.66632 8.80381 9.66632C12.8196 9.66632 16.8353 9.66632 20.8511 9.66632C21.1569 9.66632 21.1569 9.66632 21.2622 9.94707C21.7585 11.2606 22.2498 12.5741 22.7411 13.8876C22.8063 14.0631 22.7913 14.0932 22.6058 14.1032C22.5456 14.1082 22.4905 14.1032 22.4303 14.1032C17.8881 14.1032 13.351 14.1032 8.80882 14.1032C8.71858 14.1032 8.62834 14.0831 8.54812 14.1233C8.51804 14.1934 8.54812 14.2486 8.57319 14.2987C9.23998 15.7326 10.1374 16.9859 11.3958 17.9635C12.223 18.6053 13.1505 19.0214 14.1882 19.1417C14.9753 19.237 15.7675 19.1768 16.5395 18.9612C17.848 18.6002 19.0061 17.9385 20.089 17.1363C20.3347 16.9558 20.3347 16.9508 20.5553 17.1714C21.5329 18.149 22.5105 19.1267 23.4932 20.1043C23.7087 20.3199 23.7087 20.3199 23.4781 20.5304C22.1395 21.7387 20.6104 22.621 18.8908 23.1725C17.6776 23.5635 16.4292 23.7591 15.1608 23.739C13.5214 23.7089 11.9623 23.3179 10.4332 22.7313C8.50802 21.9943 7.0842 20.6507 5.85591 19.0665C4.90336 17.8382 4.21151 16.4746 3.79038 14.9755C3.44445 13.7322 3.30909 12.4638 3.37928 11.1754C3.41939 10.4735 3.47453 9.77661 3.66504 9.10481C4.09119 7.62585 4.7329 6.24215 5.62028 4.97876C6.68313 3.46471 8.02673 2.28154 9.67113 1.42424C10.7089 0.907858 11.7667 0.48673 12.8948 0.251099C13.9676 0.030508 15.0556 -0.0547203 16.1485 0.0355214C18.5449 0.241072 20.7107 1.07831 22.6359 2.49711C24.551 3.9109 25.9547 5.75083 26.9524 7.9066C27.554 9.2101 27.9902 10.5687 28.276 11.9725C28.647 13.7974 29.5744 15.3014 30.8378 16.625C31.6751 17.5023 32.6477 18.1942 33.7958 18.6103C34.9037 19.0164 36.0418 19.1216 37.2099 18.9462C37.8867 18.8459 38.5385 18.6654 39.1802 18.4248C39.2403 18.3997 39.3055 18.3746 39.3657 18.3496C39.471 18.3095 39.491 18.2493 39.4108 18.1641C39.3707 18.124 39.3306 18.0788 39.2855 18.0387C37.616 16.3693 35.9515 14.7048 34.2821 13.0353C34.0765 12.8298 34.0815 12.8298 34.2821 12.6343C35.1945 11.7469 36.112 10.8595 37.0244 9.96712C37.245 9.75155 37.245 9.75155 37.4706 9.97715C39.1401 11.6416 40.8045 13.3111 42.474 14.9755C42.4991 15.0006 42.5191 15.0257 42.5442 15.0457C42.6795 15.1711 42.7146 15.166 42.7898 14.9906C42.9352 14.6547 43.0556 14.3088 43.1508 13.9578C43.3313 13.3061 43.4366 12.6393 43.4416 11.9625C43.4566 10.1626 42.835 8.60347 41.6568 7.24483C40.4937 5.90123 39.0298 5.13418 37.2901 4.85343C35.5204 4.56766 33.881 4.87348 32.407 5.92129C31.3592 6.66327 30.5671 7.63087 29.9454 8.73883C29.6597 9.2502 29.2837 9.6964 28.9528 10.1727C28.9478 10.2028 28.9177 10.2128 28.8726 10.2429Z" fill="url(#paint0_linear_520_4053)"/>
<path d="M50.014 32.6827C50.0341 32.5875 49.989 32.5073 49.9438 32.427C49.7182 31.9808 49.4375 31.5647 49.1166 31.1837C48.9612 30.9982 48.7807 30.8328 48.5501 30.7425C48.2242 30.6122 48.0237 30.7475 48.0287 31.0935C48.0287 31.1937 48.0337 31.294 48.0638 31.3893C48.1089 31.5296 48.0488 31.5697 47.9234 31.5798C47.7931 31.5898 47.6577 31.6048 47.5274 31.6199C47.4171 31.6349 47.3719 31.5848 47.387 31.4745C47.4522 31.0534 47.5825 30.6623 47.9234 30.3816C48.2844 30.0808 48.6905 30.0908 49.0966 30.2813C49.5027 30.4668 49.7934 30.7927 50.0591 31.1336C50.38 31.5497 50.6407 32.0059 50.8312 32.4972C50.8813 32.6276 50.9566 32.6777 51.0919 32.6727C51.508 32.6677 51.9241 32.6627 52.3403 32.6727C52.6461 32.6777 52.9018 32.5323 52.9018 32.1312C52.8967 31.309 52.9218 30.4818 52.8867 29.6596C52.8767 29.4691 52.8366 29.2786 52.8065 29.0931C52.7865 28.9678 52.8115 28.8876 52.9569 28.8625C53.1224 28.8374 53.2828 28.7923 53.4382 28.7422C53.5986 28.692 53.6287 28.7672 53.6287 28.9026C53.6287 29.2686 53.6287 29.6346 53.6287 30.0005C53.6287 30.7175 53.6287 31.4344 53.6287 32.1513C53.6287 32.3368 53.6087 32.5173 53.5485 32.6927C53.4081 33.0788 53.0822 33.3044 52.6411 33.3144C52.2099 33.3244 51.7737 33.3295 51.3426 33.3244C49.9288 33.3144 48.51 33.3194 47.0962 33.3244C45.6122 33.3295 44.1283 33.3194 42.6493 33.3144C42.3435 33.3144 42.0326 33.3194 41.7268 33.3144C41.5814 33.3094 41.5213 33.3696 41.4912 33.5099C41.3308 34.2118 40.8695 34.6179 40.2027 34.8385C40.0674 34.8836 40.0022 34.8435 39.942 34.7282C39.8668 34.5828 39.9922 34.5577 40.0724 34.5176C40.4735 34.3121 40.7292 33.9912 40.8144 33.545C40.8495 33.3545 40.8244 33.3244 40.6339 33.3194C40.4685 33.3144 40.303 33.3194 40.1326 33.3194C39.4658 33.3094 38.9845 32.8983 38.8642 32.2415C38.7238 31.4695 39.0998 30.6974 39.7716 30.3866C39.9771 30.2913 40.1977 30.2412 40.4233 30.2362C40.7241 30.2312 41.0249 30.2412 41.3207 30.2312C41.5012 30.2261 41.5463 30.3013 41.5463 30.4668C41.5363 31.1236 41.5413 31.7853 41.5413 32.4421C41.5413 32.7228 41.5413 32.7228 41.8121 32.7228C44.4591 32.7228 47.1112 32.7228 49.7583 32.7228C49.8536 32.7178 49.9388 32.7479 50.014 32.6827ZM40.8344 31.665C40.8344 31.3893 40.8344 31.1185 40.8344 30.8428C40.8344 30.7576 40.8294 30.6824 40.7141 30.6623C40.2579 30.5721 39.8618 30.7726 39.6914 31.2088C39.561 31.5447 39.546 31.8856 39.6362 32.2315C39.7114 32.5022 39.8869 32.6476 40.1727 32.6677C40.3231 32.6777 40.4735 32.6627 40.6189 32.6777C40.7893 32.6928 40.8344 32.6125 40.8344 32.4571C40.8294 32.1964 40.8344 31.9307 40.8344 31.665Z" fill="url(#paint1_linear_520_4053)"/>
<path d="M6.42691 32.6794C7.14383 32.6794 7.86075 32.6794 8.57266 32.6794C8.80327 32.6794 9.03891 32.6844 9.26952 32.6794C9.62548 32.6693 9.79092 32.5089 9.79593 32.158C9.80095 31.7068 9.80596 31.2606 9.71572 30.8144C9.65556 30.5136 9.64553 30.4333 9.99647 30.4083C10.0065 30.4083 10.0115 30.4033 10.0215 30.4033C10.5129 30.293 10.5129 30.293 10.5129 30.8093C10.5129 31.1854 10.5129 31.5564 10.5129 31.9324C10.5129 32.0376 10.5229 32.1479 10.5379 32.2532C10.578 32.534 10.7184 32.6693 11.0042 32.6693C11.8615 32.6743 12.7188 32.6693 13.5761 32.6693C13.8568 32.6693 14.1426 32.6743 14.4233 32.6743C14.8595 32.6743 15.0149 32.5139 15.04 32.0727C15.065 31.6215 14.9999 31.1753 14.9347 30.7341C14.9096 30.5637 14.9397 30.4835 15.1152 30.4634C15.2355 30.4484 15.3558 30.4083 15.4761 30.3782C15.7318 30.313 15.7368 30.313 15.7368 30.5938C15.7368 30.9698 15.7368 31.3408 15.7368 31.7168C15.7368 31.8772 15.7368 32.0326 15.7368 32.1931C15.7318 32.9401 15.3608 33.3161 14.6189 33.3211C13.6613 33.3211 12.7037 33.3211 11.7462 33.3211C11.4704 33.3211 11.1947 33.3161 10.924 33.3211C10.6883 33.3261 10.4577 33.301 10.2522 33.1757C10.177 33.1306 10.1168 33.1356 10.0466 33.1807C9.84105 33.301 9.61044 33.3211 9.37481 33.3211C7.69531 33.3211 6.0108 33.3211 4.3313 33.3211C4.00542 33.3211 3.68456 33.3211 3.35869 33.3211C3.08295 33.3211 2.82727 33.2559 2.6167 33.0754C2.51142 32.9852 2.42118 32.9902 2.30086 33.0403C2.03515 33.1456 1.74938 33.1807 1.46863 33.1606C0.882057 33.1205 0.516077 32.7997 0.385728 32.168C0.220285 31.3608 0.511064 30.684 1.2731 30.3732C1.50372 30.2779 1.75439 30.2378 2.00507 30.2378C2.14043 30.2378 2.23568 30.2178 2.2056 30.0473C2.18555 29.937 2.26576 29.9019 2.35099 29.8819C2.51142 29.8418 2.67185 29.8067 2.83729 29.7716C3.03282 29.7315 3.04786 29.7465 3.04786 29.9571C3.04786 30.6138 3.04786 31.2706 3.04786 31.9324C3.04786 32.5841 3.17821 32.6894 3.82995 32.6794C4.52682 32.6643 5.2287 32.6794 5.92557 32.6844C6.09602 32.6794 6.26147 32.6794 6.42691 32.6794ZM2.35099 31.6215C2.35099 31.3809 2.35099 31.1402 2.35099 30.8996C2.35099 30.8093 2.33595 30.7392 2.22566 30.7191C1.77445 30.6389 1.29817 30.8795 1.14276 31.2957C1.03747 31.5664 1.06254 31.8572 1.14777 32.1279C1.25305 32.4538 1.43855 32.5791 1.78447 32.5691C1.90981 32.5691 2.03013 32.539 2.15547 32.529C2.30587 32.5189 2.35099 32.4337 2.35099 32.2983C2.34598 32.0727 2.35099 31.8471 2.35099 31.6215Z" fill="url(#paint2_linear_520_4053)"/>
<path d="M34.8186 42.2283C35.0392 42.3336 35.2748 42.3437 35.4904 42.4088C35.5857 42.4389 35.6859 42.4489 35.7812 42.469C35.8664 42.484 36.0018 42.469 35.9817 42.5943C35.9617 42.7347 35.9266 42.8901 35.8213 43.0004C35.7912 43.0305 35.7461 43.0054 35.706 42.9904C35.1495 42.7698 34.568 42.6395 34.0064 42.4389C33.9012 42.3988 33.7758 42.4138 33.6605 42.3988C32.7982 42.2685 32.1665 41.6668 31.991 40.8045C31.8256 39.9873 31.9158 39.2103 32.4423 38.5335C33.2394 37.5057 35.1696 37.5007 35.7862 39.0147C36.077 39.7317 36.062 40.4636 35.7812 41.1805C35.6208 41.5866 35.34 41.9025 34.944 42.108C34.9039 42.1281 34.8487 42.1381 34.8186 42.2283ZM32.5475 40.1377C32.5375 40.5438 32.6177 40.9349 32.8433 41.2908C33.3798 42.1531 34.5579 42.1682 35.0643 41.2908C35.5155 40.5138 35.5055 39.7016 35.0593 38.9145C34.568 38.0522 33.3246 38.1073 32.8483 38.9295C32.6328 39.3055 32.5375 39.7016 32.5475 40.1377Z" fill="url(#paint3_linear_520_4053)"/>
<path d="M29.238 41.4123C29.3283 41.2769 29.2531 39.071 29.243 38.0683C29.243 37.938 29.2932 37.8878 29.4185 37.8878C29.4937 37.8878 29.5689 37.8878 29.6441 37.8878C29.7444 37.8928 29.7895 37.943 29.7895 38.0482C29.7895 39.4219 29.7895 40.7956 29.7895 42.1693C29.7895 42.2846 29.7344 42.3297 29.6241 42.3397C29.4737 42.3548 29.218 42.3698 29.1077 42.3147C29.0224 42.2696 27.7942 40.1439 27.2377 39.1562C27.1625 39.0209 27.1224 38.8654 26.997 38.7451C26.9168 38.8354 26.9519 38.9306 26.9519 39.0108C26.987 40.0185 26.987 41.0262 26.982 42.0339C26.982 42.1292 27.0271 42.2545 26.9218 42.3097C26.7965 42.3748 26.6461 42.3548 26.5057 42.3247C26.4205 42.3046 26.4405 42.2194 26.4405 42.1542C26.4405 41.8133 26.4405 41.4724 26.4405 41.1315C26.4405 40.1338 26.4405 39.1311 26.4405 38.1335C26.4405 37.8978 26.4455 37.9079 26.6711 37.8878C26.8366 37.8728 27.1474 37.8678 27.2577 37.948C27.3329 37.9981 29.1378 41.312 29.238 41.4123Z" fill="url(#paint4_linear_520_4053)"/>
<path d="M14.8997 40.0241C14.8997 40.5455 14.8145 40.9716 14.6089 41.3727C14.2179 42.1197 13.4107 42.5258 12.5584 42.4055C11.7262 42.2902 11.0644 41.6585 10.899 40.8262C10.7586 40.1244 10.8087 39.4526 11.1597 38.8159C11.5507 38.114 12.3729 37.7129 13.165 37.8282C14.0123 37.9536 14.6139 38.5201 14.8094 39.3523C14.8646 39.603 14.9097 39.8436 14.8997 40.0241ZM11.4504 40.0792C11.4504 40.5505 11.5357 40.9767 11.7914 41.3577C12.3128 42.1297 13.3856 42.1398 13.9221 41.3827C14.0875 41.1471 14.1828 40.8814 14.2379 40.6057C14.3632 39.994 14.278 39.4125 13.9421 38.881C13.4408 38.0889 12.2526 38.109 11.7663 38.9111C11.5407 39.2821 11.4605 39.6782 11.4504 40.0792Z" fill="url(#paint5_linear_520_4053)"/>
<path d="M27.4232 32.2831C27.4884 32.223 27.4684 32.1628 27.4684 32.1077C27.4684 31.5311 27.4583 30.9596 27.4684 30.3831C27.4784 29.972 27.4182 29.5709 27.338 29.1698C27.2979 28.9592 27.313 28.9292 27.5235 28.884C27.6589 28.854 27.7993 28.8289 27.9396 28.7988C28.1502 28.7587 28.1702 28.7737 28.1702 28.9893C28.1702 29.5057 28.1753 30.0221 28.1702 30.5385C28.1652 31.1652 28.1953 31.7868 28.1552 32.4135C28.1201 32.9399 27.7291 33.3109 27.2077 33.3159C26.591 33.3259 25.9744 33.3209 25.3577 33.3159C25.1522 33.3159 25.1371 33.2858 25.2274 33.1003C25.468 32.594 25.3677 32.6842 25.8841 32.6742C26.2 32.6692 26.5158 32.6742 26.8918 32.6742C26.596 32.1077 26.2651 31.6113 25.9844 31.095C25.7036 30.5786 25.3527 30.1123 24.9717 29.6611C25.2625 29.5959 25.5232 29.611 25.7839 29.621C25.8891 29.626 25.9192 29.7313 25.9643 29.8115C26.4105 30.5786 26.8567 31.3506 27.3029 32.1177C27.333 32.1779 27.348 32.2481 27.4232 32.2831Z" fill="url(#paint6_linear_520_4053)"/>
<path d="M9.48548 40.2365C9.90159 40.4621 10.0219 40.8532 10.1122 41.2693C10.1773 41.5601 10.2676 41.8458 10.3428 42.1366C10.3578 42.1968 10.4079 42.262 10.3378 42.3221C10.2024 42.4324 9.80132 42.3221 9.75119 42.1517C9.67097 41.891 9.61081 41.6252 9.54063 41.3595C9.50052 41.1991 9.46041 41.0387 9.39524 40.8833C9.2699 40.6075 9.04931 40.4671 8.75853 40.432C8.09676 40.3568 8.09676 40.3568 8.09676 41.0136C8.09676 41.3696 8.09676 41.7305 8.09676 42.0865C8.09676 42.3321 8.08673 42.3422 7.84609 42.3422C7.78592 42.3422 7.73078 42.3422 7.67062 42.3422C7.56032 42.3372 7.50016 42.287 7.50517 42.1717C7.50517 42.1366 7.50517 42.1065 7.50517 42.0714C7.50517 40.788 7.50517 39.5046 7.50517 38.2261C7.50517 37.9654 7.52021 37.9404 7.78091 37.9153C8.32738 37.8652 8.87384 37.81 9.41529 37.9654C9.89658 38.1058 10.1874 38.4166 10.2425 38.913C10.2977 39.4093 10.1272 39.8104 9.69103 40.0811C9.63588 40.1162 9.55567 40.1312 9.48548 40.2365ZM8.09676 39.1436C8.09676 39.3592 8.09676 39.5747 8.09676 39.7953C8.09676 39.8806 8.10177 39.9708 8.22209 39.9708C8.5229 39.9708 8.8237 40.0009 9.11448 39.9107C9.4554 39.8054 9.68601 39.4945 9.69604 39.1436C9.70607 38.7826 9.4955 38.5019 9.13454 38.3765C8.84376 38.2763 8.54295 38.3214 8.24215 38.3264C8.12684 38.3314 8.09676 38.4116 8.09676 38.5169C8.10177 38.7275 8.09676 38.938 8.09676 39.1436Z" fill="url(#paint7_linear_520_4053)"/>
<path d="M19.0915 31.906C19.0715 32.3471 19.1166 32.8685 19.0564 33.3949C18.9762 34.0918 18.3646 34.7536 17.6827 34.8639C17.5424 34.8889 17.5073 34.7937 17.4672 34.7085C17.407 34.5881 17.5123 34.5631 17.5825 34.533C17.9835 34.3726 18.2192 34.0718 18.3245 33.6607C18.3896 33.3949 18.3646 33.3649 18.1039 33.425C17.3819 33.5955 16.8405 33.3598 16.5497 32.7332C16.2589 32.1115 16.4143 31.2191 16.9006 30.7378C17.1714 30.4671 17.5023 30.3317 17.8883 30.3217C18.2192 30.3167 18.5551 30.3267 18.886 30.3167C19.0364 30.3117 19.0915 30.3718 19.0915 30.5222C19.0865 30.9584 19.0915 31.3896 19.0915 31.906ZM18.3896 31.8257C18.3896 31.535 18.3896 31.2442 18.3896 30.9534C18.3896 30.8581 18.3846 30.7779 18.2593 30.7579C17.7279 30.6676 17.3318 30.9283 17.1814 31.4497C17.0761 31.8157 17.0912 32.1717 17.1964 32.5326C17.2566 32.7432 17.3719 32.9187 17.5975 32.9688C17.783 33.0089 17.9785 32.9939 18.164 32.9538C18.3245 32.9187 18.3997 32.8334 18.3896 32.658C18.3796 32.3722 18.3896 32.0965 18.3896 31.8257Z" fill="url(#paint8_linear_520_4053)"/>
<path d="M24.3055 33.2635C24.2503 34.171 23.6587 34.6322 22.9468 34.8528C22.8165 34.8929 22.7613 34.8277 22.7112 34.7325C22.651 34.6121 22.7312 34.567 22.8215 34.5319C23.2526 34.3615 23.4933 34.0306 23.5785 33.5844C23.6136 33.4039 23.5885 33.3738 23.4081 33.4139C23.1022 33.4791 22.7964 33.5292 22.5006 33.4139C21.9692 33.2084 21.7185 32.7822 21.6684 32.2408C21.6133 31.6542 21.7386 31.1128 22.1948 30.6967C22.4555 30.456 22.7663 30.3307 23.1223 30.3257C23.4482 30.3207 23.774 30.3307 24.0949 30.3206C24.2654 30.3156 24.3305 30.3658 24.3255 30.5463C24.3155 30.9975 24.3205 31.4437 24.3205 31.8949C24.3205 31.8899 24.3355 32.8073 24.3055 33.2635ZM23.6337 31.8046C23.6337 31.5239 23.6337 31.2381 23.6337 30.9574C23.6337 30.8771 23.6437 30.7919 23.5284 30.7618C23.0922 30.6465 22.6059 30.8872 22.4555 31.3233C22.3101 31.7344 22.3151 32.1556 22.4505 32.5717C22.5157 32.7622 22.636 32.9226 22.8315 32.9627C23.032 33.0078 23.2426 32.9928 23.4482 32.9326C23.5785 32.8925 23.6387 32.8224 23.6337 32.682C23.6236 32.3862 23.6337 32.0954 23.6337 31.8046Z" fill="url(#paint9_linear_520_4053)"/>
<path d="M3.83586 39.4771C3.83586 39.828 3.83586 40.179 3.83586 40.5249C3.83586 40.7405 3.8509 40.956 3.90604 41.1666C4.03138 41.6429 4.38232 41.9337 4.85358 41.9437C5.33988 41.9537 5.71589 41.678 5.85125 41.1967C5.91643 40.9711 5.95152 40.7455 5.95152 40.5048C5.94651 39.7227 5.95152 38.9406 5.95152 38.1535C5.95152 37.8878 5.95152 37.8878 6.20721 37.8828C6.26737 37.8828 6.32252 37.8828 6.38268 37.8828C6.49297 37.8878 6.54812 37.938 6.54311 38.0583C6.52305 38.9908 6.58321 39.9233 6.503 40.8558C6.48796 41.0212 6.45788 41.1816 6.40273 41.3421C6.19217 41.9788 5.73595 42.3197 5.0842 42.3999C4.76835 42.44 4.45251 42.4099 4.1517 42.2846C3.66039 42.0791 3.42475 41.678 3.30443 41.1817C3.24928 40.936 3.23926 40.6853 3.23926 40.4397C3.23926 39.6726 3.23926 38.9056 3.23926 38.1385C3.23926 37.8878 3.23926 37.8878 3.48492 37.8828C3.50998 37.8828 3.53505 37.8828 3.56012 37.8828C3.82583 37.8828 3.83084 37.8878 3.83084 38.1435C3.83586 38.5947 3.83586 39.0359 3.83586 39.4771Z" fill="url(#paint10_linear_520_4053)"/>
<path d="M25.4579 42.3425C25.1772 42.3425 25.1772 42.3425 25.0819 42.0618C24.9716 41.746 24.8513 41.4401 24.756 41.1193C24.7159 40.9839 24.6457 40.9488 24.5254 40.9488C24.1193 40.9488 23.7082 40.9538 23.3021 40.9488C23.1567 40.9488 23.0916 41.014 23.0565 41.1393C22.9512 41.4702 22.8309 41.8011 22.7356 42.132C22.6905 42.2924 22.6053 42.3526 22.4498 42.3375C22.3897 42.3325 22.3345 42.3375 22.2744 42.3375C22.0939 42.3275 22.0738 42.2974 22.134 42.122C22.5852 40.8034 23.0314 39.4849 23.4826 38.1664C23.5779 37.8906 23.5779 37.8906 23.8636 37.8906C23.8987 37.8906 23.9288 37.8906 23.9639 37.8906C24.2697 37.8906 24.2747 37.8906 24.37 38.1714C24.8112 39.4598 25.2524 40.7433 25.6935 42.0317C25.7938 42.3426 25.7938 42.3425 25.4579 42.3425ZM23.9188 38.5524C23.7934 38.6376 23.8135 38.768 23.7784 38.8733C23.628 39.3195 23.4826 39.7707 23.3322 40.2219C23.252 40.4625 23.267 40.4926 23.5277 40.4926C23.8035 40.4926 24.0792 40.4976 24.355 40.4926C24.5455 40.4876 24.5605 40.4725 24.5003 40.2921C24.37 39.891 24.2346 39.4899 24.0993 39.0888C24.0391 38.9134 24.0241 38.7229 23.9188 38.5524Z" fill="url(#paint11_linear_520_4053)"/>
<path d="M42.3036 37.8917C42.3538 37.8917 42.4039 37.8917 42.454 37.8917C42.5994 37.8817 42.6696 37.9418 42.7198 38.0872C43.1559 39.3857 43.6071 40.6792 44.0433 41.9726C44.1736 42.3536 44.1686 42.3486 43.7575 42.3486C43.5921 42.3486 43.5219 42.2734 43.4768 42.1331C43.3715 41.8072 43.2512 41.4913 43.1509 41.1655C43.1058 41.0151 43.0356 40.9499 42.8702 40.9499C42.4791 40.9599 42.0881 40.9599 41.697 40.9499C41.5466 40.9449 41.4764 41.01 41.4313 41.1504C41.336 41.4663 41.2258 41.7821 41.1205 42.098C41.0403 42.3436 41.0352 42.3436 40.7645 42.3436C40.4386 42.3436 40.4386 42.3386 40.5439 42.0228C40.9851 40.7243 41.4213 39.4308 41.8625 38.1323C41.9527 37.8867 41.9527 37.8917 42.3036 37.8917ZM42.3087 38.5134C42.2585 38.5785 42.2385 38.5936 42.2284 38.6136C42.073 39.1902 41.8675 39.7517 41.677 40.3132C41.6268 40.4636 41.707 40.4887 41.8224 40.4887C42.1282 40.4887 42.439 40.4836 42.7448 40.4887C42.8752 40.4887 42.9353 40.4485 42.8852 40.3132C42.6997 39.7316 42.4891 39.1501 42.3087 38.5134Z" fill="url(#paint12_linear_520_4053)"/>
<path d="M36.7339 39.4965C36.7339 39.0403 36.7389 38.5791 36.7289 38.1229C36.7239 37.9524 36.769 37.8672 36.9495 37.8872C36.9846 37.8922 37.0146 37.8872 37.0497 37.8872C37.3004 37.8922 37.3054 37.8922 37.3054 38.1379C37.3054 38.8799 37.3054 39.6219 37.3054 40.3639C37.3054 40.6045 37.3104 40.8502 37.3706 41.0858C37.511 41.6724 37.882 41.9732 38.3984 41.9431C38.9548 41.908 39.3208 41.547 39.391 40.9454C39.4161 40.7298 39.4311 40.5143 39.4311 40.2987C39.4261 39.5818 39.4261 38.8648 39.4311 38.1479C39.4311 38.0627 39.386 37.9424 39.5063 37.9123C39.6567 37.8772 39.8222 37.8622 39.9726 37.9323C40.0177 37.9524 40.0127 38.0176 40.0127 38.0677C40.0027 38.9902 40.0478 39.9177 39.9876 40.8401C39.9475 41.4618 39.7069 41.9932 39.0952 42.2639C38.6089 42.4795 38.1076 42.4845 37.6163 42.284C37.2102 42.1186 36.9796 41.7927 36.8442 41.3866C36.7489 41.1058 36.7339 40.8151 36.7339 40.5243C36.7339 40.1834 36.7339 39.8374 36.7339 39.4965Z" fill="url(#paint13_linear_520_4053)"/>
<path d="M0.00514405 40.0995C0.00514405 39.4478 0.00514405 38.801 0.00514405 38.1493C0.00514405 37.8936 0.00514403 37.8936 0.245789 37.8936C0.887508 37.8936 1.52923 37.8936 2.17095 37.8936C2.25116 37.8936 2.36146 37.8685 2.39154 37.9638C2.42663 38.0791 2.43666 38.2145 2.38151 38.3298C2.34642 38.41 2.24615 38.3799 2.17596 38.3799C1.72475 38.3799 1.27856 38.3849 0.827346 38.3749C0.65689 38.3699 0.586702 38.425 0.591715 38.6005C0.601742 38.9264 0.601742 39.2522 0.591715 39.5731C0.586702 39.7235 0.636836 39.7787 0.792252 39.7736C1.22341 39.7636 1.65958 39.7686 2.09073 39.7736C2.30129 39.7736 2.30631 39.7887 2.30631 40.0343C2.30129 40.2599 2.30129 40.265 2.08572 40.265C1.6696 40.265 1.25349 40.265 0.837373 40.265C0.596729 40.265 0.596729 40.265 0.596729 40.4906C0.596729 40.8666 0.596729 41.2426 0.596729 41.6136C0.596729 41.8592 0.601742 41.8592 0.852414 41.8592C1.32869 41.8592 1.79995 41.8592 2.27623 41.8592C2.49682 41.8592 2.50183 41.8693 2.50183 42.0848C2.50685 42.3155 2.4918 42.3355 2.27121 42.3355C1.57936 42.3405 0.887508 42.3355 0.195654 42.3405C0.0452515 42.3405 -0.00488281 42.2954 -0.00488281 42.14C0.00514405 41.4632 0.00514405 40.7813 0.00514405 40.0995Z" fill="url(#paint14_linear_520_4053)"/>
<path d="M19.1515 40.0937C19.1515 39.437 19.1565 38.7752 19.1465 38.1184C19.1465 37.943 19.2016 37.8828 19.3721 37.8828C20.0288 37.8878 20.6906 37.8878 21.3474 37.8828C21.5329 37.8828 21.568 37.968 21.5579 38.1285C21.5479 38.3591 21.5479 38.3691 21.3474 38.3691C20.8962 38.3741 20.45 38.3691 19.9988 38.3691C19.7431 38.3691 19.7431 38.3691 19.7431 38.6098C19.7431 38.9156 19.7431 39.2264 19.7431 39.5322C19.7431 39.7578 19.7481 39.7578 19.9837 39.7578C20.3998 39.7578 20.816 39.7578 21.2321 39.7578C21.4476 39.7578 21.4577 39.7729 21.4527 40.0135C21.4527 40.2391 21.4426 40.2492 21.2371 40.2492C20.8059 40.2542 20.3698 40.2542 19.9386 40.2492C19.7882 40.2441 19.7331 40.2943 19.7381 40.4497C19.7481 40.8407 19.7381 41.2318 19.7431 41.6228C19.7431 41.8484 19.7481 41.8484 19.9887 41.8534C20.465 41.8534 20.9363 41.8534 21.4126 41.8534C21.6382 41.8534 21.7485 42.049 21.6532 42.2545C21.6131 42.3398 21.5329 42.3297 21.4577 42.3297C21.1268 42.3297 20.7909 42.3297 20.46 42.3297C20.1191 42.3297 19.7782 42.3297 19.4373 42.3297C19.1565 42.3297 19.1565 42.3297 19.1565 42.059C19.1515 41.4123 19.1515 40.7555 19.1515 40.0937Z" fill="url(#paint15_linear_520_4053)"/>
<path d="M33.1391 33.3178C32.3018 33.3328 31.6401 32.7513 31.6752 31.6583C31.6852 31.4077 31.7253 31.162 31.8306 30.9314C32.1163 30.2997 32.6778 30.034 33.3547 30.0791C34.0465 30.1242 34.4777 30.5303 34.6331 31.2071C34.7183 31.5731 34.7033 31.9341 34.598 32.29C34.4025 32.9318 33.851 33.3178 33.1391 33.3178ZM33.9112 31.6984C33.9162 31.513 33.8911 31.3325 33.851 31.152C33.7708 30.791 33.5402 30.5754 33.2093 30.5704C32.8433 30.5654 32.5826 30.776 32.4974 31.142C32.4071 31.523 32.4121 31.899 32.5024 32.28C32.5826 32.6309 32.8383 32.8315 33.1792 32.8265C33.5151 32.8215 33.7708 32.6159 33.846 32.265C33.8861 32.0795 33.9162 31.889 33.9112 31.6984Z" fill="url(#paint16_linear_520_4053)"/>
<path d="M15.6469 40.128C15.6469 39.4813 15.6469 38.8295 15.6469 38.1828C15.6469 37.9421 15.6469 37.9321 15.8926 37.9121C16.424 37.8619 16.9504 37.8068 17.4768 37.9572C17.9481 38.0925 18.2639 38.3833 18.3541 38.8746C18.4494 39.4261 18.3391 39.9224 17.8578 40.2684C17.4417 40.5642 16.9554 40.6293 16.4541 40.5993C16.2385 40.5892 16.2284 40.5892 16.2234 40.8048C16.2184 41.231 16.2234 41.6521 16.2234 42.0782C16.2234 42.3339 16.2184 42.3389 15.9527 42.3389C15.9126 42.3389 15.8675 42.3389 15.8274 42.3389C15.682 42.354 15.6419 42.2788 15.6469 42.1434C15.6519 41.612 15.6469 41.0805 15.6469 40.5491C15.6469 40.4138 15.6469 40.2684 15.6469 40.128ZM16.2234 39.2356C16.2234 39.4612 16.2234 39.6818 16.2234 39.9074C16.2234 40.0027 16.2335 40.1029 16.3538 40.113C16.6947 40.133 17.0356 40.1631 17.3515 39.9977C17.6773 39.8272 17.8378 39.4913 17.7977 39.0702C17.7676 38.7293 17.557 38.4936 17.2061 38.3833C16.9704 38.3081 16.7298 38.3232 16.4891 38.3282C16.2585 38.3332 16.2284 38.3683 16.2234 38.5889C16.2184 38.8045 16.2234 39.02 16.2234 39.2356Z" fill="url(#paint17_linear_520_4053)"/>
<path d="M54.3106 39.9694C54.6063 39.3979 54.8971 38.8363 55.1879 38.2799C55.4035 37.8587 55.4887 37.8186 55.97 37.9139C55.975 37.9139 55.98 37.9239 55.9901 37.9339C56.0201 38.0091 55.955 38.0543 55.9199 38.1044C55.4987 38.8313 55.0726 39.5533 54.6465 40.2802C54.5713 40.4056 54.5412 40.5359 54.5412 40.6813C54.5462 41.1576 54.5462 41.6288 54.5412 42.1051C54.5412 42.3357 54.5311 42.3407 54.3005 42.3457C54.2654 42.3457 54.2354 42.3457 54.2003 42.3457C53.9747 42.3407 53.9596 42.3257 53.9546 42.1051C53.9546 41.6489 53.9496 41.1876 53.9596 40.7314C53.9646 40.5409 53.9145 40.3755 53.8243 40.21C53.4382 39.5132 53.0522 38.8113 52.6712 38.1144C52.6411 38.0643 52.621 38.0141 52.5859 37.949C52.7764 37.8537 52.967 37.8938 53.1525 37.9089C53.2577 37.9189 53.2828 38.0292 53.3229 38.1094C53.6087 38.6709 53.8894 39.2374 54.1702 39.8039C54.2053 39.8541 54.2203 39.9243 54.3106 39.9694Z" fill="url(#paint18_linear_520_4053)"/>
<path d="M50.9413 40.3771C50.9413 40.9437 50.9413 41.5102 50.9413 42.0767C50.9413 42.3424 50.9413 42.3424 50.6806 42.3424C50.6305 42.3424 50.5803 42.3424 50.5302 42.3424C50.3898 42.3474 50.3397 42.2822 50.3447 42.1419C50.3497 41.7408 50.3447 41.3447 50.3447 40.9437C50.3447 40.1716 50.3447 39.3945 50.3447 38.6224C50.3447 38.3868 50.3397 38.3868 50.1091 38.3818C49.8183 38.3818 49.5275 38.3818 49.2367 38.3818C49.0011 38.3818 48.9961 38.3768 48.9961 38.1462C48.9961 37.9105 49.0011 37.8955 49.2217 37.8905C50.1793 37.8855 51.1368 37.8855 52.0944 37.8905C52.2949 37.8905 52.2949 37.9055 52.2999 38.1612C52.305 38.3116 52.2749 38.3918 52.0994 38.3868C51.7986 38.3718 51.4978 38.3818 51.202 38.3818C50.9513 38.3818 50.9463 38.3868 50.9463 38.6275C50.9413 39.209 50.9413 39.7956 50.9413 40.3771Z" fill="url(#paint19_linear_520_4053)"/>
<path d="M44.8147 40.0876C44.8147 39.4359 44.8147 38.7891 44.8147 38.1374C44.8147 37.8917 44.8197 37.8867 45.0704 37.8867C45.1356 37.8867 45.2058 37.8867 45.271 37.8917C45.3612 37.8967 45.4063 37.9419 45.4013 38.0371C45.3963 38.0973 45.4013 38.1524 45.4013 38.2126C45.4013 39.3356 45.4013 40.4586 45.4013 41.5866C45.4013 41.8624 45.4063 41.8674 45.677 41.8674C46.1433 41.8674 46.6095 41.8674 47.0758 41.8674C47.2914 41.8674 47.2964 41.8774 47.2964 42.098C47.2964 42.3336 47.2914 42.3437 47.0658 42.3437C46.3889 42.3437 45.7171 42.3437 45.0403 42.3437C44.8298 42.3437 44.8147 42.3286 44.8147 42.113C44.8097 41.4362 44.8147 40.7644 44.8147 40.0876Z" fill="url(#paint20_linear_520_4053)"/>
<path d="M36.7739 33.3209C36.3729 33.3209 35.9718 33.3209 35.5757 33.3209C35.3902 33.3209 35.3601 33.2858 35.4103 33.1153C35.5607 32.6491 35.4604 32.6741 35.9718 32.6791C36.3528 32.6791 36.7388 32.6691 37.1199 32.6842C37.3003 32.6892 37.3555 32.624 37.3505 32.4535C37.3404 32.1728 37.3455 31.887 37.3455 31.6063C37.3455 31.4208 37.2853 31.2453 37.2051 31.0799C37.0848 30.8342 36.8942 30.6838 36.6085 30.7189C36.438 30.7389 36.413 30.6487 36.4029 30.5184C36.3929 30.378 36.4581 30.3329 36.5934 30.3228C37.3204 30.2777 37.9471 30.8442 38.0523 31.6464C38.1025 32.0274 38.0523 32.4134 38.0975 32.7944C38.1075 32.9047 38.1225 33.01 38.1476 33.1153C38.1827 33.2607 38.1426 33.3309 37.9771 33.3259C37.5711 33.3158 37.175 33.3209 36.7739 33.3209Z" fill="url(#paint21_linear_520_4053)"/>
<path d="M29.7751 33.0402C29.7751 33.3209 29.7751 33.326 29.5044 33.3209C29.0281 33.3159 29.0682 33.3861 29.0682 32.8798C29.0682 32.0475 29.0481 29.4706 28.993 29.0144C28.9729 28.844 29.0331 28.7888 29.1885 28.7838C29.354 28.7788 29.5194 28.7688 29.6848 28.7487C29.8102 28.7337 29.8503 28.7838 29.8453 28.8991C29.8453 28.9342 29.7751 32.4386 29.7751 33.0402Z" fill="url(#paint22_linear_520_4053)"/>
<path d="M54.5113 31.2743C54.5113 30.8081 54.5063 30.3419 54.5113 29.8756C54.5164 29.5848 54.4712 29.294 54.4361 29.0083C54.4161 28.8428 54.4813 28.7827 54.6367 28.7827C54.8021 28.7777 54.9676 28.7626 55.133 28.7476C55.2383 28.7376 55.2934 28.7777 55.2884 28.8829C55.2884 28.918 55.2884 28.9481 55.2834 28.9832C55.1581 30.3268 55.2483 31.6754 55.2182 33.019C55.2182 33.0692 55.2283 33.1193 55.2182 33.1694C55.1531 33.4452 54.9325 33.2847 54.7871 33.3148C54.6768 33.3349 54.5214 33.37 54.5063 33.1694C54.5013 33.1193 54.5063 33.0692 54.5063 33.019C54.5113 32.4375 54.5113 31.8559 54.5113 31.2743Z" fill="url(#paint23_linear_520_4053)"/>
<path d="M20.9812 31.8802C20.9612 32.3113 21.0113 32.8277 20.9511 33.3441C20.8459 34.2365 20.164 34.6727 19.5775 34.8531C19.4421 34.8932 19.397 34.813 19.3519 34.7178C19.2967 34.5975 19.397 34.5774 19.4672 34.5473C20.0036 34.3067 20.2643 33.8906 20.2593 33.309C20.2593 32.6823 20.2543 32.0607 20.2493 31.434C20.2493 31.2084 20.1841 30.9928 20.154 30.7672C20.1239 30.5316 20.1289 30.5215 20.3596 30.4614C20.4949 30.4263 20.6353 30.3962 20.7707 30.3611C20.9461 30.321 20.9762 30.3411 20.9762 30.5215C20.9862 30.9477 20.9812 31.3688 20.9812 31.8802Z" fill="url(#paint24_linear_520_4053)"/>
<path d="M48.505 40.1076C48.505 40.7643 48.505 41.4261 48.505 42.0829C48.505 42.3436 48.505 42.3436 48.2343 42.3436C48.1741 42.3436 48.119 42.3436 48.0588 42.3385C47.9836 42.3335 47.9385 42.2934 47.9385 42.2082C47.9385 42.1831 47.9385 42.1581 47.9385 42.133C47.9385 40.7844 47.9385 39.4358 47.9385 38.0872C47.9385 37.9468 47.9836 37.8816 48.124 37.8916C48.1591 37.8916 48.1891 37.8916 48.2242 37.8916C48.51 37.8916 48.51 37.8916 48.51 38.1874C48.505 38.8241 48.505 39.4658 48.505 40.1076Z" fill="url(#paint25_linear_520_4053)"/>
<path d="M26.0954 28.8732C26.1756 28.9684 26.0753 28.9684 26.0553 28.9734C26.0302 28.9734 24.7418 29.0085 24.7017 28.9734C24.6916 28.9684 24.6916 28.9534 24.6967 28.9383C24.7017 28.8982 24.6866 28.7378 24.7017 28.7177C24.7317 28.6826 24.817 28.6977 24.8771 28.6927C25.0626 28.6676 24.9874 28.5673 25.0075 28.4771C25.0927 28.086 25.4988 27.9006 25.8397 28.0911C25.9099 28.1312 26.0302 28.1562 25.94 28.2615C25.9249 28.4119 25.8297 28.3267 25.7545 28.2966C25.6292 28.2415 25.5088 28.2465 25.4186 28.3718C25.3584 28.452 25.3283 28.5373 25.3584 28.6275C25.3985 28.7328 25.5038 28.6927 25.584 28.6977C25.6442 28.7027 25.7044 28.6927 25.7645 28.6826C25.935 28.6526 25.9951 28.7528 26.0954 28.8732Z" fill="url(#paint26_linear_520_4053)"/>
<path d="M1.80541 29.018C1.80039 29.2586 1.6149 29.4441 1.37927 29.4391C1.14865 29.4341 0.953125 29.2386 0.953125 29.0029C0.953125 28.7623 1.1687 28.5567 1.40433 28.5668C1.63996 28.5818 1.81042 28.7673 1.80541 29.018Z" fill="url(#paint27_linear_520_4053)"/>
<path d="M33.0842 29.1944C33.0792 29.41 32.8586 29.6155 32.638 29.6155C32.3973 29.6155 32.1918 29.3949 32.2068 29.1593C32.2219 28.9287 32.4224 28.7482 32.658 28.7582C32.8937 28.7682 33.0942 28.9738 33.0842 29.1944Z" fill="url(#paint28_linear_520_4053)"/>
<path d="M2.53238 28.5664C2.75798 28.5714 2.95351 28.772 2.95351 29.0076C2.95351 29.2432 2.75798 29.4387 2.52235 29.4387C2.27168 29.4387 2.08117 29.2382 2.0912 28.9875C2.10123 28.7519 2.29675 28.5664 2.53238 28.5664Z" fill="url(#paint29_linear_520_4053)"/>
<path d="M34.1971 29.1879C34.1971 29.4235 34.0066 29.614 33.776 29.619C33.5454 29.619 33.3498 29.4285 33.3448 29.1979C33.3398 28.9472 33.5253 28.7617 33.781 28.7617C34.0216 28.7617 34.1971 28.9422 34.1971 29.1879Z" fill="url(#paint30_linear_520_4053)"/>
<path d="M9.46094 34.4675C9.45593 34.7031 9.27043 34.8886 9.02979 34.8886C8.79917 34.8886 8.59863 34.6981 8.59863 34.4675C8.59863 34.2319 8.8092 34.0263 9.04483 34.0313C9.28547 34.0364 9.46596 34.2269 9.46094 34.4675Z" fill="url(#paint31_linear_520_4053)"/>
<path d="M49.1765 34.0316C49.4071 34.0367 49.5976 34.2322 49.5926 34.4678C49.5876 34.7034 49.4021 34.8889 49.1665 34.8889C48.9158 34.8889 48.7353 34.6984 48.7403 34.4427C48.7453 34.2071 48.9409 34.0216 49.1765 34.0316Z" fill="url(#paint32_linear_520_4053)"/>
<path d="M10.1724 34.0273C10.403 34.0324 10.6035 34.2329 10.5985 34.4585C10.5985 34.6891 10.398 34.8796 10.1623 34.8846C9.92169 34.8846 9.74121 34.6991 9.74121 34.4535C9.74622 34.2229 9.94175 34.0273 10.1724 34.0273Z" fill="url(#paint33_linear_520_4053)"/>
<path d="M15.3514 34.4546C15.3514 34.6902 15.1609 34.8807 14.9253 34.8857C14.6897 34.8908 14.4992 34.7003 14.4941 34.4596C14.4941 34.224 14.6847 34.0285 14.9153 34.0234C15.1559 34.0285 15.3514 34.219 15.3514 34.4546Z" fill="url(#paint34_linear_520_4053)"/>
<defs>
<linearGradient id="paint0_linear_520_4053" x1="-5" y1="-9.5" x2="66.5" y2="45" gradientUnits="userSpaceOnUse">
<stop stop-color="#0884F7"/>
<stop offset="1" stop-color="#0A77DC"/>
</linearGradient>
<linearGradient id="paint1_linear_520_4053" x1="-5" y1="-9.5" x2="66.5" y2="45" gradientUnits="userSpaceOnUse">
<stop stop-color="#0884F7"/>
<stop offset="1" stop-color="#0A77DC"/>
</linearGradient>
<linearGradient id="paint2_linear_520_4053" x1="-5" y1="-9.5" x2="66.5" y2="45" gradientUnits="userSpaceOnUse">
<stop stop-color="#0884F7"/>
<stop offset="1" stop-color="#0A77DC"/>
</linearGradient>
<linearGradient id="paint3_linear_520_4053" x1="-5" y1="-9.5" x2="66.5" y2="45" gradientUnits="userSpaceOnUse">
<stop stop-color="#0884F7"/>
<stop offset="1" stop-color="#0A77DC"/>
</linearGradient>
<linearGradient id="paint4_linear_520_4053" x1="-5" y1="-9.5" x2="66.5" y2="45" gradientUnits="userSpaceOnUse">
<stop stop-color="#0884F7"/>
<stop offset="1" stop-color="#0A77DC"/>
</linearGradient>
<linearGradient id="paint5_linear_520_4053" x1="-5" y1="-9.5" x2="66.5" y2="45" gradientUnits="userSpaceOnUse">
<stop stop-color="#0884F7"/>
<stop offset="1" stop-color="#0A77DC"/>
</linearGradient>
<linearGradient id="paint6_linear_520_4053" x1="-5" y1="-9.5" x2="66.5" y2="45" gradientUnits="userSpaceOnUse">
<stop stop-color="#0884F7"/>
<stop offset="1" stop-color="#0A77DC"/>
</linearGradient>
<linearGradient id="paint7_linear_520_4053" x1="-5" y1="-9.5" x2="66.5" y2="45" gradientUnits="userSpaceOnUse">
<stop stop-color="#0884F7"/>
<stop offset="1" stop-color="#0A77DC"/>
</linearGradient>
<linearGradient id="paint8_linear_520_4053" x1="-5" y1="-9.5" x2="66.5" y2="45" gradientUnits="userSpaceOnUse">
<stop stop-color="#0884F7"/>
<stop offset="1" stop-color="#0A77DC"/>
</linearGradient>
<linearGradient id="paint9_linear_520_4053" x1="-5" y1="-9.5" x2="66.5" y2="45" gradientUnits="userSpaceOnUse">
<stop stop-color="#0884F7"/>
<stop offset="1" stop-color="#0A77DC"/>
</linearGradient>
<linearGradient id="paint10_linear_520_4053" x1="-5" y1="-9.5" x2="66.5" y2="45" gradientUnits="userSpaceOnUse">
<stop stop-color="#0884F7"/>
<stop offset="1" stop-color="#0A77DC"/>
</linearGradient>
<linearGradient id="paint11_linear_520_4053" x1="-5" y1="-9.5" x2="66.5" y2="45" gradientUnits="userSpaceOnUse">
<stop stop-color="#0884F7"/>
<stop offset="1" stop-color="#0A77DC"/>
</linearGradient>
<linearGradient id="paint12_linear_520_4053" x1="-5" y1="-9.5" x2="66.5" y2="45" gradientUnits="userSpaceOnUse">
<stop stop-color="#0884F7"/>
<stop offset="1" stop-color="#0A77DC"/>
</linearGradient>
<linearGradient id="paint13_linear_520_4053" x1="-5" y1="-9.5" x2="66.5" y2="45" gradientUnits="userSpaceOnUse">
<stop stop-color="#0884F7"/>
<stop offset="1" stop-color="#0A77DC"/>
</linearGradient>
<linearGradient id="paint14_linear_520_4053" x1="-5" y1="-9.5" x2="66.5" y2="45" gradientUnits="userSpaceOnUse">
<stop stop-color="#0884F7"/>
<stop offset="1" stop-color="#0A77DC"/>
</linearGradient>
<linearGradient id="paint15_linear_520_4053" x1="-5" y1="-9.5" x2="66.5" y2="45" gradientUnits="userSpaceOnUse">
<stop stop-color="#0884F7"/>
<stop offset="1" stop-color="#0A77DC"/>
</linearGradient>
<linearGradient id="paint16_linear_520_4053" x1="-5" y1="-9.5" x2="66.5" y2="45" gradientUnits="userSpaceOnUse">
<stop stop-color="#0884F7"/>
<stop offset="1" stop-color="#0A77DC"/>
</linearGradient>
<linearGradient id="paint17_linear_520_4053" x1="-5" y1="-9.5" x2="66.5" y2="45" gradientUnits="userSpaceOnUse">
<stop stop-color="#0884F7"/>
<stop offset="1" stop-color="#0A77DC"/>
</linearGradient>
<linearGradient id="paint18_linear_520_4053" x1="-5" y1="-9.5" x2="66.5" y2="45" gradientUnits="userSpaceOnUse">
<stop stop-color="#0884F7"/>
<stop offset="1" stop-color="#0A77DC"/>
</linearGradient>
<linearGradient id="paint19_linear_520_4053" x1="-5" y1="-9.5" x2="66.5" y2="45" gradientUnits="userSpaceOnUse">
<stop stop-color="#0884F7"/>
<stop offset="1" stop-color="#0A77DC"/>
</linearGradient>
<linearGradient id="paint20_linear_520_4053" x1="-5" y1="-9.5" x2="66.5" y2="45" gradientUnits="userSpaceOnUse">
<stop stop-color="#0884F7"/>
<stop offset="1" stop-color="#0A77DC"/>
</linearGradient>
<linearGradient id="paint21_linear_520_4053" x1="-5" y1="-9.5" x2="66.5" y2="45" gradientUnits="userSpaceOnUse">
<stop stop-color="#0884F7"/>
<stop offset="1" stop-color="#0A77DC"/>
</linearGradient>
<linearGradient id="paint22_linear_520_4053" x1="-5" y1="-9.5" x2="66.5" y2="45" gradientUnits="userSpaceOnUse">
<stop stop-color="#0884F7"/>
<stop offset="1" stop-color="#0A77DC"/>
</linearGradient>
<linearGradient id="paint23_linear_520_4053" x1="-5" y1="-9.5" x2="66.5" y2="45" gradientUnits="userSpaceOnUse">
<stop stop-color="#0884F7"/>
<stop offset="1" stop-color="#0A77DC"/>
</linearGradient>
<linearGradient id="paint24_linear_520_4053" x1="-5" y1="-9.5" x2="66.5" y2="45" gradientUnits="userSpaceOnUse">
<stop stop-color="#0884F7"/>
<stop offset="1" stop-color="#0A77DC"/>
</linearGradient>
<linearGradient id="paint25_linear_520_4053" x1="-5" y1="-9.5" x2="66.5" y2="45" gradientUnits="userSpaceOnUse">
<stop stop-color="#0884F7"/>
<stop offset="1" stop-color="#0A77DC"/>
</linearGradient>
<linearGradient id="paint26_linear_520_4053" x1="-5" y1="-9.5" x2="66.5" y2="45" gradientUnits="userSpaceOnUse">
<stop stop-color="#0884F7"/>
<stop offset="1" stop-color="#0A77DC"/>
</linearGradient>
<linearGradient id="paint27_linear_520_4053" x1="-5" y1="-9.5" x2="66.5" y2="45" gradientUnits="userSpaceOnUse">
<stop stop-color="#0884F7"/>
<stop offset="1" stop-color="#0A77DC"/>
</linearGradient>
<linearGradient id="paint28_linear_520_4053" x1="-5" y1="-9.5" x2="66.5" y2="45" gradientUnits="userSpaceOnUse">
<stop stop-color="#0884F7"/>
<stop offset="1" stop-color="#0A77DC"/>
</linearGradient>
<linearGradient id="paint29_linear_520_4053" x1="-5" y1="-9.5" x2="66.5" y2="45" gradientUnits="userSpaceOnUse">
<stop stop-color="#0884F7"/>
<stop offset="1" stop-color="#0A77DC"/>
</linearGradient>
<linearGradient id="paint30_linear_520_4053" x1="-5" y1="-9.5" x2="66.5" y2="45" gradientUnits="userSpaceOnUse">
<stop stop-color="#0884F7"/>
<stop offset="1" stop-color="#0A77DC"/>
</linearGradient>
<linearGradient id="paint31_linear_520_4053" x1="-5" y1="-9.5" x2="66.5" y2="45" gradientUnits="userSpaceOnUse">
<stop stop-color="#0884F7"/>
<stop offset="1" stop-color="#0A77DC"/>
</linearGradient>
<linearGradient id="paint32_linear_520_4053" x1="-5" y1="-9.5" x2="66.5" y2="45" gradientUnits="userSpaceOnUse">
<stop stop-color="#0884F7"/>
<stop offset="1" stop-color="#0A77DC"/>
</linearGradient>
<linearGradient id="paint33_linear_520_4053" x1="-5" y1="-9.5" x2="66.5" y2="45" gradientUnits="userSpaceOnUse">
<stop stop-color="#0884F7"/>
<stop offset="1" stop-color="#0A77DC"/>
</linearGradient>
<linearGradient id="paint34_linear_520_4053" x1="-5" y1="-9.5" x2="66.5" y2="45" gradientUnits="userSpaceOnUse">
<stop stop-color="#0884F7"/>
<stop offset="1" stop-color="#0A77DC"/>
</linearGradient>
</defs>
</svg>
