<svg width="20" height="20" viewBox="0 0 20 20" fill="none" xmlns="http://www.w3.org/2000/svg">
<path d="M18.625 19.7715C18.7779 19.9193 18.9828 20.0012 19.1955 19.9995C19.4082 19.9977 19.6117 19.9125 19.7621 19.7621C19.9126 19.6118 19.998 19.4084 20 19.1957C20.0019 18.983 19.9202 18.778 19.7726 18.625L18.625 19.7715ZM15.1423 8.38233C15.1423 10.1752 14.4301 11.8946 13.1623 13.1623C11.8946 14.4301 10.1752 15.1423 8.38233 15.1423V16.7647C9.48311 16.7647 10.5731 16.5479 11.5901 16.1266C12.6071 15.7054 13.5312 15.0879 14.3095 14.3096C15.0879 13.5312 15.7053 12.6071 16.1266 11.5901C16.5478 10.5731 16.7647 9.48311 16.7647 8.38233H15.1423ZM8.38233 15.1423C6.58948 15.1423 4.87006 14.4301 3.60233 13.1623C2.33459 11.8946 1.62239 10.1752 1.62239 8.38233H0C0 10.6055 0.883137 12.7376 2.45513 14.3096C4.02712 15.8815 6.15919 16.7647 8.38233 16.7647V15.1423ZM1.62239 8.38233C1.62239 6.58948 2.33459 4.87004 3.60233 3.60231C4.87006 2.33457 6.58948 1.62239 8.38233 1.62239V0C6.15919 0 4.02712 0.883108 2.45513 2.4551C0.883137 4.02709 0 6.15919 0 8.38233H1.62239ZM8.38233 1.62239C10.1752 1.62239 11.8946 2.33457 13.1623 3.60231C14.4301 4.87004 15.1423 6.58948 15.1423 8.38233H16.7647C16.7647 7.28154 16.5478 6.19151 16.1266 5.17452C15.7053 4.15753 15.0879 3.23347 14.3095 2.4551C13.5312 1.67673 12.6071 1.05929 11.5901 0.638035C10.5731 0.216784 9.48311 0 8.38233 0V1.62239ZM19.7726 18.625L14.3635 13.217L13.216 14.3636L18.625 19.7715L19.7726 18.625Z" fill="#0884F7"/>
</svg>
