<svg width="40" height="40" viewBox="0 0 40 40" fill="none" xmlns="http://www.w3.org/2000/svg">
<rect width="40" height="40" rx="20" fill="#0884F7"/>
<path d="M28.625 29.7715C28.7779 29.9193 28.9828 30.0012 29.1955 29.9995C29.4082 29.9977 29.6117 29.9125 29.7621 29.7621C29.9126 29.6118 29.998 29.4084 30 29.1957C30.0019 28.983 29.9202 28.778 29.7726 28.625L28.625 29.7715ZM25.1423 18.3823C25.1423 20.1752 24.4301 21.8946 23.1623 23.1623C21.8946 24.4301 20.1752 25.1423 18.3823 25.1423V26.7647C19.4831 26.7647 20.5731 26.5479 21.5901 26.1266C22.6071 25.7054 23.5312 25.0879 24.3095 24.3096C25.0879 23.5312 25.7053 22.6071 26.1266 21.5901C26.5478 20.5731 26.7647 19.4831 26.7647 18.3823H25.1423ZM18.3823 25.1423C16.5895 25.1423 14.8701 24.4301 13.6023 23.1623C12.3346 21.8946 11.6224 20.1752 11.6224 18.3823H10C10 20.6055 10.8831 22.7376 12.4551 24.3096C14.0271 25.8815 16.1592 26.7647 18.3823 26.7647V25.1423ZM11.6224 18.3823C11.6224 16.5895 12.3346 14.87 13.6023 13.6023C14.8701 12.3346 16.5895 11.6224 18.3823 11.6224V10C16.1592 10 14.0271 10.8831 12.4551 12.4551C10.8831 14.0271 10 16.1592 10 18.3823H11.6224ZM18.3823 11.6224C20.1752 11.6224 21.8946 12.3346 23.1623 13.6023C24.4301 14.87 25.1423 16.5895 25.1423 18.3823H26.7647C26.7647 17.2815 26.5478 16.1915 26.1266 15.1745C25.7053 14.1575 25.0879 13.2335 24.3095 12.4551C23.5312 11.6767 22.6071 11.0593 21.5901 10.638C20.5731 10.2168 19.4831 10 18.3823 10V11.6224ZM29.7726 28.625L24.3635 23.217L23.216 24.3636L28.625 29.7715L29.7726 28.625Z" fill="white"/>
</svg>
