<svg width="244" height="297" viewBox="0 0 244 297" fill="none" xmlns="http://www.w3.org/2000/svg">
<path d="M20.0325 292.283C18.3508 294.636 15.8119 296.235 12.9627 296.735C10.1135 297.235 7.18186 296.596 4.79936 294.955C2.41683 293.314 0.774104 290.804 0.224792 287.964C-0.324519 285.124 0.263455 282.18 1.86243 279.77L20.0325 292.283ZM38.597 131.373C43.0077 155.355 56.764 176.602 76.8396 190.44C96.9152 204.278 121.666 209.575 145.646 205.164L149.637 226.865C134.914 229.573 119.801 229.355 105.162 226.222C90.5224 223.09 76.6435 217.104 64.3174 208.607C51.9912 200.111 41.4593 189.269 33.3228 176.702C25.1863 164.136 19.6046 150.089 16.8965 135.365L38.597 131.373ZM145.646 205.164C169.627 200.754 190.873 186.997 204.711 166.921C218.549 146.846 223.845 122.094 219.434 98.1132L241.135 94.1219C246.604 123.859 240.037 154.55 222.878 179.444C205.719 204.339 179.373 221.396 149.637 226.865L145.646 205.164ZM219.434 98.1132C215.023 74.132 201.267 52.885 181.192 39.0465C161.116 25.2081 136.365 19.9118 112.385 24.3224L108.394 2.62134C138.129 -2.84778 168.82 3.71956 193.714 20.8792C218.607 38.0389 235.665 64.3854 241.135 94.1219L219.434 98.1132ZM112.385 24.3224C88.4045 28.7329 67.1583 42.4891 53.3203 62.5651C39.4824 82.641 34.1863 107.392 38.597 131.373L16.8965 135.365C14.1884 120.641 14.4068 105.527 17.5394 90.8874C20.6719 76.2478 26.6572 62.3686 35.1535 50.0422C43.6498 37.7159 54.4907 27.1837 67.0572 19.0471C79.6238 10.9106 93.67 5.32938 108.394 2.62134L112.385 24.3224ZM1.86243 279.77L60.9073 194.126L79.0774 206.639L20.0325 292.283L1.86243 279.77Z" fill="#F9FAFA"/>
</svg>
