<svg width="21" height="21" viewBox="0 0 28 28" fill="none" xmlns="http://www.w3.org/2000/svg">
<path d="M26.0757 27.6808C26.2898 27.8878 26.5766 28.0024 26.8744 28C27.1721 27.9975 27.457 27.8782 27.6677 27.6677C27.8784 27.4572 27.998 27.1725 28.0007 26.8747C28.0034 26.5769 27.8891 26.2899 27.6823 26.0756L26.0757 27.6808ZM21.1997 11.7356C21.1997 14.2456 20.2026 16.6529 18.4277 18.4278C16.6529 20.2026 14.2456 21.1997 11.7356 21.1997V23.4711C13.2767 23.4711 14.8027 23.1676 16.2266 22.5778C17.6504 21.9881 18.9441 21.1236 20.0339 20.0339C21.1236 18.9441 21.988 17.6504 22.5778 16.2266C23.1676 14.8028 23.4711 13.2767 23.4711 11.7356H21.1997ZM11.7356 21.1997C9.22551 21.1997 6.81826 20.2026 5.04339 18.4278C3.26851 16.6529 2.2714 14.2456 2.2714 11.7356H0C0 14.848 1.23642 17.833 3.43727 20.0339C5.63811 22.2347 8.6231 23.4711 11.7356 23.4711V21.1997ZM2.2714 11.7356C2.2714 9.22551 3.26851 6.81824 5.04339 5.04336C6.81826 3.26849 9.22551 2.2714 11.7356 2.2714V0C8.6231 0 5.63811 1.23638 3.43727 3.43723C1.23642 5.63807 0 8.6231 0 11.7356H2.2714ZM11.7356 2.2714C14.2456 2.2714 16.6529 3.26849 18.4277 5.04336C20.2026 6.81824 21.1997 9.22551 21.1997 11.7356H23.4711C23.4711 10.1944 23.1676 8.66834 22.5778 7.24452C21.988 5.8207 21.1236 4.52698 20.0339 3.43723C18.9441 2.34748 17.6504 1.48304 16.2266 0.893273C14.8027 0.303506 13.2767 0 11.7356 0V2.2714ZM27.6823 26.0756L20.1095 18.5043L18.5028 20.1095L26.0757 27.6808L27.6823 26.0756Z" fill="white"/>
</svg>
