<svg width="12" height="9" viewBox="0 0 16 9" fill="none" xmlns="http://www.w3.org/2000/svg">
<path d="M1.50847 0.252957C1.34059 0.0888098 1.11575 -0.00201908 0.882369 3.40648e-05C0.648987 0.00208721 0.42573 0.096858 0.260698 0.263934C0.0956652 0.43101 0.00206168 0.657024 3.36495e-05 0.893297C-0.00199438 1.12957 0.0877197 1.3572 0.249859 1.52715L7.3707 8.73616C7.53761 8.9051 7.76398 9 8 9C8.23602 9 8.46239 8.9051 8.6293 8.73616L15.7501 1.52715C15.9123 1.3572 16.002 1.12957 16 0.893297C15.9979 0.657024 15.9043 0.43101 15.7393 0.263934C15.5743 0.096858 15.351 0.00208721 15.1176 3.40648e-05C14.8842 -0.00201908 14.6594 0.0888098 14.4915 0.252957L8 6.82487L1.50847 0.252957Z" fill="#000C17"/>
</svg>
