<svg width="721" height="748" viewBox="0 0 721 748" fill="none" xmlns="http://www.w3.org/2000/svg">
<path d="M720 268C720 532.544 505.544 747 241 747C-23.5444 747 -238 532.544 -238 268C-238 3.4556 -23.5444 -211 241 -211C505.544 -211 720 3.4556 720 268Z" stroke="url(#paint0_linear_220_7681)" stroke-opacity="0.09" stroke-width="0.7" stroke-linecap="square" stroke-dasharray="20 20"/>
<path d="M685.164 268C685.164 513.305 486.305 712.164 241 712.164C-4.3048 712.164 -203.164 513.305 -203.164 268C-203.164 22.6952 -4.3048 -176.164 241 -176.164C486.305 -176.164 685.164 22.6952 685.164 268Z" stroke="url(#paint1_linear_220_7681)" stroke-opacity="0.09" stroke-width="0.7" stroke-linecap="square" stroke-dasharray="20 20"/>
<path d="M650.327 271.484C650.327 495.625 468.625 677.327 244.484 677.327C20.3424 677.327 -161.36 495.625 -161.36 271.484C-161.36 47.3424 20.3424 -134.36 244.484 -134.36C468.625 -134.36 650.327 47.3424 650.327 271.484Z" stroke="url(#paint2_linear_220_7681)" stroke-opacity="0.09" stroke-width="0.7" stroke-linecap="square" stroke-dasharray="20 20"/>
<path d="M615.491 271.484C615.491 476.385 449.385 642.491 244.484 642.491C39.582 642.491 -126.524 476.385 -126.524 271.484C-126.524 66.582 39.582 -99.5236 244.484 -99.5236C449.385 -99.5236 615.491 66.582 615.491 271.484Z" stroke="url(#paint3_linear_220_7681)" stroke-opacity="0.09" stroke-width="0.7" stroke-linecap="square" stroke-dasharray="20 20"/>
<path d="M580.655 271.484C580.655 457.146 430.146 607.655 244.484 607.655C58.8216 607.655 -91.6873 457.146 -91.6873 271.484C-91.6873 85.8216 58.8216 -64.6873 244.484 -64.6873C430.146 -64.6873 580.655 85.8216 580.655 271.484Z" stroke="url(#paint4_linear_220_7681)" stroke-opacity="0.09" stroke-width="0.7" stroke-linecap="square" stroke-dasharray="20 20"/>
<path d="M545.818 271.484C545.818 437.906 410.906 572.818 244.484 572.818C78.0612 572.818 -56.8509 437.906 -56.8509 271.484C-56.8509 105.061 78.0612 -29.8509 244.484 -29.8509C410.906 -29.8509 545.818 105.061 545.818 271.484Z" stroke="url(#paint5_linear_220_7681)" stroke-opacity="0.09" stroke-width="0.7" stroke-linecap="square" stroke-dasharray="20 20"/>
<path d="M510.982 271.484C510.982 418.667 391.667 537.982 244.484 537.982C97.3008 537.982 -22.0145 418.667 -22.0145 271.484C-22.0145 124.301 97.3008 4.98546 244.484 4.98546C391.667 4.98546 510.982 124.301 510.982 271.484Z" stroke="url(#paint6_linear_220_7681)" stroke-opacity="0.09" stroke-width="0.7" stroke-linecap="square" stroke-dasharray="20 20"/>
<path d="M476.145 271.484C476.145 399.427 372.427 503.145 244.484 503.145C116.54 503.145 12.8218 399.427 12.8218 271.484C12.8218 143.54 116.54 39.8218 244.484 39.8218C372.427 39.8218 476.145 143.54 476.145 271.484Z" stroke="url(#paint7_linear_220_7681)" stroke-opacity="0.09" stroke-width="0.7" stroke-linecap="square" stroke-dasharray="20 20"/>
<path d="M441.309 271.484C441.309 380.187 353.187 468.309 244.484 468.309C135.78 468.309 47.6582 380.187 47.6582 271.484C47.6582 162.78 135.78 74.6582 244.484 74.6582C353.187 74.6582 441.309 162.78 441.309 271.484Z" stroke="url(#paint8_linear_220_7681)" stroke-opacity="0.09" stroke-width="0.7" stroke-linecap="square" stroke-dasharray="20 20"/>
<path d="M406.473 271.484C406.473 360.948 333.948 433.473 244.484 433.473C155.02 433.473 82.4945 360.948 82.4945 271.484C82.4945 182.02 155.02 109.495 244.484 109.495C333.948 109.495 406.473 182.02 406.473 271.484Z" stroke="url(#paint9_linear_220_7681)" stroke-opacity="0.09" stroke-width="0.7" stroke-linecap="square" stroke-dasharray="20 20"/>
<path d="M371.636 271.484C371.636 341.708 314.708 398.636 244.484 398.636C174.259 398.636 117.331 341.708 117.331 271.484C117.331 201.259 174.259 144.331 244.484 144.331C314.708 144.331 371.636 201.259 371.636 271.484Z" stroke="url(#paint10_linear_220_7681)" stroke-opacity="0.09" stroke-width="0.7" stroke-linecap="square" stroke-dasharray="20 20"/>
<path d="M336.8 271.484C336.8 322.469 295.469 363.8 244.484 363.8C193.499 363.8 152.167 322.469 152.167 271.484C152.167 220.499 193.499 179.167 244.484 179.167C295.469 179.167 336.8 220.499 336.8 271.484Z" stroke="url(#paint11_linear_220_7681)" stroke-opacity="0.09" stroke-width="0.7" stroke-linecap="square" stroke-dasharray="20 20"/>
<path d="M301.964 271.484C301.964 303.229 276.229 328.964 244.484 328.964C212.738 328.964 187.004 303.229 187.004 271.484C187.004 239.738 212.738 214.004 244.484 214.004C276.229 214.004 301.964 239.738 301.964 271.484Z" stroke="url(#paint12_linear_220_7681)" stroke-opacity="0.09" stroke-width="0.7" stroke-linecap="square" stroke-dasharray="20 20"/>
<path d="M267.127 271.484C267.127 283.989 256.989 294.127 244.484 294.127C231.978 294.127 221.84 283.989 221.84 271.484C221.84 258.978 231.978 248.84 244.484 248.84C256.989 248.84 267.127 258.978 267.127 271.484Z" stroke="url(#paint13_linear_220_7681)" stroke-opacity="0.09" stroke-width="0.7" stroke-linecap="square" stroke-dasharray="20 20"/>
<defs>
<linearGradient id="paint0_linear_220_7681" x1="-4.36564e-06" y1="19" x2="593" y2="672.5" gradientUnits="userSpaceOnUse">
<stop stop-color="white"/>
<stop offset="1" stop-color="white" stop-opacity="0.5"/>
</linearGradient>
<linearGradient id="paint1_linear_220_7681" x1="-4.36564e-06" y1="19" x2="593" y2="672.5" gradientUnits="userSpaceOnUse">
<stop stop-color="white"/>
<stop offset="1" stop-color="white" stop-opacity="0.5"/>
</linearGradient>
<linearGradient id="paint2_linear_220_7681" x1="-4.36564e-06" y1="19" x2="593" y2="672.5" gradientUnits="userSpaceOnUse">
<stop stop-color="white"/>
<stop offset="1" stop-color="white" stop-opacity="0.5"/>
</linearGradient>
<linearGradient id="paint3_linear_220_7681" x1="-4.36564e-06" y1="19" x2="593" y2="672.5" gradientUnits="userSpaceOnUse">
<stop stop-color="white"/>
<stop offset="1" stop-color="white" stop-opacity="0.5"/>
</linearGradient>
<linearGradient id="paint4_linear_220_7681" x1="-4.36564e-06" y1="19" x2="593" y2="672.5" gradientUnits="userSpaceOnUse">
<stop stop-color="white"/>
<stop offset="1" stop-color="white" stop-opacity="0.5"/>
</linearGradient>
<linearGradient id="paint5_linear_220_7681" x1="-4.36564e-06" y1="19" x2="593" y2="672.5" gradientUnits="userSpaceOnUse">
<stop stop-color="white"/>
<stop offset="1" stop-color="white" stop-opacity="0.5"/>
</linearGradient>
<linearGradient id="paint6_linear_220_7681" x1="-4.36564e-06" y1="19" x2="593" y2="672.5" gradientUnits="userSpaceOnUse">
<stop stop-color="white"/>
<stop offset="1" stop-color="white" stop-opacity="0.5"/>
</linearGradient>
<linearGradient id="paint7_linear_220_7681" x1="-4.36564e-06" y1="19" x2="593" y2="672.5" gradientUnits="userSpaceOnUse">
<stop stop-color="white"/>
<stop offset="1" stop-color="white" stop-opacity="0.5"/>
</linearGradient>
<linearGradient id="paint8_linear_220_7681" x1="-4.36564e-06" y1="19" x2="593" y2="672.5" gradientUnits="userSpaceOnUse">
<stop stop-color="white"/>
<stop offset="1" stop-color="white" stop-opacity="0.5"/>
</linearGradient>
<linearGradient id="paint9_linear_220_7681" x1="-4.36564e-06" y1="19" x2="593" y2="672.5" gradientUnits="userSpaceOnUse">
<stop stop-color="white"/>
<stop offset="1" stop-color="white" stop-opacity="0.5"/>
</linearGradient>
<linearGradient id="paint10_linear_220_7681" x1="-4.36564e-06" y1="19" x2="593" y2="672.5" gradientUnits="userSpaceOnUse">
<stop stop-color="white"/>
<stop offset="1" stop-color="white" stop-opacity="0.5"/>
</linearGradient>
<linearGradient id="paint11_linear_220_7681" x1="-4.36564e-06" y1="19" x2="593" y2="672.5" gradientUnits="userSpaceOnUse">
<stop stop-color="white"/>
<stop offset="1" stop-color="white" stop-opacity="0.5"/>
</linearGradient>
<linearGradient id="paint12_linear_220_7681" x1="-4.36564e-06" y1="19" x2="593" y2="672.5" gradientUnits="userSpaceOnUse">
<stop stop-color="white"/>
<stop offset="1" stop-color="white" stop-opacity="0.5"/>
</linearGradient>
<linearGradient id="paint13_linear_220_7681" x1="-4.36564e-06" y1="19" x2="593" y2="672.5" gradientUnits="userSpaceOnUse">
<stop stop-color="white"/>
<stop offset="1" stop-color="white" stop-opacity="0.5"/>
</linearGradient>
</defs>
</svg>
