<svg width="58" height="51" viewBox="0 0 58 51" fill="none" xmlns="http://www.w3.org/2000/svg">
<path d="M3.54559 17.6406C3.60939 17.2557 3.81686 16.9642 4.05914 16.7957C4.28685 16.6374 4.52779 16.5925 4.78279 16.658C12.4765 18.6335 19.6414 22.3368 25.7216 27.5097C31.8018 32.6826 36.6052 39.1617 39.7878 46.4395C39.8932 46.6807 39.8876 46.9257 39.7678 47.1759C39.6403 47.442 39.3858 47.6935 39.0161 47.8181C38.3764 48.0338 37.3766 47.7345 36.9037 46.7051C33.8907 40.1458 29.4755 34.3014 23.9458 29.5969C18.4162 24.8925 11.94 21.4706 4.9827 19.5474C3.89083 19.2455 3.43519 18.3066 3.54559 17.6406ZM14.5755 4.83937C14.7506 3.78272 15.6404 3.37676 16.2763 3.54002C24.6542 5.6912 32.4564 9.72382 39.0773 15.3568C45.6983 20.9897 50.9288 28.0451 54.3944 35.9701C54.6575 36.5716 54.3993 37.515 53.3844 37.8571C52.5321 38.1445 51.3039 37.7298 50.7374 36.4966C47.4909 29.429 42.7335 23.1316 36.7753 18.0626C30.8172 12.9935 23.839 9.30639 16.3425 7.23414C15.0345 6.87257 14.4284 5.72662 14.5755 4.83937Z" stroke="url(#paint0_linear_220_7687)" stroke-width="7"/>
<path d="M1 51.3906C1 50.0774 1.24573 48.777 1.72314 47.5638C2.20057 46.3505 2.90033 45.2481 3.78249 44.3196C4.66464 43.391 5.71191 42.6544 6.86451 42.1518C8.0171 41.6493 9.25244 41.3906 10.5 41.3906C11.7476 41.3906 12.9829 41.6493 14.1355 42.1518C15.2881 42.6544 16.3354 43.391 17.2175 44.3196C18.0997 45.2481 18.7994 46.3505 19.2769 47.5638C19.7543 48.777 20 50.0774 20 51.3906L1 51.3906Z" fill="#1D7DFE" fill-opacity="0.7"/>
<path d="M1.74846e-06 31.3906C1.31322 31.3906 2.61358 31.6493 3.82684 32.1518C5.04009 32.6544 6.14248 33.391 7.07107 34.3196C7.99965 35.2481 8.73625 36.3505 9.2388 37.5638C9.74134 38.777 10 40.0774 10 41.3906C10 42.7038 9.74134 44.0042 9.2388 45.2175C8.73625 46.4307 7.99965 47.5331 7.07107 48.4617C6.14248 49.3903 5.04009 50.1269 3.82683 50.6294C2.61358 51.132 1.31322 51.3906 0 51.3906L1.74846e-06 31.3906Z" fill="#1D7DFE" fill-opacity="0.7"/>
<defs>
<linearGradient id="paint0_linear_220_7687" x1="-54.6594" y1="80.1607" x2="59.5432" y2="20.4525" gradientUnits="userSpaceOnUse">
<stop stop-color="#C9E0FF" stop-opacity="0.41"/>
<stop offset="1" stop-color="#1D7DFE" stop-opacity="0"/>
</linearGradient>
</defs>
</svg>
