<svg width="44" height="44" viewBox="0 0 44 44" fill="none" xmlns="http://www.w3.org/2000/svg">
<path opacity="0.4" d="M22.9144 13.5869V40.3353H7.47771C5.35104 40.3353 3.60938 38.6303 3.60938 36.5403V9.33361C3.60938 4.53028 7.20271 2.34861 11.5844 4.49361L19.706 8.50861C21.466 9.37028 22.9144 11.6619 22.9144 13.5869Z" fill="#0884F7"/>
<path d="M16.4476 17.875H10.0859C9.33427 17.875 8.71094 17.2517 8.71094 16.5C8.71094 15.7483 9.33427 15.125 10.0859 15.125H16.4476C17.1993 15.125 17.8226 15.7483 17.8226 16.5C17.8226 17.2517 17.2176 17.875 16.4476 17.875Z" fill="#0884F7"/>
<path d="M16.4476 25.207H10.0859C9.33427 25.207 8.71094 24.5837 8.71094 23.832C8.71094 23.0804 9.33427 22.457 10.0859 22.457H16.4476C17.1993 22.457 17.8226 23.0804 17.8226 23.832C17.8226 24.5837 17.2176 25.207 16.4476 25.207Z" fill="#0884F7"/>
<path opacity="0.6" d="M40.3307 27.5899V35.7482C40.3307 38.2782 38.2774 40.3316 35.7474 40.3316H22.9141V19.1016L23.7757 19.2849L31.1824 20.9349L32.0624 21.1366L35.8024 21.9799C36.7007 22.1632 37.5257 22.4749 38.2407 22.9332C38.2407 22.9516 38.2591 22.9516 38.2591 22.9516C38.4424 23.0799 38.6257 23.2266 38.7907 23.3916C39.6341 24.2349 40.1841 25.4632 40.3124 27.2599C40.3124 27.3699 40.3307 27.4799 40.3307 27.5899Z" fill="#0884F7"/>
<path d="M22.9141 19.1016V30.1016C23.7574 31.2199 25.0774 31.9349 26.5807 31.9349C29.1291 31.9349 31.1824 29.8816 31.1824 27.3516V20.9532L23.7757 19.3032L22.9141 19.1016Z" fill="#0884F7"/>
<path d="M40.3175 27.2625C40.1892 25.4658 39.6392 24.2375 38.7958 23.3942C38.6308 23.2292 38.4475 23.0825 38.2642 22.9542C38.2642 22.9542 38.2458 22.9542 38.2458 22.9358C37.5308 22.4775 36.7058 22.1658 35.8075 21.9825L32.0675 21.1392L31.1875 20.9375V27.3542C31.1875 29.8658 33.2225 31.9375 35.7708 31.9375C38.2275 31.9375 40.1892 30.0125 40.3358 27.6108V27.5925C40.3358 27.4825 40.3175 27.3725 40.3175 27.2625Z" fill="#0884F7"/>
</svg>
