<svg width="44" height="44" viewBox="0 0 44 44" fill="none" xmlns="http://www.w3.org/2000/svg">
<path fill-rule="evenodd" clip-rule="evenodd" d="M14.6641 2.29297C15.4235 2.29297 16.0391 2.90858 16.0391 3.66797V9.16797C16.0391 9.92736 15.4235 10.543 14.6641 10.543C13.9047 10.543 13.2891 9.92736 13.2891 9.16797V3.66797C13.2891 2.90858 13.9047 2.29297 14.6641 2.29297Z" fill="#0884F7"/>
<path fill-rule="evenodd" clip-rule="evenodd" d="M29.3359 2.29297C30.0953 2.29297 30.7109 2.90858 30.7109 3.66797V9.16797C30.7109 9.92736 30.0953 10.543 29.3359 10.543C28.5765 10.543 27.9609 9.92736 27.9609 9.16797V3.66797C27.9609 2.90858 28.5765 2.29297 29.3359 2.29297Z" fill="#0884F7"/>
<path opacity="0.4" d="M39.4193 15.3463V31.4063C39.4193 31.6996 39.4009 31.993 39.3826 32.268H4.6226C4.60427 31.993 4.58594 31.6996 4.58594 31.4063V15.3463C4.58594 10.4146 8.5826 6.41797 13.5143 6.41797H30.4909C35.4226 6.41797 39.4193 10.4146 39.4193 15.3463Z" fill="#0884F7"/>
<path d="M39.3772 32.2656C38.9372 36.794 35.1239 40.3323 30.4855 40.3323H13.5089C8.87052 40.3323 5.05719 36.794 4.61719 32.2656H39.3772Z" fill="#0884F7"/>
<path d="M24.8024 21.3045C25.6274 20.7362 26.1407 19.8929 26.1407 18.7562C26.1407 16.3729 24.2341 15.1445 21.9974 15.1445C19.7607 15.1445 17.8357 16.3729 17.8357 18.7562C17.8357 19.8929 18.3674 20.7545 19.1741 21.3045C18.0557 21.9645 17.4141 23.0279 17.4141 24.2745C17.4141 26.5479 19.1557 27.9595 21.9974 27.9595C24.8207 27.9595 26.5807 26.5479 26.5807 24.2745C26.5807 23.0279 25.9391 21.9462 24.8024 21.3045ZM21.9974 17.4179C22.9507 17.4179 23.6474 17.9495 23.6474 18.8662C23.6474 19.7645 22.9507 20.3329 21.9974 20.3329C21.0441 20.3329 20.3474 19.7645 20.3474 18.8662C20.3474 17.9495 21.0441 17.4179 21.9974 17.4179ZM21.9974 25.6679C20.7874 25.6679 19.9074 25.0629 19.9074 23.9629C19.9074 22.8629 20.7874 22.2762 21.9974 22.2762C23.2074 22.2762 24.0874 22.8812 24.0874 23.9629C24.0874 25.0629 23.2074 25.6679 21.9974 25.6679Z" fill="#0884F7"/>
</svg>
