<svg width="44" height="44" viewBox="0 0 44 44" fill="none" xmlns="http://www.w3.org/2000/svg">
<path opacity="0.4" d="M18.3124 32.9646C26.4024 32.9646 32.9607 26.4063 32.9607 18.3163C32.9607 10.2263 26.4024 3.66797 18.3124 3.66797C10.2223 3.66797 3.66406 10.2263 3.66406 18.3163C3.66406 26.4063 10.2223 32.9646 18.3124 32.9646Z" fill="#0884F7"/>
<path d="M40.2775 29.3142C40.2775 35.3642 35.3642 40.2775 29.3142 40.2775C25.5742 40.2775 22.2925 38.4075 20.3125 35.5658C28.3058 34.6675 34.6675 28.3058 35.5658 20.3125C38.4075 22.2925 40.2775 25.5742 40.2775 29.3142Z" fill="#0884F7"/>
<path d="M20.9891 17.8L16.5891 16.26C16.1491 16.1133 16.0574 16.0767 16.0574 15.435C16.0574 14.9583 16.3874 14.5733 16.8091 14.5733H19.5591C20.1457 14.5733 20.6224 15.105 20.6224 15.765C20.6224 16.5167 21.2457 17.14 21.9974 17.14C22.7491 17.14 23.3724 16.5167 23.3724 15.765C23.3724 13.6567 21.7407 11.9333 19.7057 11.8417V11.75C19.7057 10.9983 19.0824 10.375 18.3307 10.375C17.5791 10.375 16.9557 10.98 16.9557 11.75V11.8417H16.7907C14.8657 11.8417 13.2891 13.455 13.2891 15.4533C13.2891 17.195 14.0591 18.3133 15.6541 18.8633L20.0724 20.4033C20.5124 20.55 20.6041 20.5867 20.6041 21.2283C20.6041 21.705 20.2741 22.09 19.8524 22.09H17.1024C16.5157 22.09 16.0391 21.5583 16.0391 20.8983C16.0391 20.1467 15.4157 19.5233 14.6641 19.5233C13.9124 19.5233 13.2891 20.1467 13.2891 20.8983C13.2891 23.0067 14.9207 24.73 16.9557 24.8217V24.9317C16.9557 25.6833 17.5791 26.3067 18.3307 26.3067C19.0824 26.3067 19.7057 25.6833 19.7057 24.9317V24.84H19.8707C21.7957 24.84 23.3724 23.2267 23.3724 21.2283C23.3724 19.4867 22.5841 18.3683 20.9891 17.8Z" fill="#0884F7"/>
</svg>
