<svg width="44" height="44" viewBox="0 0 44 44" fill="none" xmlns="http://www.w3.org/2000/svg">
<path opacity="0.4" d="M33.6385 36.08C32.6301 38.665 30.1735 40.3333 27.4051 40.3333H16.5885C13.8018 40.3333 11.3635 38.665 10.3551 36.08C9.34679 33.4767 10.0435 30.5983 12.0968 28.7283L19.5218 22H24.4901L31.8968 28.7283C33.9501 30.5983 34.6285 33.4767 33.6385 36.08Z" fill="#0884F7"/>
<path d="M25.3341 33.255H18.6607C17.9641 33.255 17.4141 32.6867 17.4141 32.0084C17.4141 31.3117 17.9824 30.7617 18.6607 30.7617H25.3341C26.0307 30.7617 26.5807 31.33 26.5807 32.0084C26.5807 32.6867 26.0124 33.255 25.3341 33.255Z" fill="#0884F7"/>
<path d="M33.6455 7.9213C32.6371 5.3363 30.1805 3.66797 27.4121 3.66797H16.5955C13.8271 3.66797 11.3705 5.3363 10.3621 7.9213C9.37213 10.5246 10.0505 13.403 12.1221 15.273L19.5288 22.0013H24.4971L31.9038 15.273C33.9571 13.403 34.6355 10.5246 33.6455 7.9213ZM25.3405 13.2563H18.6671C17.9705 13.2563 17.4205 12.688 17.4205 12.0096C17.4205 11.3313 17.9888 10.763 18.6671 10.763H25.3405C26.0371 10.763 26.5871 11.3313 26.5871 12.0096C26.5871 12.688 26.0188 13.2563 25.3405 13.2563Z" fill="#0884F7"/>
</svg>
