<svg width="40" height="40" viewBox="0 0 40 40" fill="none" xmlns="http://www.w3.org/2000/svg">
<mask id="path-1-inside-1_1531_28934" fill="white">
<path d="M0 20C0 8.95431 8.95431 0 20 0H40V40H20C8.95431 40 0 31.0457 0 20Z"/>
</mask>
<path d="M0 20C0 8.95431 8.95431 0 20 0H40V40H20C8.95431 40 0 31.0457 0 20Z" fill="#F9FAFA"/>
<path d="M0 0H40H0ZM40 40H0H40ZM18 40C6.95431 40 -2 31.0457 -2 20C-2 8.9543 6.95431 0 18 0H20C10.0589 0 2 8.9543 2 20C2 31.0457 10.0589 40 20 40H18ZM40 0V40V0Z" fill="#333D45" mask="url(#path-1-inside-1_1531_28934)"/>
<path d="M32 20.75C32.4142 20.75 32.75 20.4142 32.75 20C32.75 19.5858 32.4142 19.25 32 19.25V20.75ZM15.4697 19.4697C15.1768 19.7626 15.1768 20.2374 15.4697 20.5303L20.2426 25.3033C20.5355 25.5962 21.0104 25.5962 21.3033 25.3033C21.5962 25.0104 21.5962 24.5355 21.3033 24.2426L17.0607 20L21.3033 15.7574C21.5962 15.4645 21.5962 14.9896 21.3033 14.6967C21.0104 14.4038 20.5355 14.4038 20.2426 14.6967L15.4697 19.4697ZM32 19.25L16 19.25V20.75L32 20.75V19.25Z" fill="#333D45"/>
</svg>
