<svg width="12" height="12" viewBox="0 0 12 12" fill="none" xmlns="http://www.w3.org/2000/svg">
<path d="M1.89053 9.65149C1.79934 9.74592 1.74888 9.87239 1.75002 10.0037C1.75116 10.1349 1.80381 10.2605 1.89663 10.3534C1.98945 10.4462 2.11501 10.4988 2.24628 10.5C2.37754 10.5011 2.504 10.4507 2.59842 10.3595L6.60342 6.35398C6.69728 6.26009 6.75 6.13276 6.75 6C6.75 5.86724 6.69728 5.73991 6.60342 5.64602L2.59842 1.64055C2.504 1.54934 2.37754 1.49888 2.24628 1.50002C2.11501 1.50116 1.98945 1.55381 1.89663 1.64664C1.80381 1.73947 1.75116 1.86506 1.75002 1.99633C1.74888 2.12761 1.79934 2.25408 1.89053 2.34851L5.5416 6L1.89053 9.65149Z" fill="#A1A8AE"/>
<path d="M5.89053 9.65149C5.79934 9.74592 5.74888 9.87239 5.75002 10.0037C5.75116 10.1349 5.80381 10.2605 5.89663 10.3534C5.98945 10.4462 6.11501 10.4988 6.24628 10.5C6.37754 10.5011 6.504 10.4507 6.59842 10.3595L10.6034 6.35398C10.6973 6.26009 10.75 6.13276 10.75 6C10.75 5.86724 10.6973 5.73991 10.6034 5.64602L6.59842 1.64055C6.504 1.54934 6.37754 1.49888 6.24628 1.50002C6.11501 1.50116 5.98945 1.55381 5.89663 1.64664C5.80381 1.73947 5.75116 1.86506 5.75002 1.99633C5.74888 2.12761 5.79934 2.25408 5.89053 2.34851L9.5416 6L5.89053 9.65149Z" fill="#A1A8AE"/>
</svg>
