<svg width="64" height="64" viewBox="0 0 64 64" fill="none" xmlns="http://www.w3.org/2000/svg">
<rect x="3" y="3" width="58" height="58" rx="29" fill="white" stroke="#ECF0F3" stroke-width="6"/>
<path d="M33.4924 21.8508L35.894 26.5161C36.0187 26.7557 36.2026 26.9626 36.4299 27.1186C36.6571 27.2746 36.9207 27.3751 37.1977 27.4113L42.5756 28.1587C42.8839 28.2096 43.1718 28.3402 43.4082 28.5364C43.6446 28.7326 43.8205 28.987 43.9167 29.2721C44.013 29.5571 44.0261 29.862 43.9545 30.1536C43.8829 30.4452 43.7293 30.7126 43.5105 30.9267L39.6165 34.557C39.4223 34.7424 39.2773 34.9697 39.1938 35.2197C39.1102 35.4698 39.0904 35.7355 39.1362 35.9944L40.0539 41.1196C40.0992 41.4164 40.0588 41.7194 39.9371 41.9958C39.8153 42.2722 39.6169 42.5114 39.3632 42.6874C39.1096 42.8635 38.8104 42.9696 38.4982 42.9944C38.186 43.0192 37.8727 42.9616 37.5923 42.828L32.7891 40.405C32.5452 40.284 32.2746 40.2209 32 40.2209C31.7254 40.2209 31.4547 40.284 31.2109 40.405L26.3992 42.828C26.119 42.9595 25.8067 43.0153 25.4959 42.9895C25.1851 42.9637 24.8875 42.8572 24.6351 42.6814C24.3828 42.5057 24.1853 42.2674 24.0639 41.9922C23.9425 41.717 23.9018 41.4153 23.9461 41.1196L24.8638 35.9944C24.9085 35.7348 24.8874 35.4688 24.8023 35.2186C24.7172 34.9685 24.5707 34.7416 24.3749 34.557L20.4895 30.9267C20.2707 30.7126 20.1172 30.4452 20.0455 30.1536C19.9739 29.862 19.987 29.5571 20.0832 29.2721C20.1795 28.987 20.3554 28.7326 20.5918 28.5364C20.8282 28.3402 21.1161 28.2096 21.4244 28.1587L26.8023 27.4113C27.0739 27.3722 27.3317 27.2713 27.5541 27.1169C27.7765 26.9625 27.957 26.7593 28.0803 26.5243L30.4819 21.859C30.6288 21.5999 30.8458 21.3833 31.1102 21.2322C31.3746 21.0811 31.6767 21.0008 31.9846 21C32.2925 20.9992 32.595 21.0777 32.8603 21.2274C33.1256 21.3771 33.344 21.5924 33.4924 21.8508Z" fill="#F77B08"/>
</svg>
