<svg width="18" height="18" viewBox="0 0 18 18" fill="none" xmlns="http://www.w3.org/2000/svg">
<path d="M3.12661 0.224632L16.7831 7.01749C17.1482 7.19919 17.4558 7.4814 17.6709 7.83195C17.886 8.18251 18.0001 8.58736 18 9.00049C17.9999 9.41363 17.8858 9.81841 17.6706 10.1689C17.4554 10.5193 17.1477 10.8013 16.7826 10.9829L3.1276 17.7748C2.73462 17.9706 2.29262 18.041 1.85952 17.977C1.42643 17.913 1.02246 17.7175 0.700547 17.4162C0.37863 17.1148 0.153757 16.7216 0.0554703 16.2881C-0.042816 15.8547 -0.00994244 15.4011 0.149736 14.987L2.30017 9.40163C2.39957 9.14322 2.39953 8.85622 2.3001 8.59779L0.149817 3.01135C-0.00953057 2.59733 -0.0421793 2.14406 0.0561512 1.7109C0.154482 1.27774 0.379213 0.884851 0.700911 0.583691C1.02261 0.282532 1.42628 0.0871132 1.85909 0.0230423C2.29191 -0.0410285 2.7337 0.0292575 3.12661 0.224632Z" fill="white"/>
</svg>
