<svg width="76" height="12" viewBox="0 0 76 12" fill="none" xmlns="http://www.w3.org/2000/svg">
<g clip-path="url(#clip0_220_7315)">
<path d="M5.43489 0.317168L3.68023 3.21903C3.63296 3.29711 3.56975 3.36453 3.49466 3.41695C3.41957 3.46938 3.33422 3.50566 3.24416 3.52345L0.529172 4.06176C0.415953 4.08427 0.310716 4.13591 0.223964 4.2115C0.137213 4.28709 0.0720333 4.38396 0.0349379 4.49242C-0.00215758 4.60088 -0.00988998 4.71709 0.012586 4.82943C0.0350619 4.94176 0.0869392 5.04627 0.162979 5.13246L2.08954 7.31703C2.15374 7.38975 2.20086 7.47569 2.22751 7.56866C2.25417 7.66164 2.25969 7.75933 2.24367 7.85467L1.67527 11.2399C1.65576 11.3567 1.66858 11.4766 1.71242 11.5867C1.75625 11.6968 1.82946 11.793 1.92416 11.8651C2.01885 11.9371 2.13149 11.9823 2.25007 11.9958C2.36865 12.0092 2.48869 11.9905 2.59737 11.9415L5.72731 10.5305C5.81295 10.4918 5.90593 10.4719 6 10.4719C6.09407 10.4719 6.18705 10.4918 6.27269 10.5305L9.40263 11.9415C9.51131 11.9905 9.63135 12.0092 9.74993 11.9958C9.86851 11.9823 9.98115 11.9371 10.0758 11.8651C10.1705 11.793 10.2437 11.6968 10.2876 11.5867C10.3314 11.4766 10.3442 11.3567 10.3247 11.2399L9.75632 7.85467C9.74031 7.75933 9.74583 7.66164 9.77249 7.56866C9.79914 7.47569 9.84626 7.38975 9.91046 7.31703L11.837 5.13246C11.9131 5.04627 11.9649 4.94176 11.9874 4.82943C12.0099 4.71709 12.0022 4.60088 11.9651 4.49242C11.928 4.38396 11.8628 4.28709 11.776 4.2115C11.6893 4.13591 11.584 4.08427 11.4708 4.06176L8.75584 3.52345C8.66578 3.50566 8.58043 3.46938 8.50534 3.41695C8.43025 3.36453 8.36704 3.29711 8.31977 3.21903L6.56447 0.317168C6.50595 0.220431 6.42316 0.140373 6.32418 0.0847894C6.2252 0.0292061 6.11342 0 5.99968 0C5.88594 0 5.77411 0.0292061 5.67513 0.0847894C5.57616 0.140373 5.49341 0.220431 5.43489 0.317168Z" fill="#FFC01F"/>
</g>
<g clip-path="url(#clip1_220_7315)">
<path d="M21.4349 0.317168L19.6802 3.21903C19.633 3.29711 19.5697 3.36453 19.4947 3.41695C19.4196 3.46938 19.3342 3.50566 19.2442 3.52345L16.5292 4.06176C16.416 4.08427 16.3107 4.13591 16.224 4.2115C16.1372 4.28709 16.072 4.38396 16.0349 4.49242C15.9978 4.60088 15.9901 4.71709 16.0126 4.82943C16.0351 4.94176 16.0869 5.04627 16.163 5.13246L18.0895 7.31703C18.1537 7.38975 18.2009 7.47569 18.2275 7.56866C18.2542 7.66164 18.2597 7.75933 18.2437 7.85467L17.6753 11.2399C17.6558 11.3567 17.6686 11.4766 17.7124 11.5867C17.7563 11.6968 17.8295 11.793 17.9242 11.8651C18.0189 11.9371 18.1315 11.9823 18.2501 11.9958C18.3686 12.0092 18.4887 11.9905 18.5974 11.9415L21.7273 10.5305C21.8129 10.4918 21.9059 10.4719 22 10.4719C22.0941 10.4719 22.1871 10.4918 22.2727 10.5305L25.4026 11.9415C25.5113 11.9905 25.6314 12.0092 25.7499 11.9958C25.8685 11.9823 25.9811 11.9371 26.0758 11.8651C26.1705 11.793 26.2437 11.6968 26.2876 11.5867C26.3314 11.4766 26.3442 11.3567 26.3247 11.2399L25.7563 7.85467C25.7403 7.75933 25.7458 7.66164 25.7725 7.56866C25.7991 7.47569 25.8463 7.38975 25.9105 7.31703L27.837 5.13246C27.9131 5.04627 27.9649 4.94176 27.9874 4.82943C28.0099 4.71709 28.0022 4.60088 27.9651 4.49242C27.928 4.38396 27.8628 4.28709 27.776 4.2115C27.6893 4.13591 27.584 4.08427 27.4708 4.06176L24.7558 3.52345C24.6658 3.50566 24.5804 3.46938 24.5053 3.41695C24.4303 3.36453 24.367 3.29711 24.3198 3.21903L22.5645 0.317168C22.5059 0.220431 22.4232 0.140373 22.3242 0.0847894C22.2252 0.0292061 22.1134 0 21.9997 0C21.8859 0 21.7741 0.0292061 21.6751 0.0847894C21.5762 0.140373 21.4934 0.220431 21.4349 0.317168Z" fill="#FFC01F"/>
</g>
<g clip-path="url(#clip2_220_7315)">
<path d="M37.4349 0.317168L35.6802 3.21903C35.633 3.29711 35.5697 3.36453 35.4947 3.41695C35.4196 3.46938 35.3342 3.50566 35.2442 3.52345L32.5292 4.06176C32.416 4.08427 32.3107 4.13591 32.224 4.2115C32.1372 4.28709 32.072 4.38396 32.0349 4.49242C31.9978 4.60088 31.9901 4.71709 32.0126 4.82943C32.0351 4.94176 32.0869 5.04627 32.163 5.13246L34.0895 7.31703C34.1537 7.38975 34.2009 7.47569 34.2275 7.56866C34.2542 7.66164 34.2597 7.75933 34.2437 7.85467L33.6753 11.2399C33.6558 11.3567 33.6686 11.4766 33.7124 11.5867C33.7563 11.6968 33.8295 11.793 33.9242 11.8651C34.0189 11.9371 34.1315 11.9823 34.2501 11.9958C34.3686 12.0092 34.4887 11.9905 34.5974 11.9415L37.7273 10.5305C37.8129 10.4918 37.9059 10.4719 38 10.4719C38.0941 10.4719 38.1871 10.4918 38.2727 10.5305L41.4026 11.9415C41.5113 11.9905 41.6314 12.0092 41.7499 11.9958C41.8685 11.9823 41.9811 11.9371 42.0758 11.8651C42.1705 11.793 42.2437 11.6968 42.2876 11.5867C42.3314 11.4766 42.3442 11.3567 42.3247 11.2399L41.7563 7.85467C41.7403 7.75933 41.7458 7.66164 41.7725 7.56866C41.7991 7.47569 41.8463 7.38975 41.9105 7.31703L43.837 5.13246C43.9131 5.04627 43.9649 4.94176 43.9874 4.82943C44.0099 4.71709 44.0022 4.60088 43.9651 4.49242C43.928 4.38396 43.8628 4.28709 43.776 4.2115C43.6893 4.13591 43.584 4.08427 43.4708 4.06176L40.7558 3.52345C40.6658 3.50566 40.5804 3.46938 40.5053 3.41695C40.4303 3.36453 40.367 3.29711 40.3198 3.21903L38.5645 0.317168C38.5059 0.220431 38.4232 0.140373 38.3242 0.0847894C38.2252 0.0292061 38.1134 0 37.9997 0C37.8859 0 37.7741 0.0292061 37.6751 0.0847894C37.5762 0.140373 37.4934 0.220431 37.4349 0.317168Z" fill="#FFC01F"/>
</g>
<g clip-path="url(#clip3_220_7315)">
<path d="M53.4349 0.317168L51.6802 3.21903C51.633 3.29711 51.5697 3.36453 51.4947 3.41695C51.4196 3.46938 51.3342 3.50566 51.2442 3.52345L48.5292 4.06176C48.416 4.08427 48.3107 4.13591 48.224 4.2115C48.1372 4.28709 48.072 4.38396 48.0349 4.49242C47.9978 4.60088 47.9901 4.71709 48.0126 4.82943C48.0351 4.94176 48.0869 5.04627 48.163 5.13246L50.0895 7.31703C50.1537 7.38975 50.2009 7.47569 50.2275 7.56866C50.2542 7.66164 50.2597 7.75933 50.2437 7.85467L49.6753 11.2399C49.6558 11.3567 49.6686 11.4766 49.7124 11.5867C49.7563 11.6968 49.8295 11.793 49.9242 11.8651C50.0189 11.9371 50.1315 11.9823 50.2501 11.9958C50.3686 12.0092 50.4887 11.9905 50.5974 11.9415L53.7273 10.5305C53.8129 10.4918 53.9059 10.4719 54 10.4719C54.0941 10.4719 54.1871 10.4918 54.2727 10.5305L57.4026 11.9415C57.5113 11.9905 57.6314 12.0092 57.7499 11.9958C57.8685 11.9823 57.9811 11.9371 58.0758 11.8651C58.1705 11.793 58.2437 11.6968 58.2876 11.5867C58.3314 11.4766 58.3442 11.3567 58.3247 11.2399L57.7563 7.85467C57.7403 7.75933 57.7458 7.66164 57.7725 7.56866C57.7991 7.47569 57.8463 7.38975 57.9105 7.31703L59.837 5.13246C59.9131 5.04627 59.9649 4.94176 59.9874 4.82943C60.0099 4.71709 60.0022 4.60088 59.9651 4.49242C59.928 4.38396 59.8628 4.28709 59.776 4.2115C59.6893 4.13591 59.584 4.08427 59.4708 4.06176L56.7558 3.52345C56.6658 3.50566 56.5804 3.46938 56.5053 3.41695C56.4303 3.36453 56.367 3.29711 56.3198 3.21903L54.5645 0.317168C54.5059 0.220431 54.4232 0.140373 54.3242 0.0847894C54.2252 0.0292061 54.1134 0 53.9997 0C53.8859 0 53.7741 0.0292061 53.6751 0.0847894C53.5762 0.140373 53.4934 0.220431 53.4349 0.317168Z" fill="#FFC01F"/>
</g>
<g clip-path="url(#clip4_220_7315)">
<path d="M69.4349 0.317168L67.6802 3.21903C67.633 3.29711 67.5697 3.36453 67.4947 3.41695C67.4196 3.46938 67.3342 3.50566 67.2442 3.52345L64.5292 4.06176C64.416 4.08427 64.3107 4.13591 64.224 4.2115C64.1372 4.28709 64.072 4.38396 64.0349 4.49242C63.9978 4.60088 63.9901 4.71709 64.0126 4.82943C64.0351 4.94176 64.0869 5.04627 64.163 5.13246L66.0895 7.31703C66.1537 7.38975 66.2009 7.47569 66.2275 7.56866C66.2542 7.66164 66.2597 7.75933 66.2437 7.85467L65.6753 11.2399C65.6558 11.3567 65.6686 11.4766 65.7124 11.5867C65.7563 11.6968 65.8295 11.793 65.9242 11.8651C66.0189 11.9371 66.1315 11.9823 66.2501 11.9958C66.3686 12.0092 66.4887 11.9905 66.5974 11.9415L69.7273 10.5305C69.8129 10.4918 69.9059 10.4719 70 10.4719C70.0941 10.4719 70.1871 10.4918 70.2727 10.5305L73.4026 11.9415C73.5113 11.9905 73.6314 12.0092 73.7499 11.9958C73.8685 11.9823 73.9811 11.9371 74.0758 11.8651C74.1705 11.793 74.2437 11.6968 74.2876 11.5867C74.3314 11.4766 74.3442 11.3567 74.3247 11.2399L73.7563 7.85467C73.7403 7.75933 73.7458 7.66164 73.7725 7.56866C73.7991 7.47569 73.8463 7.38975 73.9105 7.31703L75.837 5.13246C75.9131 5.04627 75.9649 4.94176 75.9874 4.82943C76.0099 4.71709 76.0022 4.60088 75.9651 4.49242C75.928 4.38396 75.8628 4.28709 75.776 4.2115C75.6893 4.13591 75.584 4.08427 75.4708 4.06176L72.7558 3.52345C72.6658 3.50566 72.5804 3.46938 72.5053 3.41695C72.4303 3.36453 72.367 3.29711 72.3198 3.21903L70.5645 0.317168C70.5059 0.220431 70.4232 0.140373 70.3242 0.0847894C70.2252 0.0292061 70.1134 0 69.9997 0C69.8859 0 69.7741 0.0292061 69.6751 0.0847894C69.5762 0.140373 69.4934 0.220431 69.4349 0.317168Z" fill="#FFC01F"/>
</g>
<defs>
<clipPath id="clip0_220_7315">
<rect width="12" height="12" fill="white"/>
</clipPath>
<clipPath id="clip1_220_7315">
<rect width="12" height="12" fill="white" transform="translate(16)"/>
</clipPath>
<clipPath id="clip2_220_7315">
<rect width="12" height="12" fill="white" transform="translate(32)"/>
</clipPath>
<clipPath id="clip3_220_7315">
<rect width="12" height="12" fill="white" transform="translate(48)"/>
</clipPath>
<clipPath id="clip4_220_7315">
<rect width="12" height="12" fill="white" transform="translate(64)"/>
</clipPath>
</defs>
</svg>
