<svg width="32" height="32" viewBox="0 0 32 32" fill="none" xmlns="http://www.w3.org/2000/svg">
<rect opacity="0.75" x="32" y="32" width="32" height="32" rx="16" transform="rotate(180 32 32)" fill="url(#paint0_linear_258_3973)"/>
<path d="M18.3314 11.1314C18.4408 11.0054 18.5013 10.8368 18.5 10.6618C18.4986 10.4867 18.4354 10.3193 18.324 10.1955C18.2127 10.0717 18.062 10.0015 17.9045 10C17.747 9.9985 17.5952 10.0658 17.4819 10.1874L12.6759 15.528C12.5633 15.6532 12.5 15.823 12.5 16C12.5 16.177 12.5633 16.3468 12.6759 16.472L17.4819 21.8126C17.5952 21.9342 17.747 22.0015 17.9045 22C18.062 21.9985 18.2127 21.9283 18.324 21.8045C18.4354 21.6807 18.4986 21.5133 18.5 21.3382C18.5013 21.1632 18.4408 20.9946 18.3314 20.8686L13.9501 16L18.3314 11.1314Z" fill="#333D45"/>
<defs>
<linearGradient id="paint0_linear_258_3973" x1="88" y1="48" x2="41.5" y2="48" gradientUnits="userSpaceOnUse">
<stop stop-color="#333D45" stop-opacity="0.12"/>
<stop offset="1" stop-color="#333D45" stop-opacity="0"/>
</linearGradient>
</defs>
</svg>
