<svg width="32" height="32" viewBox="0 0 32 32" fill="none" xmlns="http://www.w3.org/2000/svg">
<rect width="32" height="32" rx="16" transform="matrix(-4.37114e-08 -1 -1 4.37114e-08 32 32)" fill="white"/>
<rect opacity="0.75" width="32" height="32" rx="16" transform="matrix(1 0 0 -1 0 32)" fill="url(#paint0_linear_258_3972)"/>
<path d="M13.6686 11.1314C13.5592 11.0054 13.4987 10.8368 13.5 10.6618C13.5014 10.4867 13.5646 10.3193 13.676 10.1955C13.7873 10.0717 13.938 10.0015 14.0955 10C14.253 9.9985 14.4048 10.0658 14.5181 10.1874L19.3241 15.528C19.4367 15.6532 19.5 15.823 19.5 16C19.5 16.177 19.4367 16.3468 19.3241 16.472L14.5181 21.8126C14.4048 21.9342 14.253 22.0015 14.0955 22C13.938 21.9985 13.7873 21.9283 13.676 21.8045C13.5646 21.6807 13.5014 21.5133 13.5 21.3382C13.4987 21.1632 13.5592 20.9946 13.6686 20.8686L18.0499 16L13.6686 11.1314Z" fill="#333D45"/>
<defs>
<linearGradient id="paint0_linear_258_3972" x1="54.5" y1="16" x2="7" y2="16" gradientUnits="userSpaceOnUse">
<stop stop-color="#333D45" stop-opacity="0.12"/>
<stop offset="1" stop-color="#333D45" stop-opacity="0"/>
</linearGradient>
</defs>
</svg>
