<svg width="732" height="183" viewBox="0 0 732 183" fill="none" xmlns="http://www.w3.org/2000/svg">
<path fill-rule="evenodd" clip-rule="evenodd" d="M291.974 54.409C315.215 48.4265 336.808 25.7383 350.603 8.14818C358.078 -1.38273 373.922 -1.38273 381.397 8.14818C395.192 25.7383 416.785 48.4265 440.026 54.409C449.905 56.952 466 58 466 58H715C723.837 58 731 65.1634 731 74V166C731 174.837 723.837 182 715 182H17C8.16345 182 1 174.837 1 166V74C1 65.1634 8.16344 58 17 58H266C266 58 282.095 56.952 291.974 54.409Z" fill="white"/>
<path d="M350.603 8.14818L350.21 7.83963V7.83963L350.603 8.14818ZM291.974 54.409L292.099 54.8932L291.974 54.409ZM381.397 8.14818L381.79 7.83963V7.83963L381.397 8.14818ZM440.026 54.409L439.901 54.8932L440.026 54.409ZM466 58L465.967 58.4989L465.984 58.5H466V58ZM266 58V58.5H266.016L266.033 58.4989L266 58ZM348.905 9.48974L348.593 9.88055L349.374 10.5043L349.686 10.1135L348.905 9.48974ZM347.023 13.3922L347.341 13.0069L346.571 12.3696L346.252 12.7549L347.023 13.3922ZM343.542 15.9717L343.217 16.3511L343.975 17.0024L344.301 16.623L343.542 15.9717ZM341.518 19.8034L341.851 19.4303L341.105 18.7645L340.772 19.1376L341.518 19.8034ZM337.939 22.2483L337.599 22.6144L338.331 23.2954L338.671 22.9292L337.939 22.2483ZM335.758 25.9952L336.106 25.6366L335.389 24.9398L335.041 25.2984L335.758 25.9952ZM332.076 28.28L331.719 28.6303L332.419 29.3438L332.776 28.9935L332.076 28.28ZM329.721 31.9188L330.087 31.5777L329.405 30.8466L329.039 31.1877L329.721 31.9188ZM325.927 34.0135L325.552 34.3444L326.214 35.0941L326.589 34.7632L325.927 34.0135ZM323.375 37.5163L323.759 37.1969L323.121 36.4275L322.736 36.7469L323.375 37.5163ZM319.46 39.3773L319.065 39.6838L319.678 40.474L320.073 40.1675L319.46 39.3773ZM316.68 42.7027L317.086 42.4109L316.503 41.5988L316.097 41.8905L316.68 42.7027ZM312.641 44.2699L312.224 44.5448L312.774 45.3801L313.191 45.1051L312.641 44.2699ZM309.599 47.3569L310.028 47.1013L309.517 46.2419L309.087 46.4975L309.599 47.3569ZM305.432 48.5502L304.99 48.7836L305.457 49.668L305.899 49.4346L305.432 48.5502ZM302.09 51.31L302.545 51.1023L302.13 50.1927L301.675 50.4003L302.09 51.31ZM297.817 52.0168L297.349 52.1947L297.705 53.1292L298.173 52.9513L297.817 52.0168ZM294.148 54.322L294.627 54.1783L294.34 53.2205L293.861 53.3641L294.148 54.322ZM289.74 54.4258L289.252 54.5333L289.467 55.5099L289.955 55.4025L289.74 54.4258ZM285.637 56.2393L286.129 56.1547L285.96 55.1691L285.467 55.2537L285.637 56.2393ZM281.157 55.9224L280.662 55.992L280.801 56.9823L281.297 56.9127L281.157 55.9224ZM276.944 57.4721L277.441 57.4138L277.324 56.4206L276.827 56.479L276.944 57.4721ZM272.488 56.9472L271.991 56.9963L272.089 57.9915L272.587 57.9424L272.488 56.9472ZM268.217 58.3352L268.715 58.295L268.635 57.2982L268.136 57.3385L268.217 58.3352ZM263.992 57.5H263.492V58.5H263.992V57.5ZM259.976 58.5H260.476V57.5H259.976V58.5ZM255.96 57.5H255.46V58.5H255.96V57.5ZM251.944 58.5H252.444V57.5H251.944V58.5ZM247.927 57.5H247.427V58.5H247.927V57.5ZM243.911 58.5H244.411V57.5H243.911V58.5ZM239.895 57.5H239.395V58.5H239.895V57.5ZM235.879 58.5H236.379V57.5H235.879V58.5ZM231.863 57.5H231.363V58.5H231.863V57.5ZM227.847 58.5H228.347V57.5H227.847V58.5ZM223.831 57.5H223.331V58.5H223.831V57.5ZM219.815 58.5H220.315V57.5H219.815V58.5ZM215.798 57.5H215.298V58.5H215.798V57.5ZM211.782 58.5H212.282V57.5H211.782V58.5ZM207.766 57.5H207.266V58.5H207.766V57.5ZM203.75 58.5H204.25V57.5H203.75V58.5ZM199.734 57.5H199.234V58.5H199.734V57.5ZM195.718 58.5H196.218V57.5H195.718V58.5ZM191.702 57.5H191.202V58.5H191.702V57.5ZM187.685 58.5H188.185V57.5H187.685V58.5ZM183.669 57.5H183.169V58.5H183.669V57.5ZM179.653 58.5H180.153V57.5H179.653V58.5ZM175.637 57.5H175.137V58.5H175.637V57.5ZM171.621 58.5H172.121V57.5H171.621V58.5ZM167.605 57.5H167.105V58.5H167.605V57.5ZM163.589 58.5H164.089V57.5H163.589V58.5ZM159.573 57.5H159.073V58.5H159.573V57.5ZM155.556 58.5H156.056V57.5H155.556V58.5ZM151.54 57.5H151.04V58.5H151.54V57.5ZM147.524 58.5H148.024V57.5H147.524V58.5ZM143.508 57.5H143.008V58.5H143.508V57.5ZM139.492 58.5H139.992V57.5H139.492V58.5ZM135.476 57.5H134.976V58.5H135.476V57.5ZM131.46 58.5H131.96V57.5H131.46V58.5ZM127.444 57.5H126.944V58.5H127.444V57.5ZM123.427 58.5H123.927V57.5H123.427V58.5ZM119.411 57.5H118.911V58.5H119.411V57.5ZM115.395 58.5H115.895V57.5H115.395V58.5ZM111.379 57.5H110.879V58.5H111.379V57.5ZM107.363 58.5H107.863V57.5H107.363V58.5ZM103.347 57.5H102.847V58.5H103.347V57.5ZM99.3307 58.5H99.8307V57.5H99.3307V58.5ZM95.3145 57.5H94.8145V58.5H95.3145V57.5ZM91.2984 58.5H91.7984V57.5H91.2984V58.5ZM87.2823 57.5H86.7823V58.5H87.2823V57.5ZM83.2661 58.5H83.7661V57.5H83.2661V58.5ZM79.25 57.5H78.75V58.5H79.25V57.5ZM75.2339 58.5H75.7339V57.5H75.2339V58.5ZM71.2178 57.5H70.7178V58.5H71.2178V57.5ZM67.2016 58.5H67.7016V57.5H67.2016V58.5ZM63.1855 57.5H62.6855V58.5H63.1855V57.5ZM59.1694 58.5H59.6694V57.5H59.1694V58.5ZM55.1532 57.5H54.6532V58.5H55.1532V57.5ZM51.1371 58.5H51.6371V57.5H51.1371V58.5ZM47.121 57.5H46.621V58.5H47.121V57.5ZM43.1049 58.5H43.6049V57.5H43.1049V58.5ZM39.0887 57.5H38.5887V58.5H39.0887V57.5ZM35.0726 58.5H35.5726V57.5H35.0726V58.5ZM31.0565 57.5H30.5565V58.5H31.0565V57.5ZM27.0403 58.5H27.5403V57.5H27.0403V58.5ZM23.0242 57.5H22.5242V58.5H23.0242V57.5ZM19.0081 58.5H19.5081V57.5H19.0081V58.5ZM14.8456 57.6394L14.3498 57.7041L14.4791 58.6957L14.9749 58.631L14.8456 57.6394ZM11.0669 59.676L11.5288 59.4844L11.1457 58.5607L10.6839 58.7522L11.0669 59.676ZM6.95479 60.9091L6.55833 61.2138L7.16766 62.0067L7.56412 61.7021L6.95479 60.9091ZM4.70207 64.5641L5.00673 64.1677L4.21381 63.5583L3.90915 63.9548L4.70207 64.5641ZM1.75223 67.6839L1.5607 68.1457L2.48442 68.5288L2.67595 68.0669L1.75223 67.6839ZM1.63104 71.9749L1.69571 71.4791L0.70411 71.3498L0.639437 71.8456L1.63104 71.9749ZM0.5 75.9167V76.4167H1.5V75.9167H0.5ZM1.5 79.75V79.25H0.5V79.75H1.5ZM0.5 83.5833V84.0833H1.5V83.5833H0.5ZM1.5 87.4167V86.9167H0.5V87.4167H1.5ZM0.5 91.25V91.75H1.5V91.25H0.5ZM1.5 95.0833V94.5833H0.5V95.0833H1.5ZM0.5 98.9167V99.4167H1.5V98.9167H0.5ZM1.5 102.75V102.25H0.5V102.75H1.5ZM0.5 106.583V107.083H1.5V106.583H0.5ZM1.5 110.417V109.917H0.5V110.417H1.5ZM0.5 114.25V114.75H1.5V114.25H0.5ZM1.5 118.083V117.583H0.5V118.083H1.5ZM0.5 121.917V122.417H1.5V121.917H0.5ZM1.5 125.75V125.25H0.5V125.75H1.5ZM0.5 129.583V130.083H1.5V129.583H0.5ZM1.5 133.417V132.917H0.5V133.417H1.5ZM0.5 137.25V137.75H1.5V137.25H0.5ZM1.5 141.083V140.583H0.5V141.083H1.5ZM0.5 144.917V145.417H1.5V144.917H0.5ZM1.5 148.75V148.25H0.5V148.75H1.5ZM0.5 152.583V153.083H1.5V152.583H0.5ZM1.5 156.417V155.917H0.5V156.417H1.5ZM0.5 160.25V160.75H1.5V160.25H0.5ZM1.5 164.083V163.583H0.5V164.083H1.5ZM0.639437 168.154L0.70411 168.65L1.69571 168.521L1.63104 168.025L0.639437 168.154ZM2.67595 171.933L2.48443 171.471L1.5607 171.854L1.75223 172.316L2.67595 171.933ZM3.90915 176.045L4.21382 176.442L5.00673 175.832L4.70207 175.436L3.90915 176.045ZM7.56412 178.298L7.16766 177.993L6.55834 178.786L6.9548 179.091L7.56412 178.298ZM10.6839 181.248L11.1457 181.439L11.5288 180.516L11.0669 180.324L10.6839 181.248ZM14.9749 181.369L14.4791 181.304L14.3498 182.296L14.8456 182.361L14.9749 181.369ZM19.0058 182.5H19.5058V181.5H19.0058V182.5ZM23.0173 181.5H22.5173V182.5H23.0173V181.5ZM27.0287 182.5H27.5287V181.5H27.0287V182.5ZM31.0402 181.5H30.5402V182.5H31.0402V181.5ZM35.0517 182.5H35.5517V181.5H35.0517V182.5ZM39.0632 181.5H38.5632V182.5H39.0632V181.5ZM43.0747 182.5H43.5747V181.5H43.0747V182.5ZM47.0862 181.5H46.5862V182.5H47.0862V181.5ZM51.0977 182.5H51.5977V181.5H51.0977V182.5ZM55.1092 181.5H54.6092V182.5H55.1092V181.5ZM59.1207 182.5H59.6207V181.5H59.1207V182.5ZM63.1322 181.5H62.6322V182.5H63.1322V181.5ZM67.1437 182.5H67.6437V181.5H67.1437V182.5ZM71.1552 181.5H70.6552V182.5H71.1552V181.5ZM75.1667 182.5H75.6667V181.5H75.1667V182.5ZM79.1782 181.5H78.6782V182.5H79.1782V181.5ZM83.1897 182.5H83.6897V181.5H83.1897V182.5ZM87.2012 181.5H86.7012V182.5H87.2012V181.5ZM91.2127 182.5H91.7127V181.5H91.2127V182.5ZM95.2242 181.5H94.7242V182.5H95.2242V181.5ZM99.2356 182.5H99.7356V181.5H99.2356V182.5ZM103.247 181.5H102.747V182.5H103.247V181.5ZM107.259 182.5H107.759V181.5H107.259V182.5ZM111.27 181.5H110.77V182.5H111.27V181.5ZM115.282 182.5H115.782V181.5H115.282V182.5ZM119.293 181.5H118.793V182.5H119.293V181.5ZM123.305 182.5H123.805V181.5H123.305V182.5ZM127.316 181.5H126.816V182.5H127.316V181.5ZM131.328 182.5H131.828V181.5H131.328V182.5ZM135.339 181.5H134.839V182.5H135.339V181.5ZM139.351 182.5H139.851V181.5H139.351V182.5ZM143.362 181.5H142.862V182.5H143.362V181.5ZM147.374 182.5H147.874V181.5H147.374V182.5ZM151.385 181.5H150.885V182.5H151.385V181.5ZM155.397 182.5H155.897V181.5H155.397V182.5ZM159.408 181.5H158.908V182.5H159.408V181.5ZM163.42 182.5H163.92V181.5H163.42V182.5ZM167.431 181.5H166.931V182.5H167.431V181.5ZM171.443 182.5H171.943V181.5H171.443V182.5ZM175.454 181.5H174.954V182.5H175.454V181.5ZM179.466 182.5H179.966V181.5H179.466V182.5ZM183.477 181.5H182.977V182.5H183.477V181.5ZM187.489 182.5H187.989V181.5H187.489V182.5ZM191.5 181.5H191V182.5H191.5V181.5ZM195.511 182.5H196.011V181.5H195.511V182.5ZM199.523 181.5H199.023V182.5H199.523V181.5ZM203.534 182.5H204.034V181.5H203.534V182.5ZM207.546 181.5H207.046V182.5H207.546V181.5ZM211.557 182.5H212.057V181.5H211.557V182.5ZM215.569 181.5H215.069V182.5H215.569V181.5ZM219.58 182.5H220.08V181.5H219.58V182.5ZM223.592 181.5H223.092V182.5H223.592V181.5ZM227.603 182.5H228.103V181.5H227.603V182.5ZM231.615 181.5H231.115V182.5H231.615V181.5ZM235.626 182.5H236.126V181.5H235.626V182.5ZM239.638 181.5H239.138V182.5H239.638V181.5ZM243.649 182.5H244.149V181.5H243.649V182.5ZM247.661 181.5H247.161V182.5H247.661V181.5ZM251.672 182.5H252.172V181.5H251.672V182.5ZM255.684 181.5H255.184V182.5H255.684V181.5ZM259.695 182.5H260.195V181.5H259.695V182.5ZM263.707 181.5H263.207V182.5H263.707V181.5ZM267.718 182.5H268.218V181.5H267.718V182.5ZM271.73 181.5H271.23V182.5H271.73V181.5ZM275.741 182.5H276.241V181.5H275.741V182.5ZM279.753 181.5H279.253V182.5H279.753V181.5ZM283.764 182.5H284.264V181.5H283.764V182.5ZM287.776 181.5H287.276V182.5H287.776V181.5ZM291.787 182.5H292.287V181.5H291.787V182.5ZM295.799 181.5H295.299V182.5H295.799V181.5ZM299.81 182.5H300.31V181.5H299.81V182.5ZM303.822 181.5H303.322V182.5H303.822V181.5ZM307.833 182.5H308.333V181.5H307.833V182.5ZM311.845 181.5H311.345V182.5H311.845V181.5ZM315.856 182.5H316.356V181.5H315.856V182.5ZM319.868 181.5H319.368V182.5H319.868V181.5ZM323.879 182.5H324.379V181.5H323.879V182.5ZM327.891 181.5H327.391V182.5H327.891V181.5ZM331.902 182.5H332.402V181.5H331.902V182.5ZM335.914 181.5H335.414V182.5H335.914V181.5ZM339.925 182.5H340.425V181.5H339.925V182.5ZM343.937 181.5H343.437V182.5H343.937V181.5ZM347.948 182.5H348.448V181.5H347.948V182.5ZM351.96 181.5H351.46V182.5H351.96V181.5ZM355.971 182.5H356.471V181.5H355.971V182.5ZM359.983 181.5H359.483V182.5H359.983V181.5ZM363.994 182.5H364.494V181.5H363.994V182.5ZM368.006 181.5H367.506V182.5H368.006V181.5ZM372.017 182.5H372.517V181.5H372.017V182.5ZM376.029 181.5H375.529V182.5H376.029V181.5ZM380.04 182.5H380.54V181.5H380.04V182.5ZM384.052 181.5H383.552V182.5H384.052V181.5ZM388.063 182.5H388.563V181.5H388.063V182.5ZM392.075 181.5H391.575V182.5H392.075V181.5ZM396.086 182.5H396.586V181.5H396.086V182.5ZM400.098 181.5H399.598V182.5H400.098V181.5ZM404.109 182.5H404.609V181.5H404.109V182.5ZM408.121 181.5H407.621V182.5H408.121V181.5ZM412.132 182.5H412.632V181.5H412.132V182.5ZM416.144 181.5H415.644V182.5H416.144V181.5ZM420.155 182.5H420.655V181.5H420.155V182.5ZM424.167 181.5H423.667V182.5H424.167V181.5ZM428.178 182.5H428.678V181.5H428.178V182.5ZM432.19 181.5H431.69V182.5H432.19V181.5ZM436.202 182.5H436.702V181.5H436.202V182.5ZM440.213 181.5H439.713V182.5H440.213V181.5ZM444.225 182.5H444.725V181.5H444.225V182.5ZM448.236 181.5H447.736V182.5H448.236V181.5ZM452.247 182.5H452.747V181.5H452.247V182.5ZM456.259 181.5H455.759V182.5H456.259V181.5ZM460.271 182.5H460.771V181.5H460.271V182.5ZM464.282 181.5H463.782V182.5H464.282V181.5ZM468.294 182.5H468.794V181.5H468.294V182.5ZM472.305 181.5H471.805V182.5H472.305V181.5ZM476.317 182.5H476.817V181.5H476.317V182.5ZM480.328 181.5H479.828V182.5H480.328V181.5ZM484.34 182.5H484.84V181.5H484.34V182.5ZM488.351 181.5H487.851V182.5H488.351V181.5ZM492.363 182.5H492.863V181.5H492.363V182.5ZM496.374 181.5H495.874V182.5H496.374V181.5ZM500.386 182.5H500.886V181.5H500.386V182.5ZM504.397 181.5H503.897V182.5H504.397V181.5ZM508.409 182.5H508.909V181.5H508.409V182.5ZM512.42 181.5H511.92V182.5H512.42V181.5ZM516.432 182.5H516.932V181.5H516.432V182.5ZM520.443 181.5H519.943V182.5H520.443V181.5ZM524.455 182.5H524.955V181.5H524.455V182.5ZM528.466 181.5H527.966V182.5H528.466V181.5ZM532.478 182.5H532.978V181.5H532.478V182.5ZM536.489 181.5H535.989V182.5H536.489V181.5ZM540.501 182.5H541.001V181.5H540.501V182.5ZM544.512 181.5H544.012V182.5H544.512V181.5ZM548.523 182.5H549.023V181.5H548.523V182.5ZM552.535 181.5H552.035V182.5H552.535V181.5ZM556.546 182.5H557.046V181.5H556.546V182.5ZM560.558 181.5H560.058V182.5H560.558V181.5ZM564.569 182.5H565.069V181.5H564.569V182.5ZM568.581 181.5H568.081V182.5H568.581V181.5ZM572.592 182.5H573.092V181.5H572.592V182.5ZM576.604 181.5H576.104V182.5H576.604V181.5ZM580.615 182.5H581.115V181.5H580.615V182.5ZM584.627 181.5H584.127V182.5H584.627V181.5ZM588.638 182.5H589.138V181.5H588.638V182.5ZM592.65 181.5H592.15V182.5H592.65V181.5ZM596.661 182.5H597.161V181.5H596.661V182.5ZM600.673 181.5H600.173V182.5H600.673V181.5ZM604.684 182.5H605.184V181.5H604.684V182.5ZM608.696 181.5H608.196V182.5H608.696V181.5ZM612.707 182.5H613.207V181.5H612.707V182.5ZM616.719 181.5H616.219V182.5H616.719V181.5ZM620.73 182.5H621.23V181.5H620.73V182.5ZM624.742 181.5H624.242V182.5H624.742V181.5ZM628.753 182.5H629.253V181.5H628.753V182.5ZM632.764 181.5H632.264V182.5H632.764V181.5ZM636.776 182.5H637.276V181.5H636.776V182.5ZM640.787 181.5H640.287V182.5H640.787V181.5ZM644.799 182.5H645.299V181.5H644.799V182.5ZM648.81 181.5H648.31V182.5H648.81V181.5ZM652.822 182.5H653.322V181.5H652.822V182.5ZM656.833 181.5H656.333V182.5H656.833V181.5ZM660.845 182.5H661.345V181.5H660.845V182.5ZM664.856 181.5H664.356V182.5H664.856V181.5ZM668.868 182.5H669.368V181.5H668.868V182.5ZM672.879 181.5H672.379V182.5H672.879V181.5ZM676.891 182.5H677.391V181.5H676.891V182.5ZM680.902 181.5H680.402V182.5H680.902V181.5ZM684.914 182.5H685.414V181.5H684.914V182.5ZM688.925 181.5H688.425V182.5H688.925V181.5ZM692.937 182.5H693.437V181.5H692.937V182.5ZM696.948 181.5H696.448V182.5H696.948V181.5ZM700.96 182.5H701.46V181.5H700.96V182.5ZM704.971 181.5H704.471V182.5H704.971V181.5ZM708.982 182.5H709.482V181.5H708.982V182.5ZM712.994 181.5H712.494V182.5H712.994V181.5ZM717.154 182.361L717.65 182.296L717.521 181.304L717.025 181.369L717.154 182.361ZM720.933 180.324L720.471 180.516L720.854 181.439L721.316 181.248L720.933 180.324ZM725.045 179.091L725.442 178.786L724.832 177.993L724.436 178.298L725.045 179.091ZM727.298 175.436L726.993 175.832L727.786 176.442L728.091 176.045L727.298 175.436ZM730.248 172.316L730.439 171.854L729.516 171.471L729.324 171.933L730.248 172.316ZM730.369 168.025L730.304 168.521L731.296 168.65L731.361 168.154L730.369 168.025ZM731.5 164.083V163.583H730.5V164.083H731.5ZM730.5 160.25V160.75H731.5V160.25H730.5ZM731.5 156.417V155.917H730.5V156.417H731.5ZM730.5 152.583V153.083H731.5V152.583H730.5ZM731.5 148.75V148.25H730.5V148.75H731.5ZM730.5 144.917V145.417H731.5V144.917H730.5ZM731.5 141.083V140.583H730.5V141.083H731.5ZM730.5 137.25V137.75H731.5V137.25H730.5ZM731.5 133.417V132.917H730.5V133.417H731.5ZM730.5 129.583V130.083H731.5V129.583H730.5ZM731.5 125.75V125.25H730.5V125.75H731.5ZM730.5 121.917V122.417H731.5V121.917H730.5ZM731.5 118.083V117.583H730.5V118.083H731.5ZM730.5 114.25V114.75H731.5V114.25H730.5ZM731.5 110.417V109.917H730.5V110.417H731.5ZM730.5 106.583V107.083H731.5V106.583H730.5ZM731.5 102.75V102.25H730.5V102.75H731.5ZM730.5 98.9167V99.4167H731.5V98.9167H730.5ZM731.5 95.0833V94.5833H730.5V95.0833H731.5ZM730.5 91.25V91.75H731.5V91.25H730.5ZM731.5 87.4167V86.9167H730.5V87.4167H731.5ZM730.5 83.5833V84.0833H731.5V83.5833H730.5ZM731.5 79.75V79.25H730.5V79.75H731.5ZM730.5 75.9167V76.4167H731.5V75.9167H730.5ZM731.361 71.8456L731.296 71.3498L730.304 71.4791L730.369 71.9749L731.361 71.8456ZM729.324 68.0669L729.516 68.5288L730.439 68.1457L730.248 67.6839L729.324 68.0669ZM728.091 63.9548L727.786 63.5583L726.993 64.1677L727.298 64.5641L728.091 63.9548ZM724.436 61.7021L724.832 62.0067L725.442 61.2138L725.045 60.9091L724.436 61.7021ZM721.316 58.7522L720.854 58.5607L720.471 59.4844L720.933 59.676L721.316 58.7522ZM717.025 58.631L717.521 58.6957L717.65 57.7041L717.154 57.6394L717.025 58.631ZM712.992 57.5H712.492V58.5H712.992V57.5ZM708.976 58.5H709.476V57.5H708.976V58.5ZM704.96 57.5H704.46V58.5H704.96V57.5ZM700.944 58.5H701.444V57.5H700.944V58.5ZM696.927 57.5H696.427V58.5H696.927V57.5ZM692.911 58.5H693.411V57.5H692.911V58.5ZM688.895 57.5H688.395V58.5H688.895V57.5ZM684.879 58.5H685.379V57.5H684.879V58.5ZM680.863 57.5H680.363V58.5H680.863V57.5ZM676.847 58.5H677.347V57.5H676.847V58.5ZM672.831 57.5H672.331V58.5H672.831V57.5ZM668.815 58.5H669.315V57.5H668.815V58.5ZM664.798 57.5H664.298V58.5H664.798V57.5ZM660.782 58.5H661.282V57.5H660.782V58.5ZM656.766 57.5H656.266V58.5H656.766V57.5ZM652.75 58.5H653.25V57.5H652.75V58.5ZM648.734 57.5H648.234V58.5H648.734V57.5ZM644.718 58.5H645.218V57.5H644.718V58.5ZM640.702 57.5H640.202V58.5H640.702V57.5ZM636.685 58.5H637.185V57.5H636.685V58.5ZM632.669 57.5H632.169V58.5H632.669V57.5ZM628.653 58.5H629.153V57.5H628.653V58.5ZM624.637 57.5H624.137V58.5H624.637V57.5ZM620.621 58.5H621.121V57.5H620.621V58.5ZM616.605 57.5H616.105V58.5H616.605V57.5ZM612.589 58.5H613.089V57.5H612.589V58.5ZM608.573 57.5H608.073V58.5H608.573V57.5ZM604.556 58.5H605.056V57.5H604.556V58.5ZM600.54 57.5H600.04V58.5H600.54V57.5ZM596.524 58.5H597.024V57.5H596.524V58.5ZM592.508 57.5H592.008V58.5H592.508V57.5ZM588.492 58.5H588.992V57.5H588.492V58.5ZM584.476 57.5H583.976V58.5H584.476V57.5ZM580.46 58.5H580.96V57.5H580.46V58.5ZM576.444 57.5H575.944V58.5H576.444V57.5ZM572.427 58.5H572.927V57.5H572.427V58.5ZM568.411 57.5H567.911V58.5H568.411V57.5ZM564.395 58.5H564.895V57.5H564.395V58.5ZM560.379 57.5H559.879V58.5H560.379V57.5ZM556.363 58.5H556.863V57.5H556.363V58.5ZM552.347 57.5H551.847V58.5H552.347V57.5ZM548.331 58.5H548.831V57.5H548.331V58.5ZM544.315 57.5H543.815V58.5H544.315V57.5ZM540.298 58.5H540.798V57.5H540.298V58.5ZM536.282 57.5H535.782V58.5H536.282V57.5ZM532.266 58.5H532.766V57.5H532.266V58.5ZM528.25 57.5H527.75V58.5H528.25V57.5ZM524.234 58.5H524.734V57.5H524.234V58.5ZM520.218 57.5H519.718V58.5H520.218V57.5ZM516.202 58.5H516.702V57.5H516.202V58.5ZM512.185 57.5H511.685V58.5H512.185V57.5ZM508.169 58.5H508.669V57.5H508.169V58.5ZM504.153 57.5H503.653V58.5H504.153V57.5ZM500.137 58.5H500.637V57.5H500.137V58.5ZM496.121 57.5H495.621V58.5H496.121V57.5ZM492.105 58.5H492.605V57.5H492.105V58.5ZM488.089 57.5H487.589V58.5H488.089V57.5ZM484.073 58.5H484.573V57.5H484.073V58.5ZM480.056 57.5H479.556V58.5H480.056V57.5ZM476.04 58.5H476.54V57.5H476.04V58.5ZM472.024 57.5H471.524V58.5H472.024V57.5ZM468.008 58.5H468.508V57.5H468.008V58.5ZM463.864 57.3385L463.365 57.2982L463.285 58.295L463.783 58.3352L463.864 57.3385ZM459.413 57.9424L459.911 57.9915L460.009 56.9963L459.512 56.9472L459.413 57.9424ZM455.173 56.479L454.676 56.4206L454.559 57.4138L455.056 57.4721L455.173 56.479ZM450.703 56.9127L451.198 56.9823L451.338 55.992L450.842 55.9224L450.703 56.9127ZM446.533 55.2537L446.04 55.1691L445.871 56.1547L446.363 56.2393L446.533 55.2537ZM442.045 55.4025L442.533 55.5099L442.748 54.5333L442.26 54.4258L442.045 55.4025ZM438.139 53.3641L437.66 53.2205L437.373 54.1783L437.852 54.322L438.139 53.3641ZM433.827 52.9513L434.295 53.1292L434.651 52.1947L434.183 52.0168L433.827 52.9513ZM430.325 50.4003L429.87 50.1927L429.455 51.1023L429.91 51.31L430.325 50.4003ZM426.101 49.4346L426.543 49.668L427.01 48.7836L426.568 48.5502L426.101 49.4346ZM422.913 46.4976L422.483 46.2419L421.972 47.1013L422.401 47.3569L422.913 46.4976ZM418.809 45.1051L419.226 45.3801L419.776 44.5448L419.359 44.2699L418.809 45.1051ZM415.903 41.8905L415.497 41.5988L414.914 42.4109L415.32 42.7027L415.903 41.8905ZM411.927 40.1675L412.322 40.474L412.935 39.6838L412.54 39.3774L411.927 40.1675ZM409.264 36.7469L408.879 36.4275L408.241 37.1969L408.625 37.5163L409.264 36.7469ZM405.411 34.7632L405.786 35.0941L406.448 34.3444L406.073 34.0135L405.411 34.7632ZM402.961 31.1877L402.595 30.8466L401.913 31.5777L402.279 31.9188L402.961 31.1877ZM399.224 28.9935L399.581 29.3439L400.281 28.6303L399.924 28.28L399.224 28.9935ZM396.959 25.2984L396.611 24.9398L395.894 25.6366L396.242 25.9952L396.959 25.2984ZM393.329 22.9292L393.669 23.2954L394.401 22.6144L394.061 22.2483L393.329 22.9292ZM391.228 19.1376L390.895 18.7645L390.149 19.4303L390.482 19.8034L391.228 19.1376ZM387.699 16.623L388.025 17.0024L388.783 16.3511L388.458 15.9717L387.699 16.623ZM385.748 12.7549L385.429 12.3696L384.659 13.0069L384.977 13.3922L385.748 12.7549ZM382.314 10.1135L382.626 10.5043L383.407 9.88057L383.095 9.48976L382.314 10.1135ZM380.289 6.15365L379.934 5.80152L379.23 6.51147L379.585 6.8636L380.289 6.15365ZM376.217 4.2537L376.646 4.51057L377.16 3.65262L376.731 3.39575L376.217 4.2537ZM372.636 1.54066L372.161 1.38621L371.852 2.3373L372.327 2.49176L372.636 1.54066ZM368.141 1.61009L368.638 1.66144L368.741 0.666726L368.243 0.615377L368.141 1.61009ZM363.757 0.615377L363.259 0.666726L363.362 1.66144L363.859 1.61009L363.757 0.615377ZM359.673 2.49176L360.148 2.3373L359.839 1.38621L359.364 1.54066L359.673 2.49176ZM355.269 3.39576L354.84 3.65262L355.354 4.51057L355.783 4.2537L355.269 3.39576ZM352.415 6.8636L352.77 6.51147L352.066 5.80152L351.711 6.15365L352.415 6.8636ZM350.21 7.83963C349.782 8.38498 349.347 8.93524 348.905 9.48974L349.686 10.1135C350.131 9.55674 350.567 9.00427 350.997 8.45674L350.21 7.83963ZM346.252 12.7549C345.373 13.8181 344.469 14.8919 343.542 15.9717L344.301 16.623C345.232 15.5383 346.14 14.46 347.023 13.3922L346.252 12.7549ZM340.772 19.1376C339.847 20.1739 338.903 21.212 337.939 22.2483L338.671 22.9292C339.64 21.8878 340.589 20.8446 341.518 19.8034L340.772 19.1376ZM335.041 25.2984C334.069 26.2986 333.08 27.2936 332.076 28.28L332.776 28.9935C333.787 28.0014 334.781 27.0009 335.758 25.9952L335.041 25.2984ZM329.039 31.1877C328.016 32.1425 326.978 33.0855 325.927 34.0135L326.589 34.7632C327.647 33.8288 328.692 32.8796 329.721 31.9188L329.039 31.1877ZM322.736 36.7469C321.656 37.6432 320.564 38.5211 319.46 39.3773L320.073 40.1675C321.186 39.3042 322.287 38.4193 323.375 37.5163L322.736 36.7469ZM316.097 41.8905C314.956 42.7105 313.803 43.5047 312.641 44.2699L313.191 45.1051C314.365 44.3321 315.529 43.5301 316.68 42.7027L316.097 41.8905ZM309.087 46.4975C307.878 47.2171 306.659 47.9025 305.432 48.5502L305.899 49.4346C307.142 48.7785 308.375 48.0847 309.599 47.3569L309.087 46.4975ZM301.675 50.4003C300.396 50.9843 299.11 51.5244 297.817 52.0168L298.173 52.9513C299.487 52.4509 300.793 51.9025 302.09 51.31L301.675 50.4003ZM293.861 53.3641C293.192 53.5648 292.521 53.7519 291.849 53.9248L292.099 54.8932C292.783 54.7169 293.467 54.5263 294.148 54.322L293.861 53.3641ZM291.849 53.9248C291.174 54.0986 290.469 54.2656 289.74 54.4258L289.955 55.4025C290.694 55.24 291.411 55.0703 292.099 54.8932L291.849 53.9248ZM285.467 55.2537C284.045 55.4979 282.594 55.7206 281.157 55.9224L281.297 56.9127C282.742 56.7097 284.203 56.4855 285.637 56.2393L285.467 55.2537ZM276.827 56.479C275.284 56.6604 273.817 56.816 272.488 56.9472L272.587 57.9424C273.92 57.8107 275.394 57.6543 276.944 57.4721L276.827 56.479ZM268.136 57.3385C267.454 57.3936 266.912 57.4342 266.54 57.4611C266.354 57.4746 266.21 57.4846 266.114 57.4912C266.065 57.4945 266.029 57.497 266.004 57.4986C265.992 57.4995 265.983 57.5001 265.977 57.5005C265.973 57.5007 265.971 57.5008 265.97 57.5009C265.969 57.501 265.968 57.501 265.968 57.501C265.968 57.501 265.968 57.501 265.968 57.501C265.968 57.5011 265.968 57.5011 265.968 57.5011H265.967C265.967 57.5011 265.967 57.5011 266 58C266.033 58.4989 266.033 58.4989 266.033 58.4989C266.033 58.4989 266.033 58.4989 266.033 58.4989C266.033 58.4989 266.033 58.4989 266.033 58.4989C266.033 58.4989 266.033 58.4989 266.033 58.4989C266.034 58.4989 266.034 58.4988 266.035 58.4988C266.037 58.4987 266.039 58.4985 266.042 58.4983C266.049 58.4979 266.058 58.4972 266.071 58.4964C266.096 58.4947 266.133 58.4922 266.182 58.4889C266.28 58.4822 266.424 58.4721 266.612 58.4585C266.986 58.4315 267.532 58.3906 268.217 58.3352L268.136 57.3385ZM266 57.5H263.992V58.5H266V57.5ZM259.976 57.5H255.96V58.5H259.976V57.5ZM251.944 57.5H247.927V58.5H251.944V57.5ZM243.911 57.5H239.895V58.5H243.911V57.5ZM235.879 57.5H231.863V58.5H235.879V57.5ZM227.847 57.5H223.831V58.5H227.847V57.5ZM219.815 57.5H215.798V58.5H219.815V57.5ZM211.782 57.5H207.766V58.5H211.782V57.5ZM203.75 57.5H199.734V58.5H203.75V57.5ZM195.718 57.5H191.702V58.5H195.718V57.5ZM187.685 57.5H183.669V58.5H187.685V57.5ZM179.653 57.5H175.637V58.5H179.653V57.5ZM171.621 57.5H167.605V58.5H171.621V57.5ZM163.589 57.5H159.573V58.5H163.589V57.5ZM155.556 57.5H151.54V58.5H155.556V57.5ZM147.524 57.5H143.508V58.5H147.524V57.5ZM139.492 57.5H135.476V58.5H139.492V57.5ZM131.46 57.5H127.444V58.5H131.46V57.5ZM123.427 57.5H119.411V58.5H123.427V57.5ZM115.395 57.5H111.379V58.5H115.395V57.5ZM107.363 57.5H103.347V58.5H107.363V57.5ZM99.3307 57.5H95.3145V58.5H99.3307V57.5ZM91.2984 57.5H87.2823V58.5H91.2984V57.5ZM83.2661 57.5H79.25V58.5H83.2661V57.5ZM75.2339 57.5H71.2178V58.5H75.2339V57.5ZM67.2016 57.5H63.1855V58.5H67.2016V57.5ZM59.1694 57.5H55.1532V58.5H59.1694V57.5ZM51.1371 57.5H47.121V58.5H51.1371V57.5ZM43.1049 57.5H39.0887V58.5H43.1049V57.5ZM35.0726 57.5H31.0565V58.5H35.0726V57.5ZM27.0403 57.5H23.0242V58.5H27.0403V57.5ZM19.0081 57.5H17V58.5H19.0081V57.5ZM17 57.5C16.27 57.5 15.5509 57.5474 14.8456 57.6394L14.9749 58.631C15.6375 58.5446 16.3134 58.5 17 58.5V57.5ZM10.6839 58.7522C9.34219 59.3086 8.09003 60.0368 6.95479 60.9091L7.56412 61.7021C8.63086 60.8823 9.80708 60.1984 11.0669 59.676L10.6839 58.7522ZM3.90915 63.9548C3.03676 65.09 2.3086 66.3422 1.75223 67.6839L2.67595 68.0669C3.19839 66.8071 3.88232 65.6309 4.70207 64.5641L3.90915 63.9548ZM0.639437 71.8456C0.547432 72.5509 0.5 73.27 0.5 74H1.5C1.5 73.3134 1.54461 72.6375 1.63104 71.9749L0.639437 71.8456ZM0.5 74V75.9167H1.5V74H0.5ZM0.5 79.75V83.5833H1.5V79.75H0.5ZM0.5 87.4167V91.25H1.5V87.4167H0.5ZM0.5 95.0833V98.9167H1.5V95.0833H0.5ZM0.5 102.75V106.583H1.5V102.75H0.5ZM0.5 110.417V114.25H1.5V110.417H0.5ZM0.5 118.083V121.917H1.5V118.083H0.5ZM0.5 125.75V129.583H1.5V125.75H0.5ZM0.5 133.417V137.25H1.5V133.417H0.5ZM0.5 141.083V144.917H1.5V141.083H0.5ZM0.5 148.75V152.583H1.5V148.75H0.5ZM0.5 156.417V160.25H1.5V156.417H0.5ZM0.5 164.083V166H1.5V164.083H0.5ZM0.5 166C0.5 166.73 0.547432 167.449 0.639437 168.154L1.63104 168.025C1.54461 167.363 1.5 166.687 1.5 166H0.5ZM1.75223 172.316C2.3086 173.658 3.03677 174.91 3.90915 176.045L4.70207 175.436C3.88232 174.369 3.19839 173.193 2.67595 171.933L1.75223 172.316ZM6.9548 179.091C8.09003 179.963 9.34219 180.691 10.6839 181.248L11.0669 180.324C9.80709 179.802 8.63086 179.118 7.56412 178.298L6.9548 179.091ZM14.8456 182.361C15.5509 182.453 16.2701 182.5 17 182.5V181.5C16.3134 181.5 15.6375 181.455 14.9749 181.369L14.8456 182.361ZM17 182.5H19.0058V181.5H17V182.5ZM23.0173 182.5H27.0287V181.5H23.0173V182.5ZM31.0402 182.5H35.0517V181.5H31.0402V182.5ZM39.0632 182.5H43.0747V181.5H39.0632V182.5ZM47.0862 182.5H51.0977V181.5H47.0862V182.5ZM55.1092 182.5H59.1207V181.5H55.1092V182.5ZM63.1322 182.5H67.1437V181.5H63.1322V182.5ZM71.1552 182.5H75.1667V181.5H71.1552V182.5ZM79.1782 182.5H83.1897V181.5H79.1782V182.5ZM87.2012 182.5H91.2127V181.5H87.2012V182.5ZM95.2242 182.5H99.2356V181.5H95.2242V182.5ZM103.247 182.5H107.259V181.5H103.247V182.5ZM111.27 182.5H115.282V181.5H111.27V182.5ZM119.293 182.5H123.305V181.5H119.293V182.5ZM127.316 182.5H131.328V181.5H127.316V182.5ZM135.339 182.5H139.351V181.5H135.339V182.5ZM143.362 182.5H147.374V181.5H143.362V182.5ZM151.385 182.5H155.397V181.5H151.385V182.5ZM159.408 182.5H163.42V181.5H159.408V182.5ZM167.431 182.5H171.443V181.5H167.431V182.5ZM175.454 182.5H179.466V181.5H175.454V182.5ZM183.477 182.5H187.489V181.5H183.477V182.5ZM191.5 182.5H195.511V181.5H191.5V182.5ZM199.523 182.5H203.534V181.5H199.523V182.5ZM207.546 182.5H211.557V181.5H207.546V182.5ZM215.569 182.5H219.58V181.5H215.569V182.5ZM223.592 182.5H227.603V181.5H223.592V182.5ZM231.615 182.5H235.626V181.5H231.615V182.5ZM239.638 182.5H243.649V181.5H239.638V182.5ZM247.661 182.5H251.672V181.5H247.661V182.5ZM255.684 182.5H259.695V181.5H255.684V182.5ZM263.707 182.5H267.718V181.5H263.707V182.5ZM271.73 182.5H275.741V181.5H271.73V182.5ZM279.753 182.5H283.764V181.5H279.753V182.5ZM287.776 182.5H291.787V181.5H287.776V182.5ZM295.799 182.5H299.81V181.5H295.799V182.5ZM303.822 182.5H307.833V181.5H303.822V182.5ZM311.845 182.5H315.856V181.5H311.845V182.5ZM319.868 182.5H323.879V181.5H319.868V182.5ZM327.891 182.5H331.902V181.5H327.891V182.5ZM335.914 182.5H339.925V181.5H335.914V182.5ZM343.937 182.5H347.948V181.5H343.937V182.5ZM351.96 182.5H355.971V181.5H351.96V182.5ZM359.983 182.5H363.994V181.5H359.983V182.5ZM368.006 182.5H372.017V181.5H368.006V182.5ZM376.029 182.5H380.04V181.5H376.029V182.5ZM384.052 182.5H388.063V181.5H384.052V182.5ZM392.075 182.5H396.086V181.5H392.075V182.5ZM400.098 182.5H404.109V181.5H400.098V182.5ZM408.121 182.5H412.132V181.5H408.121V182.5ZM416.144 182.5H420.155V181.5H416.144V182.5ZM424.167 182.5H428.178V181.5H424.167V182.5ZM432.19 182.5H436.202V181.5H432.19V182.5ZM440.213 182.5H444.225V181.5H440.213V182.5ZM448.236 182.5H452.247V181.5H448.236V182.5ZM456.259 182.5H460.271V181.5H456.259V182.5ZM464.282 182.5H468.294V181.5H464.282V182.5ZM472.305 182.5H476.317V181.5H472.305V182.5ZM480.328 182.5H484.34V181.5H480.328V182.5ZM488.351 182.5H492.363V181.5H488.351V182.5ZM496.374 182.5H500.386V181.5H496.374V182.5ZM504.397 182.5H508.409V181.5H504.397V182.5ZM512.42 182.5H516.432V181.5H512.42V182.5ZM520.443 182.5H524.455V181.5H520.443V182.5ZM528.466 182.5H532.478V181.5H528.466V182.5ZM536.489 182.5H540.501V181.5H536.489V182.5ZM544.512 182.5H548.523V181.5H544.512V182.5ZM552.535 182.5H556.546V181.5H552.535V182.5ZM560.558 182.5H564.569V181.5H560.558V182.5ZM568.581 182.5H572.592V181.5H568.581V182.5ZM576.604 182.5H580.615V181.5H576.604V182.5ZM584.627 182.5H588.638V181.5H584.627V182.5ZM592.65 182.5H596.661V181.5H592.65V182.5ZM600.673 182.5H604.684V181.5H600.673V182.5ZM608.696 182.5H612.707V181.5H608.696V182.5ZM616.719 182.5H620.73V181.5H616.719V182.5ZM624.742 182.5H628.753V181.5H624.742V182.5ZM632.764 182.5H636.776V181.5H632.764V182.5ZM640.787 182.5H644.799V181.5H640.787V182.5ZM648.81 182.5H652.822V181.5H648.81V182.5ZM656.833 182.5H660.845V181.5H656.833V182.5ZM664.856 182.5H668.868V181.5H664.856V182.5ZM672.879 182.5H676.891V181.5H672.879V182.5ZM680.902 182.5H684.914V181.5H680.902V182.5ZM688.925 182.5H692.937V181.5H688.925V182.5ZM696.948 182.5H700.96V181.5H696.948V182.5ZM704.971 182.5H708.982V181.5H704.971V182.5ZM712.994 182.5H715V181.5H712.994V182.5ZM715 182.5C715.73 182.5 716.449 182.453 717.154 182.361L717.025 181.369C716.362 181.455 715.687 181.5 715 181.5V182.5ZM721.316 181.248C722.658 180.691 723.91 179.963 725.045 179.091L724.436 178.298C723.369 179.118 722.193 179.802 720.933 180.324L721.316 181.248ZM728.091 176.045C728.963 174.91 729.691 173.658 730.248 172.316L729.324 171.933C728.802 173.193 728.118 174.369 727.298 175.436L728.091 176.045ZM731.361 168.154C731.453 167.449 731.5 166.73 731.5 166H730.5C730.5 166.687 730.455 167.363 730.369 168.025L731.361 168.154ZM731.5 166V164.083H730.5V166H731.5ZM731.5 160.25V156.417H730.5V160.25H731.5ZM731.5 152.583V148.75H730.5V152.583H731.5ZM731.5 144.917V141.083H730.5V144.917H731.5ZM731.5 137.25V133.417H730.5V137.25H731.5ZM731.5 129.583V125.75H730.5V129.583H731.5ZM731.5 121.917V118.083H730.5V121.917H731.5ZM731.5 114.25V110.417H730.5V114.25H731.5ZM731.5 106.583V102.75H730.5V106.583H731.5ZM731.5 98.9167V95.0833H730.5V98.9167H731.5ZM731.5 91.25V87.4167H730.5V91.25H731.5ZM731.5 83.5833V79.75H730.5V83.5833H731.5ZM731.5 75.9167V74H730.5V75.9167H731.5ZM731.5 74C731.5 73.27 731.453 72.5509 731.361 71.8456L730.369 71.9749C730.455 72.6375 730.5 73.3134 730.5 74H731.5ZM730.248 67.6839C729.691 66.3422 728.963 65.09 728.091 63.9548L727.298 64.5641C728.118 65.6309 728.802 66.8071 729.324 68.0669L730.248 67.6839ZM725.045 60.9091C723.91 60.0368 722.658 59.3086 721.316 58.7522L720.933 59.676C722.193 60.1984 723.369 60.8823 724.436 61.7021L725.045 60.9091ZM717.154 57.6394C716.449 57.5474 715.73 57.5 715 57.5V58.5C715.687 58.5 716.362 58.5446 717.025 58.631L717.154 57.6394ZM715 57.5H712.992V58.5H715V57.5ZM708.976 57.5H704.96V58.5H708.976V57.5ZM700.944 57.5H696.927V58.5H700.944V57.5ZM692.911 57.5H688.895V58.5H692.911V57.5ZM684.879 57.5H680.863V58.5H684.879V57.5ZM676.847 57.5H672.831V58.5H676.847V57.5ZM668.815 57.5H664.798V58.5H668.815V57.5ZM660.782 57.5H656.766V58.5H660.782V57.5ZM652.75 57.5H648.734V58.5H652.75V57.5ZM644.718 57.5H640.702V58.5H644.718V57.5ZM636.685 57.5H632.669V58.5H636.685V57.5ZM628.653 57.5H624.637V58.5H628.653V57.5ZM620.621 57.5H616.605V58.5H620.621V57.5ZM612.589 57.5H608.573V58.5H612.589V57.5ZM604.556 57.5H600.54V58.5H604.556V57.5ZM596.524 57.5H592.508V58.5H596.524V57.5ZM588.492 57.5H584.476V58.5H588.492V57.5ZM580.46 57.5H576.444V58.5H580.46V57.5ZM572.427 57.5H568.411V58.5H572.427V57.5ZM564.395 57.5H560.379V58.5H564.395V57.5ZM556.363 57.5H552.347V58.5H556.363V57.5ZM548.331 57.5H544.315V58.5H548.331V57.5ZM540.298 57.5H536.282V58.5H540.298V57.5ZM532.266 57.5H528.25V58.5H532.266V57.5ZM524.234 57.5H520.218V58.5H524.234V57.5ZM516.202 57.5H512.185V58.5H516.202V57.5ZM508.169 57.5H504.153V58.5H508.169V57.5ZM500.137 57.5H496.121V58.5H500.137V57.5ZM492.105 57.5H488.089V58.5H492.105V57.5ZM484.073 57.5H480.056V58.5H484.073V57.5ZM476.04 57.5H472.024V58.5H476.04V57.5ZM468.008 57.5H466V58.5H468.008V57.5ZM466 58C466.033 57.5011 466.033 57.5011 466.033 57.5011H466.032C466.032 57.5011 466.032 57.5011 466.032 57.501C466.032 57.501 466.032 57.501 466.032 57.501C466.032 57.501 466.031 57.501 466.03 57.5009C466.029 57.5008 466.027 57.5007 466.023 57.5005C466.017 57.5001 466.008 57.4995 465.996 57.4986C465.971 57.497 465.935 57.4945 465.886 57.4912C465.79 57.4846 465.646 57.4746 465.46 57.4611C465.088 57.4342 464.546 57.3936 463.864 57.3385L463.783 58.3352C464.468 58.3906 465.014 58.4315 465.388 58.4585C465.576 58.4721 465.72 58.4822 465.818 58.4889C465.867 58.4922 465.904 58.4947 465.929 58.4964C465.942 58.4972 465.951 58.4979 465.958 58.4983C465.961 58.4985 465.963 58.4987 465.965 58.4988C465.966 58.4988 465.966 58.4989 465.967 58.4989C465.967 58.4989 465.967 58.4989 465.967 58.4989C465.967 58.4989 465.967 58.4989 465.967 58.4989C465.967 58.4989 465.967 58.4989 465.967 58.4989C465.967 58.4989 465.967 58.4989 466 58ZM459.512 56.9472C458.183 56.816 456.716 56.6604 455.173 56.479L455.056 57.4721C456.606 57.6543 458.08 57.8107 459.413 57.9424L459.512 56.9472ZM450.842 55.9224C449.406 55.7206 447.955 55.4979 446.533 55.2537L446.363 56.2393C447.797 56.4855 449.258 56.7097 450.703 56.9127L450.842 55.9224ZM442.26 54.4258C441.531 54.2656 440.826 54.0986 440.151 53.9248L439.901 54.8932C440.589 55.0703 441.306 55.24 442.045 55.4025L442.26 54.4258ZM440.151 53.9248C439.479 53.7519 438.808 53.5648 438.139 53.3641L437.852 54.322C438.533 54.5263 439.216 54.7169 439.901 54.8932L440.151 53.9248ZM434.183 52.0168C432.89 51.5244 431.604 50.9843 430.325 50.4003L429.91 51.31C431.207 51.9025 432.513 52.451 433.827 52.9513L434.183 52.0168ZM426.568 48.5502C425.341 47.9025 424.122 47.2171 422.913 46.4976L422.401 47.3569C423.625 48.0847 424.858 48.7785 426.101 49.4346L426.568 48.5502ZM419.359 44.2699C418.197 43.5047 417.044 42.7105 415.903 41.8905L415.32 42.7027C416.471 43.5301 417.635 44.3321 418.809 45.1051L419.359 44.2699ZM412.54 39.3774C411.436 38.5211 410.344 37.6432 409.264 36.7469L408.625 37.5163C409.713 38.4193 410.814 39.3042 411.927 40.1675L412.54 39.3774ZM406.073 34.0135C405.022 33.0855 403.984 32.1425 402.961 31.1877L402.279 31.9188C403.308 32.8796 404.353 33.8288 405.411 34.7632L406.073 34.0135ZM399.924 28.28C398.92 27.2937 397.931 26.2987 396.959 25.2984L396.242 25.9952C397.219 27.0009 398.213 28.0015 399.224 28.9935L399.924 28.28ZM394.061 22.2483C393.097 21.2121 392.153 20.1739 391.228 19.1376L390.482 19.8034C391.411 20.8446 392.36 21.8878 393.329 22.9292L394.061 22.2483ZM388.458 15.9717C387.531 14.8919 386.627 13.8182 385.748 12.7549L384.977 13.3922C385.86 14.46 386.768 15.5384 387.699 16.623L388.458 15.9717ZM383.095 9.48976C382.653 8.93525 382.218 8.38499 381.79 7.83963L381.003 8.45674C381.433 9.00428 381.869 9.55676 382.314 10.1135L383.095 9.48976ZM381.79 7.83963C381.321 7.24105 380.819 6.67904 380.289 6.15365L379.585 6.8636C380.086 7.36014 380.56 7.89118 381.003 8.45674L381.79 7.83963ZM376.731 3.39575C375.439 2.62203 374.063 2.00386 372.636 1.54066L372.327 2.49176C373.685 2.93263 374.992 3.52014 376.217 4.2537L376.731 3.39575ZM368.243 0.615377C366.753 0.461541 365.247 0.461541 363.757 0.615377L363.859 1.61009C365.281 1.4633 366.719 1.4633 368.141 1.61009L368.243 0.615377ZM359.364 1.54066C357.937 2.00386 356.561 2.62203 355.269 3.39576L355.783 4.2537C357.008 3.52014 358.315 2.93263 359.673 2.49176L359.364 1.54066ZM351.711 6.15365C351.181 6.67905 350.679 7.24105 350.21 7.83963L350.997 8.45674C351.44 7.89118 351.914 7.36014 352.415 6.8636L351.711 6.15365Z" fill="#333D45"/>
</svg>
