<svg width="36" height="36" viewBox="0 0 36 36" fill="none" xmlns="http://www.w3.org/2000/svg">
<path d="M22.5022 24.25H20.9922C20.5822 24.25 20.2422 23.91 20.2422 23.5C20.2422 23.09 20.5822 22.75 20.9922 22.75H22.5022C25.1222 22.75 27.2522 20.62 27.2522 18C27.2522 15.38 25.1222 13.25 22.5022 13.25H21.0022C20.5922 13.25 20.2522 12.91 20.2522 12.5C20.2522 12.09 20.5822 11.75 21.0022 11.75H22.5022C25.9522 11.75 28.7522 14.55 28.7522 18C28.7522 21.45 25.9522 24.25 22.5022 24.25Z" fill="#333D45"/>
<path d="M15.002 24.25H13.502C10.052 24.25 7.25195 21.45 7.25195 18C7.25195 14.55 10.052 11.75 13.502 11.75H15.002C15.412 11.75 15.752 12.09 15.752 12.5C15.752 12.91 15.412 13.25 15.002 13.25H13.502C10.882 13.25 8.75195 15.38 8.75195 18C8.75195 20.62 10.882 22.75 13.502 22.75H15.002C15.412 22.75 15.752 23.09 15.752 23.5C15.752 23.91 15.412 24.25 15.002 24.25Z" fill="#333D45"/>
<path d="M22.002 18.75H14.002C13.592 18.75 13.252 18.41 13.252 18C13.252 17.59 13.592 17.25 14.002 17.25H22.002C22.412 17.25 22.752 17.59 22.752 18C22.752 18.41 22.412 18.75 22.002 18.75Z" fill="#333D45"/>
</svg>
