<svg width="36" height="36" viewBox="0 0 36 36" fill="none" xmlns="http://www.w3.org/2000/svg">
<path d="M17.05 20.95L15.2 22.8C14.81 23.19 14.19 23.19 13.79 22.81C13.68 22.7 13.57 22.6 13.46 22.49C12.43 21.45 11.5 20.36 10.67 19.22C9.85 18.08 9.19 16.94 8.71 15.81C8.24 14.67 8 13.58 8 12.54C8 11.86 8.12 11.21 8.36 10.61C8.6 10 8.98 9.44 9.51 8.94C10.15 8.31 10.85 8 11.59 8C11.87 8 12.15 8.06 12.4 8.18C12.66 8.3 12.89 8.48 13.07 8.74L15.39 12.01C15.57 12.26 15.7 12.49 15.79 12.71C15.88 12.92 15.93 13.13 15.93 13.32C15.93 13.56 15.86 13.8 15.72 14.03C15.59 14.26 15.4 14.5 15.16 14.74L14.4 15.53C14.29 15.64 14.24 15.77 14.24 15.93C14.24 16.01 14.25 16.08 14.27 16.16C14.3 16.24 14.33 16.3 14.35 16.36C14.53 16.69 14.84 17.12 15.28 17.64C15.73 18.16 16.21 18.69 16.73 19.22C16.83 19.32 16.94 19.42 17.04 19.52C17.44 19.91 17.45 20.55 17.05 20.95Z" fill="#333D45"/>
<path d="M27.9696 24.3291C27.9696 24.6091 27.9196 24.8991 27.8196 25.1791C27.7896 25.2591 27.7596 25.3391 27.7196 25.4191C27.5496 25.7791 27.3296 26.1191 27.0396 26.4391C26.5496 26.9791 26.0096 27.3691 25.3996 27.6191C25.3896 27.6191 25.3796 27.6291 25.3696 27.6291C24.7796 27.8691 24.1396 27.9991 23.4496 27.9991C22.4296 27.9991 21.3396 27.7591 20.1896 27.2691C19.0396 26.7791 17.8896 26.1191 16.7496 25.2891C16.3596 24.9991 15.9696 24.7091 15.5996 24.3991L18.8696 21.1291C19.1496 21.3391 19.3996 21.4991 19.6096 21.6091C19.6596 21.6291 19.7196 21.6591 19.7896 21.6891C19.8696 21.7191 19.9496 21.7291 20.0396 21.7291C20.2096 21.7291 20.3396 21.6691 20.4496 21.5591L21.2096 20.8091C21.4596 20.5591 21.6996 20.3691 21.9296 20.2491C22.1596 20.1091 22.3896 20.0391 22.6396 20.0391C22.8296 20.0391 23.0296 20.0791 23.2496 20.1691C23.4696 20.2591 23.6996 20.3891 23.9496 20.5591L27.2596 22.9091C27.5196 23.0891 27.6996 23.2991 27.8096 23.5491C27.9096 23.7991 27.9696 24.0491 27.9696 24.3291Z" fill="#333D45"/>
</svg>
