<svg width="36" height="36" viewBox="0 0 36 36" fill="none" xmlns="http://www.w3.org/2000/svg">
<g clip-path="url(#clip0_365_17327)">
<path d="M13.6505 26.9098C13.6205 26.9098 13.5805 26.9298 13.5505 26.9298C11.6105 25.9698 10.0305 24.3798 9.06055 22.4398C9.06055 22.4098 9.08055 22.3698 9.08055 22.3398C10.3005 22.6998 11.5605 22.9698 12.8105 23.1798C13.0305 24.4398 13.2905 25.6898 13.6505 26.9098Z" fill="#333D45"/>
<path d="M26.9391 22.4498C25.9491 24.4398 24.2991 26.0498 22.2891 27.0198C22.6691 25.7498 22.9891 24.4698 23.1991 23.1798C24.4591 22.9698 25.6991 22.6998 26.9191 22.3398C26.9091 22.3798 26.9391 22.4198 26.9391 22.4498Z" fill="#333D45"/>
<path d="M27.0191 13.7105C25.7591 13.3305 24.4891 13.0205 23.1991 12.8005C22.9891 11.5105 22.6791 10.2305 22.2891 8.98047C24.3591 9.97047 26.0291 11.6405 27.0191 13.7105Z" fill="#333D45"/>
<path d="M13.6505 9.08859C13.2905 10.3086 13.0305 11.5486 12.8205 12.8086C11.5305 13.0086 10.2505 13.3286 8.98047 13.7086C9.95047 11.6986 11.5605 10.0486 13.5505 9.05859C13.5805 9.05859 13.6205 9.08859 13.6505 9.08859Z" fill="#333D45"/>
<path d="M21.4898 12.59C19.1698 12.33 16.8298 12.33 14.5098 12.59C14.7598 11.22 15.0798 9.85 15.5298 8.53C15.5498 8.45 15.5398 8.39 15.5498 8.31C16.3398 8.12 17.1498 8 17.9998 8C18.8398 8 19.6598 8.12 20.4398 8.31C20.4498 8.39 20.4498 8.45 20.4698 8.53C20.9198 9.86 21.2398 11.22 21.4898 12.59Z" fill="#333D45"/>
<path d="M12.59 21.4917C11.21 21.2417 9.85 20.9217 8.53 20.4717C8.45 20.4517 8.39 20.4617 8.31 20.4517C8.12 19.6617 8 18.8517 8 18.0017C8 17.1617 8.12 16.3417 8.31 15.5617C8.39 15.5517 8.45 15.5517 8.53 15.5317C9.86 15.0917 11.21 14.7617 12.59 14.5117C12.34 16.8317 12.34 19.1717 12.59 21.4917Z" fill="#333D45"/>
<path d="M28.0002 18.0017C28.0002 18.8517 27.8802 19.6617 27.6902 20.4517C27.6102 20.4617 27.5502 20.4517 27.4702 20.4717C26.1402 20.9117 24.7802 21.2417 23.4102 21.4917C23.6702 19.1717 23.6702 16.8317 23.4102 14.5117C24.7802 14.7617 26.1502 15.0817 27.4702 15.5317C27.5502 15.5517 27.6102 15.5617 27.6902 15.5617C27.8802 16.3517 28.0002 17.1617 28.0002 18.0017Z" fill="#333D45"/>
<path d="M21.4898 23.4102C21.2398 24.7902 20.9198 26.1502 20.4698 27.4702C20.4498 27.5502 20.4498 27.6102 20.4398 27.6902C19.6598 27.8802 18.8398 28.0002 17.9998 28.0002C17.1498 28.0002 16.3398 27.8802 15.5498 27.6902C15.5398 27.6102 15.5498 27.5502 15.5298 27.4702C15.0898 26.1402 14.7598 24.7902 14.5098 23.4102C15.6698 23.5402 16.8298 23.6302 17.9998 23.6302C19.1698 23.6302 20.3398 23.5402 21.4898 23.4102Z" fill="#333D45"/>
<path d="M21.7633 21.7633C19.2622 22.0789 16.7378 22.0789 14.2367 21.7633C13.9211 19.2622 13.9211 16.7378 14.2367 14.2367C16.7378 13.9211 19.2622 13.9211 21.7633 14.2367C22.0789 16.7378 22.0789 19.2622 21.7633 21.7633Z" fill="#333D45"/>
</g>
<defs>
<clipPath id="clip0_365_17327">
<rect width="24" height="24" fill="white" transform="translate(6 6)"/>
</clipPath>
</defs>
</svg>
