<svg width="36" height="36" viewBox="0 0 36 36" fill="none" xmlns="http://www.w3.org/2000/svg">
<path d="M23 9.5H13C10 9.5 8 11 8 14.5V21.5C8 25 10 26.5 13 26.5H23C26 26.5 28 25 28 21.5V14.5C28 11 26 9.5 23 9.5ZM23.47 15.59L20.34 18.09C19.68 18.62 18.84 18.88 18 18.88C17.16 18.88 16.31 18.62 15.66 18.09L12.53 15.59C12.21 15.33 12.16 14.85 12.41 14.53C12.67 14.21 13.14 14.15 13.46 14.41L16.59 16.91C17.35 17.52 18.64 17.52 19.4 16.91L22.53 14.41C22.85 14.15 23.33 14.2 23.58 14.53C23.84 14.85 23.79 15.33 23.47 15.59Z" fill="#333D45"/>
</svg>
