<svg width="160" height="160" viewBox="0 0 160 160" fill="none" xmlns="http://www.w3.org/2000/svg">
<path d="M112.218 58.8523C117.521 66.2782 120.655 75.3551 120.655 85.1571C120.655 110.18 100.297 130.536 75.2762 130.536C50.2551 130.536 29.8972 110.178 29.8972 85.1571C29.8972 60.136 50.2551 39.7781 75.2762 39.7781C85.0762 39.7781 94.1551 42.9121 101.581 48.2152L110.793 39.0028C100.953 31.4126 88.6374 26.8828 75.2762 26.8828C43.1424 26.8828 17 53.0252 17 85.159C17 117.293 43.1424 143.435 75.2762 143.435C107.41 143.435 133.552 117.293 133.552 85.159C133.552 71.7978 129.023 59.4825 121.432 49.6419L112.218 58.8523Z" fill="#0884F7"/>
<path d="M105.419 65.6465L98.608 72.4575C100.671 76.2314 101.844 80.5582 101.844 85.1537C101.844 99.8044 89.9255 111.723 75.2748 111.723C60.624 111.723 48.7051 99.8044 48.7051 85.1537C48.7051 70.503 60.624 58.584 75.2748 58.584C79.8703 58.584 84.197 59.7576 87.9709 61.8204L94.7839 55.0093C89.1657 51.365 82.4706 49.2422 75.2748 49.2422C55.4408 49.2422 39.3613 65.3216 39.3613 85.1556C39.3613 104.99 55.4408 121.069 75.2748 121.069C95.1087 121.069 111.188 104.99 111.188 85.1556C111.186 77.9598 109.063 71.2647 105.419 65.6465Z" fill="#0884F7"/>
<path d="M75.2723 100.517C83.7566 100.517 90.6345 93.6394 90.6345 85.1551C90.6345 76.6708 83.7566 69.793 75.2723 69.793C66.788 69.793 59.9102 76.6708 59.9102 85.1551C59.9102 93.6394 66.788 100.517 75.2723 100.517Z" fill="#F77B08"/>
<path d="M149.001 24.514L138.743 21.411L136.208 11L117.385 28.8175L119.427 37.2043L73.373 83.2561L77.174 87.0551L123.819 40.4097L130.178 42.3315L149.001 24.514Z" fill="#F77B08"/>
</svg>
