<svg width="160" height="160" viewBox="0 0 160 160" fill="none" xmlns="http://www.w3.org/2000/svg">
<path d="M90.4258 59.2031C101.288 63.8997 108.891 74.7054 108.891 87.2902C108.891 99.875 101.288 110.683 90.4258 115.377C128.79 111.078 146.776 87.2902 146.776 87.2902C146.776 87.2902 128.79 63.5022 90.4258 59.2031Z" fill="#F77B08"/>
<path d="M47.7072 87.2909C47.7072 74.7351 55.274 63.9512 66.0942 59.2383C28.4632 63.6426 13.2188 87.2909 13.2188 87.2909C13.2188 87.2909 28.4614 110.939 66.0942 115.343C55.2759 110.631 47.7072 99.8466 47.7072 87.2909Z" fill="#0884F7"/>
<path d="M78.2985 67.0703C67.1297 67.0703 58.0742 76.1241 58.0742 87.2946C58.0742 98.4634 67.1279 107.519 78.2985 107.519C89.4691 107.519 98.5228 98.4652 98.5228 87.2946C98.521 76.1241 89.4672 67.0703 78.2985 67.0703ZM78.2985 95.1974C73.9341 95.1974 70.3958 91.659 70.3958 87.2946C70.3958 82.9303 73.9341 79.3919 78.2985 79.3919C82.6629 79.3919 86.2013 82.9303 86.2013 87.2946C86.1995 91.659 82.6629 95.1974 78.2985 95.1974ZM89.0896 78.0902C87.4938 78.0902 86.2013 76.7958 86.2013 75.2018C86.2013 73.606 87.4938 72.3134 89.0896 72.3134C90.6854 72.3134 91.978 73.606 91.978 75.2018C91.978 76.7958 90.6854 78.0902 89.0896 78.0902Z" fill="#0884F7"/>
<path d="M41.4826 57.08C43.9534 56.2921 46.5314 55.5641 49.2328 54.9214L36.9403 42.6289C34.2588 43.2788 31.6627 43.9869 29.1465 44.7439L41.4826 57.08Z" fill="#F77B08"/>
<path d="M77.2603 38C76.4307 38 75.6137 38.0127 74.7949 38.0236V51.7413C75.8352 51.7177 76.8609 51.6813 77.9248 51.6813C79.2392 51.6813 80.5209 51.7195 81.8027 51.7558V38.0599C80.3031 38.0254 78.7926 38 77.2603 38Z" fill="#0884F7"/>
<path d="M119.347 42.9375L107.289 54.9958C109.989 55.6312 112.581 56.3447 115.077 57.1163L127.145 45.0489C124.621 44.2955 122.02 43.5911 119.347 42.9375Z" fill="#0884F7"/>
</svg>
